<?xml version="1.0" encoding="utf-8"?>
<svg version="1.1" id="Layer_1" xmlns="http://www.w3.org/2000/svg" xmlns:xlink="http://www.w3.org/1999/xlink"
    width="64"
   height="64"
   viewBox="0 0 64 64">
  <path
     d="M54.33,52.661c0,1.196 -0.944,2.44 -2.098,2.761l-17.97,5.013c-1.153,0.321 -3.041,0.321 -4.193,0l-17.968,-5.013c-1.153,-0.32 -2.098,-1.564 -2.098,-2.761V34.853c0,-1.196 0,-3.156 0,-4.354v-17.81c0,-1.196 0.944,-2.44 2.098,-2.761l17.968,-5.013c1.152,-0.321 3.04,-0.321 4.193,0l17.97,5.013c1.153,0.32 2.098,1.564 2.098,2.761v17.81c0,1.197 0,3.157 0,4.354V52.661z"
      fill="#006064"
    />
  <path
     d="M15.962,52.157c-1.153,-0.321 -2.098,-1.564 -2.098,-2.762V15.956c0,-1.197 0.944,-2.44 2.098,-2.762L30.069,9.26c1.152,-0.321 3.04,-0.321 4.193,0l14.109,3.935c1.153,0.321 2.098,1.564 2.098,2.762v33.439c0,1.197 -0.944,2.44 -2.098,2.762l-14.109,3.935c-1.153,0.321 -3.041,0.321 -4.193,0L15.962,52.157z"
      fill="#006064"/>
  <path
     d="M27.438,24.822c-0.284,0.691 -0.532,1.459 -0.634,2.36c-0.388,3.461 2.275,6.228 5.756,6.228c3.479,0 6.301,-2.823 6.301,-6.305c0,-0.644 -0.303,-1.559 -0.303,-1.559c-0.273,1.823 -1.785,2.854 -1.785,2.854c0.927,-2.441 0.436,-4.647 -0.688,-6.258c-2.543,-3.645 -1.889,-6.121 -1.889,-6.121c-3.402,3.026 -3.196,6.36 -3.196,6.36c-0.313,-2.021 -2.866,-2.827 -2.866,-2.827c0.843,1.43 0.54,2.537 -0.025,3.762C27.696,24.209 27.438,24.822 27.438,24.822z"
      fill="#FDDB33"/>
  <path
     d="M31.002,22.197L31.002,22.197c-0.384,-1.854 -2.867,-2.642 -2.867,-2.642c0.22,0.373 0.36,0.724 0.44,1.06C29.393,20.867 31.002,22.197 31.002,22.197z"
      fill="#F9C032"/>
  <path
     d="M34.688,22.143c1.123,1.611 2.297,3.028 2.088,6.247l0,0c0.278,-0.734 0.489,-1.715 0.484,-2.505c0.009,-1.428 -0.452,-2.708 -1.174,-3.742c-2.543,-3.644 -1.889,-6.12 -1.889,-6.12c-0.574,0.51 -1.043,1.027 -1.43,1.536C32.898,18.64 33.353,20.229 34.688,22.143z"
      fill="#F9C032"/>
  <path
     d="M38.559,25.547c-0.152,1.018 -0.69,1.788 -1.137,2.271c-0.329,2.918 -2.646,5.232 -5.563,5.554c0.229,0.025 0.464,0.039 0.702,0.039c3.479,0 6.301,-2.823 6.301,-6.305C38.861,26.462 38.559,25.547 38.559,25.547z"
      fill="#F9C032"/>
  <path
     d="M37.857,18.384c0.145,0 0.264,-0.118 0.264,-0.264v-0.786h0.786c0.146,0 0.262,-0.117 0.262,-0.262s-0.116,-0.264 -0.262,-0.264h-0.786v-0.786c0,-0.145 -0.119,-0.262 -0.264,-0.262s-0.262,0.117 -0.262,0.262v0.786H36.81c-0.145,0 -0.263,0.119 -0.263,0.264s0.118,0.262 0.263,0.262h0.786v0.786C37.596,18.266 37.713,18.384 37.857,18.384z"
      fill="#FF7373"/>
  <path
     d="M42.653,18.58h-0.786v-0.786c0,-0.144 -0.117,-0.262 -0.262,-0.262s-0.264,0.118 -0.264,0.262v0.786h-0.787c-0.145,0 -0.261,0.118 -0.261,0.263c0,0.146 0.116,0.263 0.261,0.263h0.787v0.786c0,0.145 0.119,0.262 0.264,0.262s0.262,-0.117 0.262,-0.262v-0.786h0.786c0.145,0 0.264,-0.117 0.264,-0.263C42.917,18.698 42.798,18.58 42.653,18.58z"
      fill="#FF7373"/>
  <path
     d="M40.023,21.057h-0.786v-0.785c0,-0.145 -0.117,-0.263 -0.264,-0.263c-0.145,0 -0.262,0.117 -0.262,0.263v0.785h-0.786c-0.145,0 -0.262,0.118 -0.262,0.264c0,0.144 0.117,0.262 0.262,0.262h0.786v0.786c0,0.145 0.117,0.263 0.262,0.263c0.146,0 0.264,-0.118 0.264,-0.263v-0.786h0.786c0.145,0 0.262,-0.118 0.262,-0.262C40.285,21.175 40.168,21.057 40.023,21.057z"
      fill="#FF7373"/>
  <path
     d="M34.123,29.194c0.24,0.5 0.413,0.968 0.413,1.283c0,1.044 -0.847,1.892 -1.891,1.892c-1.045,0 -1.893,-0.848 -1.893,-1.892c0,-1.045 1.893,-3.757 1.893,-3.757s0.436,0.624 0.889,1.389L34.123,29.194z"
      fill="#FF7373"/>
  <path
     d="M22.434,46.751c-0.421,0 -0.756,-0.08 -1.004,-0.242c-0.247,-0.161 -0.425,-0.395 -0.532,-0.7c-0.106,-0.305 -0.159,-0.669 -0.159,-1.09h0.925c0,0.208 0.018,0.411 0.053,0.61c0.034,0.199 0.107,0.362 0.22,0.492s0.284,0.194 0.515,0.194c0.254,0 0.435,-0.073 0.545,-0.22c0.108,-0.146 0.179,-0.347 0.208,-0.598c0.028,-0.249 0.043,-0.534 0.043,-0.852c0,-0.316 -0.017,-0.586 -0.052,-0.809c-0.035,-0.222 -0.107,-0.392 -0.216,-0.51c-0.11,-0.118 -0.283,-0.178 -0.52,-0.178c-0.19,0 -0.352,0.06 -0.483,0.178c-0.135,0.118 -0.232,0.252 -0.295,0.401h-0.787v-3.753h3.019v0.926h-2.18l-0.062,1.937c0.116,-0.121 0.26,-0.216 0.43,-0.285c0.17,-0.068 0.363,-0.104 0.584,-0.104c0.38,0 0.679,0.089 0.895,0.268c0.216,0.18 0.369,0.424 0.458,0.735s0.134,0.669 0.134,1.072c0,0.357 -0.025,0.691 -0.077,0.999c-0.053,0.309 -0.143,0.576 -0.272,0.805c-0.13,0.228 -0.307,0.405 -0.532,0.532C23.064,46.688 22.778,46.751 22.434,46.751z"
      fill="#FFFFFF"/>
  <path
     d="M24.992,46.683v-7.006h0.978v3.304l1.608,-3.304h0.908l-1.384,3.088l1.609,3.918h-0.951l-1.341,-3.287l-0.45,0.813v2.474H24.992z"
      fill="#FFFFFF"/>
  <path
     d="M31.194,46.674v-7.006h0.925v4.178l1.35,-2.162h0.969l-1.177,1.955l1.142,3.044h-0.925l-0.935,-2.561l-0.424,0.641v1.911H31.194z"
      fill="#FFFFFF"/>
  <path
     d="M36.254,46.751c-0.41,0 -0.721,-0.081 -0.931,-0.246c-0.211,-0.164 -0.352,-0.396 -0.424,-0.696s-0.108,-0.648 -0.108,-1.046v-1.151c0,-0.421 0.038,-0.778 0.113,-1.076c0.074,-0.297 0.218,-0.524 0.428,-0.684c0.21,-0.158 0.518,-0.237 0.922,-0.237c0.363,0 0.644,0.059 0.842,0.177c0.199,0.119 0.336,0.294 0.412,0.528c0.074,0.233 0.112,0.522 0.112,0.869v0.294h-0.839v-0.304c0,-0.219 -0.016,-0.391 -0.043,-0.519c-0.029,-0.126 -0.081,-0.219 -0.157,-0.276c-0.074,-0.058 -0.181,-0.087 -0.319,-0.087c-0.15,0 -0.266,0.035 -0.346,0.104c-0.081,0.068 -0.134,0.186 -0.16,0.351c-0.025,0.163 -0.038,0.388 -0.038,0.67v1.573c0,0.428 0.038,0.713 0.119,0.857s0.226,0.216 0.434,0.216c0.155,0 0.271,-0.036 0.343,-0.107c0.072,-0.072 0.116,-0.175 0.138,-0.308c0.02,-0.133 0.03,-0.282 0.03,-0.449v-0.407h0.839v0.347c0,0.333 -0.04,0.621 -0.116,0.864c-0.079,0.242 -0.217,0.427 -0.417,0.554C36.89,46.688 36.611,46.751 36.254,46.751z"
      fill="#FFFFFF"/>
  <path
     d="M39.342,46.751c-0.197,0 -0.37,-0.056 -0.521,-0.169c-0.149,-0.111 -0.268,-0.256 -0.354,-0.432c-0.087,-0.176 -0.13,-0.362 -0.13,-0.558c0,-0.312 0.052,-0.574 0.155,-0.787c0.104,-0.213 0.247,-0.394 0.429,-0.54c0.182,-0.148 0.392,-0.275 0.631,-0.385s0.491,-0.217 0.757,-0.32v-0.354c0,-0.202 -0.012,-0.369 -0.035,-0.502c-0.022,-0.133 -0.07,-0.231 -0.143,-0.299c-0.072,-0.065 -0.18,-0.099 -0.324,-0.099c-0.126,0 -0.229,0.028 -0.307,0.086c-0.078,0.058 -0.134,0.141 -0.168,0.246c-0.035,0.106 -0.052,0.232 -0.052,0.377v0.251l-0.918,-0.035c0.012,-0.553 0.139,-0.961 0.381,-1.224s0.617,-0.394 1.124,-0.394c0.497,0 0.848,0.136 1.056,0.406c0.207,0.271 0.312,0.663 0.312,1.177v2.283c0,0.155 0.004,0.306 0.013,0.449c0.009,0.145 0.021,0.278 0.034,0.401c0.015,0.125 0.027,0.242 0.039,0.352h-0.847c-0.019,-0.093 -0.04,-0.21 -0.065,-0.352c-0.026,-0.14 -0.044,-0.269 -0.056,-0.384c-0.059,0.196 -0.169,0.379 -0.334,0.549C39.855,46.666 39.629,46.751 39.342,46.751zM39.704,45.955c0.092,0 0.179,-0.025 0.26,-0.077c0.08,-0.053 0.152,-0.11 0.216,-0.178c0.064,-0.065 0.106,-0.119 0.13,-0.159v-1.419c-0.145,0.08 -0.279,0.161 -0.406,0.242s-0.237,0.166 -0.333,0.255c-0.095,0.09 -0.171,0.19 -0.225,0.303c-0.056,0.113 -0.083,0.241 -0.083,0.385c0,0.202 0.038,0.36 0.112,0.477C39.451,45.897 39.561,45.955 39.704,45.955z"
      fill="#FFFFFF"/>
  <path
     d="M42.212,46.683v-7.006h0.925v7.006H42.212z"
      fill="#FFFFFF"/>
</svg>
