<?xml version="1.0" encoding="utf-8"?>
<svg version="1.1" id="Layer_1" xmlns="http://www.w3.org/2000/svg" xmlns:xlink="http://www.w3.org/1999/xlink"
    width="64"
   height="64"
   viewBox="0 0 64 64">
  <path
      d="M54.33,52.661c0,1.196 -0.944,2.44 -2.098,2.761l-17.97,5.013c-1.153,0.321 -3.041,0.321 -4.194,0l-17.967,-5.013c-1.153,-0.32 -2.098,-1.564 -2.098,-2.761V34.853c0,-1.196 0,-3.156 0,-4.354v-17.81c0,-1.196 0.944,-2.44 2.098,-2.761l17.967,-5.013c1.153,-0.321 3.041,-0.321 4.194,0l17.97,5.013c1.153,0.32 2.098,1.564 2.098,2.761v17.81c0,1.197 0,3.157 0,4.354V52.661z"

      fill="#3E2723"
      style= "fill-opacity=0.2"/>
  <path
      d="M15.961,52.157c-1.152,-0.321 -2.097,-1.564 -2.097,-2.762V15.956c0,-1.197 0.944,-2.44 2.097,-2.762L30.068,9.26c1.153,-0.321 3.041,-0.321 4.194,0l14.109,3.935c1.153,0.321 2.098,1.564 2.098,2.762v33.439c0,1.197 -0.944,2.44 -2.098,2.762l-14.109,3.935c-1.153,0.321 -3.041,0.321 -4.194,0L15.961,52.157z"
      fill="#3E2723"/>
  <path
      d="M31.264,50.13c-0.092,0.223 -0.171,0.469 -0.203,0.758c-0.125,1.111 0.73,2 1.848,2c1.116,0 2.021,-0.906 2.021,-2.024c0,-0.206 -0.097,-0.5 -0.097,-0.5c-0.088,0.585 -0.573,0.917 -0.573,0.917c0.298,-0.784 0.141,-1.492 -0.221,-2.009c-0.815,-1.17 -0.606,-1.965 -0.606,-1.965c-1.093,0.971 -1.025,2.041 -1.025,2.041c-0.101,-0.649 -0.921,-0.907 -0.921,-0.907c0.271,0.459 0.174,0.814 -0.008,1.207C31.347,49.935 31.264,50.13 31.264,50.13z"
      fill="#FDDB33"/>
  <path
      d="M32.407,49.287L32.407,49.287c-0.123,-0.594 -0.921,-0.847 -0.921,-0.847c0.071,0.12 0.116,0.232 0.143,0.34C31.891,48.861 32.407,49.287 32.407,49.287z"
      fill="#F9C032"/>
  <path
      d="M33.59,49.271c0.36,0.518 0.738,0.973 0.671,2.006l0,0c0.089,-0.236 0.156,-0.551 0.155,-0.804c0.002,-0.459 -0.146,-0.869 -0.377,-1.202c-0.815,-1.169 -0.606,-1.964 -0.606,-1.964c-0.184,0.163 -0.335,0.33 -0.458,0.493C33.017,48.146 33.162,48.657 33.59,49.271z"
      fill="#F9C032"/>
  <path
      d="M34.833,50.363c-0.049,0.327 -0.222,0.573 -0.365,0.729c-0.106,0.937 -0.849,1.68 -1.785,1.783c0.073,0.008 0.148,0.013 0.226,0.013c1.116,0 2.021,-0.906 2.021,-2.024C34.93,50.657 34.833,50.363 34.833,50.363z"
      fill="#F9C032"/>
  <path
      d="M34.608,48.064c0.046,0 0.084,-0.038 0.084,-0.086v-0.251h0.253c0.046,0 0.084,-0.038 0.084,-0.084s-0.038,-0.086 -0.084,-0.086h-0.253v-0.251c0,-0.046 -0.038,-0.084 -0.084,-0.084c-0.047,0 -0.084,0.038 -0.084,0.084v0.251h-0.253c-0.047,0 -0.084,0.04 -0.084,0.086s0.037,0.084 0.084,0.084h0.253v0.251C34.524,48.026 34.562,48.064 34.608,48.064z"
      fill="#FF7373"/>
  <path
      d="M36.147,48.128h-0.253v-0.253c0,-0.047 -0.037,-0.084 -0.084,-0.084s-0.084,0.037 -0.084,0.084v0.253h-0.253c-0.047,0 -0.084,0.037 -0.084,0.084s0.037,0.084 0.084,0.084h0.253v0.253c0,0.046 0.037,0.083 0.084,0.083s0.084,-0.037 0.084,-0.083v-0.253h0.253c0.046,0 0.084,-0.037 0.084,-0.084S36.193,48.128 36.147,48.128z"
      fill="#FF7373"/>
  <path
      d="M35.304,48.922h-0.253V48.67c0,-0.046 -0.037,-0.084 -0.085,-0.084c-0.046,0 -0.083,0.037 -0.083,0.084v0.252H34.63c-0.047,0 -0.084,0.038 -0.084,0.085c0,0.046 0.037,0.084 0.084,0.084h0.253v0.252c0,0.047 0.037,0.084 0.083,0.084c0.048,0 0.085,-0.037 0.085,-0.084v-0.252h0.253c0.046,0 0.084,-0.038 0.084,-0.084C35.388,48.96 35.35,48.922 35.304,48.922z"
      fill="#FF7373"/>
  <path
      d="M33.409,51.534c0.077,0.16 0.132,0.311 0.132,0.411c0,0.336 -0.271,0.608 -0.606,0.608c-0.335,0 -0.607,-0.272 -0.607,-0.608c0,-0.335 0.607,-1.205 0.607,-1.205s0.14,0.2 0.284,0.445L33.409,51.534z"
      fill="#FF7373"/>
  <path
      d="M27.554,22.275l-1.593,-0.279l-0.591,0.592c-0.073,0.074 -0.115,0.175 -0.115,0.278v4.776c0,0.219 0.177,0.395 0.396,0.395c0.166,0 3.296,-3.111 4.831,-4.648l-1.786,-1.777L27.554,22.275z"
      fill="#FCEF70"/>
  <path
      d="M30.481,23.389l-1.786,-1.777v3.555C29.354,24.516 29.996,23.873 30.481,23.389z"
      fill="#FFDA2C"/>
  <path
      d="M36.907,15.749l-2.156,-0.745c-0.005,-0.001 -0.01,-0.004 -0.017,-0.005v2.409c0.016,-0.006 0.029,-0.011 0.042,-0.016l2.155,-0.908c0.151,-0.063 0.247,-0.214 0.24,-0.378C37.169,15.944 37.063,15.803 36.907,15.749L36.907,15.749z"
      fill="#D20041"/>
  <path
      d="M34.568,19.254c-0.216,0 -0.394,-0.177 -0.394,-0.395v-3.873c0,-0.216 0.178,-0.393 0.394,-0.393c0.219,0 0.395,0.177 0.395,0.393v3.873C34.963,19.077 34.787,19.254 34.568,19.254z"
      fill="#38336B"/>
  <path
      d="M34.568,14.594L34.568,14.594v4.66l0,0c0.219,0 0.395,-0.177 0.395,-0.395v-3.873C34.963,14.771 34.787,14.594 34.568,14.594z"
      fill="#2E2654"/>
  <path
      d="M31.314,21.995l-2.396,-2.396c-0.153,-0.153 -0.404,-0.153 -0.559,0l-2.398,2.397l1.437,1.013l1.243,-0.896l1.841,1.275c0.475,-0.475 0.796,-0.8 0.833,-0.836C31.468,22.399 31.468,22.149 31.314,21.995L31.314,21.995z"
      fill="#F4F1F1"/>
  <path
      d="M31.314,21.995l-2.396,-2.396c-0.063,-0.062 -0.141,-0.1 -0.223,-0.11v2.664l1.786,1.236c0.475,-0.475 0.796,-0.8 0.833,-0.836C31.468,22.399 31.468,22.149 31.314,21.995z"
      fill="#E7DFDD"/>
  <path
      d="M38.6,22.234l-1.292,-1.293l-1.452,-0.282l-1.287,-0.158l-1.179,0.122l-1.559,0.303l-6.459,6.438c-0.115,0.114 -0.147,0.283 -0.087,0.43c0.062,0.146 0.204,0.243 0.365,0.244l12.672,0.009l0,0c0.104,0 0.204,-0.044 0.277,-0.116c0.075,-0.074 0.117,-0.174 0.117,-0.279v-5.139C38.717,22.408 38.675,22.308 38.6,22.234z"
      fill="#FEBF00"/>
  <path
      d="M38.6,22.234l-1.292,-1.293l-1.452,-0.282l-1.287,-0.158l0,0v7.542l3.754,0.003l0,0c0.104,0 0.204,-0.044 0.277,-0.116c0.075,-0.074 0.117,-0.174 0.117,-0.279v-5.139C38.717,22.408 38.675,22.308 38.6,22.234L38.6,22.234z"
      fill="#FF9F00"/>
  <path
      d="M34.581,21.073l1.269,0.896l1.458,-1.027l-2.463,-2.465c-0.154,-0.153 -0.404,-0.153 -0.559,0l-2.455,2.449l1.479,1.043L34.581,21.073z"
      fill="#F4F1F1"/>
  <path
      d="M34.845,18.477c-0.077,-0.075 -0.176,-0.114 -0.276,-0.115v2.72l0.013,-0.008l1.269,0.896l1.458,-1.027L34.845,18.477z"
      fill="#E7DFDD"/>
  <path
      d="M20.246,41.31c-0.421,0 -0.757,-0.081 -1.004,-0.242c-0.248,-0.162 -0.425,-0.395 -0.532,-0.7s-0.16,-0.669 -0.16,-1.09h0.926c0,0.207 0.018,0.41 0.052,0.61c0.034,0.198 0.108,0.362 0.221,0.492c0.112,0.129 0.283,0.194 0.515,0.194c0.253,0 0.435,-0.073 0.544,-0.221c0.109,-0.146 0.179,-0.346 0.209,-0.597c0.027,-0.25 0.042,-0.535 0.042,-0.852s-0.017,-0.587 -0.051,-0.809c-0.035,-0.223 -0.107,-0.393 -0.217,-0.511c-0.109,-0.117 -0.282,-0.177 -0.519,-0.177c-0.191,0 -0.352,0.06 -0.484,0.177c-0.133,0.118 -0.231,0.252 -0.294,0.402h-0.787v-3.753h3.019v0.926h-2.181l-0.061,1.937c0.116,-0.121 0.259,-0.216 0.429,-0.285s0.364,-0.104 0.585,-0.104c0.38,0 0.678,0.09 0.895,0.269c0.216,0.18 0.368,0.424 0.457,0.735c0.091,0.312 0.135,0.668 0.135,1.072c0,0.357 -0.026,0.69 -0.077,0.999c-0.053,0.309 -0.143,0.576 -0.272,0.805c-0.13,0.228 -0.308,0.405 -0.532,0.531C20.877,41.246 20.592,41.31 20.246,41.31z"
      fill="#FFFFFF"/>
  <path
      d="M24.499,41.318c-0.397,0 -0.725,-0.09 -0.98,-0.269s-0.447,-0.424 -0.571,-0.735s-0.186,-0.665 -0.186,-1.063v-3.018c0,-0.409 0.061,-0.769 0.182,-1.077s0.311,-0.549 0.566,-0.723c0.256,-0.173 0.586,-0.259 0.989,-0.259c0.404,0 0.733,0.086 0.986,0.259c0.255,0.174 0.441,0.414 0.563,0.723s0.182,0.668 0.182,1.077v3.018c0,0.403 -0.062,0.762 -0.186,1.072c-0.124,0.312 -0.313,0.556 -0.566,0.731C25.224,41.23 24.898,41.318 24.499,41.318zM24.499,40.557c0.22,0 0.385,-0.063 0.498,-0.189c0.112,-0.127 0.191,-0.29 0.233,-0.489c0.044,-0.199 0.065,-0.405 0.065,-0.617v-3.037c0,-0.225 -0.021,-0.436 -0.061,-0.636c-0.041,-0.198 -0.117,-0.358 -0.229,-0.479c-0.113,-0.121 -0.281,-0.182 -0.507,-0.182c-0.224,0 -0.394,0.061 -0.51,0.182c-0.114,0.121 -0.193,0.281 -0.233,0.479c-0.041,0.2 -0.06,0.411 -0.06,0.636v3.037c0,0.212 0.021,0.418 0.064,0.617s0.124,0.362 0.241,0.489C24.121,40.494 24.287,40.557 24.499,40.557z"
      fill="#FFFFFF"/>
  <path
      d="M27.275,41.24v-7.005h0.979v3.303l1.608,-3.303h0.908l-1.384,3.087l1.609,3.918h-0.953l-1.339,-3.286l-0.45,0.813v2.473H27.275z"
      fill="#FFFFFF"/>
  <path
      d="M33.479,41.231v-7.005h0.925v4.177l1.35,-2.161h0.968l-1.176,1.954l1.142,3.044h-0.925l-0.936,-2.561l-0.423,0.642v1.91H33.479z"
      fill="#FFFFFF"/>
  <path
      d="M38.535,41.31c-0.407,0 -0.718,-0.082 -0.929,-0.247c-0.21,-0.163 -0.353,-0.396 -0.423,-0.695c-0.072,-0.3 -0.108,-0.648 -0.108,-1.046V38.17c0,-0.421 0.036,-0.779 0.112,-1.077c0.075,-0.296 0.217,-0.523 0.428,-0.683s0.517,-0.237 0.92,-0.237c0.364,0 0.645,0.059 0.845,0.176c0.199,0.119 0.336,0.295 0.41,0.528c0.074,0.234 0.112,0.523 0.112,0.87v0.293h-0.84v-0.303c0,-0.219 -0.013,-0.392 -0.042,-0.519c-0.028,-0.127 -0.081,-0.219 -0.155,-0.276s-0.183,-0.087 -0.321,-0.087c-0.148,0 -0.264,0.034 -0.344,0.104c-0.081,0.069 -0.135,0.187 -0.162,0.351C38.013,37.474 38,37.698 38,37.979v1.574c0,0.427 0.04,0.712 0.121,0.856s0.226,0.216 0.432,0.216c0.157,0 0.27,-0.036 0.342,-0.107c0.072,-0.072 0.119,-0.174 0.139,-0.307c0.021,-0.133 0.029,-0.283 0.029,-0.45v-0.407h0.84v0.347c0,0.334 -0.038,0.622 -0.117,0.864c-0.076,0.242 -0.217,0.428 -0.414,0.554C39.171,41.246 38.893,41.31 38.535,41.31z"
      fill="#FFFFFF"/>
  <path
      d="M41.624,41.31c-0.195,0 -0.369,-0.057 -0.519,-0.169c-0.15,-0.111 -0.268,-0.256 -0.354,-0.432c-0.088,-0.177 -0.13,-0.362 -0.13,-0.558c0,-0.312 0.053,-0.574 0.155,-0.788c0.104,-0.213 0.246,-0.394 0.429,-0.54c0.182,-0.147 0.392,-0.275 0.632,-0.385c0.238,-0.109 0.491,-0.217 0.757,-0.319v-0.355c0,-0.202 -0.013,-0.369 -0.036,-0.502c-0.021,-0.133 -0.07,-0.231 -0.143,-0.298s-0.179,-0.1 -0.323,-0.1c-0.127,0 -0.229,0.029 -0.308,0.087c-0.077,0.057 -0.135,0.14 -0.168,0.246c-0.034,0.106 -0.052,0.231 -0.052,0.376v0.251l-0.918,-0.035c0.013,-0.553 0.139,-0.961 0.381,-1.223c0.242,-0.263 0.618,-0.394 1.124,-0.394c0.497,0 0.849,0.135 1.057,0.406c0.206,0.271 0.311,0.663 0.311,1.176v2.283c0,0.155 0.004,0.307 0.013,0.45c0.009,0.145 0.021,0.278 0.034,0.401c0.015,0.124 0.027,0.241 0.04,0.351h-0.848c-0.018,-0.093 -0.039,-0.209 -0.064,-0.351c-0.027,-0.141 -0.045,-0.269 -0.058,-0.385c-0.057,0.196 -0.167,0.38 -0.333,0.55C42.139,41.225 41.913,41.31 41.624,41.31zM41.988,40.514c0.091,0 0.178,-0.025 0.259,-0.078c0.081,-0.052 0.153,-0.11 0.217,-0.177s0.106,-0.119 0.13,-0.16V38.68c-0.145,0.081 -0.28,0.162 -0.406,0.242c-0.127,0.081 -0.238,0.166 -0.334,0.256c-0.096,0.089 -0.17,0.189 -0.225,0.303c-0.056,0.112 -0.083,0.241 -0.083,0.385c0,0.202 0.038,0.36 0.112,0.476C41.734,40.456 41.844,40.514 41.988,40.514z"
      fill="#FFFFFF"/>
  <path
      d="M44.496,41.24v-7.005h0.925v7.005H44.496z"
      fill="#FFFFFF"/>
</svg>
