<?xml version="1.0" encoding="utf-8"?>
<svg version="1.1" id="Layer_1" xmlns="http://www.w3.org/2000/svg" xmlns:xlink="http://www.w3.org/1999/xlink"
    width="64"
   height="64"
   viewBox="0 0 64 64">
  <path
      d="M54.33,52.661c0,1.196 -0.944,2.44 -2.098,2.761l-17.97,5.013c-1.153,0.321 -3.041,0.321 -4.193,0l-17.968,-5.013c-1.153,-0.32 -2.098,-1.564 -2.098,-2.761V34.853c0,-1.196 0,-3.156 0,-4.354v-17.81c0,-1.196 0.944,-2.44 2.098,-2.761l17.968,-5.013c1.152,-0.321 3.04,-0.321 4.193,0l17.97,5.013c1.153,0.32 2.098,1.564 2.098,2.761v17.81c0,1.197 0,3.157 0,4.354V52.661z"

      fill="#311B92"
       style= "fill-opacity=0.2"/>
  <path
      d="M15.962,52.157c-1.153,-0.321 -2.098,-1.564 -2.098,-2.762V15.956c0,-1.197 0.944,-2.44 2.098,-2.762L30.069,9.26c1.152,-0.321 3.04,-0.321 4.193,0l14.109,3.935c1.153,0.321 2.098,1.564 2.098,2.762v33.439c0,1.197 -0.944,2.44 -2.098,2.762l-14.109,3.935c-1.153,0.321 -3.041,0.321 -4.193,0L15.962,52.157z"
    fill="#311B92"/>
  <path
      d="M27.438,24.822c-0.284,0.691 -0.532,1.459 -0.634,2.36c-0.388,3.461 2.275,6.228 5.756,6.228c3.479,0 6.301,-2.823 6.301,-6.305c0,-0.644 -0.303,-1.559 -0.303,-1.559c-0.273,1.823 -1.785,2.854 -1.785,2.854c0.927,-2.441 0.436,-4.647 -0.688,-6.258c-2.543,-3.645 -1.889,-6.121 -1.889,-6.121c-3.402,3.026 -3.196,6.36 -3.196,6.36c-0.313,-2.021 -2.866,-2.827 -2.866,-2.827c0.843,1.43 0.54,2.537 -0.025,3.762C27.696,24.209 27.438,24.822 27.438,24.822z"
     fill="#FDDB33"/>
  <path
      d="M31.002,22.197L31.002,22.197c-0.384,-1.854 -2.867,-2.642 -2.867,-2.642c0.22,0.373 0.36,0.724 0.44,1.06C29.393,20.867 31.002,22.197 31.002,22.197z"
      fill="#F9C032"/>
  <path
      d="M34.688,22.143c1.123,1.611 2.297,3.028 2.088,6.247l0,0c0.278,-0.734 0.489,-1.715 0.484,-2.505c0.009,-1.428 -0.452,-2.708 -1.174,-3.742c-2.543,-3.644 -1.889,-6.12 -1.889,-6.12c-0.574,0.51 -1.043,1.027 -1.43,1.536C32.898,18.64 33.353,20.229 34.688,22.143z"
      fill="#F9C032"/>
  <path
      d="M38.559,25.547c-0.152,1.018 -0.69,1.788 -1.137,2.271c-0.329,2.918 -2.646,5.232 -5.563,5.554c0.229,0.025 0.464,0.039 0.702,0.039c3.479,0 6.301,-2.823 6.301,-6.305C38.861,26.462 38.559,25.547 38.559,25.547z"
      fill="#F9C032"/>
  <path
      d="M37.857,18.384c0.145,0 0.264,-0.118 0.264,-0.264v-0.786h0.786c0.145,0 0.262,-0.117 0.262,-0.262s-0.117,-0.264 -0.262,-0.264h-0.786v-0.786c0,-0.145 -0.119,-0.262 -0.264,-0.262s-0.262,0.117 -0.262,0.262v0.786H36.81c-0.145,0 -0.263,0.119 -0.263,0.264s0.118,0.262 0.263,0.262h0.786v0.786C37.596,18.266 37.713,18.384 37.857,18.384z"
      fill="#FF7373"/>
  <path
      d="M42.653,18.58h-0.786v-0.786c0,-0.144 -0.117,-0.262 -0.262,-0.262s-0.264,0.118 -0.264,0.262v0.786h-0.787c-0.145,0 -0.261,0.118 -0.261,0.263c0,0.146 0.116,0.263 0.261,0.263h0.787v0.786c0,0.145 0.119,0.262 0.264,0.262s0.262,-0.117 0.262,-0.262v-0.786h0.786c0.145,0 0.264,-0.117 0.264,-0.263C42.917,18.698 42.798,18.58 42.653,18.58z"
      fill="#FF7373"/>
  <path
      d="M40.023,21.057h-0.786v-0.785c0,-0.145 -0.117,-0.263 -0.264,-0.263c-0.145,0 -0.262,0.117 -0.262,0.263v0.785h-0.786c-0.145,0 -0.262,0.118 -0.262,0.264c0,0.144 0.117,0.262 0.262,0.262h0.786v0.786c0,0.145 0.117,0.263 0.262,0.263c0.146,0 0.264,-0.118 0.264,-0.263v-0.786h0.786c0.145,0 0.262,-0.118 0.262,-0.262C40.285,21.175 40.168,21.057 40.023,21.057z"
      fill="#FF7373"/>
  <path
     d="M34.123,29.194c0.24,0.5 0.413,0.968 0.413,1.283c0,1.044 -0.847,1.892 -1.891,1.892c-1.045,0 -1.893,-0.848 -1.893,-1.892c0,-1.045 1.893,-3.757 1.893,-3.757s0.436,0.624 0.889,1.389L34.123,29.194z"
      fill="#FF7373"/>
  <path
      d="M22.156,46.683v-5.795c-0.006,0.006 -0.07,0.023 -0.193,0.052c-0.126,0.029 -0.266,0.058 -0.422,0.086c-0.154,0.03 -0.293,0.056 -0.414,0.079c-0.121,0.022 -0.185,0.034 -0.19,0.034v-0.701c0.099,-0.023 0.212,-0.054 0.342,-0.094c0.129,-0.041 0.263,-0.091 0.398,-0.148c0.135,-0.057 0.265,-0.129 0.389,-0.216s0.229,-0.187 0.315,-0.303h0.701v7.006H22.156z"
      fill="#FFFFFF"/>
  <path
      d="M24.647,46.683v-7.006h0.978v3.304l1.608,-3.304h0.908l-1.384,3.088l1.608,3.918h-0.951l-1.341,-3.287l-0.449,0.813v2.474H24.647z"
      fill="#FFFFFF"/>
  <path
      d="M30.848,46.674v-7.006h0.926v4.178l1.349,-2.162h0.97l-1.177,1.955l1.142,3.044h-0.926l-0.933,-2.561l-0.425,0.641v1.911H30.848z"
      fill="#FFFFFF"/>
  <path
      d="M35.907,46.751c-0.408,0 -0.719,-0.081 -0.929,-0.246c-0.212,-0.164 -0.354,-0.396 -0.426,-0.696s-0.107,-0.648 -0.107,-1.046v-1.151c0,-0.421 0.038,-0.778 0.112,-1.076c0.075,-0.297 0.219,-0.524 0.429,-0.684c0.211,-0.158 0.517,-0.237 0.921,-0.237c0.363,0 0.645,0.059 0.844,0.177c0.2,0.119 0.336,0.294 0.41,0.528c0.074,0.233 0.113,0.522 0.113,0.869v0.294h-0.84v-0.304c0,-0.219 -0.013,-0.391 -0.043,-0.519c-0.027,-0.126 -0.08,-0.219 -0.155,-0.276c-0.074,-0.058 -0.183,-0.087 -0.32,-0.087c-0.149,0 -0.264,0.035 -0.345,0.104c-0.081,0.068 -0.134,0.186 -0.161,0.351c-0.025,0.163 -0.039,0.388 -0.039,0.67v1.573c0,0.428 0.041,0.713 0.121,0.857c0.081,0.145 0.226,0.216 0.432,0.216c0.157,0 0.271,-0.036 0.343,-0.107c0.072,-0.072 0.119,-0.175 0.138,-0.308c0.021,-0.133 0.03,-0.282 0.03,-0.449v-0.407h0.84v0.347c0,0.333 -0.039,0.621 -0.117,0.864c-0.076,0.242 -0.217,0.427 -0.415,0.554C36.543,46.688 36.265,46.751 35.907,46.751z"
      fill="#FFFFFF"/>
  <path
      d="M38.996,46.751c-0.198,0 -0.37,-0.056 -0.521,-0.169c-0.148,-0.111 -0.268,-0.256 -0.353,-0.432c-0.087,-0.176 -0.13,-0.362 -0.13,-0.558c0,-0.312 0.052,-0.574 0.155,-0.787c0.104,-0.213 0.247,-0.394 0.428,-0.54c0.183,-0.148 0.394,-0.275 0.631,-0.385c0.24,-0.109 0.491,-0.217 0.757,-0.32v-0.354c0,-0.202 -0.011,-0.369 -0.034,-0.502s-0.069,-0.231 -0.142,-0.299c-0.072,-0.065 -0.181,-0.099 -0.326,-0.099c-0.125,0 -0.229,0.028 -0.306,0.086c-0.079,0.058 -0.134,0.141 -0.168,0.246c-0.036,0.106 -0.053,0.232 -0.053,0.377v0.251l-0.917,-0.035c0.011,-0.553 0.139,-0.961 0.381,-1.224s0.616,-0.394 1.125,-0.394c0.495,0 0.846,0.136 1.054,0.406c0.209,0.271 0.313,0.663 0.313,1.177v2.283c0,0.155 0.005,0.306 0.013,0.449c0.009,0.145 0.02,0.278 0.034,0.401c0.015,0.125 0.027,0.242 0.038,0.352h-0.846c-0.02,-0.093 -0.04,-0.21 -0.065,-0.352c-0.026,-0.14 -0.045,-0.269 -0.056,-0.384c-0.06,0.196 -0.17,0.379 -0.334,0.549C39.511,46.666 39.283,46.751 38.996,46.751zM39.357,45.955c0.094,0 0.179,-0.025 0.262,-0.077c0.078,-0.053 0.15,-0.11 0.214,-0.178c0.064,-0.065 0.106,-0.119 0.13,-0.159v-1.419c-0.145,0.08 -0.278,0.161 -0.406,0.242c-0.127,0.081 -0.237,0.166 -0.333,0.255c-0.094,0.09 -0.17,0.19 -0.224,0.303c-0.055,0.113 -0.083,0.241 -0.083,0.385c0,0.202 0.038,0.36 0.113,0.477C39.104,45.897 39.215,45.955 39.357,45.955z"
     fill="#FFFFFF"/>
  <path
      d="M41.865,46.683v-7.006h0.925v7.006H41.865z"
      fill="#FFFFFF"/>
</svg>
