<?xml version="1.0" encoding="utf-8"?>
<svg version="1.1" id="Layer_1" xmlns="http://www.w3.org/2000/svg" xmlns:xlink="http://www.w3.org/1999/xlink"
    width="24"
    height="24"
     viewBox="0 0 24 24">
  <path
      d="M4.58,12.14c-0.39,0.96 -0.73,2.02 -0.87,3.26C3.17,20.18 6.85,24 11.65,24s8.7,-3.9 8.7,-8.7c0,-0.89 -0.42,-2.15 -0.42,-2.15c-0.38,2.52 -2.47,3.94 -2.47,3.94c1.28,-3.37 0.6,-6.41 -0.95,-8.64C13.01,3.42 13.91,0 13.91,0C9.21,4.18 9.5,8.78 9.5,8.78c-0.43,-2.79 -3.96,-3.9 -3.96,-3.9c1.16,1.97 0.74,3.5 -0.04,5.19C4.94,11.3 4.58,12.14 4.58,12.14z"
      fill="#FDDB33"/>
  <path
      d="M9.5,8.52L9.5,8.52C8.97,5.96 5.54,4.88 5.54,4.88c0.3,0.51 0.5,1 0.61,1.46C7.28,6.69 9.5,8.52 9.5,8.52z"
      fill="#F9C032"/>
  <path
      d="M14.58,8.45c1.55,2.22 3.17,4.18 2.88,8.62l0,0c0.39,-1.01 0.68,-2.37 0.67,-3.46c0.01,-1.97 -0.62,-3.74 -1.62,-5.17C13.01,3.42 13.91,0 13.91,0c-0.79,0.7 -1.44,1.42 -1.97,2.12C12.12,3.61 12.74,5.81 14.58,8.45z"
      fill="#F9C032"/>
  <path
      d="M19.93,13.15c-0.21,1.4 -0.96,2.47 -1.57,3.13c-0.45,4.03 -3.65,7.22 -7.68,7.67C11,23.98 11.32,24 11.65,24c4.8,0 8.7,-3.9 8.7,-8.7C20.35,14.41 19.93,13.15 19.93,13.15z"
      fill="#F9C032"/>
  <path
      d="M13.81,18.18c0.33,0.69 0.57,1.34 0.57,1.77c0,1.44 -1.17,2.61 -2.61,2.61s-2.61,-1.17 -2.61,-2.61s2.61,-5.19 2.61,-5.19s0.6,0.86 1.23,1.92L13.81,18.18z"
      fill="#FF7373"/>
</svg>
