<?xml version="1.0" encoding="utf-8"?>
<svg version="1.1" id="Layer_1" xmlns="http://www.w3.org/2000/svg" xmlns:xlink="http://www.w3.org/1999/xlink"
    width="64"
   height="64"
   viewBox="0 0 64 64">
  <path
      d="M15.658,60.225c-1.1,0 -2.278,-0.855 -2.618,-1.902L2.94,27.24c-0.34,-1.047 0.11,-2.432 1,-3.078L30.382,4.951c0.89,-0.646 2.347,-0.646 3.236,0L60.06,24.162c0.89,0.646 1.34,2.031 1,3.078l-10.1,31.082c-0.34,1.047 -1.519,1.902 -2.618,1.902H15.658z"

      fill="#0D47A1"
       style= "fill-opacity=0.2"/>
  <path
      d="M18.709,56.531c-1.101,0 -2.279,-0.855 -2.619,-1.902L7.875,29.347c-0.34,-1.047 0.11,-2.432 1,-3.078l21.507,-15.624c0.89,-0.646 2.347,-0.646 3.236,0l21.506,15.624c0.89,0.646 1.34,2.032 1,3.078l-8.213,25.282c-0.34,1.047 -1.519,1.902 -2.618,1.902H18.709z"
      fill="#0D47A1"/>
  <path
      d="M31.254,20.341h2.473c0.203,0 0.37,0.168 0.37,0.373v0.742c0,0.202 -0.167,0.368 -0.37,0.368h-2.473c-0.205,0 -0.371,-0.166 -0.371,-0.368v-0.742C30.883,20.509 31.049,20.341 31.254,20.341z"
      fill="#FFFFFF"/>
  <path
      d="M26.559,25.781h-2.473c-0.206,0 -0.371,0.165 -0.371,0.37c0,0.206 0.165,0.371 0.371,0.371h2.473c0.205,0 0.371,-0.165 0.371,-0.371C26.93,25.946 26.762,25.781 26.559,25.781z"
      fill="#FFFFFF"/>
  <path
      d="M26.434,29.119c0,-0.205 -0.167,-0.373 -0.37,-0.373h-2.473c-0.205,0 -0.371,0.168 -0.371,0.373c0,0.203 0.166,0.368 0.371,0.368h2.473C26.267,29.487 26.434,29.322 26.434,29.119z"
      fill="#FFFFFF"/>
  <path
      d="M26.311,30.229h-1.73c-0.203,0 -0.371,0.166 -0.371,0.371c0,0.207 0.168,0.373 0.371,0.373h1.73c0.203,0 0.371,-0.166 0.371,-0.373C26.682,30.396 26.514,30.229 26.311,30.229z"
      fill="#FFFFFF"/>
  <path
      d="M26.434,27.636c0,-0.206 -0.167,-0.374 -0.37,-0.374H22.85c-0.205,0 -0.371,0.168 -0.371,0.374c0,0.202 0.166,0.37 0.371,0.37h3.214C26.267,28.004 26.434,27.838 26.434,27.636z"
      fill="#FFFFFF"/>
  <path
      d="M32.488,28.375v-4.201c-2.316,0 -4.203,1.885 -4.203,4.201s1.886,4.204 4.203,4.204c2.318,0 4.204,-1.886 4.204,-4.204H32.488z"
      fill="#FFFFFF"/>
  <path
      d="M36.558,24.586l0.398,-0.396c0.145,-0.145 0.147,-0.378 0.003,-0.524c-0.143,-0.145 -0.378,-0.149 -0.522,-0.005c-0.003,0 -0.005,0.005 -0.005,0.005l-0.413,0.413c-0.799,-0.656 -1.765,-1.076 -2.786,-1.214v-0.669h-1.483v0.669c-1.022,0.138 -1.987,0.558 -2.784,1.214l-0.414,-0.413c-0.145,-0.147 -0.377,-0.149 -0.523,-0.005c-0.146,0.143 -0.148,0.378 -0.006,0.522c0.002,0.005 0.004,0.005 0.006,0.007l0.396,0.396c-0.963,1.027 -1.496,2.382 -1.494,3.789c0,3.067 2.494,5.562 5.561,5.562c3.065,0 5.563,-2.494 5.563,-5.562C38.055,26.968 37.519,25.613 36.558,24.586zM32.488,32.949c-2.523,0 -4.572,-2.048 -4.572,-4.574c0,-2.524 2.049,-4.572 4.572,-4.572c2.526,0 4.575,2.048 4.575,4.572C37.063,30.901 35.015,32.949 32.488,32.949L32.488,32.949z"
      fill="#FFFFFF"/>
  <path
      d="M22.574,48.586l1.276,-6.351h-1.896V41.5h2.833v0.453l-1.313,6.632L22.574,48.586L22.574,48.586z"
      fill="#FFFFFF"/>
  <path
      d="M25.566,48.586v-1.039h0.936v1.039H25.566z"
      fill="#FFFFFF"/>
  <path
      d="M28.908,48.655c-0.426,0 -0.765,-0.08 -1.016,-0.244c-0.251,-0.163 -0.431,-0.399 -0.536,-0.708c-0.109,-0.309 -0.165,-0.679 -0.165,-1.102h0.938c0,0.208 0.018,0.414 0.054,0.617c0.033,0.2 0.106,0.367 0.221,0.498c0.114,0.134 0.286,0.197 0.521,0.197c0.257,0 0.44,-0.075 0.551,-0.223c0.111,-0.147 0.181,-0.349 0.21,-0.604c0.029,-0.253 0.044,-0.542 0.044,-0.86c0,-0.321 -0.02,-0.595 -0.053,-0.816c-0.034,-0.226 -0.108,-0.396 -0.218,-0.517c-0.111,-0.119 -0.287,-0.18 -0.524,-0.18c-0.195,0 -0.356,0.061 -0.493,0.18c-0.133,0.12 -0.23,0.255 -0.297,0.405h-0.793v-3.798h3.056v0.938h-2.207l-0.062,1.959c0.117,-0.123 0.263,-0.217 0.436,-0.287c0.172,-0.072 0.368,-0.105 0.59,-0.105c0.385,0 0.686,0.089 0.906,0.27c0.217,0.182 0.374,0.429 0.462,0.744c0.091,0.314 0.137,0.678 0.137,1.085c0,0.363 -0.026,0.698 -0.078,1.01c-0.053,0.313 -0.146,0.585 -0.274,0.813c-0.133,0.231 -0.313,0.411 -0.541,0.539C29.548,48.592 29.259,48.655 28.908,48.655z"
      fill="#FFFFFF"/>
  <path
      d="M33.501,48.586V41.5h0.987v3.061h1.818V41.5h0.99v7.086h-0.99v-3.315h-1.818v3.315H33.501z"
      fill="#FFFFFF"/>
  <path
      d="M38.408,48.586V41.5h1.427c0.47,0 0.86,0.061 1.171,0.188c0.309,0.126 0.537,0.326 0.686,0.604c0.149,0.275 0.222,0.641 0.222,1.091c0,0.272 -0.028,0.521 -0.087,0.745c-0.058,0.226 -0.152,0.415 -0.28,0.568c-0.128,0.154 -0.298,0.268 -0.505,0.336l1.005,3.553h-0.954l-0.928,-3.324h-0.769v3.324L38.408,48.586L38.408,48.586zM39.398,44.553h0.375c0.278,0 0.507,-0.035 0.684,-0.104c0.176,-0.069 0.304,-0.189 0.385,-0.358c0.084,-0.167 0.122,-0.403 0.122,-0.707c0,-0.414 -0.075,-0.715 -0.225,-0.898c-0.153,-0.184 -0.454,-0.275 -0.901,-0.275h-0.439V44.553L39.398,44.553z"
      fill="#FFFFFF"/>
</svg>
