<?xml version="1.0" encoding="utf-8"?>
<svg version="1.1" id="Layer_1" xmlns="http://www.w3.org/2000/svg" xmlns:xlink="http://www.w3.org/1999/xlink"
    width="64"
   height="64"
   viewBox="0 0 64 64">
  <path
     d="M15.658,60.225c-1.1,0 -2.278,-0.855 -2.618,-1.902L2.94,27.24c-0.34,-1.047 0.11,-2.432 1,-3.078L30.382,4.951c0.89,-0.646 2.347,-0.646 3.236,0L60.06,24.162c0.89,0.646 1.34,2.031 1,3.078l-10.1,31.082c-0.34,1.047 -1.519,1.902 -2.618,1.902H15.658z"

      fill="#827717"
       style= "fill-opacity=0.2"/>
  <path
     d="M18.709,56.531c-1.101,0 -2.279,-0.855 -2.619,-1.902L7.875,29.347c-0.34,-1.047 0.11,-2.432 1,-3.078l21.507,-15.624c0.89,-0.646 2.347,-0.646 3.236,0l21.506,15.624c0.89,0.646 1.34,2.032 1,3.078l-8.213,25.282c-0.34,1.047 -1.519,1.902 -2.618,1.902H18.709z"
      fill="#827717"/>
  <path
     d="M31.254,20.341h2.473c0.203,0 0.37,0.168 0.37,0.373v0.742c0,0.202 -0.167,0.368 -0.37,0.368h-2.473c-0.205,0 -0.371,-0.166 -0.371,-0.368v-0.742C30.883,20.509 31.049,20.341 31.254,20.341z"
      fill="#FFFFFF"/>
  <path
     d="M26.559,25.781h-2.473c-0.206,0 -0.371,0.165 -0.371,0.37c0,0.206 0.165,0.371 0.371,0.371h2.473c0.205,0 0.371,-0.165 0.371,-0.371C26.93,25.946 26.762,25.781 26.559,25.781z"
      fill="#FFFFFF"/>
  <path
     d="M26.434,29.119c0,-0.205 -0.167,-0.373 -0.37,-0.373h-2.473c-0.205,0 -0.371,0.168 -0.371,0.373c0,0.203 0.166,0.368 0.371,0.368h2.473C26.267,29.487 26.434,29.322 26.434,29.119z"
      fill="#FFFFFF"/>
  <path
     d="M26.311,30.229h-1.73c-0.203,0 -0.371,0.166 -0.371,0.371c0,0.207 0.168,0.373 0.371,0.373h1.73c0.203,0 0.371,-0.166 0.371,-0.373C26.682,30.396 26.514,30.229 26.311,30.229z"
      fill="#FFFFFF"/>
  <path
     d="M26.434,27.636c0,-0.206 -0.167,-0.374 -0.37,-0.374H22.85c-0.205,0 -0.371,0.168 -0.371,0.374c0,0.202 0.166,0.37 0.371,0.37h3.214C26.267,28.004 26.434,27.838 26.434,27.636z"
      fill="#FFFFFF"/>
  <path
     d="M32.488,28.375v-4.201c-2.316,0 -4.203,1.885 -4.203,4.201s1.886,4.204 4.203,4.204c2.318,0 4.204,-1.886 4.204,-4.204H32.488z"
      fill="#FFFFFF"/>
  <path
     d="M36.558,24.586l0.398,-0.396c0.145,-0.145 0.147,-0.378 0.003,-0.524c-0.143,-0.145 -0.378,-0.149 -0.522,-0.005c-0.003,0 -0.005,0.005 -0.005,0.005l-0.413,0.413c-0.799,-0.656 -1.765,-1.076 -2.786,-1.214v-0.669h-1.483v0.669c-1.022,0.138 -1.987,0.558 -2.784,1.214l-0.414,-0.413c-0.145,-0.147 -0.377,-0.149 -0.523,-0.005c-0.146,0.143 -0.148,0.378 -0.006,0.522c0.002,0.005 0.004,0.005 0.006,0.007l0.396,0.396c-0.963,1.027 -1.496,2.382 -1.494,3.789c0,3.067 2.494,5.562 5.561,5.562c3.065,0 5.563,-2.494 5.563,-5.562C38.055,26.968 37.519,25.613 36.558,24.586zM32.488,32.949c-2.523,0 -4.572,-2.048 -4.572,-4.574c0,-2.524 2.049,-4.572 4.572,-4.572c2.526,0 4.575,2.048 4.575,4.572C37.063,30.901 35.015,32.949 32.488,32.949L32.488,32.949z"
      fill="#FFFFFF"/>
  <path
     d="M22.416,48.654v-0.665l1.803,-2.811c0.135,-0.211 0.258,-0.407 0.372,-0.588s0.209,-0.373 0.281,-0.572c0.072,-0.202 0.108,-0.436 0.108,-0.694c0,-0.327 -0.053,-0.585 -0.156,-0.771c-0.105,-0.188 -0.289,-0.281 -0.553,-0.281c-0.221,0 -0.394,0.062 -0.517,0.184c-0.122,0.124 -0.207,0.284 -0.253,0.483c-0.048,0.197 -0.071,0.41 -0.071,0.639v0.237h-0.937v-0.245c0,-0.428 0.057,-0.795 0.17,-1.101c0.114,-0.306 0.298,-0.544 0.553,-0.713c0.255,-0.17 0.592,-0.256 1.012,-0.256c0.571,0 0.997,0.164 1.278,0.487c0.278,0.326 0.42,0.772 0.42,1.345c0,0.304 -0.036,0.568 -0.109,0.797c-0.074,0.229 -0.169,0.442 -0.286,0.638c-0.116,0.2 -0.244,0.403 -0.384,0.615l-1.629,2.486h2.24v0.788h-3.343V48.654z"
      fill="#FFFFFF"/>
  <path
     d="M28.65,48.654v-1.9h-2.058v-0.979l1.846,-4.213h1.103v4.361h0.8v0.831h-0.8v1.9H28.65zM27.495,45.923h1.155V42.7L27.495,45.923z"
      fill="#FFFFFF"/>
  <path
     d="M33.027,48.654v-7.093h0.99v3.064h1.819v-3.064h0.991v7.093h-0.991v-3.318h-1.819v3.318H33.027z"
      fill="#FFFFFF"/>
  <path
     d="M37.939,48.654v-7.093h1.428c0.474,0 0.863,0.062 1.174,0.189c0.31,0.125 0.539,0.325 0.687,0.604c0.149,0.276 0.223,0.641 0.223,1.092c0,0.273 -0.03,0.522 -0.089,0.746c-0.059,0.226 -0.15,0.415 -0.28,0.568c-0.128,0.154 -0.296,0.269 -0.505,0.337l1.008,3.556h-0.955l-0.93,-3.327h-0.769v3.327L37.939,48.654L37.939,48.654zM38.931,44.617h0.376c0.279,0 0.507,-0.035 0.682,-0.104c0.179,-0.069 0.304,-0.189 0.388,-0.359c0.08,-0.167 0.122,-0.403 0.122,-0.707c0,-0.415 -0.076,-0.716 -0.229,-0.899c-0.151,-0.184 -0.451,-0.275 -0.902,-0.275h-0.437V44.617z"
      fill="#FFFFFF"/>
</svg>
