<?xml version="1.0" encoding="utf-8"?>
<svg version="1.1" id="Layer_1" xmlns="http://www.w3.org/2000/svg" xmlns:xlink="http://www.w3.org/1999/xlink"
    width="64"
   height="64"
   viewBox="0 0 64 64">
  <path
      d="M15.658,60.225c-1.1,0 -2.278,-0.855 -2.618,-1.902L2.94,27.24c-0.34,-1.047 0.11,-2.432 1,-3.078L30.382,4.951c0.89,-0.646 2.347,-0.646 3.236,0L60.06,24.162c0.89,0.646 1.34,2.031 1,3.078l-10.1,31.082c-0.34,1.047 -1.519,1.902 -2.618,1.902H15.658z"

      fill="#3E2723"
        style= "fill-opacity=0.2"/>
  <path
      d="M18.709,56.531c-1.101,0 -2.279,-0.855 -2.619,-1.902L7.875,29.347c-0.34,-1.047 0.11,-2.432 1,-3.078l21.507,-15.624c0.89,-0.646 2.347,-0.646 3.236,0l21.506,15.624c0.89,0.646 1.34,2.032 1,3.078l-8.213,25.282c-0.34,1.047 -1.519,1.902 -2.618,1.902H18.709z"
      fill="#3E2723"/>
  <path
      d="M31.638,45.902h0.973c0.079,0 0.146,0.066 0.146,0.146v0.292c0,0.079 -0.066,0.145 -0.146,0.145h-0.973c-0.081,0 -0.147,-0.065 -0.147,-0.145v-0.292C31.49,45.969 31.557,45.902 31.638,45.902z"
      fill="#FFFFFF"/>
  <path
      d="M29.789,48.043h-0.973c-0.081,0 -0.146,0.064 -0.146,0.146s0.065,0.146 0.146,0.146h0.973c0.081,0 0.146,-0.065 0.146,-0.146S29.869,48.043 29.789,48.043z"
      fill="#FFFFFF"/>
  <path
      d="M29.74,49.356c0,-0.08 -0.066,-0.146 -0.146,-0.146h-0.974c-0.081,0 -0.146,0.066 -0.146,0.146s0.064,0.146 0.146,0.146h0.974C29.674,49.502 29.74,49.437 29.74,49.356z"
      fill="#FFFFFF"/>
  <path
      d="M29.691,49.793h-0.681c-0.08,0 -0.146,0.066 -0.146,0.146c0,0.082 0.065,0.146 0.146,0.146h0.681c0.08,0 0.146,-0.064 0.146,-0.146C29.838,49.859 29.771,49.793 29.691,49.793z"
      fill="#FFFFFF"/>
  <path
      d="M29.74,48.772c0,-0.081 -0.066,-0.146 -0.146,-0.146h-1.266c-0.081,0 -0.146,0.065 -0.146,0.146c0,0.079 0.064,0.146 0.146,0.146h1.266C29.674,48.918 29.74,48.852 29.74,48.772z"
      fill="#FFFFFF"/>
  <path
      d="M32.123,49.063V47.41c-0.912,0 -1.654,0.742 -1.654,1.653s0.742,1.654 1.654,1.654s1.654,-0.742 1.654,-1.654H32.123z"
      fill="#FFFFFF"/>
  <path
      d="M33.724,47.572l0.157,-0.156c0.057,-0.056 0.058,-0.148 0.002,-0.206c-0.057,-0.057 -0.149,-0.059 -0.207,-0.002l-0.001,0.002l-0.162,0.162c-0.315,-0.258 -0.695,-0.423 -1.097,-0.477v-0.264h-0.584v0.264c-0.402,0.054 -0.782,0.219 -1.096,0.477l-0.163,-0.162c-0.058,-0.058 -0.148,-0.059 -0.206,-0.002s-0.059,0.149 -0.003,0.206c0.001,0.002 0.002,0.002 0.003,0.002l0.156,0.156c-0.379,0.404 -0.589,0.938 -0.588,1.491c0,1.207 0.981,2.188 2.188,2.188c1.206,0 2.188,-0.981 2.188,-2.188C34.313,48.51 34.103,47.977 33.724,47.572zM32.123,50.864c-0.993,0 -1.8,-0.807 -1.8,-1.801c0,-0.993 0.807,-1.799 1.8,-1.799c0.994,0 1.8,0.806 1.8,1.799C33.923,50.058 33.117,50.864 32.123,50.864L32.123,50.864z"
      fill="#FFFFFF"/>
  <path
      d="M21.668,43.013v-5.802c-0.006,0.006 -0.072,0.025 -0.195,0.053c-0.125,0.027 -0.266,0.058 -0.42,0.088c-0.156,0.029 -0.295,0.053 -0.416,0.077c-0.121,0.025 -0.184,0.033 -0.191,0.033v-0.699c0.098,-0.024 0.213,-0.055 0.344,-0.095c0.129,-0.042 0.262,-0.09 0.396,-0.147s0.264,-0.131 0.389,-0.215c0.125,-0.088 0.229,-0.19 0.318,-0.306h0.699v7.016h-0.924V43.013z"
      fill="#FFFFFF"/>
  <path
      d="M25.857,43.093c-0.398,0 -0.727,-0.09 -0.982,-0.269c-0.256,-0.181 -0.445,-0.426 -0.572,-0.736c-0.123,-0.31 -0.186,-0.667 -0.186,-1.065v-3.023c0,-0.41 0.061,-0.769 0.182,-1.079c0.121,-0.309 0.313,-0.55 0.568,-0.723c0.256,-0.174 0.586,-0.261 0.99,-0.261s0.732,0.087 0.986,0.261c0.254,0.173 0.441,0.414 0.563,0.723c0.121,0.311 0.182,0.669 0.182,1.079v3.021c0,0.405 -0.061,0.763 -0.188,1.075c-0.123,0.312 -0.313,0.557 -0.564,0.732C26.582,43.003 26.258,43.093 25.857,43.093zM25.857,42.33c0.221,0 0.385,-0.064 0.498,-0.191c0.115,-0.127 0.191,-0.291 0.234,-0.49s0.064,-0.404 0.064,-0.618v-3.04c0,-0.226 -0.02,-0.438 -0.061,-0.636c-0.039,-0.199 -0.117,-0.357 -0.229,-0.479c-0.113,-0.122 -0.281,-0.183 -0.508,-0.183c-0.225,0 -0.393,0.061 -0.51,0.183c-0.115,0.121 -0.195,0.279 -0.232,0.479c-0.039,0.2 -0.061,0.41 -0.061,0.636v3.04c0,0.214 0.021,0.421 0.064,0.618c0.043,0.199 0.123,0.363 0.242,0.49C25.479,42.266 25.645,42.33 25.857,42.33z"
      fill="#FFFFFF"/>
  <path
      d="M30.334,43.093c-0.398,0 -0.727,-0.09 -0.982,-0.269c-0.254,-0.181 -0.445,-0.426 -0.57,-0.736c-0.123,-0.31 -0.188,-0.667 -0.188,-1.065v-3.023c0,-0.41 0.063,-0.769 0.184,-1.079c0.121,-0.309 0.311,-0.55 0.566,-0.723c0.256,-0.174 0.586,-0.261 0.99,-0.261c0.406,0 0.732,0.087 0.986,0.261c0.256,0.173 0.441,0.414 0.564,0.723c0.121,0.311 0.182,0.669 0.182,1.079v3.021c0,0.405 -0.063,0.763 -0.188,1.075c-0.125,0.312 -0.313,0.557 -0.566,0.732C31.059,43.003 30.734,43.093 30.334,43.093zM30.334,42.33c0.221,0 0.387,-0.064 0.5,-0.191c0.115,-0.127 0.189,-0.291 0.232,-0.49s0.064,-0.404 0.064,-0.618v-3.04c0,-0.226 -0.02,-0.438 -0.061,-0.636c-0.037,-0.199 -0.115,-0.357 -0.229,-0.479c-0.113,-0.122 -0.279,-0.183 -0.506,-0.183c-0.225,0 -0.395,0.061 -0.51,0.183c-0.117,0.121 -0.195,0.279 -0.234,0.479c-0.039,0.2 -0.061,0.41 -0.061,0.636v3.04c0,0.214 0.021,0.421 0.066,0.618c0.041,0.199 0.123,0.363 0.242,0.49C29.957,42.266 30.123,42.33 30.334,42.33z"
      fill="#FFFFFF"/>
  <path
      d="M35.098,43.013v-7.016h0.979v3.031h1.801v-3.031h0.977v7.016h-0.977V39.73h-1.801v3.282H35.098z"
      fill="#FFFFFF"/>
  <path
      d="M39.955,43.013v-7.016h1.41c0.467,0 0.855,0.063 1.162,0.188c0.305,0.124 0.531,0.322 0.678,0.598c0.148,0.274 0.221,0.632 0.221,1.078c0,0.271 -0.031,0.518 -0.086,0.739c-0.059,0.222 -0.152,0.41 -0.279,0.563c-0.127,0.151 -0.295,0.264 -0.502,0.331l0.996,3.517h-0.943l-0.916,-3.291h-0.764v3.291L39.955,43.013L39.955,43.013zM40.932,39.021h0.375c0.275,0 0.502,-0.033 0.676,-0.104c0.172,-0.068 0.299,-0.188 0.379,-0.355c0.082,-0.166 0.121,-0.4 0.121,-0.7c0,-0.41 -0.074,-0.706 -0.225,-0.888c-0.146,-0.182 -0.443,-0.271 -0.891,-0.271h-0.436V39.021z"
      fill="#FFFFFF"/>
  <path
      d="M27.568,24.836l-1.594,-0.279l-0.59,0.592c-0.074,0.074 -0.115,0.175 -0.115,0.278v4.776c0,0.219 0.176,0.395 0.395,0.395c0.166,0 3.297,-3.111 4.832,-4.648l-1.787,-1.777L27.568,24.836z"
      fill="#FCEF70"/>
  <path
      d="M30.496,25.949l-1.787,-1.777v3.555C29.367,27.076 30.01,26.434 30.496,25.949z"
      fill="#FFDA2C"/>
  <path
      d="M36.922,18.31l-2.156,-0.745c-0.006,-0.001 -0.01,-0.004 -0.018,-0.005v2.409c0.016,-0.006 0.029,-0.011 0.043,-0.016l2.154,-0.908c0.152,-0.063 0.248,-0.214 0.24,-0.378C37.184,18.505 37.076,18.363 36.922,18.31L36.922,18.31z"
      fill="#D20041"/>
  <path
      d="M34.582,21.814c-0.215,0 -0.393,-0.177 -0.393,-0.395v-3.873c0,-0.216 0.178,-0.393 0.393,-0.393c0.219,0 0.395,0.177 0.395,0.393v3.873C34.977,21.638 34.801,21.814 34.582,21.814z"
      fill="#38336B"/>
  <path
      d="M34.582,17.154L34.582,17.154v4.66l0,0c0.219,0 0.395,-0.177 0.395,-0.395v-3.873C34.977,17.331 34.801,17.154 34.582,17.154z"
      fill="#2E2654"/>
  <path
      d="M31.328,24.556l-2.396,-2.396c-0.152,-0.153 -0.404,-0.153 -0.559,0l-2.398,2.397l1.438,1.013l1.242,-0.896l1.842,1.275c0.475,-0.475 0.795,-0.8 0.832,-0.836C31.482,24.96 31.482,24.71 31.328,24.556L31.328,24.556z"
      fill="#F4F1F1"/>
  <path
      d="M31.328,24.556l-2.396,-2.396c-0.063,-0.062 -0.141,-0.1 -0.223,-0.11v2.664l1.787,1.236c0.475,-0.475 0.795,-0.8 0.832,-0.836C31.482,24.96 31.482,24.71 31.328,24.556z"
      fill="#E7DFDD"/>
  <path
      d="M38.613,24.795l-1.291,-1.293l-1.453,-0.282l-1.287,-0.158l-1.178,0.122l-1.559,0.303l-6.459,6.438c-0.115,0.114 -0.148,0.283 -0.088,0.43c0.063,0.146 0.205,0.243 0.365,0.244l12.672,0.009l0,0c0.104,0 0.205,-0.044 0.277,-0.116c0.076,-0.074 0.117,-0.174 0.117,-0.279v-5.139C38.73,24.969 38.689,24.868 38.613,24.795z"
      fill="#FEBF00"/>
  <path
      d="M38.613,24.795l-1.291,-1.293l-1.453,-0.282l-1.287,-0.158l0,0v7.542l3.754,0.003l0,0c0.104,0 0.205,-0.044 0.277,-0.116c0.076,-0.074 0.117,-0.174 0.117,-0.279v-5.139C38.73,24.969 38.689,24.868 38.613,24.795L38.613,24.795z"
      fill="#FF9F00"/>
  <path
      d="M34.596,23.634l1.268,0.896l1.459,-1.027l-2.463,-2.465c-0.154,-0.153 -0.404,-0.153 -0.559,0l-2.455,2.449l1.479,1.043L34.596,23.634z"
      fill="#F4F1F1"/>
  <path
      d="M34.859,21.037c-0.078,-0.075 -0.176,-0.114 -0.277,-0.115v2.72l0.014,-0.008l1.268,0.896l1.459,-1.027L34.859,21.037z"
      fill="#E7DFDD"/>
</svg>
