<?xml version="1.0" encoding="utf-8"?>
<svg version="1.1" id="Layer_1" xmlns="http://www.w3.org/2000/svg" xmlns:xlink="http://www.w3.org/1999/xlink"
    width="64"
   height="64"
   viewBox="0 0 64 64">
  <path
      d="M15.658,60.225c-1.1,0 -2.278,-0.855 -2.618,-1.902L2.94,27.24c-0.34,-1.047 0.11,-2.432 1,-3.078L30.382,4.951c0.89,-0.646 2.347,-0.646 3.236,0L60.06,24.162c0.89,0.646 1.34,2.031 1,3.078l-10.1,31.082c-0.34,1.047 -1.519,1.902 -2.618,1.902H15.658z"

      fill="#006064"
      style= "fill-opacity=0.2"/>
  <path
      d="M18.709,56.531c-1.101,0 -2.279,-0.855 -2.619,-1.902L7.875,29.347c-0.34,-1.047 0.11,-2.432 1,-3.078l21.507,-15.624c0.89,-0.646 2.347,-0.646 3.236,0l21.506,15.624c0.89,0.646 1.34,2.032 1,3.078l-8.213,25.282c-0.34,1.047 -1.519,1.902 -2.618,1.902H18.709z"
      fill="#006064"/>
  <path
      d="M31.254,20.341h2.473c0.203,0 0.37,0.168 0.37,0.373v0.742c0,0.202 -0.167,0.368 -0.37,0.368h-2.473c-0.205,0 -0.371,-0.166 -0.371,-0.368v-0.742C30.883,20.509 31.049,20.341 31.254,20.341z"
      fill="#FFFFFF"/>
  <path
      d="M26.559,25.781h-2.473c-0.206,0 -0.371,0.165 -0.371,0.37c0,0.206 0.165,0.371 0.371,0.371h2.473c0.205,0 0.371,-0.165 0.371,-0.371C26.93,25.946 26.762,25.781 26.559,25.781z"
      fill="#FFFFFF"/>
  <path
      d="M26.434,29.119c0,-0.205 -0.167,-0.373 -0.37,-0.373h-2.473c-0.205,0 -0.371,0.168 -0.371,0.373c0,0.203 0.166,0.368 0.371,0.368h2.473C26.267,29.487 26.434,29.322 26.434,29.119z"
      fill="#FFFFFF"/>
  <path
      d="M26.311,30.229h-1.73c-0.203,0 -0.371,0.166 -0.371,0.371c0,0.207 0.168,0.373 0.371,0.373h1.73c0.203,0 0.371,-0.166 0.371,-0.373C26.682,30.396 26.514,30.229 26.311,30.229z"
      fill="#FFFFFF"/>
  <path
      d="M26.434,27.636c0,-0.206 -0.167,-0.374 -0.37,-0.374H22.85c-0.205,0 -0.371,0.168 -0.371,0.374c0,0.202 0.166,0.37 0.371,0.37h3.214C26.267,28.004 26.434,27.838 26.434,27.636z"
      fill="#FFFFFF"/>
  <path
      d="M32.488,28.375v-4.201c-2.316,0 -4.203,1.885 -4.203,4.201s1.886,4.204 4.203,4.204c2.318,0 4.204,-1.886 4.204,-4.204H32.488z"
      fill="#FFFFFF"/>
  <path
      d="M36.558,24.586l0.398,-0.396c0.145,-0.145 0.147,-0.378 0.003,-0.524c-0.143,-0.145 -0.378,-0.149 -0.522,-0.005c-0.003,0 -0.005,0.005 -0.005,0.005l-0.413,0.413c-0.799,-0.656 -1.765,-1.076 -2.786,-1.214v-0.669h-1.483v0.669c-1.022,0.138 -1.987,0.558 -2.784,1.214l-0.414,-0.413c-0.145,-0.147 -0.377,-0.149 -0.523,-0.005c-0.146,0.143 -0.148,0.378 -0.006,0.522c0.002,0.005 0.004,0.005 0.006,0.007l0.396,0.396c-0.963,1.027 -1.496,2.382 -1.494,3.789c0,3.067 2.494,5.562 5.561,5.562c3.065,0 5.563,-2.494 5.563,-5.562C38.055,26.968 37.519,25.613 36.558,24.586zM32.488,32.949c-2.523,0 -4.572,-2.048 -4.572,-4.574c0,-2.524 2.049,-4.572 4.572,-4.572c2.526,0 4.575,2.048 4.575,4.572C37.063,30.901 35.015,32.949 32.488,32.949L32.488,32.949z"
      fill="#FFFFFF"/>
  <path
      d="M23.902,48.578v-5.804c-0.006,0.007 -0.071,0.023 -0.195,0.052c-0.124,0.029 -0.265,0.059 -0.42,0.087c-0.156,0.03 -0.295,0.056 -0.416,0.079c-0.121,0.022 -0.187,0.034 -0.191,0.034v-0.702c0.099,-0.023 0.212,-0.056 0.341,-0.094c0.133,-0.042 0.265,-0.089 0.398,-0.146c0.137,-0.058 0.268,-0.132 0.392,-0.216c0.123,-0.087 0.229,-0.188 0.314,-0.305h0.701v7.017h-0.924V48.578z"
      fill="#FFFFFF"/>
  <path
      d="M28.095,48.656c-0.399,0 -0.728,-0.088 -0.983,-0.268c-0.259,-0.179 -0.449,-0.427 -0.573,-0.736c-0.124,-0.311 -0.185,-0.667 -0.185,-1.066v-3.022c0,-0.411 0.061,-0.769 0.182,-1.08c0.121,-0.309 0.309,-0.55 0.567,-0.723c0.257,-0.174 0.587,-0.261 0.992,-0.261c0.402,0 0.732,0.087 0.986,0.261c0.254,0.173 0.441,0.414 0.563,0.723c0.121,0.312 0.183,0.669 0.183,1.08v3.022c0,0.405 -0.063,0.764 -0.188,1.076c-0.124,0.311 -0.315,0.556 -0.566,0.732C28.819,48.57 28.491,48.656 28.095,48.656zM28.095,47.894c0.218,0 0.386,-0.063 0.497,-0.19c0.113,-0.127 0.191,-0.291 0.234,-0.49c0.042,-0.198 0.064,-0.405 0.064,-0.618v-3.04c0,-0.226 -0.02,-0.439 -0.061,-0.636c-0.039,-0.201 -0.116,-0.361 -0.229,-0.482c-0.113,-0.121 -0.281,-0.182 -0.506,-0.182c-0.226,0 -0.396,0.061 -0.512,0.182c-0.116,0.121 -0.193,0.281 -0.234,0.482c-0.04,0.198 -0.061,0.41 -0.061,0.636v3.04c0,0.213 0.023,0.42 0.066,0.618c0.042,0.199 0.125,0.363 0.243,0.49S27.88,47.894 28.095,47.894z"
      fill="#FFFFFF"/>
  <path
      d="M32.857,48.578v-7.018h0.98v3.031h1.8v-3.031h0.978v7.018h-0.978v-3.284h-1.8v3.284H32.857z"
      fill="#FFFFFF"/>
  <path
      d="M37.716,48.578v-7.018h1.413c0.468,0 0.854,0.061 1.162,0.188c0.306,0.124 0.531,0.322 0.678,0.598c0.146,0.272 0.221,0.634 0.221,1.08c0,0.27 -0.029,0.517 -0.089,0.738c-0.058,0.223 -0.148,0.41 -0.275,0.562c-0.126,0.153 -0.294,0.266 -0.502,0.333l0.997,3.518h-0.945l-0.917,-3.291h-0.763v3.291h-0.979V48.578zM38.696,44.584h0.372c0.278,0 0.503,-0.035 0.676,-0.104c0.174,-0.069 0.301,-0.188 0.382,-0.355c0.081,-0.165 0.121,-0.399 0.121,-0.699c0,-0.411 -0.074,-0.708 -0.225,-0.89c-0.15,-0.183 -0.446,-0.273 -0.894,-0.273h-0.433V44.584z"
      fill="#FFFFFF"/>
</svg>
