<?xml version="1.0" encoding="utf-8"?>
<svg version="1.1" id="Layer_1" xmlns="http://www.w3.org/2000/svg" xmlns:xlink="http://www.w3.org/1999/xlink"
    width="64"
   height="64"
   viewBox="0 0 64 64">
  <path
      d="M58,45.438c0,1.144 -0.808,2.555 -1.794,3.134L33.794,61.734c-0.987,0.579 -2.601,0.579 -3.587,0L7.793,48.572C6.807,47.993 6,46.582 6,45.438V19.061c0,-1.144 0.807,-2.554 1.793,-3.133L30.207,2.766c0.987,-0.579 2.6,-0.579 3.587,0l22.412,13.162C57.192,16.507 58,17.917 58,19.061V45.438z"

      fill="#B71C1C"
      style= "fill-opacity=0.2"/>
  <path
      d="M54,43c0,1.1 -0.778,2.451 -1.73,3.003L33.73,56.747c-0.951,0.552 -2.51,0.552 -3.461,0L11.73,46.003C10.779,45.451 10,44.1 10,43V21.5c0,-1.1 0.779,-2.451 1.73,-3.003L30.27,7.753c0.951,-0.552 2.51,-0.552 3.461,0L52.27,18.497C53.222,19.049 54,20.4 54,21.5V43z"
      fill="#B71C1C"/>
  <path
      d="M23.778,43.313v-6.306c-0.006,0.006 -0.077,0.024 -0.212,0.057c-0.135,0.031 -0.287,0.063 -0.457,0.094c-0.169,0.032 -0.32,0.06 -0.452,0.085c-0.131,0.025 -0.201,0.037 -0.207,0.037v-0.762c0.106,-0.025 0.23,-0.061 0.372,-0.104s0.286,-0.097 0.433,-0.16c0.147,-0.062 0.289,-0.141 0.423,-0.234c0.135,-0.095 0.25,-0.204 0.344,-0.33h0.762v7.624H23.778z"
      fill="#FFFFFF"/>
  <path
      d="M28.333,43.397c-0.433,0 -0.789,-0.097 -1.068,-0.291c-0.279,-0.193 -0.486,-0.461 -0.621,-0.8c-0.135,-0.339 -0.203,-0.726 -0.203,-1.157v-3.285c0,-0.446 0.066,-0.837 0.198,-1.172c0.132,-0.336 0.337,-0.599 0.617,-0.786c0.279,-0.188 0.639,-0.282 1.078,-0.282s0.797,0.094 1.073,0.282c0.276,0.188 0.48,0.45 0.612,0.786c0.131,0.335 0.198,0.726 0.198,1.172v3.285c0,0.438 -0.067,0.827 -0.202,1.166c-0.136,0.339 -0.341,0.604 -0.617,0.796C29.121,43.304 28.766,43.397 28.333,43.397zM28.333,42.57c0.239,0 0.419,-0.069 0.541,-0.207c0.123,-0.138 0.208,-0.315 0.254,-0.532c0.047,-0.216 0.071,-0.441 0.071,-0.673v-3.303c0,-0.246 -0.022,-0.477 -0.066,-0.693s-0.126,-0.391 -0.249,-0.521c-0.123,-0.132 -0.306,-0.197 -0.551,-0.197c-0.244,0 -0.43,0.065 -0.555,0.197c-0.125,0.131 -0.21,0.305 -0.254,0.521c-0.044,0.217 -0.066,0.447 -0.066,0.693v3.303c0,0.231 0.024,0.457 0.071,0.673c0.047,0.217 0.135,0.395 0.264,0.532S28.101,42.57 28.333,42.57z"
      fill="#FFFFFF"/>
  <path
      d="M33.199,43.397c-0.433,0 -0.789,-0.097 -1.068,-0.291c-0.279,-0.193 -0.486,-0.461 -0.621,-0.8c-0.135,-0.339 -0.202,-0.726 -0.202,-1.157v-3.285c0,-0.446 0.066,-0.837 0.197,-1.172c0.133,-0.336 0.338,-0.599 0.617,-0.786c0.279,-0.188 0.639,-0.282 1.077,-0.282s0.796,0.094 1.072,0.282c0.276,0.188 0.481,0.45 0.613,0.786c0.132,0.335 0.196,0.726 0.196,1.172v3.285c0,0.438 -0.067,0.827 -0.201,1.166c-0.136,0.339 -0.341,0.604 -0.617,0.796C33.985,43.304 33.633,43.397 33.199,43.397zM33.199,42.57c0.238,0 0.418,-0.069 0.542,-0.207c0.122,-0.138 0.205,-0.315 0.254,-0.532c0.046,-0.216 0.069,-0.441 0.069,-0.673v-3.303c0,-0.246 -0.021,-0.477 -0.064,-0.693c-0.044,-0.217 -0.127,-0.391 -0.249,-0.521c-0.122,-0.132 -0.307,-0.197 -0.552,-0.197c-0.244,0 -0.429,0.065 -0.555,0.197c-0.125,0.131 -0.209,0.305 -0.253,0.521s-0.066,0.447 -0.066,0.693v3.303c0,0.231 0.023,0.457 0.07,0.673c0.047,0.217 0.135,0.395 0.264,0.532C32.787,42.501 32.968,42.57 33.199,42.57z"
      fill="#FFFFFF"/>
  <path
      d="M36.137,43.313v-5.439h0.931v0.517c0.183,-0.207 0.383,-0.36 0.602,-0.461c0.222,-0.1 0.447,-0.15 0.678,-0.15c0.201,0 0.383,0.051 0.542,0.15c0.159,0.101 0.274,0.279 0.344,0.536c0.193,-0.238 0.405,-0.412 0.636,-0.521c0.229,-0.11 0.469,-0.165 0.72,-0.165c0.175,0 0.337,0.042 0.479,0.127c0.146,0.085 0.261,0.22 0.348,0.405c0.088,0.185 0.134,0.428 0.134,0.729v4.273h-0.924v-4.207c0,-0.264 -0.042,-0.441 -0.127,-0.532c-0.083,-0.091 -0.198,-0.136 -0.344,-0.136c-0.139,0 -0.281,0.039 -0.434,0.117c-0.149,0.078 -0.288,0.187 -0.412,0.325c0,0.024 0,0.05 0,0.075s0,0.053 0,0.084v4.273h-0.922v-4.207c0,-0.264 -0.044,-0.441 -0.13,-0.532c-0.083,-0.091 -0.198,-0.136 -0.343,-0.136c-0.137,0 -0.279,0.039 -0.427,0.117s-0.288,0.187 -0.42,0.325v4.433H36.137z"
      fill="#FFFFFF"/>
  <path
      d="M35.538,17.512m-1.673,0a1.673,1.673 0,1 1,3.346 0a1.673,1.673 0,1 1,-3.346 0"

      fill="#D1D1D1"
      style= "fill-opacity=0.7"/>
  <path
      d="M37.762,27.533h0.007l-4.131,-4.126l-1.614,1.616l4.104,4.103c0.207,0.223 0.499,0.361 0.832,0.361c0.627,0 1.14,-0.512 1.14,-1.144C38.1,28.027 37.972,27.741 37.762,27.533z"

      fill="#D1D1D1"
      style= "fill-opacity=0.7"/>
  <path
      d="M33.638,23.407c-0.449,-0.448 -0.896,-0.9 -1.344,-1.348c-0.158,-0.16 -0.374,-0.164 -0.532,-0.004c-0.086,0.083 -0.167,0.166 -0.25,0.249c-0.301,0.302 -0.6,0.6 -0.9,0.901c-0.393,0.392 -0.785,0.786 -1.177,1.178c-0.216,0.216 -0.47,0.371 -0.777,0.42c-0.369,0.059 -0.749,-0.042 -1.036,-0.276c-0.104,-0.08 -0.192,-0.179 -0.286,-0.273c-0.153,-0.151 -0.303,-0.303 -0.455,-0.456c-0.273,-0.271 -0.548,-0.623 -0.921,-0.741c-0.359,-0.118 -0.758,-0.045 -1.054,0.187c-0.287,0.226 -0.455,0.58 -0.441,0.945c0.012,0.292 0.14,0.567 0.347,0.773c0.102,0.103 0.205,0.207 0.309,0.311c0.251,0.254 0.502,0.503 0.754,0.759c0.473,0.468 1.058,0.809 1.704,0.966c0.731,0.183 1.515,0.131 2.214,-0.15c0.336,-0.133 0.652,-0.322 0.936,-0.549c0.173,-0.142 0.326,-0.304 0.483,-0.461c0.265,-0.266 0.529,-0.532 0.794,-0.796c0.005,-0.005 0.01,-0.01 0.017,-0.017c0.005,0.007 0.014,0.012 0.016,0.017c-0.027,-0.032 0.132,-0.154 0.154,-0.172c0.143,-0.128 0.289,-0.248 0.445,-0.359c0.368,-0.262 0.823,-0.515 1.292,-0.48c0.256,0.021 0.467,0.142 0.647,0.321C34.267,24.036 33.954,23.721 33.638,23.407z"

      fill="#FFFFFF"
      style= "fill-opacity=0.7"/>
  <path
      d="M39.465,19.995c0,-0.644 -0.553,-1.175 -1.193,-1.151c-0.321,0.012 -0.59,0.159 -0.812,0.38c-0.1,0.099 -0.201,0.201 -0.298,0.299c-0.462,0.465 -0.933,0.931 -1.396,1.397c-0.003,0 -0.003,0 -0.003,0.003c-0.239,-0.24 -0.483,-0.48 -0.718,-0.718c-0.282,-0.282 -0.555,-0.57 -0.884,-0.793c-0.63,-0.433 -1.389,-0.656 -2.151,-0.637c-0.76,0.021 -1.501,0.28 -2.105,0.737c-0.036,0.026 -0.069,0.052 -0.106,0.082c0.289,-0.21 0.688,-0.079 0.976,0.055c0.416,0.195 0.794,0.476 1.149,0.767c0.44,0.365 0.847,0.771 1.248,1.171c0.284,0.286 0.568,0.571 0.857,0.857c0.072,0.07 0.131,0.14 0.208,0.214c0.236,0.236 0.515,0.419 0.831,0.529c0.36,0.125 0.752,0.151 1.124,0.078c0.185,-0.036 0.365,-0.1 0.536,-0.181c0.118,-0.062 0.259,-0.132 0.355,-0.226c0.174,-0.177 0.352,-0.354 0.529,-0.529c0.503,-0.508 1.009,-1.011 1.513,-1.514C39.34,20.599 39.465,20.301 39.465,19.995C39.465,19.359 39.465,20.313 39.465,19.995z"

      fill="#FFFFFF"
      style= "fill-opacity=0.7"/>
  <path
      d="M29.799,19.595c-0.231,0.187 -0.437,0.411 -0.646,0.622c-0.301,0.298 -0.599,0.599 -0.9,0.897c-0.068,0.072 -0.139,0.142 -0.21,0.21c-0.255,0.246 -0.388,0.598 -0.35,0.952c0.073,0.701 0.79,1.184 1.471,0.982c0.358,-0.104 0.591,-0.39 0.847,-0.646c0.302,-0.302 0.605,-0.602 0.906,-0.906c0.17,-0.173 0.333,-0.354 0.549,-0.47c0.237,-0.128 0.509,-0.182 0.779,-0.155c0.273,0.028 0.502,0.146 0.72,0.305c-0.445,-0.474 -0.938,-0.92 -1.467,-1.301c-0.287,-0.209 -0.595,-0.408 -0.935,-0.525C30.32,19.479 30.025,19.432 29.799,19.595C29.786,19.607 30.683,18.952 29.799,19.595z"

      fill="#D1D1D1"
      style= "fill-opacity=0.7"/>
</svg>
