<?xml version="1.0" encoding="utf-8"?>
<svg version="1.1" id="Layer_1" xmlns="http://www.w3.org/2000/svg" xmlns:xlink="http://www.w3.org/1999/xlink"
    width="64"
   height="64"
   viewBox="0 0 64 64">
  <path
      d="M15.658,60.225c-1.1,0 -2.278,-0.855 -2.618,-1.902L2.94,27.24c-0.34,-1.047 0.11,-2.432 1,-3.078L30.382,4.951c0.89,-0.646 2.347,-0.646 3.236,0L60.06,24.162c0.89,0.646 1.34,2.031 1,3.078l-10.1,31.082c-0.34,1.047 -1.519,1.902 -2.618,1.902H15.658z"

      fill="#880E4F"
     style= "fill-opacity=0.2"/>
  <path
      d="M18.709,56.531c-1.101,0 -2.279,-0.855 -2.619,-1.902L7.875,29.347c-0.34,-1.047 0.11,-2.432 1,-3.078l21.507,-15.624c0.89,-0.646 2.347,-0.646 3.236,0l21.506,15.624c0.89,0.646 1.34,2.032 1,3.078l-8.213,25.282c-0.34,1.047 -1.519,1.902 -2.618,1.902H18.709z"
      fill="#880E4F"/>
  <path
      d="M31.254,20.341h2.473c0.203,0 0.37,0.168 0.37,0.373v0.742c0,0.202 -0.167,0.368 -0.37,0.368h-2.473c-0.205,0 -0.371,-0.166 -0.371,-0.368v-0.742C30.883,20.509 31.049,20.341 31.254,20.341z"
      fill="#FFFFFF"/>
  <path
      d="M26.559,25.781h-2.473c-0.206,0 -0.371,0.165 -0.371,0.37c0,0.206 0.165,0.371 0.371,0.371h2.473c0.205,0 0.371,-0.165 0.371,-0.371C26.93,25.946 26.762,25.781 26.559,25.781z"
      fill="#FFFFFF"/>
  <path
      d="M26.434,29.119c0,-0.205 -0.167,-0.373 -0.37,-0.373h-2.473c-0.205,0 -0.371,0.168 -0.371,0.373c0,0.203 0.166,0.368 0.371,0.368h2.473C26.267,29.487 26.434,29.322 26.434,29.119z"
      fill="#FFFFFF"/>
  <path
      d="M26.311,30.229h-1.73c-0.203,0 -0.371,0.166 -0.371,0.371c0,0.207 0.168,0.373 0.371,0.373h1.73c0.203,0 0.371,-0.166 0.371,-0.373C26.682,30.396 26.514,30.229 26.311,30.229z"
      fill="#FFFFFF"/>
  <path
      d="M26.434,27.636c0,-0.206 -0.167,-0.374 -0.37,-0.374H22.85c-0.205,0 -0.371,0.168 -0.371,0.374c0,0.202 0.166,0.37 0.371,0.37h3.214C26.267,28.004 26.434,27.838 26.434,27.636z"
      fill="#FFFFFF"/>
  <path
      d="M32.488,28.375v-4.201c-2.316,0 -4.203,1.885 -4.203,4.201s1.886,4.204 4.203,4.204c2.318,0 4.204,-1.886 4.204,-4.204H32.488z"
      fill="#FFFFFF"/>
  <path
      d="M36.558,24.586l0.398,-0.396c0.145,-0.145 0.147,-0.378 0.003,-0.524c-0.143,-0.145 -0.378,-0.149 -0.522,-0.005c-0.003,0 -0.005,0.005 -0.005,0.005l-0.413,0.413c-0.799,-0.656 -1.765,-1.076 -2.786,-1.214v-0.669h-1.483v0.669c-1.022,0.138 -1.987,0.558 -2.784,1.214l-0.414,-0.413c-0.145,-0.147 -0.377,-0.149 -0.523,-0.005c-0.146,0.143 -0.148,0.378 -0.006,0.522c0.002,0.005 0.004,0.005 0.006,0.007l0.396,0.396c-0.963,1.027 -1.496,2.382 -1.494,3.789c0,3.067 2.494,5.562 5.561,5.562c3.065,0 5.563,-2.494 5.563,-5.562C38.055,26.968 37.519,25.613 36.558,24.586zM32.488,32.949c-2.523,0 -4.572,-2.048 -4.572,-4.574c0,-2.524 2.049,-4.572 4.572,-4.572c2.526,0 4.575,2.048 4.575,4.572C37.063,30.901 35.015,32.949 32.488,32.949L32.488,32.949z"
      fill="#FFFFFF"/>
  <path
      d="M26.029,48.652v-5.916c-0.006,0.007 -0.073,0.024 -0.201,0.054c-0.126,0.029 -0.271,0.059 -0.429,0.088c-0.157,0.031 -0.3,0.057 -0.424,0.08c-0.123,0.024 -0.188,0.035 -0.196,0.035v-0.716c0.102,-0.023 0.219,-0.056 0.351,-0.096c0.134,-0.042 0.269,-0.09 0.404,-0.148c0.141,-0.059 0.272,-0.135 0.399,-0.221c0.126,-0.09 0.232,-0.192 0.322,-0.311h0.714v7.153h-0.94V48.652z"
      fill="#FFFFFF"/>
  <path
      d="M30.592,48.652V41.5h1v3.09h1.835V41.5h0.998v7.152h-0.998v-3.347h-1.835v3.347H30.592z"
      fill="#FFFFFF"/>
  <path
      d="M35.548,48.652V41.5h1.44c0.475,0 0.87,0.062 1.182,0.19c0.313,0.126 0.542,0.329 0.694,0.609c0.148,0.278 0.225,0.646 0.225,1.1c0,0.276 -0.031,0.527 -0.09,0.754c-0.06,0.228 -0.152,0.418 -0.281,0.572c-0.131,0.156 -0.301,0.271 -0.513,0.34l1.016,3.586h-0.963l-0.936,-3.355h-0.777v3.355L35.548,48.652L35.548,48.652zM36.545,44.581h0.382c0.28,0 0.511,-0.035 0.688,-0.105c0.177,-0.069 0.307,-0.19 0.388,-0.362c0.084,-0.168 0.123,-0.406 0.123,-0.714c0,-0.419 -0.075,-0.721 -0.228,-0.905c-0.152,-0.186 -0.456,-0.278 -0.909,-0.278h-0.443V44.581z"
      fill="#FFFFFF"/>
</svg>
