<?xml version="1.0" encoding="utf-8"?>
<svg version="1.1" id="Layer_1" xmlns="http://www.w3.org/2000/svg" xmlns:xlink="http://www.w3.org/1999/xlink"
    width="64"
   height="64"
   viewBox="0 0 64 64">
  <path
      d="M58,45.188c0,1.144 -0.808,2.555 -1.794,3.134L33.794,61.484c-0.987,0.579 -2.601,0.579 -3.587,0L7.793,48.322C6.807,47.743 6,46.332 6,45.188V18.811c0,-1.144 0.807,-2.554 1.793,-3.133L30.207,2.516c0.986,-0.579 2.6,-0.579 3.587,0l22.412,13.162C57.192,16.257 58,17.667 58,18.811V45.188z"

      fill="#4A148C"
      style= "fill-opacity=0.2"/>
  <path
      d="M54,42.75c0,1.1 -0.778,2.451 -1.73,3.003L33.73,56.497c-0.951,0.552 -2.51,0.552 -3.461,0L11.73,45.753C10.779,45.201 10,43.85 10,42.75v-21.5c0,-1.1 0.779,-2.451 1.73,-3.003L30.27,7.503c0.951,-0.552 2.51,-0.552 3.461,0L52.27,18.247C53.222,18.799 54,20.15 54,21.25V42.75z"
      fill="#4A148C"/>
  <path
      d="M25.549,43.313v-6.306c-0.007,0.006 -0.078,0.024 -0.212,0.057c-0.137,0.031 -0.288,0.063 -0.457,0.094c-0.17,0.032 -0.32,0.06 -0.451,0.085c-0.132,0.025 -0.201,0.037 -0.208,0.037v-0.762c0.106,-0.025 0.23,-0.061 0.371,-0.104c0.141,-0.043 0.286,-0.097 0.434,-0.16c0.147,-0.062 0.288,-0.141 0.424,-0.234c0.134,-0.095 0.249,-0.204 0.344,-0.33h0.761v7.624H25.549z"
      fill="#FFFFFF"/>
  <path
      d="M30.348,43.305v-7.624h1.008v4.546l1.469,-2.353h1.053L32.598,40l1.243,3.313h-1.008l-1.017,-2.785l-0.461,0.696v2.08H30.348z"
      fill="#FFFFFF"/>
  <path
      d="M34.366,43.313v-5.439h0.932v0.518c0.182,-0.208 0.382,-0.361 0.604,-0.462c0.219,-0.1 0.445,-0.15 0.678,-0.15c0.2,0 0.38,0.051 0.542,0.15c0.159,0.101 0.274,0.279 0.343,0.536c0.194,-0.238 0.406,-0.412 0.635,-0.521c0.23,-0.11 0.47,-0.165 0.721,-0.165c0.176,0 0.335,0.042 0.479,0.127c0.144,0.085 0.261,0.22 0.349,0.405c0.088,0.185 0.131,0.428 0.131,0.729v4.273h-0.922v-4.207c0,-0.264 -0.041,-0.441 -0.127,-0.532c-0.085,-0.091 -0.2,-0.136 -0.343,-0.136c-0.139,0 -0.284,0.039 -0.434,0.117c-0.15,0.079 -0.288,0.188 -0.415,0.325c0,0.024 0,0.05 0,0.075s0,0.053 0,0.084v4.273h-0.922v-4.207c0,-0.264 -0.042,-0.441 -0.127,-0.532s-0.198,-0.136 -0.344,-0.136c-0.138,0 -0.281,0.039 -0.429,0.117c-0.147,0.079 -0.286,0.188 -0.419,0.325v4.433H34.366z"
      fill="#FFFFFF"/>
  <path
      d="M35.539,17.512m-1.673,0a1.673,1.673 0,1 1,3.346 0a1.673,1.673 0,1 1,-3.346 0"

      fill="#D1D1D1"
      style= "fill-opacity=0.7"/>
  <path
      d="M37.762,27.534h0.007l-4.13,-4.126l-1.614,1.616l4.104,4.102c0.207,0.224 0.5,0.362 0.831,0.362c0.629,0 1.141,-0.511 1.141,-1.145C38.1,28.027 37.972,27.741 37.762,27.534z"

      fill="#D1D1D1"
      style= "fill-opacity=0.7"/>
  <path
      d="M33.639,23.408c-0.449,-0.449 -0.898,-0.901 -1.346,-1.348c-0.157,-0.16 -0.374,-0.165 -0.531,-0.005c-0.085,0.083 -0.168,0.166 -0.25,0.249c-0.304,0.302 -0.602,0.601 -0.9,0.9c-0.392,0.393 -0.786,0.786 -1.178,1.177c-0.217,0.217 -0.471,0.372 -0.775,0.421c-0.369,0.059 -0.749,-0.042 -1.036,-0.276c-0.104,-0.079 -0.193,-0.178 -0.286,-0.273c-0.151,-0.151 -0.302,-0.302 -0.453,-0.456c-0.273,-0.271 -0.549,-0.623 -0.924,-0.741c-0.359,-0.119 -0.757,-0.046 -1.053,0.187c-0.286,0.225 -0.453,0.579 -0.44,0.944c0.014,0.292 0.142,0.568 0.346,0.773c0.102,0.104 0.207,0.208 0.309,0.312c0.254,0.254 0.503,0.504 0.757,0.759c0.469,0.468 1.054,0.809 1.702,0.966c0.73,0.185 1.513,0.132 2.213,-0.149c0.339,-0.133 0.654,-0.324 0.938,-0.55c0.171,-0.142 0.326,-0.303 0.483,-0.46c0.263,-0.267 0.529,-0.533 0.792,-0.796c0.006,-0.006 0.013,-0.011 0.02,-0.018c0.003,0.007 0.013,0.012 0.017,0.018c-0.03,-0.033 0.131,-0.155 0.15,-0.174c0.146,-0.128 0.29,-0.247 0.447,-0.358c0.369,-0.261 0.822,-0.516 1.293,-0.48c0.256,0.02 0.467,0.142 0.647,0.32C34.267,24.035 33.955,23.72 33.639,23.408z"

      fill="#FFFFFF"
      style= "fill-opacity=0.7"/>
  <path
      d="M39.465,19.995c0,-0.644 -0.553,-1.173 -1.193,-1.15c-0.322,0.013 -0.589,0.159 -0.813,0.379c-0.099,0.1 -0.2,0.203 -0.296,0.301c-0.463,0.464 -0.934,0.931 -1.397,1.396c-0.003,0.002 -0.003,0.002 -0.003,0.005c-0.24,-0.239 -0.483,-0.481 -0.717,-0.72c-0.283,-0.279 -0.556,-0.568 -0.885,-0.792c-0.631,-0.434 -1.39,-0.657 -2.153,-0.638c-0.756,0.022 -1.499,0.279 -2.104,0.738c-0.036,0.024 -0.068,0.051 -0.104,0.08c0.29,-0.208 0.687,-0.079 0.977,0.057c0.418,0.193 0.792,0.476 1.15,0.768c0.438,0.363 0.846,0.771 1.246,1.17c0.286,0.286 0.568,0.57 0.858,0.856c0.072,0.072 0.131,0.142 0.208,0.213c0.235,0.237 0.515,0.421 0.831,0.529c0.36,0.125 0.752,0.152 1.124,0.079c0.184,-0.036 0.365,-0.099 0.536,-0.181c0.118,-0.063 0.259,-0.132 0.355,-0.227c0.174,-0.178 0.351,-0.354 0.529,-0.529c0.503,-0.506 1.008,-1.009 1.513,-1.512C39.34,20.6 39.465,20.3 39.465,19.995C39.465,19.36 39.465,20.313 39.465,19.995z"

      fill="#FFFFFF"
      style= "fill-opacity=0.7"/>
  <path
      d="M29.799,19.593c-0.229,0.188 -0.438,0.412 -0.647,0.625c-0.3,0.296 -0.599,0.599 -0.898,0.897c-0.068,0.071 -0.141,0.142 -0.21,0.21c-0.257,0.245 -0.388,0.597 -0.352,0.951c0.072,0.702 0.793,1.183 1.473,0.982c0.359,-0.105 0.589,-0.391 0.845,-0.646c0.303,-0.303 0.604,-0.602 0.907,-0.906c0.171,-0.172 0.333,-0.355 0.55,-0.47c0.237,-0.128 0.509,-0.181 0.776,-0.155c0.275,0.028 0.503,0.146 0.723,0.306c-0.447,-0.474 -0.94,-0.92 -1.47,-1.301c-0.287,-0.209 -0.595,-0.408 -0.935,-0.524C30.318,19.479 30.026,19.433 29.799,19.593C29.785,19.606 30.684,18.953 29.799,19.593z"

      fill="#D1D1D1"
      style= "fill-opacity=0.7"/>
</svg>
