<?xml version="1.0" encoding="utf-8"?>
<svg version="1.1" id="Layer_1" xmlns="http://www.w3.org/2000/svg" xmlns:xlink="http://www.w3.org/1999/xlink"
    width="64"
   height="64"
   viewBox="0 0 64 64">
  <path
      d="M58,45.438c0,1.144 -0.808,2.555 -1.794,3.134L33.794,61.734c-0.987,0.579 -2.601,0.579 -3.587,0L7.793,48.572C6.807,47.993 6,46.582 6,45.438V19.061c0,-1.144 0.807,-2.554 1.793,-3.133L30.207,2.766c0.986,-0.579 2.6,-0.579 3.587,0l22.412,13.162C57.192,16.507 58,17.917 58,19.061V45.438z"

      fill="#880E4F"
      style= "fill-opacity=0.2"/>
  <path
      d="M54,43c0,1.1 -0.778,2.451 -1.73,3.003L33.73,56.747c-0.951,0.552 -2.51,0.552 -3.461,0L11.73,46.003C10.779,45.451 10,44.1 10,43V21.5c0,-1.1 0.779,-2.451 1.73,-3.003L30.27,7.753c0.951,-0.552 2.51,-0.552 3.461,0L52.27,18.497C53.222,19.049 54,20.4 54,21.5V43z"
      fill="#880E4F"/>
  <path
      d="M24.357,43.389c-0.458,0 -0.822,-0.088 -1.092,-0.263c-0.27,-0.177 -0.463,-0.43 -0.578,-0.763c-0.118,-0.332 -0.176,-0.728 -0.176,-1.187h1.008c0,0.227 0.019,0.447 0.057,0.664c0.037,0.217 0.117,0.396 0.24,0.536c0.122,0.142 0.309,0.212 0.561,0.212c0.275,0 0.473,-0.079 0.592,-0.239c0.119,-0.161 0.194,-0.377 0.227,-0.65c0.031,-0.272 0.046,-0.581 0.046,-0.927c0,-0.345 -0.019,-0.639 -0.056,-0.88c-0.038,-0.241 -0.116,-0.427 -0.234,-0.555c-0.12,-0.13 -0.31,-0.194 -0.565,-0.194c-0.207,0 -0.383,0.064 -0.527,0.194c-0.145,0.128 -0.252,0.273 -0.32,0.437h-0.855v-4.085h3.285v1.008h-2.372l-0.067,2.107c0.126,-0.131 0.281,-0.235 0.466,-0.31c0.186,-0.075 0.397,-0.113 0.636,-0.113c0.414,0 0.739,0.097 0.975,0.292c0.235,0.194 0.402,0.461 0.499,0.8s0.146,0.729 0.146,1.167c0,0.389 -0.028,0.752 -0.085,1.087c-0.056,0.336 -0.155,0.627 -0.296,0.875c-0.142,0.249 -0.334,0.441 -0.578,0.58C25.044,43.319 24.734,43.389 24.357,43.389z"
      fill="#FFFFFF"/>
  <path
      d="M28.987,43.398c-0.433,0 -0.788,-0.098 -1.067,-0.292c-0.279,-0.193 -0.486,-0.461 -0.622,-0.8c-0.134,-0.339 -0.202,-0.726 -0.202,-1.157v-3.285c0,-0.446 0.065,-0.837 0.197,-1.172c0.133,-0.336 0.338,-0.599 0.617,-0.786s0.639,-0.282 1.077,-0.282c0.44,0 0.798,0.095 1.074,0.282c0.275,0.188 0.479,0.45 0.61,0.786c0.132,0.335 0.198,0.726 0.198,1.172v3.285c0,0.439 -0.066,0.827 -0.202,1.166c-0.135,0.339 -0.341,0.604 -0.616,0.796C29.775,43.304 29.421,43.398 28.987,43.398zM28.987,42.57c0.239,0 0.419,-0.069 0.542,-0.207c0.122,-0.138 0.207,-0.315 0.253,-0.531c0.049,-0.217 0.071,-0.441 0.071,-0.674v-3.303c0,-0.246 -0.022,-0.477 -0.066,-0.693s-0.127,-0.391 -0.249,-0.521c-0.122,-0.132 -0.306,-0.197 -0.551,-0.197c-0.244,0 -0.429,0.065 -0.555,0.197c-0.126,0.131 -0.211,0.305 -0.255,0.521s-0.065,0.447 -0.065,0.693v3.303c0,0.232 0.024,0.457 0.07,0.674c0.047,0.216 0.136,0.394 0.264,0.531S28.756,42.57 28.987,42.57z"
      fill="#FFFFFF"/>
  <path
      d="M33.854,43.398c-0.434,0 -0.788,-0.098 -1.067,-0.292c-0.279,-0.193 -0.486,-0.461 -0.622,-0.8c-0.134,-0.339 -0.201,-0.726 -0.201,-1.157v-3.285c0,-0.446 0.064,-0.837 0.196,-1.172c0.131,-0.336 0.339,-0.599 0.618,-0.786c0.278,-0.188 0.638,-0.282 1.076,-0.282c0.44,0 0.798,0.095 1.074,0.282s0.479,0.45 0.61,0.786c0.132,0.335 0.198,0.726 0.198,1.172v3.285c0,0.439 -0.066,0.827 -0.202,1.166c-0.134,0.339 -0.342,0.604 -0.616,0.796C34.642,43.304 34.287,43.398 33.854,43.398zM33.854,42.57c0.239,0 0.419,-0.069 0.542,-0.207c0.122,-0.138 0.207,-0.315 0.253,-0.531c0.049,-0.217 0.071,-0.441 0.071,-0.674v-3.303c0,-0.246 -0.022,-0.477 -0.066,-0.693s-0.127,-0.391 -0.249,-0.521c-0.122,-0.132 -0.307,-0.197 -0.551,-0.197s-0.429,0.065 -0.556,0.197c-0.124,0.131 -0.21,0.305 -0.254,0.521s-0.064,0.447 -0.064,0.693v3.303c0,0.232 0.023,0.457 0.069,0.674c0.049,0.216 0.136,0.394 0.266,0.531C33.44,42.501 33.623,42.57 33.854,42.57z"
      fill="#FFFFFF"/>
  <path
      d="M36.79,43.313v-5.439h0.932v0.518c0.182,-0.208 0.383,-0.361 0.604,-0.462c0.22,-0.1 0.445,-0.15 0.678,-0.15c0.201,0 0.381,0.051 0.542,0.15c0.159,0.101 0.274,0.279 0.344,0.536c0.193,-0.238 0.405,-0.412 0.634,-0.521c0.23,-0.11 0.47,-0.165 0.722,-0.165c0.175,0 0.334,0.042 0.479,0.127c0.143,0.085 0.26,0.22 0.348,0.405c0.088,0.185 0.132,0.428 0.132,0.729v4.273H41.28v-4.207c0,-0.264 -0.041,-0.441 -0.126,-0.532c-0.086,-0.091 -0.201,-0.136 -0.344,-0.136c-0.139,0 -0.283,0.039 -0.434,0.117c-0.149,0.079 -0.288,0.188 -0.415,0.325c0,0.024 0,0.05 0,0.075s0,0.053 0,0.084v4.273H39.04v-4.207c0,-0.264 -0.041,-0.441 -0.127,-0.532c-0.085,-0.091 -0.198,-0.136 -0.344,-0.136c-0.138,0 -0.281,0.039 -0.429,0.117c-0.147,0.079 -0.285,0.188 -0.419,0.325v4.433H36.79z"
      fill="#FFFFFF"/>
  <path
      d="M35.538,17.511m-1.673,0a1.673,1.673 0,1 1,3.346 0a1.673,1.673 0,1 1,-3.346 0"

      fill="#D1D1D1"
      style= "fill-opacity=0.7"/>
  <path
      d="M37.763,27.533h0.007l-4.132,-4.125l-1.614,1.616l4.104,4.103c0.208,0.223 0.502,0.361 0.833,0.361c0.627,0 1.14,-0.511 1.14,-1.144C38.1,28.028 37.972,27.741 37.763,27.533z"

      fill="#D1D1D1"
      style= "fill-opacity=0.7"/>
  <path
      d="M33.638,23.407c-0.448,-0.449 -0.896,-0.901 -1.346,-1.349c-0.157,-0.159 -0.372,-0.164 -0.53,-0.004c-0.085,0.083 -0.167,0.165 -0.249,0.249c-0.303,0.302 -0.603,0.6 -0.901,0.901c-0.392,0.392 -0.786,0.785 -1.178,1.177c-0.217,0.217 -0.471,0.372 -0.775,0.42c-0.368,0.059 -0.75,-0.042 -1.036,-0.275c-0.104,-0.081 -0.194,-0.179 -0.286,-0.273c-0.153,-0.151 -0.302,-0.304 -0.455,-0.457c-0.273,-0.271 -0.548,-0.623 -0.922,-0.741c-0.358,-0.118 -0.757,-0.045 -1.052,0.187c-0.289,0.226 -0.454,0.58 -0.442,0.945c0.013,0.292 0.142,0.567 0.346,0.773c0.102,0.104 0.206,0.208 0.31,0.312c0.252,0.253 0.503,0.503 0.755,0.759c0.471,0.468 1.058,0.809 1.702,0.966c0.732,0.183 1.516,0.13 2.215,-0.15c0.337,-0.134 0.653,-0.323 0.936,-0.549c0.173,-0.142 0.328,-0.304 0.485,-0.462c0.263,-0.266 0.529,-0.531 0.792,-0.795c0.008,-0.005 0.012,-0.011 0.019,-0.018c0.004,0.007 0.016,0.013 0.017,0.018c-0.027,-0.032 0.133,-0.154 0.152,-0.173c0.144,-0.128 0.289,-0.248 0.445,-0.359c0.369,-0.261 0.824,-0.515 1.294,-0.48c0.257,0.02 0.466,0.142 0.647,0.321C34.268,24.035 33.954,23.72 33.638,23.407z"

      fill="#FFFFFF"
      style= "fill-opacity=0.7"/>
  <path
      d="M39.465,19.994c0,-0.644 -0.552,-1.174 -1.192,-1.15c-0.322,0.013 -0.588,0.16 -0.813,0.379c-0.098,0.1 -0.199,0.202 -0.294,0.3c-0.466,0.464 -0.935,0.931 -1.4,1.396c-0.003,0 -0.003,0 -0.003,0.004c-0.24,-0.24 -0.481,-0.481 -0.717,-0.718c-0.283,-0.281 -0.555,-0.569 -0.883,-0.793c-0.632,-0.433 -1.391,-0.657 -2.154,-0.637c-0.758,0.021 -1.498,0.279 -2.104,0.738c-0.036,0.025 -0.069,0.051 -0.105,0.082c0.29,-0.21 0.687,-0.08 0.977,0.055c0.416,0.194 0.793,0.476 1.149,0.768c0.438,0.364 0.847,0.771 1.248,1.171c0.284,0.286 0.566,0.571 0.856,0.857c0.074,0.07 0.133,0.141 0.209,0.214c0.234,0.236 0.516,0.42 0.832,0.529c0.359,0.125 0.75,0.151 1.122,0.078c0.186,-0.036 0.366,-0.1 0.538,-0.182c0.118,-0.062 0.258,-0.131 0.354,-0.225c0.176,-0.177 0.353,-0.354 0.529,-0.53c0.503,-0.507 1.012,-1.011 1.515,-1.514C39.341,20.599 39.465,20.3 39.465,19.994C39.465,19.359 39.465,20.313 39.465,19.994z"

      fill="#FFFFFF"
      style= "fill-opacity=0.7"/>
  <path
      d="M29.799,19.595c-0.229,0.187 -0.438,0.411 -0.647,0.623c-0.3,0.297 -0.6,0.598 -0.897,0.897c-0.069,0.072 -0.142,0.142 -0.213,0.21c-0.255,0.246 -0.388,0.598 -0.35,0.952c0.072,0.701 0.791,1.183 1.471,0.982c0.359,-0.104 0.591,-0.39 0.847,-0.646c0.303,-0.303 0.605,-0.602 0.906,-0.906c0.171,-0.173 0.334,-0.354 0.55,-0.469c0.237,-0.128 0.509,-0.182 0.777,-0.155c0.274,0.028 0.503,0.146 0.722,0.305c-0.446,-0.474 -0.939,-0.92 -1.469,-1.301c-0.285,-0.209 -0.595,-0.408 -0.933,-0.524C30.318,19.478 30.024,19.432 29.799,19.595C29.786,19.606 30.682,18.952 29.799,19.595z"

      fill="#D1D1D1"
      style= "fill-opacity=0.7"/>
</svg>
