<?xml version="1.0" encoding="utf-8"?>
<svg version="1.1" id="Layer_1" xmlns="http://www.w3.org/2000/svg" xmlns:xlink="http://www.w3.org/1999/xlink"
    width="64"
   height="64"
   viewBox="0 0 64 64">
  <path
      d="M15.658,60.225c-1.1,0 -2.278,-0.855 -2.618,-1.902L2.94,27.24c-0.34,-1.047 0.11,-2.432 1,-3.078L30.382,4.951c0.89,-0.646 2.347,-0.646 3.236,0L60.06,24.162c0.89,0.646 1.34,2.031 1,3.078l-10.1,31.082c-0.34,1.047 -1.519,1.902 -2.618,1.902H15.658z"

      fill="#1B5E20"
      style= "fill-opacity=0.2"/>
  <path
      d="M18.709,56.531c-1.101,0 -2.279,-0.855 -2.619,-1.902L7.875,29.347c-0.34,-1.047 0.11,-2.432 1,-3.078l21.507,-15.624c0.89,-0.646 2.347,-0.646 3.236,0l21.506,15.624c0.89,0.646 1.34,2.032 1,3.078l-8.213,25.282c-0.34,1.047 -1.519,1.902 -2.618,1.902H18.709z"
      fill="#1B5E20"/>
  <path
      d="M31.254,20.341h2.473c0.203,0 0.37,0.168 0.37,0.373v0.742c0,0.202 -0.167,0.368 -0.37,0.368h-2.473c-0.205,0 -0.371,-0.166 -0.371,-0.368v-0.742C30.883,20.509 31.049,20.341 31.254,20.341z"
      fill="#FFFFFF"/>
  <path
      d="M26.559,25.781h-2.473c-0.206,0 -0.371,0.165 -0.371,0.37c0,0.206 0.165,0.371 0.371,0.371h2.473c0.205,0 0.371,-0.165 0.371,-0.371C26.93,25.946 26.762,25.781 26.559,25.781z"
      fill="#FFFFFF"/>
  <path
      d="M26.434,29.119c0,-0.205 -0.167,-0.373 -0.37,-0.373h-2.473c-0.205,0 -0.371,0.168 -0.371,0.373c0,0.203 0.166,0.368 0.371,0.368h2.473C26.267,29.487 26.434,29.322 26.434,29.119z"
      fill="#FFFFFF"/>
  <path
      d="M26.311,30.229h-1.73c-0.203,0 -0.371,0.166 -0.371,0.371c0,0.207 0.168,0.373 0.371,0.373h1.73c0.203,0 0.371,-0.166 0.371,-0.373C26.682,30.396 26.514,30.229 26.311,30.229z"
      fill="#FFFFFF"/>
  <path
      d="M26.434,27.636c0,-0.206 -0.167,-0.374 -0.37,-0.374H22.85c-0.205,0 -0.371,0.168 -0.371,0.374c0,0.202 0.166,0.37 0.371,0.37h3.214C26.267,28.004 26.434,27.838 26.434,27.636z"
      fill="#FFFFFF"/>
  <path
      d="M32.488,28.375v-4.201c-2.316,0 -4.203,1.885 -4.203,4.201s1.886,4.204 4.203,4.204c2.318,0 4.204,-1.886 4.204,-4.204H32.488z"
      fill="#FFFFFF"/>
  <path
      d="M36.558,24.586l0.398,-0.396c0.145,-0.145 0.147,-0.378 0.003,-0.524c-0.143,-0.145 -0.378,-0.149 -0.522,-0.005c-0.003,0 -0.005,0.005 -0.005,0.005l-0.413,0.413c-0.799,-0.656 -1.765,-1.076 -2.786,-1.214v-0.669h-1.483v0.669c-1.022,0.138 -1.987,0.558 -2.784,1.214l-0.414,-0.413c-0.145,-0.147 -0.377,-0.149 -0.523,-0.005c-0.146,0.143 -0.148,0.378 -0.006,0.522c0.002,0.005 0.004,0.005 0.006,0.007l0.396,0.396c-0.963,1.027 -1.496,2.382 -1.494,3.789c0,3.067 2.494,5.562 5.561,5.562c3.065,0 5.563,-2.494 5.563,-5.562C38.055,26.968 37.519,25.613 36.558,24.586zM32.488,32.949c-2.523,0 -4.572,-2.048 -4.572,-4.574c0,-2.524 2.049,-4.572 4.572,-4.572c2.526,0 4.575,2.048 4.575,4.572C37.063,30.901 35.015,32.949 32.488,32.949L32.488,32.949z"
      fill="#FFFFFF"/>
  <path
      d="M24.003,48.585v-5.858c-0.006,0.006 -0.072,0.023 -0.197,0.053c-0.125,0.028 -0.268,0.059 -0.426,0.088c-0.155,0.029 -0.298,0.054 -0.42,0.078c-0.122,0.023 -0.187,0.034 -0.191,0.034v-0.708c0.1,-0.023 0.214,-0.056 0.345,-0.096c0.131,-0.042 0.267,-0.089 0.403,-0.147c0.133,-0.059 0.267,-0.133 0.392,-0.218c0.125,-0.088 0.232,-0.19 0.32,-0.308h0.708v7.085h-0.934V48.585z"
      fill="#FFFFFF"/>
  <path
      d="M28.094,48.656c-0.425,0 -0.762,-0.082 -1.012,-0.246c-0.253,-0.163 -0.432,-0.399 -0.54,-0.708s-0.161,-0.677 -0.161,-1.102h0.935c0,0.209 0.02,0.415 0.053,0.617c0.036,0.201 0.11,0.367 0.223,0.498c0.114,0.134 0.288,0.199 0.52,0.199c0.259,0 0.442,-0.076 0.553,-0.224c0.111,-0.147 0.181,-0.35 0.21,-0.604s0.044,-0.541 0.044,-0.859c0,-0.323 -0.02,-0.596 -0.053,-0.818c-0.036,-0.225 -0.108,-0.396 -0.22,-0.516c-0.109,-0.119 -0.285,-0.18 -0.522,-0.18c-0.195,0 -0.356,0.061 -0.492,0.18c-0.134,0.12 -0.231,0.255 -0.298,0.406h-0.795v-3.797h3.054v0.937h-2.206l-0.062,1.958c0.117,-0.123 0.262,-0.218 0.435,-0.287c0.172,-0.072 0.37,-0.105 0.59,-0.105c0.386,0 0.687,0.089 0.906,0.27c0.217,0.181 0.373,0.43 0.463,0.744c0.091,0.315 0.135,0.678 0.135,1.086c0,0.362 -0.024,0.697 -0.077,1.01c-0.054,0.312 -0.146,0.583 -0.275,0.813c-0.131,0.23 -0.312,0.41 -0.539,0.538C28.733,48.595 28.444,48.656 28.094,48.656z"
      fill="#FFFFFF"/>
  <path
      d="M32.686,48.585V41.5h0.99v3.063h1.817V41.5h0.987v7.085h-0.987v-3.313h-1.817v3.313H32.686z"
      fill="#FFFFFF"/>
  <path
      d="M37.592,48.585V41.5h1.427c0.473,0 0.861,0.063 1.171,0.189c0.309,0.125 0.54,0.325 0.686,0.604c0.148,0.276 0.224,0.64 0.224,1.09c0,0.272 -0.03,0.523 -0.089,0.745c-0.059,0.226 -0.15,0.415 -0.28,0.567c-0.128,0.154 -0.295,0.269 -0.505,0.337l1.007,3.552h-0.954l-0.928,-3.323h-0.769v3.323L37.592,48.585L37.592,48.585zM38.582,44.553h0.375c0.28,0 0.507,-0.035 0.684,-0.104c0.176,-0.069 0.303,-0.189 0.385,-0.358c0.082,-0.167 0.122,-0.403 0.122,-0.707c0,-0.414 -0.075,-0.715 -0.227,-0.898c-0.152,-0.184 -0.452,-0.275 -0.902,-0.275h-0.437V44.553z"
      fill="#FFFFFF"/>
</svg>
