<?xml version="1.0" encoding="utf-8"?>
<svg version="1.1" id="Layer_1" xmlns="http://www.w3.org/2000/svg" xmlns:xlink="http://www.w3.org/1999/xlink"
    width="64"
   height="64"
   viewBox="0 0 64 64">
  <path
      d="M58,45.188c0,1.144 -0.808,2.555 -1.794,3.134L33.794,61.484c-0.987,0.579 -2.601,0.579 -3.587,0L7.793,48.322C6.807,47.743 6,46.332 6,45.188V18.811c0,-1.143 0.807,-2.554 1.793,-3.133L30.207,2.516c0.986,-0.579 2.6,-0.579 3.587,0l22.412,13.162C57.192,16.257 58,17.668 58,18.811V45.188z"

      fill="#311B92"
      style= "fill-opacity=0.2"/>
  <path
      d="M54,42.75c0,1.1 -0.778,2.451 -1.73,3.003L33.73,56.497c-0.951,0.552 -2.51,0.552 -3.461,0L11.73,45.753C10.779,45.201 10,43.85 10,42.75v-21.5c0,-1.1 0.779,-2.451 1.73,-3.003L30.27,7.503c0.951,-0.552 2.51,-0.552 3.461,0L52.27,18.247C53.222,18.799 54,20.15 54,21.25V42.75z"
      fill="#311B92"/>
  <path
      d="M25.751,43.389c-0.459,0 -0.823,-0.088 -1.093,-0.263c-0.27,-0.177 -0.463,-0.43 -0.579,-0.763c-0.115,-0.332 -0.173,-0.728 -0.173,-1.187h1.007c0,0.227 0.02,0.447 0.056,0.664c0.038,0.217 0.118,0.396 0.24,0.536c0.122,0.142 0.309,0.212 0.561,0.212c0.276,0 0.475,-0.079 0.592,-0.239c0.12,-0.161 0.196,-0.377 0.227,-0.65c0.032,-0.272 0.048,-0.581 0.048,-0.927c0,-0.345 -0.02,-0.639 -0.058,-0.88c-0.037,-0.241 -0.115,-0.427 -0.235,-0.555c-0.118,-0.13 -0.307,-0.194 -0.564,-0.194c-0.206,0 -0.383,0.064 -0.526,0.194c-0.145,0.128 -0.251,0.273 -0.319,0.437h-0.857v-4.085h3.284v1.008h-2.372l-0.064,2.107c0.125,-0.131 0.28,-0.235 0.466,-0.31c0.185,-0.075 0.396,-0.113 0.634,-0.113c0.415,0 0.74,0.097 0.976,0.292c0.234,0.194 0.4,0.461 0.499,0.8c0.097,0.339 0.146,0.729 0.146,1.167c0,0.389 -0.029,0.752 -0.086,1.087c-0.057,0.336 -0.155,0.627 -0.297,0.875c-0.141,0.249 -0.335,0.441 -0.579,0.58C26.438,43.319 26.126,43.389 25.751,43.389z"
      fill="#FFFFFF"/>
  <path
      d="M30.626,43.305v-7.624h1.008v4.546l1.468,-2.353h1.054L32.876,40l1.242,3.313h-1.007l-1.017,-2.785l-0.461,0.696v2.08H30.626z"
      fill="#FFFFFF"/>
  <path
      d="M34.645,43.313v-5.439h0.931v0.518c0.183,-0.208 0.383,-0.361 0.604,-0.462c0.219,-0.1 0.444,-0.15 0.678,-0.15c0.2,0 0.38,0.051 0.541,0.15c0.159,0.101 0.274,0.279 0.344,0.536c0.193,-0.238 0.406,-0.412 0.634,-0.521c0.23,-0.11 0.471,-0.165 0.722,-0.165c0.175,0 0.334,0.042 0.479,0.127c0.143,0.085 0.261,0.22 0.348,0.405c0.088,0.185 0.132,0.428 0.132,0.729v4.273h-0.922v-4.207c0,-0.264 -0.042,-0.441 -0.127,-0.532s-0.2,-0.136 -0.344,-0.136c-0.138,0 -0.283,0.039 -0.434,0.117c-0.149,0.079 -0.288,0.188 -0.414,0.325c0,0.024 0,0.05 0,0.075s0,0.053 0,0.084v4.273h-0.923v-4.207c0,-0.264 -0.041,-0.441 -0.126,-0.532c-0.086,-0.091 -0.198,-0.136 -0.344,-0.136c-0.139,0 -0.281,0.039 -0.429,0.117c-0.147,0.079 -0.286,0.188 -0.42,0.325v4.433H34.645z"
      fill="#FFFFFF"/>
  <path
      d="M35.538,17.511m-1.673,0a1.673,1.673 0,1 1,3.346 0a1.673,1.673 0,1 1,-3.346 0"

      fill="#D1D1D1"
      style= "fill-opacity=0.7"/>
  <path
      d="M37.763,27.534h0.007l-4.132,-4.126l-1.614,1.616l4.104,4.103c0.208,0.223 0.502,0.361 0.833,0.361c0.627,0 1.14,-0.511 1.14,-1.145C38.1,28.027 37.972,27.741 37.763,27.534z"

      fill="#D1D1D1"
      style= "fill-opacity=0.7"/>
  <path
      d="M33.638,23.408c-0.448,-0.449 -0.896,-0.901 -1.346,-1.348c-0.157,-0.16 -0.372,-0.165 -0.53,-0.005c-0.085,0.083 -0.167,0.166 -0.249,0.249c-0.303,0.302 -0.603,0.601 -0.901,0.9c-0.392,0.393 -0.786,0.786 -1.178,1.177c-0.217,0.217 -0.471,0.372 -0.775,0.42c-0.368,0.059 -0.75,-0.042 -1.036,-0.276c-0.104,-0.079 -0.194,-0.177 -0.286,-0.273c-0.153,-0.151 -0.302,-0.302 -0.455,-0.456c-0.273,-0.271 -0.548,-0.623 -0.922,-0.741c-0.358,-0.119 -0.757,-0.046 -1.052,0.187c-0.289,0.225 -0.454,0.579 -0.442,0.944c0.012,0.292 0.142,0.568 0.346,0.774c0.102,0.104 0.206,0.208 0.31,0.311c0.252,0.254 0.503,0.504 0.755,0.759c0.471,0.469 1.058,0.81 1.702,0.967c0.732,0.185 1.516,0.132 2.215,-0.15c0.337,-0.133 0.653,-0.324 0.936,-0.55c0.173,-0.141 0.328,-0.303 0.485,-0.46c0.263,-0.267 0.529,-0.533 0.792,-0.796c0.008,-0.006 0.012,-0.011 0.019,-0.018c0.004,0.007 0.016,0.012 0.017,0.018c-0.027,-0.033 0.133,-0.154 0.152,-0.174c0.144,-0.128 0.289,-0.247 0.445,-0.359c0.369,-0.261 0.824,-0.516 1.294,-0.48c0.257,0.02 0.466,0.142 0.647,0.32C34.268,24.035 33.954,23.72 33.638,23.408z"

      fill="#FFFFFF"
      style= "fill-opacity=0.7"/>
  <path
      d="M39.465,19.994c0,-0.644 -0.552,-1.173 -1.192,-1.15c-0.322,0.013 -0.588,0.16 -0.813,0.379c-0.098,0.101 -0.199,0.203 -0.294,0.301c-0.466,0.463 -0.935,0.93 -1.4,1.396c-0.003,0.002 -0.003,0.002 -0.003,0.005c-0.239,-0.24 -0.481,-0.481 -0.717,-0.72c-0.283,-0.279 -0.555,-0.568 -0.883,-0.792c-0.632,-0.434 -1.391,-0.657 -2.154,-0.638c-0.758,0.021 -1.498,0.279 -2.104,0.738c-0.036,0.024 -0.069,0.051 -0.105,0.08c0.29,-0.208 0.687,-0.079 0.977,0.056c0.416,0.194 0.793,0.477 1.149,0.768c0.438,0.364 0.847,0.771 1.248,1.171c0.284,0.286 0.566,0.57 0.856,0.856c0.074,0.072 0.133,0.142 0.209,0.213c0.234,0.237 0.516,0.421 0.832,0.529c0.359,0.125 0.75,0.152 1.122,0.079c0.186,-0.036 0.366,-0.099 0.538,-0.181c0.118,-0.063 0.258,-0.132 0.354,-0.227c0.176,-0.178 0.353,-0.354 0.529,-0.529c0.503,-0.506 1.012,-1.009 1.515,-1.512C39.341,20.6 39.465,20.3 39.465,19.994C39.465,19.36 39.465,20.313 39.465,19.994z"

      fill="#FFFFFF"
      style= "fill-opacity=0.7"/>
  <path
      d="M29.799,19.593c-0.229,0.187 -0.438,0.412 -0.647,0.625c-0.3,0.296 -0.6,0.599 -0.897,0.898c-0.069,0.071 -0.142,0.141 -0.213,0.21c-0.255,0.245 -0.388,0.597 -0.35,0.951c0.072,0.702 0.791,1.183 1.471,0.982c0.359,-0.105 0.591,-0.391 0.847,-0.646c0.303,-0.303 0.605,-0.602 0.906,-0.906c0.171,-0.173 0.334,-0.355 0.55,-0.47c0.237,-0.128 0.509,-0.181 0.777,-0.154c0.274,0.028 0.503,0.146 0.722,0.306c-0.446,-0.474 -0.939,-0.921 -1.469,-1.302c-0.285,-0.209 -0.595,-0.408 -0.933,-0.524C30.318,19.478 30.024,19.432 29.799,19.593C29.786,19.606 30.682,18.952 29.799,19.593z"

      fill="#D1D1D1"
      style= "fill-opacity=0.7"/>
</svg>
