<?xml version="1.0" encoding="utf-8"?>
<svg version="1.1" id="Layer_1" xmlns="http://www.w3.org/2000/svg" xmlns:xlink="http://www.w3.org/1999/xlink"
    width="64"
   height="64"
   viewBox="0 0 64 64">
  <path
      d="M58,45.188c0,1.144 -0.808,2.555 -1.794,3.134L33.794,61.484c-0.987,0.579 -2.601,0.579 -3.587,0L7.793,48.322C6.807,47.743 6,46.332 6,45.188V18.811c0,-1.143 0.807,-2.554 1.793,-3.133L30.207,2.516c0.986,-0.579 2.6,-0.579 3.587,0l22.412,13.162C57.192,16.257 58,17.668 58,18.811V45.188z"

      fill="#3E2723"
     style= "fill-opacity=0.2"/>
  <path
      d="M54,42.75c0,1.1 -0.778,2.451 -1.73,3.003L33.73,56.497c-0.951,0.552 -2.51,0.552 -3.461,0L11.73,45.753C10.779,45.201 10,43.85 10,42.75v-21.5c0,-1.1 0.779,-2.451 1.73,-3.003L30.27,7.503c0.951,-0.552 2.51,-0.552 3.461,0L52.27,18.247C53.222,18.799 54,20.15 54,21.25V42.75z"
      fill="#3E2723"/>
  <path
      d="M23.42,39.389c-0.459,0 -0.823,-0.088 -1.093,-0.263c-0.27,-0.177 -0.462,-0.43 -0.578,-0.763c-0.115,-0.332 -0.173,-0.728 -0.173,-1.187h1.006c0,0.227 0.02,0.447 0.057,0.664c0.038,0.217 0.117,0.396 0.239,0.536c0.122,0.142 0.31,0.212 0.561,0.212c0.276,0 0.475,-0.079 0.593,-0.239c0.119,-0.161 0.195,-0.377 0.226,-0.65c0.032,-0.272 0.049,-0.581 0.049,-0.927c0,-0.345 -0.021,-0.639 -0.058,-0.88s-0.115,-0.427 -0.235,-0.555c-0.119,-0.13 -0.307,-0.194 -0.565,-0.194c-0.206,0 -0.382,0.064 -0.526,0.194c-0.144,0.128 -0.25,0.273 -0.319,0.437h-0.857v-4.085h3.285v1.008h-2.372l-0.064,2.107c0.124,-0.131 0.28,-0.235 0.466,-0.31c0.184,-0.075 0.396,-0.113 0.634,-0.113c0.415,0 0.739,0.097 0.975,0.292c0.235,0.194 0.401,0.461 0.499,0.8c0.097,0.339 0.146,0.729 0.146,1.167c0,0.389 -0.028,0.752 -0.085,1.087c-0.057,0.336 -0.156,0.627 -0.298,0.875c-0.141,0.249 -0.334,0.441 -0.578,0.58C24.107,39.319 23.796,39.389 23.42,39.389z"
      fill="#FFFFFF"/>
  <path
      d="M26.206,39.313v-7.624h1.063v3.596l1.75,-3.596h0.988l-1.505,3.361l1.75,4.263h-1.035l-1.459,-3.576l-0.489,0.884v2.692H26.206z"
      fill="#FFFFFF"/>
  <path
      d="M32.954,39.305v-7.624h1.008v4.546l1.468,-2.353h1.054L35.204,36l1.242,3.313h-1.007l-1.017,-2.785l-0.461,0.696v2.08H32.954z"
      fill="#FFFFFF"/>
  <path
      d="M36.975,39.313v-5.439h0.932v0.518c0.182,-0.208 0.383,-0.361 0.602,-0.462c0.221,-0.1 0.447,-0.15 0.678,-0.15c0.2,0 0.383,0.051 0.541,0.15c0.159,0.101 0.274,0.279 0.344,0.536c0.193,-0.238 0.406,-0.412 0.637,-0.521c0.228,-0.11 0.468,-0.165 0.719,-0.165c0.176,0 0.337,0.042 0.479,0.127c0.146,0.085 0.261,0.22 0.349,0.405c0.087,0.185 0.133,0.428 0.133,0.729v4.273h-0.924v-4.207c0,-0.264 -0.042,-0.441 -0.127,-0.532c-0.083,-0.091 -0.198,-0.136 -0.344,-0.136c-0.138,0 -0.281,0.039 -0.433,0.117c-0.15,0.079 -0.288,0.188 -0.413,0.325c0,0.024 0,0.05 0,0.075s0,0.053 0,0.084v4.273h-0.922v-4.207c0,-0.264 -0.044,-0.441 -0.129,-0.532c-0.083,-0.091 -0.198,-0.136 -0.344,-0.136c-0.136,0 -0.279,0.039 -0.427,0.117c-0.147,0.079 -0.288,0.188 -0.419,0.325v4.433H36.975z"
      fill="#FFFFFF"/>
  <path
      d="M33.946,44.955m-0.91,0a0.91,0.91 0,1 1,1.82 0a0.91,0.91 0,1 1,-1.82 0"

      fill="#D1D1D1"
      style= "fill-opacity=0.7"/>
  <path
      d="M35.157,50.411h0.003l-2.25,-2.245l-0.878,0.879l2.233,2.233c0.113,0.122 0.274,0.198 0.455,0.198c0.341,0 0.619,-0.28 0.619,-0.624C35.34,50.681 35.271,50.525 35.157,50.411z"

      fill="#D1D1D1"
      style= "fill-opacity=0.7"/>
  <path
      d="M32.91,48.166c-0.243,-0.245 -0.486,-0.491 -0.731,-0.733c-0.085,-0.088 -0.202,-0.091 -0.289,-0.003c-0.046,0.046 -0.092,0.09 -0.136,0.134c-0.164,0.164 -0.328,0.329 -0.491,0.491c-0.213,0.215 -0.428,0.428 -0.641,0.641c-0.118,0.119 -0.257,0.202 -0.423,0.229c-0.199,0.033 -0.408,-0.021 -0.563,-0.149c-0.059,-0.042 -0.106,-0.098 -0.157,-0.149c-0.084,-0.082 -0.164,-0.164 -0.248,-0.247c-0.148,-0.148 -0.298,-0.34 -0.502,-0.403c-0.194,-0.064 -0.411,-0.024 -0.572,0.102c-0.158,0.123 -0.248,0.315 -0.24,0.513c0.006,0.161 0.076,0.311 0.188,0.423c0.056,0.057 0.112,0.112 0.169,0.169c0.137,0.139 0.273,0.275 0.41,0.414c0.258,0.254 0.575,0.439 0.929,0.526c0.398,0.101 0.824,0.071 1.205,-0.082c0.184,-0.071 0.355,-0.175 0.509,-0.3c0.095,-0.076 0.179,-0.164 0.265,-0.25c0.144,-0.146 0.288,-0.292 0.431,-0.435c0.005,-0.003 0.007,-0.006 0.011,-0.01c0.002,0.004 0.008,0.007 0.01,0.01c-0.016,-0.017 0.071,-0.082 0.082,-0.095c0.079,-0.069 0.158,-0.134 0.243,-0.194c0.201,-0.144 0.449,-0.281 0.704,-0.262c0.139,0.011 0.253,0.077 0.352,0.175C33.254,48.507 33.084,48.336 32.91,48.166z"

      fill="#FFFFFF"
      style= "fill-opacity=0.7"/>
  <path
      d="M36.084,46.307c0,-0.35 -0.301,-0.639 -0.649,-0.627c-0.175,0.008 -0.319,0.089 -0.443,0.207c-0.053,0.055 -0.107,0.109 -0.159,0.165c-0.254,0.252 -0.51,0.506 -0.763,0.76c-0.001,0 -0.001,0 -0.001,0.002c-0.131,-0.129 -0.264,-0.262 -0.392,-0.391c-0.153,-0.152 -0.301,-0.311 -0.48,-0.433c-0.344,-0.235 -0.758,-0.357 -1.173,-0.347c-0.412,0.012 -0.815,0.152 -1.146,0.401c-0.02,0.014 -0.037,0.027 -0.057,0.043c0.157,-0.112 0.373,-0.043 0.531,0.032c0.227,0.104 0.432,0.26 0.627,0.418c0.237,0.198 0.459,0.42 0.679,0.636c0.154,0.157 0.309,0.311 0.467,0.468c0.039,0.037 0.071,0.077 0.112,0.116c0.128,0.128 0.281,0.229 0.453,0.288c0.196,0.068 0.409,0.082 0.612,0.043c0.1,-0.021 0.199,-0.054 0.292,-0.1c0.065,-0.033 0.142,-0.069 0.193,-0.123c0.096,-0.096 0.191,-0.193 0.287,-0.287c0.274,-0.277 0.551,-0.551 0.824,-0.825C36.017,46.637 36.084,46.475 36.084,46.307C36.084,45.962 36.084,46.48 36.084,46.307z"

      fill="#FFFFFF"
      style= "fill-opacity=0.7"/>
  <path
      d="M30.821,46.088c-0.126,0.104 -0.238,0.225 -0.353,0.341c-0.163,0.161 -0.327,0.325 -0.488,0.49c-0.038,0.037 -0.078,0.075 -0.116,0.113c-0.14,0.133 -0.211,0.324 -0.191,0.518c0.039,0.382 0.432,0.644 0.802,0.534c0.194,-0.057 0.321,-0.212 0.461,-0.35c0.164,-0.166 0.329,-0.329 0.493,-0.493c0.093,-0.095 0.183,-0.195 0.3,-0.257c0.128,-0.069 0.276,-0.1 0.423,-0.084c0.148,0.015 0.273,0.079 0.393,0.166c-0.242,-0.258 -0.512,-0.501 -0.799,-0.708c-0.155,-0.115 -0.324,-0.222 -0.508,-0.286C31.103,46.027 30.943,46.001 30.821,46.088C30.813,46.097 31.302,45.739 30.821,46.088z"

      fill="#D1D1D1"
      style= "fill-opacity=0.7"/>
  <path
      d="M28.318,20.431l-1.323,-0.232l-0.491,0.491c-0.061,0.062 -0.096,0.145 -0.096,0.231v3.968c0,0.182 0.147,0.329 0.329,0.329c0.138,0 2.737,-2.585 4.014,-3.863l-1.484,-1.477L28.318,20.431z"
      fill="#FCEF70"/>
  <path
      d="M30.751,21.355l-1.484,-1.477v2.953C29.814,22.291 30.348,21.758 30.751,21.355z"
      fill="#FFDA2C"/>
  <path
      d="M36.089,15.007l-1.791,-0.618c-0.004,-0.001 -0.009,-0.002 -0.013,-0.003v2c0.012,-0.004 0.022,-0.008 0.034,-0.012l1.79,-0.754c0.126,-0.052 0.206,-0.178 0.2,-0.313C36.307,15.17 36.219,15.052 36.089,15.007L36.089,15.007z"
      fill="#D20041"/>
  <path
      d="M34.146,17.92c-0.18,0 -0.327,-0.147 -0.327,-0.329v-3.217c0,-0.18 0.147,-0.327 0.327,-0.327c0.182,0 0.328,0.147 0.328,0.327v3.217C34.475,17.773 34.328,17.92 34.146,17.92z"
      fill="#38336B"/>
  <path
      d="M34.146,14.048L34.146,14.048v3.873l0,0c0.182,0 0.328,-0.147 0.328,-0.329v-3.217C34.475,14.195 34.328,14.048 34.146,14.048z"
      fill="#2E2654"/>
  <path
      d="M31.442,20.197l-1.991,-1.991c-0.127,-0.127 -0.335,-0.127 -0.464,0l-1.992,1.993l1.193,0.841l1.033,-0.744l1.529,1.06c0.395,-0.394 0.661,-0.664 0.691,-0.694C31.57,20.533 31.57,20.325 31.442,20.197L31.442,20.197z"
      fill="#F4F1F1"/>
  <path
      d="M31.442,20.197l-1.991,-1.991c-0.052,-0.051 -0.116,-0.082 -0.185,-0.092v2.214l1.484,1.027c0.395,-0.394 0.661,-0.664 0.691,-0.694C31.57,20.533 31.57,20.325 31.442,20.197z"
      fill="#E7DFDD"/>
  <path
      d="M37.496,20.396l-1.074,-1.074l-1.207,-0.234l-1.068,-0.131l-0.979,0.102l-1.296,0.251l-5.366,5.349c-0.094,0.094 -0.122,0.235 -0.071,0.357s0.17,0.202 0.304,0.203l10.528,0.007l0,0c0.086,0 0.169,-0.036 0.23,-0.097s0.096,-0.145 0.096,-0.231v-4.27C37.592,20.541 37.558,20.457 37.496,20.396z"
      fill="#FEBF00"/>
  <path
      d="M37.496,20.396l-1.074,-1.074l-1.207,-0.234l-1.068,-0.131l0,0v6.266l3.119,0.003l0,0c0.086,0 0.169,-0.036 0.23,-0.097s0.096,-0.145 0.096,-0.231v-4.27C37.592,20.541 37.558,20.457 37.496,20.396L37.496,20.396z"
      fill="#FF9F00"/>
  <path
      d="M34.156,19.432l1.055,0.743l1.211,-0.854l-2.047,-2.047c-0.128,-0.128 -0.335,-0.128 -0.463,0l-2.041,2.034l1.229,0.866L34.156,19.432z"
      fill="#F4F1F1"/>
  <path
      d="M34.375,17.275c-0.063,-0.063 -0.146,-0.096 -0.229,-0.097v2.26l0.01,-0.006l1.055,0.743l1.211,-0.854L34.375,17.275z"
      fill="#E7DFDD"/>
</svg>
