<?xml version="1.0" encoding="utf-8"?>
<svg version="1.1" id="Layer_1" xmlns="http://www.w3.org/2000/svg" xmlns:xlink="http://www.w3.org/1999/xlink"
    width="64"
   height="64"
   viewBox="0 0 64 64">
  <path
      d="M15.658,60.225c-1.1,0 -2.278,-0.855 -2.618,-1.902L2.94,27.24c-0.34,-1.047 0.11,-2.432 1,-3.078L30.382,4.951c0.89,-0.646 2.347,-0.646 3.236,0L60.06,24.162c0.89,0.646 1.34,2.031 1,3.078l-10.1,31.082c-0.34,1.047 -1.519,1.902 -2.618,1.902H15.658z"

      fill="#B71C1C"
       style= "fill-opacity=0.2"/>
  <path
      d="M18.709,56.531c-1.101,0 -2.279,-0.855 -2.619,-1.902L7.875,29.347c-0.34,-1.047 0.11,-2.432 1,-3.078l21.507,-15.624c0.89,-0.646 2.347,-0.646 3.236,0l21.506,15.624c0.89,0.646 1.34,2.032 1,3.078l-8.213,25.282c-0.34,1.047 -1.519,1.902 -2.618,1.902H18.709z"
      fill="#B71C1C"/>
  <path
      d="M22.971,48.656c-0.383,0 -0.699,-0.073 -0.953,-0.218c-0.254,-0.144 -0.444,-0.35 -0.572,-0.621c-0.127,-0.271 -0.189,-0.593 -0.189,-0.963V46.62h0.918c0,0.023 0,0.047 0,0.075c0,0.027 0,0.053 0,0.082c0.006,0.208 0.029,0.396 0.072,0.563c0.043,0.167 0.121,0.3 0.234,0.397c0.113,0.097 0.277,0.146 0.49,0.146c0.227,0 0.395,-0.054 0.51,-0.16c0.115,-0.107 0.193,-0.259 0.234,-0.454c0.039,-0.195 0.061,-0.422 0.061,-0.676c0,-0.371 -0.067,-0.673 -0.204,-0.906c-0.135,-0.233 -0.374,-0.362 -0.716,-0.385c-0.017,-0.007 -0.037,-0.01 -0.063,-0.01c-0.027,0 -0.05,0 -0.065,0v-0.927c0.016,0 0.037,0 0.061,0s0.043,0 0.061,0c0.328,-0.011 0.565,-0.096 0.71,-0.259c0.145,-0.162 0.218,-0.433 0.218,-0.806c0,-0.317 -0.055,-0.571 -0.162,-0.763c-0.107,-0.189 -0.318,-0.285 -0.637,-0.285c-0.316,0 -0.529,0.104 -0.633,0.317c-0.103,0.212 -0.162,0.48 -0.173,0.81c0,0.023 0,0.047 0,0.074c0,0.026 0,0.05 0,0.073h-0.915v-0.234c0,-0.376 0.063,-0.695 0.189,-0.963c0.128,-0.265 0.319,-0.471 0.576,-0.614c0.258,-0.145 0.576,-0.218 0.958,-0.218c0.386,0 0.708,0.075 0.961,0.218c0.253,0.144 0.443,0.35 0.571,0.617c0.127,0.27 0.19,0.592 0.19,0.968c0,0.423 -0.09,0.759 -0.271,1.013c-0.182,0.256 -0.427,0.43 -0.732,0.521c0.212,0.063 0.394,0.174 0.541,0.329s0.261,0.354 0.343,0.594c0.08,0.239 0.121,0.518 0.121,0.836c0,0.417 -0.058,0.777 -0.174,1.086c-0.115,0.31 -0.3,0.55 -0.553,0.721C23.723,48.572 23.387,48.656 22.971,48.656z"
      fill="#FFFFFF"/>
  <path
      d="M27.284,48.656c-0.399,0 -0.728,-0.089 -0.983,-0.268s-0.446,-0.427 -0.57,-0.736c-0.123,-0.311 -0.188,-0.667 -0.188,-1.066v-3.022c0,-0.41 0.061,-0.769 0.182,-1.08c0.121,-0.309 0.313,-0.549 0.568,-0.723s0.588,-0.261 0.991,-0.261s0.732,0.087 0.987,0.261c0.254,0.174 0.441,0.414 0.563,0.723c0.122,0.312 0.183,0.67 0.183,1.08v3.022c0,0.405 -0.063,0.763 -0.188,1.075c-0.124,0.312 -0.313,0.557 -0.567,0.733C28.008,48.567 27.682,48.656 27.284,48.656zM27.284,47.893c0.22,0 0.386,-0.063 0.499,-0.189c0.112,-0.127 0.189,-0.291 0.233,-0.49c0.043,-0.198 0.063,-0.405 0.063,-0.618v-3.04c0,-0.226 -0.02,-0.438 -0.061,-0.636c-0.039,-0.201 -0.115,-0.361 -0.229,-0.482s-0.283,-0.182 -0.507,-0.182c-0.225,0 -0.394,0.061 -0.51,0.182s-0.194,0.281 -0.233,0.482c-0.042,0.198 -0.061,0.41 -0.061,0.636v3.04c0,0.213 0.021,0.42 0.063,0.618c0.043,0.199 0.124,0.363 0.242,0.49C26.904,47.83 27.069,47.893 27.284,47.893z"
      fill="#FFFFFF"/>
  <path
      d="M31.969,48.577v-5.006h0.857v0.476c0.168,-0.191 0.352,-0.332 0.555,-0.426c0.201,-0.091 0.408,-0.138 0.623,-0.138c0.186,0 0.35,0.046 0.498,0.138c0.15,0.094 0.252,0.259 0.316,0.496c0.18,-0.218 0.373,-0.38 0.586,-0.48c0.209,-0.103 0.432,-0.15 0.662,-0.15c0.162,0 0.309,0.037 0.441,0.115c0.133,0.077 0.24,0.201 0.32,0.372c0.082,0.171 0.121,0.394 0.121,0.672v3.934H36.1v-3.871c0,-0.244 -0.037,-0.406 -0.117,-0.49c-0.078,-0.084 -0.182,-0.126 -0.314,-0.126c-0.127,0 -0.262,0.035 -0.4,0.107c-0.137,0.072 -0.264,0.171 -0.379,0.301c0,0.021 0,0.044 0,0.068c0,0.023 0,0.05 0,0.077v3.934h-0.85v-3.871c0,-0.244 -0.041,-0.406 -0.117,-0.49c-0.078,-0.084 -0.184,-0.126 -0.316,-0.126c-0.127,0 -0.26,0.035 -0.395,0.107s-0.264,0.171 -0.385,0.301v4.079h-0.857V48.577z"
      fill="#FFFFFF"/>
  <path
      d="M37.92,42.826v-0.971h0.926v0.971H37.92zM37.92,48.577v-5.006h0.926v5.006H37.92z"
      fill="#FFFFFF"/>
  <path
      d="M39.844,48.577v-5.006h0.924v0.493c0.168,-0.154 0.354,-0.289 0.557,-0.396c0.201,-0.11 0.424,-0.165 0.668,-0.165c0.201,0 0.354,0.052 0.461,0.154c0.107,0.104 0.184,0.233 0.227,0.39c0.043,0.155 0.064,0.315 0.064,0.477v4.054h-0.926v-3.785c0,-0.18 -0.027,-0.318 -0.078,-0.416c-0.053,-0.098 -0.16,-0.146 -0.322,-0.146c-0.104,0 -0.211,0.03 -0.322,0.091c-0.113,0.061 -0.223,0.134 -0.324,0.22v4.036L39.844,48.577L39.844,48.577z"
      fill="#FFFFFF"/>
  <path
      d="M31.254,20.341h2.473c0.203,0 0.37,0.168 0.37,0.373v0.742c0,0.202 -0.167,0.368 -0.37,0.368h-2.473c-0.205,0 -0.371,-0.166 -0.371,-0.368v-0.742C30.883,20.509 31.049,20.341 31.254,20.341z"
      fill="#FFFFFF"/>
  <path
      d="M26.559,25.781h-2.473c-0.206,0 -0.371,0.165 -0.371,0.37c0,0.206 0.165,0.371 0.371,0.371h2.473c0.205,0 0.371,-0.165 0.371,-0.371C26.93,25.946 26.762,25.781 26.559,25.781z"
      fill="#FFFFFF"/>
  <path
      d="M26.434,29.119c0,-0.205 -0.167,-0.373 -0.37,-0.373h-2.473c-0.205,0 -0.371,0.168 -0.371,0.373c0,0.203 0.166,0.368 0.371,0.368h2.473C26.267,29.487 26.434,29.322 26.434,29.119z"
      fill="#FFFFFF"/>
  <path
      d="M26.311,30.229h-1.73c-0.203,0 -0.371,0.166 -0.371,0.371c0,0.207 0.168,0.373 0.371,0.373h1.73c0.203,0 0.371,-0.166 0.371,-0.373C26.682,30.396 26.514,30.229 26.311,30.229z"
      fill="#FFFFFF"/>
  <path
      d="M26.434,27.636c0,-0.206 -0.167,-0.374 -0.37,-0.374H22.85c-0.205,0 -0.371,0.168 -0.371,0.374c0,0.202 0.166,0.37 0.371,0.37h3.214C26.267,28.004 26.434,27.838 26.434,27.636z"
      fill="#FFFFFF"/>
  <path
      d="M32.488,28.375v-4.201c-2.316,0 -4.203,1.885 -4.203,4.201s1.886,4.204 4.203,4.204c2.318,0 4.204,-1.886 4.204,-4.204H32.488z"
      fill="#FFFFFF"/>
  <path
      d="M36.558,24.586l0.398,-0.396c0.145,-0.145 0.147,-0.378 0.003,-0.524c-0.143,-0.145 -0.378,-0.149 -0.522,-0.005c-0.003,0 -0.005,0.005 -0.005,0.005l-0.413,0.413c-0.799,-0.656 -1.765,-1.076 -2.786,-1.214v-0.669h-1.483v0.669c-1.022,0.138 -1.987,0.558 -2.784,1.214l-0.414,-0.413c-0.145,-0.147 -0.377,-0.149 -0.523,-0.005c-0.146,0.143 -0.148,0.378 -0.006,0.522c0.002,0.005 0.004,0.005 0.006,0.007l0.396,0.396c-0.963,1.027 -1.496,2.382 -1.494,3.789c0,3.067 2.494,5.562 5.561,5.562c3.065,0 5.563,-2.494 5.563,-5.562C38.055,26.968 37.519,25.613 36.558,24.586zM32.488,32.949c-2.523,0 -4.572,-2.048 -4.572,-4.574c0,-2.524 2.049,-4.572 4.572,-4.572c2.526,0 4.575,2.048 4.575,4.572C37.063,30.901 35.015,32.949 32.488,32.949L32.488,32.949z"
      fill="#FFFFFF"/>
</svg>
