<?xml version="1.0" encoding="utf-8"?>
<svg version="1.1" id="Layer_1" xmlns="http://www.w3.org/2000/svg" xmlns:xlink="http://www.w3.org/1999/xlink"
    width="64"
   height="64"
   viewBox="0 0 64 64">
  <path
      d="M15.658,60.225c-1.1,0 -2.278,-0.855 -2.618,-1.902L2.94,27.24c-0.34,-1.047 0.11,-2.432 1,-3.078L30.382,4.951c0.89,-0.646 2.347,-0.646 3.236,0L60.06,24.162c0.89,0.646 1.34,2.031 1,3.078l-10.1,31.082c-0.34,1.047 -1.519,1.902 -2.618,1.902H15.658z"

      fill="#4A148C"
      style= "fill-opacity=0.2"/>
  <path
      d="M18.709,56.531c-1.101,0 -2.279,-0.855 -2.619,-1.902L7.875,29.347c-0.34,-1.047 0.11,-2.432 1,-3.078l21.507,-15.624c0.89,-0.646 2.347,-0.646 3.236,0l21.506,15.624c0.89,0.646 1.34,2.032 1,3.078l-8.213,25.282c-0.34,1.047 -1.519,1.902 -2.618,1.902H18.709z"
      fill="#4A148C"/>
  <path
      d="M31.254,20.341h2.473c0.203,0 0.37,0.168 0.37,0.373v0.742c0,0.202 -0.167,0.368 -0.37,0.368h-2.473c-0.205,0 -0.371,-0.166 -0.371,-0.368v-0.742C30.883,20.509 31.049,20.341 31.254,20.341z"
      fill="#FFFFFF"/>
  <path
      d="M26.559,25.781h-2.473c-0.206,0 -0.371,0.165 -0.371,0.37c0,0.206 0.165,0.371 0.371,0.371h2.473c0.205,0 0.371,-0.165 0.371,-0.371C26.93,25.946 26.762,25.781 26.559,25.781z"
      fill="#FFFFFF"/>
  <path
      d="M26.434,29.119c0,-0.205 -0.167,-0.373 -0.37,-0.373h-2.473c-0.205,0 -0.371,0.168 -0.371,0.373c0,0.203 0.166,0.368 0.371,0.368h2.473C26.267,29.487 26.434,29.322 26.434,29.119z"
      fill="#FFFFFF"/>
  <path
      d="M26.311,30.229h-1.73c-0.203,0 -0.371,0.166 -0.371,0.371c0,0.207 0.168,0.373 0.371,0.373h1.73c0.203,0 0.371,-0.166 0.371,-0.373C26.682,30.396 26.514,30.229 26.311,30.229z"
      fill="#FFFFFF"/>
  <path
      d="M26.434,27.636c0,-0.206 -0.167,-0.374 -0.37,-0.374H22.85c-0.205,0 -0.371,0.168 -0.371,0.374c0,0.202 0.166,0.37 0.371,0.37h3.214C26.267,28.004 26.434,27.838 26.434,27.636z"
      fill="#FFFFFF"/>
  <path
      d="M32.488,28.375v-4.201c-2.316,0 -4.203,1.885 -4.203,4.201s1.886,4.204 4.203,4.204c2.318,0 4.204,-1.886 4.204,-4.204H32.488z"
      fill="#FFFFFF"/>
  <path
      d="M36.558,24.586l0.398,-0.396c0.145,-0.145 0.147,-0.378 0.003,-0.524c-0.143,-0.145 -0.378,-0.149 -0.522,-0.005c-0.003,0 -0.005,0.005 -0.005,0.005l-0.413,0.413c-0.799,-0.656 -1.765,-1.076 -2.786,-1.214v-0.669h-1.483v0.669c-1.022,0.138 -1.987,0.558 -2.784,1.214l-0.414,-0.413c-0.145,-0.147 -0.377,-0.149 -0.523,-0.005c-0.146,0.143 -0.148,0.378 -0.006,0.522c0.002,0.005 0.004,0.005 0.006,0.007l0.396,0.396c-0.963,1.027 -1.496,2.382 -1.494,3.789c0,3.067 2.494,5.562 5.561,5.562c3.065,0 5.563,-2.494 5.563,-5.562C38.055,26.968 37.519,25.613 36.558,24.586zM32.488,32.949c-2.523,0 -4.572,-2.048 -4.572,-4.574c0,-2.524 2.049,-4.572 4.572,-4.572c2.526,0 4.575,2.048 4.575,4.572C37.063,30.901 35.015,32.949 32.488,32.949L32.488,32.949z"
      fill="#FFFFFF"/>
  <path
      d="M24.531,48.654v-0.665l1.805,-2.811c0.135,-0.211 0.26,-0.407 0.373,-0.588s0.209,-0.373 0.277,-0.572c0.076,-0.202 0.111,-0.436 0.111,-0.696c0,-0.327 -0.053,-0.583 -0.156,-0.771c-0.105,-0.187 -0.289,-0.279 -0.553,-0.279c-0.223,0 -0.393,0.062 -0.518,0.184c-0.121,0.123 -0.207,0.284 -0.254,0.481c-0.047,0.199 -0.07,0.412 -0.07,0.641v0.236h-0.936v-0.244c0,-0.428 0.057,-0.795 0.17,-1.101c0.115,-0.306 0.299,-0.546 0.553,-0.713c0.254,-0.169 0.59,-0.256 1.012,-0.256c0.572,0 0.998,0.163 1.275,0.487c0.281,0.324 0.422,0.771 0.422,1.345c0,0.304 -0.035,0.568 -0.109,0.797c-0.072,0.228 -0.166,0.441 -0.283,0.638c-0.117,0.2 -0.246,0.403 -0.385,0.615l-1.631,2.486h2.24v0.788h-3.344V48.654z"
      fill="#FFFFFF"/>
  <path
      d="M30.914,48.654v-7.093h0.99v3.064h1.82v-3.064h0.988v7.093h-0.988v-3.318h-1.82v3.318H30.914z"
      fill="#FFFFFF"/>
  <path
      d="M35.828,48.654v-7.093h1.428c0.471,0 0.863,0.062 1.172,0.189c0.311,0.125 0.537,0.325 0.688,0.604c0.148,0.276 0.223,0.641 0.223,1.091c0,0.274 -0.029,0.523 -0.088,0.747c-0.059,0.226 -0.15,0.415 -0.279,0.568c-0.129,0.154 -0.297,0.269 -0.508,0.337l1.006,3.556h-0.955l-0.926,-3.327h-0.771v3.327L35.828,48.654L35.828,48.654zM36.816,44.617h0.379c0.277,0 0.506,-0.035 0.682,-0.104s0.303,-0.189 0.385,-0.359c0.082,-0.167 0.121,-0.403 0.121,-0.708c0,-0.415 -0.074,-0.715 -0.225,-0.898c-0.152,-0.184 -0.453,-0.275 -0.902,-0.275h-0.439V44.617z"
      fill="#FFFFFF"/>
</svg>
