<?xml version="1.0" encoding="utf-8"?>
<svg version="1.1" id="Layer_1" xmlns="http://www.w3.org/2000/svg" xmlns:xlink="http://www.w3.org/1999/xlink"
    width="64"
   height="64"
   viewBox="0 0 64 64">
  <path
      d="M15.658,60.225c-1.1,0 -2.278,-0.855 -2.618,-1.902L2.94,27.24c-0.34,-1.047 0.11,-2.432 1,-3.078L30.382,4.951c0.89,-0.646 2.347,-0.646 3.236,0L60.06,24.162c0.89,0.646 1.34,2.031 1,3.078l-10.1,31.082c-0.34,1.047 -1.519,1.902 -2.618,1.902H15.658z"

      fill="#F57F17"
      style= "fill-opacity=0.2"/>
  <path
      d="M18.709,56.531c-1.101,0 -2.279,-0.855 -2.619,-1.902L7.875,29.347c-0.34,-1.047 0.11,-2.432 1,-3.078l21.507,-15.624c0.89,-0.646 2.347,-0.646 3.236,0l21.506,15.624c0.89,0.646 1.34,2.032 1,3.078l-8.213,25.282c-0.34,1.047 -1.519,1.902 -2.618,1.902H18.709z"
      fill="#F57F17"/>
  <path
      d="M31.254,20.341h2.473c0.203,0 0.37,0.168 0.37,0.373v0.742c0,0.202 -0.167,0.368 -0.37,0.368h-2.473c-0.205,0 -0.371,-0.166 -0.371,-0.368v-0.742C30.883,20.509 31.049,20.341 31.254,20.341z"
      fill="#FFFFFF"/>
  <path
      d="M26.559,25.781h-2.473c-0.206,0 -0.371,0.165 -0.371,0.37c0,0.206 0.165,0.371 0.371,0.371h2.473c0.205,0 0.371,-0.165 0.371,-0.371C26.93,25.946 26.762,25.781 26.559,25.781z"
      fill="#FFFFFF"/>
  <path
      d="M26.434,29.119c0,-0.205 -0.167,-0.373 -0.37,-0.373h-2.473c-0.205,0 -0.371,0.168 -0.371,0.373c0,0.203 0.166,0.368 0.371,0.368h2.473C26.267,29.487 26.434,29.322 26.434,29.119z"
      fill="#FFFFFF"/>
  <path
      d="M26.311,30.229h-1.73c-0.203,0 -0.371,0.166 -0.371,0.371c0,0.207 0.168,0.373 0.371,0.373h1.73c0.203,0 0.371,-0.166 0.371,-0.373C26.682,30.396 26.514,30.229 26.311,30.229z"
      fill="#FFFFFF"/>
  <path
      d="M26.434,27.636c0,-0.206 -0.167,-0.374 -0.37,-0.374H22.85c-0.205,0 -0.371,0.168 -0.371,0.374c0,0.202 0.166,0.37 0.371,0.37h3.214C26.267,28.004 26.434,27.838 26.434,27.636z"
      fill="#FFFFFF"/>
  <path
      d="M32.488,28.375v-4.201c-2.316,0 -4.203,1.885 -4.203,4.201s1.886,4.204 4.203,4.204c2.318,0 4.204,-1.886 4.204,-4.204H32.488z"
      fill="#FFFFFF"/>
  <path
      d="M36.558,24.586l0.398,-0.396c0.145,-0.145 0.147,-0.378 0.003,-0.524c-0.143,-0.145 -0.378,-0.149 -0.522,-0.005c-0.003,0 -0.005,0.005 -0.005,0.005l-0.413,0.413c-0.799,-0.656 -1.765,-1.076 -2.786,-1.214v-0.669h-1.483v0.669c-1.022,0.138 -1.987,0.558 -2.784,1.214l-0.414,-0.413c-0.145,-0.147 -0.377,-0.149 -0.523,-0.005c-0.146,0.143 -0.148,0.378 -0.006,0.522c0.002,0.005 0.004,0.005 0.006,0.007l0.396,0.396c-0.963,1.027 -1.496,2.382 -1.494,3.789c0,3.067 2.494,5.562 5.561,5.562c3.065,0 5.563,-2.494 5.563,-5.562C38.055,26.968 37.519,25.613 36.558,24.586zM32.488,32.949c-2.523,0 -4.572,-2.048 -4.572,-4.574c0,-2.524 2.049,-4.572 4.572,-4.572c2.526,0 4.575,2.048 4.575,4.572C37.063,30.901 35.015,32.949 32.488,32.949L32.488,32.949z"
      fill="#FFFFFF"/>
  <path
      d="M24.104,48.646c-0.422,0 -0.756,-0.08 -1.004,-0.242c-0.249,-0.161 -0.427,-0.396 -0.534,-0.701c-0.106,-0.306 -0.16,-0.672 -0.16,-1.091h0.927c0,0.207 0.018,0.41 0.053,0.611c0.034,0.198 0.108,0.363 0.219,0.493c0.113,0.132 0.286,0.195 0.518,0.195c0.254,0 0.436,-0.074 0.546,-0.22c0.11,-0.146 0.179,-0.346 0.205,-0.598c0.031,-0.254 0.045,-0.54 0.045,-0.855c0,-0.318 -0.017,-0.588 -0.052,-0.809c-0.033,-0.223 -0.107,-0.393 -0.215,-0.511c-0.11,-0.12 -0.284,-0.178 -0.521,-0.178c-0.19,0 -0.353,0.058 -0.485,0.178c-0.133,0.118 -0.231,0.252 -0.295,0.4h-0.787v-3.76h3.021v0.929h-2.182l-0.061,1.938c0.114,-0.121 0.259,-0.215 0.427,-0.283c0.171,-0.071 0.366,-0.104 0.587,-0.104c0.382,0 0.679,0.088 0.896,0.267c0.218,0.18 0.37,0.425 0.46,0.737c0.089,0.311 0.135,0.669 0.135,1.074c0,0.357 -0.027,0.691 -0.08,1c-0.05,0.31 -0.144,0.578 -0.271,0.806c-0.131,0.229 -0.307,0.406 -0.531,0.532C24.736,48.583 24.45,48.646 24.104,48.646z"
      fill="#FFFFFF"/>
  <path
      d="M28.367,48.656c-0.399,0 -0.728,-0.088 -0.983,-0.268c-0.259,-0.179 -0.449,-0.427 -0.573,-0.736s-0.185,-0.667 -0.185,-1.066v-3.022c0,-0.41 0.061,-0.769 0.182,-1.08c0.121,-0.309 0.309,-0.55 0.567,-0.723c0.257,-0.174 0.587,-0.261 0.992,-0.261c0.401,0 0.732,0.087 0.985,0.261c0.255,0.173 0.442,0.414 0.563,0.723c0.121,0.312 0.182,0.67 0.182,1.08v3.022c0,0.405 -0.063,0.764 -0.187,1.076c-0.124,0.311 -0.315,0.556 -0.566,0.732C29.091,48.57 28.767,48.656 28.367,48.656zM28.367,47.894c0.218,0 0.384,-0.063 0.497,-0.19c0.112,-0.127 0.191,-0.291 0.234,-0.49c0.042,-0.198 0.064,-0.405 0.064,-0.618v-3.04c0,-0.226 -0.02,-0.439 -0.061,-0.636c-0.039,-0.201 -0.117,-0.361 -0.229,-0.482c-0.113,-0.121 -0.281,-0.182 -0.507,-0.182c-0.225,0 -0.396,0.061 -0.511,0.182c-0.116,0.121 -0.194,0.281 -0.234,0.482c-0.04,0.198 -0.061,0.41 -0.061,0.636v3.04c0,0.213 0.023,0.42 0.065,0.618c0.043,0.199 0.124,0.363 0.243,0.49C27.988,47.83 28.152,47.894 28.367,47.894z"
      fill="#FFFFFF"/>
  <path
      d="M33.129,48.577v-7.017h0.981v3.031h1.8v-3.031h0.977v7.017H35.91v-3.283h-1.8v3.283H33.129z"
      fill="#FFFFFF"/>
  <path
      d="M37.991,48.577v-7.017h1.41c0.468,0 0.855,0.061 1.162,0.188c0.306,0.124 0.531,0.322 0.679,0.598c0.147,0.272 0.222,0.634 0.222,1.08c0,0.27 -0.03,0.517 -0.089,0.738c-0.059,0.223 -0.147,0.41 -0.277,0.562c-0.127,0.153 -0.292,0.266 -0.501,0.333l0.997,3.518h-0.945l-0.917,-3.291h-0.763v3.291L37.991,48.577L37.991,48.577zM38.969,44.584h0.372c0.278,0 0.502,-0.034 0.676,-0.104s0.301,-0.188 0.382,-0.355c0.081,-0.165 0.121,-0.399 0.121,-0.699c0,-0.411 -0.074,-0.708 -0.226,-0.89c-0.149,-0.182 -0.445,-0.273 -0.893,-0.273h-0.433V44.584z"
      fill="#FFFFFF"/>
</svg>
