<?xml version="1.0" encoding="utf-8"?>
<svg version="1.1" id="Layer_1" xmlns="http://www.w3.org/2000/svg" xmlns:xlink="http://www.w3.org/1999/xlink"
    width="64"
   height="64"
   viewBox="0 0 64 64">
  <path
      d="M20.68,34.023c-0.065,-0.201 -0.113,-0.619 -0.207,-0.985c-0.023,-0.104 -0.048,-0.208 -0.084,-0.311c-0.113,-0.527 -0.466,-1.033 -0.996,-1.259c-0.119,-0.051 -0.66,0.173 -0.531,0.192c0.123,0.017 0.019,0.163 -0.048,0.303c-0.107,-0.115 0.192,-0.131 0.141,-0.294c-0.092,-0.289 -0.46,-0.239 -0.561,-0.025c-0.002,-0.004 -0.005,-0.007 -0.006,-0.01c-0.029,-0.035 -0.067,-0.043 -0.102,-0.038c-0.004,-0.01 -0.007,-0.019 -0.01,-0.03c-0.037,-0.125 -0.228,-0.062 -0.191,0.063c0.128,0.435 0.443,0.766 0.813,1.03c0.009,0.008 0.016,0.016 0.025,0.024c0.131,0.114 0.568,0.123 0.77,0.285c0.011,0.563 0.231,1.395 0.468,1.533C20.543,34.722 20.856,34.561 20.68,34.023z"
     fill="#FFB287"/>
  <path
      d="M23.402,34.771c-0.187,-0.058 -0.375,0.016 -0.42,0.162l-0.133,0.435c-0.044,0.146 0.071,0.313 0.258,0.369L23.963,36c0.187,0.056 0.375,-0.017 0.42,-0.163l0.132,-0.437c0.045,-0.145 -0.071,-0.312 -0.257,-0.368L23.402,34.771z"
     fill="#F2E7E1"/>
  <path
      d="M23.137,34.353c-0.105,-0.032 -0.211,0.009 -0.236,0.091l-0.393,1.287c-0.025,0.082 0.04,0.175 0.145,0.207l0.728,0.222c0.105,0.032 0.21,-0.009 0.235,-0.091l0.394,-1.287c0.025,-0.082 -0.04,-0.174 -0.146,-0.207L23.137,34.353z"
     fill="#FFB243"/>
  <path
      d="M19.795,32.941l-0.314,-0.095c-0.168,-0.052 -0.276,-0.141 -0.337,-0.209c-0.045,-0.05 -0.065,-0.087 -0.065,-0.087s-0.054,-0.188 -0.415,-0.298l-1.968,-0.6c-0.511,-0.156 -0.887,-0.271 -0.887,-0.271c-0.297,-0.09 -0.596,0.024 -0.667,0.257l-0.638,2.091c-0.071,0.232 0.112,0.494 0.41,0.585c0,0 0.375,0.114 0.886,0.271l1.969,0.6c0.36,0.109 0.511,-0.017 0.511,-0.017s0.037,-0.02 0.103,-0.036c0.088,-0.021 0.228,-0.036 0.397,0.017l0.314,0.096c0.077,0.022 0.14,0.05 0.191,0.077c0.19,0.104 0.225,0.221 0.225,0.221s0.08,0.15 0.283,0.249c0.036,0.018 0.076,0.034 0.119,0.046c0.293,0.091 0.668,0.204 0.668,0.204c0.021,0.007 0.05,0.013 0.083,0.017c0.433,0.044 1.793,-0.155 1.858,-0.371l0.366,-1.199c0.066,-0.217 -0.951,-1.141 -1.335,-1.345c-0.03,-0.016 -0.056,-0.028 -0.077,-0.034c0,0 -0.375,-0.114 -0.668,-0.203c-0.044,-0.014 -0.086,-0.022 -0.125,-0.029c-0.224,-0.031 -0.374,0.048 -0.374,0.048s-0.094,0.079 -0.31,0.058C19.939,32.978 19.871,32.965 19.795,32.941z"
     fill="#1DA2D6"/>
  <path
      d="M21.551,33.143l-0.706,2.313c0.455,0.107 1.16,0.064 1.569,-0.09l0.35,-1.145C22.491,33.86 21.842,33.296 21.551,33.143z"
     fill="#31C9F7"/>
  <path
      d="M18.663,32.251l-0.769,2.497c0.36,0.109 0.51,-0.016 0.51,-0.016s0.038,-0.021 0.104,-0.037l0.635,-2.059c-0.045,-0.05 -0.065,-0.087 -0.065,-0.087S19.023,32.362 18.663,32.251z"
     fill="#826B80"/>
  <path
      d="M42.388,29.739c-0.58,0 -1.027,-0.164 -1.405,-0.483c-1.19,-1.006 -1.919,-2.394 -5.907,-10.58c-0.381,-0.781 -0.057,-1.722 0.723,-2.103c0.781,-0.38 1.723,-0.056 2.104,0.725c3.004,6.163 4.127,8.387 4.816,9.245c1.073,-0.27 3.775,-1.577 6.227,-3.033c0.744,-0.444 1.71,-0.198 2.154,0.549c0.443,0.746 0.197,1.711 -0.549,2.155c-0.071,0.042 -1.763,1.046 -3.61,1.964C44.806,29.239 43.396,29.739 42.388,29.739z"
     fill="#FFB287"/>
  <path
      d="M21.671,49.076c-2.659,-0.637 -6.881,-2.065 -8.378,-2.753c-0.721,-0.331 -1.037,-1.183 -0.706,-1.903c0.33,-0.721 1.183,-1.037 1.904,-0.706c1.401,0.642 5.396,2.093 7.721,2.54c1.839,0.353 1.947,-0.858 5.691,-4.669c0.339,-0.346 0.8,0.086 1.192,-0.299c0.565,-0.557 1.475,-0.548 2.032,0.016c0.555,0.566 0.547,1.476 -0.017,2.032c-0.39,0.383 -0.555,1.229 -0.928,1.534C26.146,48.175 24.815,49.826 21.671,49.076z"
     fill="#FFB287"/>
  <path
      d="M28.122,33.767c-0.519,0 -0.871,0.384 -0.871,0.902l1.865,4.545c0,0.521 -1.745,2.104 -1.239,1.993l7.99,-1.02c1.885,-0.774 2.281,-2.805 2.281,-5.259l0.003,0.042c-0.227,-1.298 0.116,-0.782 -0.402,-0.782L28.122,33.767z"
     fill="#4C2D42"/>
  <path
      d="M28.54,40.133l0.115,-0.135c1.06,-1.305 0.559,-0.836 -0.188,-1.468c-0.389,-0.326 -0.783,-1.698 -0.938,-3.301c-0.11,-1.138 5.672,-1.193 7.286,-1.235c1.612,-0.044 2.29,-2.899 2.332,-1.287c0.161,6.14 -0.856,7.355 -4.053,11.091l-0.114,0.133c-0.56,0.654 -1.347,1 -2.145,1.021c-0.697,0.019 -1.403,-0.212 -1.975,-0.701C27.634,43.203 27.49,41.359 28.54,40.133z"
     fill="#4C2D42"/>
  <path
      d="M36.409,35.559c0,0.68 -0.228,1.974 -1.084,2.883c-0.857,0.908 -2.821,-1.428 -2.821,-1.428s-2.415,-1.662 -0.181,-1.869C34.558,34.937 36.409,35.559 36.409,35.559z"
     fill="#684059"/>
  <path
      d="M33.405,39.415l-1.594,2.553c-0.577,-0.543 -0.993,-0.967 -1.338,-1.267c-0.409,-0.355 -0.798,-0.744 -1.082,-0.967c-1.483,-1.16 -1.798,-2.593 -2.016,-3.43c-0.111,-0.418 -0.141,-1.101 -0.169,-1.691c-0.018,-0.315 0.084,-0.499 0.084,-0.499s0.974,-0.006 2.093,-0.003c0.569,0 0.924,0.965 1.373,0.867c0.841,-0.181 1.696,0.017 2.608,0.607v0.001c0.297,0.192 0.601,0.427 0.912,0.703c0.255,0.227 0.516,0.483 0.782,0.768C36.648,38.757 33.405,39.415 33.405,39.415z"
     fill="#684059"/>
  <path
      d="M38.151,34.973c0.001,0.033 -0.873,-0.31 -3.35,-0.2c-3.356,0.15 -7.697,0.472 -7.622,-0.437c0.202,-2.484 0.784,-1.805 1.262,-4.058c0.518,-2.444 -0.061,-4.253 -0.479,-5.731c-0.669,-2.367 -0.875,-3.763 -0.795,-5.046c0.014,-0.236 0.032,-0.469 0.057,-0.698c0.018,-0.181 0.042,-0.359 0.07,-0.532c0.18,-1.109 0.577,-2.026 1.569,-2.32c0.063,-0.019 0.126,-0.038 0.193,-0.054c0.003,0 0.007,0 0.01,-0.001c0.394,-0.093 0.866,-0.135 1.426,-0.135h4.058c2.062,0 3.048,1.735 3.589,3.989c0.051,0.212 0.096,0.43 0.137,0.651c0.013,0.072 0.025,0.144 0.035,0.216c0,0.002 0.393,1.513 0.393,2.298l-0.114,2.841l-0.003,0.121h-0.006c0,0 -0.116,0.283 -0.256,0.666c-0.146,0.387 -0.318,0.994 -0.428,1.857c-0.003,0.028 -0.007,0.058 -0.012,0.087c-0.017,0.142 -0.032,0.29 -0.046,0.445C37.745,30.031 38.134,33.878 38.151,34.973z"
     fill="#FF5072"/>
  <path
      d="M39.483,24.872c-0.367,0.58 -0.757,0.998 -1.158,1.118c-0.079,0.022 -0.147,0.035 -0.21,0.035c-0.241,-0.001 0.188,-0.425 0.08,-0.425c-0.462,0 -0.208,-0.373 -0.638,-0.448c-0.075,-0.014 -0.169,-0.018 -0.289,-0.009c-0.001,-0.001 -0.002,-0.001 -0.002,0c-0.072,0.004 -0.153,0.012 -0.247,0.027c-0.286,0.045 -0.537,0.056 -0.755,0.039h-0.002c-2.28,-0.166 -1.113,-3.298 -1.113,-3.298l2.189,-1.401l-0.051,-3.051c0.284,1.107 0.298,0.189 0.433,0.991c0.109,0.656 0.132,2.104 1.193,3.561C39.197,22.397 40.167,23.797 39.483,24.872z"
     fill="#FF5072"/>
  <path
      d="M30.103,15.76h1.676h1.054h1.335c0.222,0.008 3.298,0.343 3.307,3.105c0.001,0.554 -0.003,2.733 -1.962,2.733c-1.96,0 -2.826,-1.943 -3.115,-3.236c-0.418,-1.879 -1.092,-2.428 -1.73,-2.603C30.156,15.621 30.103,15.76 30.103,15.76z"
     fill="#FFB287"/>
  <path
      d="M35.512,22.028c-2.539,0 -3.347,-2.734 -3.534,-3.571c-0.387,-1.734 -0.957,-2.136 -1.372,-2.267h-0.504c-0.141,0 -0.273,-0.07 -0.354,-0.187c-0.08,-0.116 -0.097,-0.265 -0.046,-0.396c0.031,-0.079 0.163,-0.337 0.591,-0.337c0.124,0 0.265,0.02 0.431,0.062h3.443c0.051,0.001 3.726,0.271 3.735,3.533c0.002,0.432 0.005,1.745 -0.799,2.551C36.699,21.822 36.163,22.028 35.512,22.028zM31.975,16.189c0.363,0.487 0.639,1.174 0.84,2.08c0.151,0.681 0.794,2.9 2.696,2.9c0.421,0 0.742,-0.118 0.983,-0.359c0.367,-0.368 0.552,-1.022 0.55,-1.944c-0.008,-2.445 -2.864,-2.676 -2.893,-2.677H31.975z"
     fill="#FFFFFF"/>
  <path
      d="M30.7,15.76h-0.034C30.666,15.76 30.678,15.76 30.7,15.76z"
     fill="#FFB287"/>
  <path
      d="M38.103,25.282c-0.446,-0.065 -0.841,-0.306 -2.819,-0.04c-1.453,0.194 -2.737,0.183 -3.247,-0.695c0,0 0.004,2.301 6.095,1.442c0.514,-0.12 0.985,-0.537 1.353,-1.118C39.1,25.248 38.815,25.386 38.103,25.282z"
     fill="#F24C6C"/>
  <path
      d="M36.56,40.99c-0.702,1.039 -1.798,1.997 -2.198,2.021c-0.77,0.044 -0.819,0.545 -1.427,-0.024c-0.099,-0.093 -1.007,-0.909 -1.679,-1.54c-0.303,-0.285 -0.494,-0.467 -0.609,-0.576c-0.078,-0.074 -0.131,-0.126 -0.162,-0.158c-1.133,-1.144 -1.182,-2.889 -0.114,-4.059c0.938,-1.029 2.724,-1.426 4.184,-0.143c0.061,0.053 0.119,0.105 0.119,0.105c0.105,0.095 0.2,0.194 0.288,0.299c0.214,0.201 0.557,0.523 1.108,1.04c0.572,0.534 0.741,0.705 0.845,0.803C37.442,39.253 37.131,40.148 36.56,40.99z"
     fill="#684059"/>
  <path
      d="M27.354,19.775c0,0 0.038,0.877 0.226,1.864c0.254,1.331 0.406,2.074 1.745,2.074c2.729,0 2.254,-3.396 1.808,-5.171c-0.441,-1.761 -1.41,-2.646 -1.97,-2.646c-1.067,0 -1.569,0.744 -1.808,1.662C27.219,18.073 27.354,18.99 27.354,19.775z"
     fill="#FFB287"/>
  <path
      d="M29.325,24.142c-1.704,0 -1.917,-1.123 -2.166,-2.423c-0.19,-1.004 -0.232,-1.888 -0.233,-1.926v-0.018c0,-0.255 -0.016,-0.533 -0.031,-0.802c-0.033,-0.576 -0.063,-1.12 0.044,-1.525c0.427,-1.638 1.445,-1.982 2.223,-1.982c0.796,0 1.903,1.041 2.385,2.971c0.39,1.552 0.661,3.652 -0.271,4.844C30.832,23.852 30.175,24.142 29.325,24.142zM27.782,19.764c0.007,0.092 0.05,0.904 0.22,1.794c0.261,1.368 0.369,1.726 1.323,1.726c0.581,0 0.999,-0.174 1.276,-0.53c0.551,-0.708 0.594,-2.205 0.115,-4.108c-0.414,-1.653 -1.268,-2.321 -1.554,-2.321c-0.484,0 -1.083,0.153 -1.394,1.342c-0.072,0.276 -0.043,0.776 -0.017,1.26C27.766,19.202 27.782,19.488 27.782,19.764z"
     fill="#FFFFFF"/>
  <path
      d="M28.52,23.596c-0.187,0.774 0.118,1.464 -0.258,1.933c-0.666,-1.973 -1.174,-4.745 -1.095,-6.028c0.014,-0.236 0.032,-0.47 0.057,-0.698c0.028,-0.023 0.058,-0.045 0.087,-0.065c0.272,-0.191 0.62,-0.324 1.056,-0.451l0.577,0.005C28.945,18.291 29.078,21.3 28.52,23.596z"

     fill="#E5785C"
      style="fill-opacity=0.6"/>
  <path
      d="M37.234,39.396c0.02,0.547 -0.298,1.314 -0.877,2.066c-0.105,0.139 -0.223,0.278 -0.349,0.415c-0.001,0.001 -0.003,0.002 -0.003,0.002c-0.131,0.145 -0.266,0.278 -0.403,0.403c-0.993,0.909 -2.07,1.293 -2.545,0.86c-0.436,-0.398 -0.227,-1.368 0.445,-2.356c0.154,-0.225 0.332,-0.45 0.531,-0.67c0.007,-0.008 0.013,-0.017 0.021,-0.023c0.132,-0.145 0.268,-0.278 0.404,-0.403c0.694,-0.638 1.432,-1.018 1.975,-1.037c0.007,0 0.013,-0.003 0.018,0c0.106,-0.005 0.202,0.007 0.292,0.032c0.058,0.016 0.111,0.039 0.161,0.068c0.002,0 0.006,0.003 0.009,0.005c0.002,0.001 0.002,0.001 0.003,0.002c0.032,0.02 0.063,0.043 0.09,0.068c0.011,0.007 0.018,0.017 0.026,0.026c0.062,0.062 0.107,0.136 0.14,0.22C37.21,39.17 37.23,39.278 37.234,39.396z"
     fill="#3A2534"/>
  <path
      d="M18.22,33.498c-0.116,0 -0.231,-0.013 -0.349,-0.039c-0.848,-0.191 -1.379,-1.032 -1.187,-1.88c0.022,-0.098 0.558,-2.462 1.253,-4.966c1.426,-5.136 2.136,-5.95 2.795,-6.384c0.97,-0.638 2.842,-1.73 4.244,-2.535c0.929,-0.533 1.659,-0.944 2.01,-1.141c0.264,-0.149 0.48,-0.269 0.631,-0.352c0.082,-0.045 0.146,-0.081 0.189,-0.103c0.893,-0.477 1.714,-0.093 2.097,0.466l0.874,1.27l-1.254,0.901c-0.085,0.061 -0.173,0.112 -0.265,0.153c-0.612,0.329 -5.008,2.814 -6.667,3.883c-0.629,0.947 -1.958,5.604 -2.838,9.5C19.587,33.002 18.938,33.498 18.22,33.498zM27.74,18.771c0.125,0.083 0.258,0.145 0.396,0.188C27.997,18.915 27.863,18.853 27.74,18.771z"
     fill="#FFB287"/>
  <path
      d="M47.746,56.821c-0.152,-0.609 -2.508,-8.459 -3.203,-10.875c-0.131,-0.452 -0.187,-1.274 -0.893,-1.872c-1.934,-1.639 -5.787,-4.563 -6.617,-5.219c-0.05,-0.041 -0.09,-0.071 -0.116,-0.095c-0.001,-0.001 -0.001,-0.001 -0.003,-0.002c-0.003,-0.002 -0.007,-0.005 -0.009,-0.005c-0.003,-0.001 -0.008,-0.004 -0.011,-0.004h-0.001c-0.057,-0.022 -0.207,-0.062 -0.211,-0.064c-0.072,-0.023 -0.147,-0.032 -0.23,-0.032c-0.005,-0.003 -0.011,0 -0.018,0c-0.543,0.02 -1.28,0.399 -1.975,1.037c-0.137,0.125 -0.272,0.259 -0.404,0.403c-0.009,0.007 -0.015,0.016 -0.021,0.023c-0.199,0.22 -0.377,0.446 -0.531,0.67c0.256,0.187 0.47,0.344 0.592,0.44c0.313,0.247 0.733,0.541 1.212,0.86c0.097,0.064 0.195,0.13 0.296,0.195c1.869,1.229 4.451,2.765 5.362,3.543c0.479,0.408 0.646,0.853 0.771,1.261c0.714,2.353 3.042,10.007 3.207,10.68c0.162,0.655 0.587,0.438 1.232,0.438c0.113,0 0.229,-0.013 0.345,-0.041C47.291,57.972 47.938,57.591 47.746,56.821z"
     fill="#FFB287"/>
  <path
      d="M36.894,38.75c-0.672,0.984 -1.2,2.141 -1.587,3.338c-0.479,-0.319 -0.899,-0.613 -1.212,-0.86c-0.122,-0.097 -0.336,-0.254 -0.592,-0.44c0.154,-0.224 0.332,-0.45 0.531,-0.67c0.007,-0.008 0.013,-0.017 0.021,-0.023c0.132,-0.145 0.268,-0.278 0.404,-0.403c0.694,-0.638 1.432,-1.018 1.975,-1.037c0.007,0 0.013,-0.003 0.018,0c0.083,0 0.158,0.009 0.23,0.032C36.687,38.688 36.837,38.728 36.894,38.75z"
     fill="#E5785C"/>
  <path
      d="M44.833,57.373c0,0 0.127,0.88 0.37,2.256c0.119,0.669 0.676,1.174 1.314,1.245c0.109,0.012 0.219,0.012 0.333,-0.003c0.77,-0.097 2.111,-0.791 1.974,-1.575c-0.261,-1.468 -0.824,-1.344 -1.165,-2.789L44.833,57.373z"
     fill="#F6EEE3"/>
  <path
      d="M44.783,60.328c0.003,0.033 0.008,0.061 0.011,0.081c0.082,0.575 0.215,1.188 0.368,1.714c0.058,0.193 0.114,0.376 0.176,0.539c0.189,0.516 0.39,0.852 0.553,0.809c0.182,0.214 7.641,-2.688 8.007,-2.821c0.367,-0.136 0.565,-0.578 0.358,-1.215c-0.016,-0.048 -0.032,-0.093 -0.051,-0.135c-0.067,-0.155 -0.151,-0.274 -0.251,-0.366c-0.443,-0.409 -1.111,-0.269 -1.72,-0.235c-0.153,0.008 -0.299,-0.021 -0.44,-0.046h-0.001c-0.171,-0.032 -0.338,-0.079 -0.508,-0.135c-0.228,-0.074 -0.459,-0.163 -0.715,-0.254c-0.091,-0.03 -0.185,-0.063 -0.281,-0.095c-0.034,-0.011 -0.065,-0.022 -0.097,-0.034c-0.136,-0.046 -0.259,-0.096 -0.373,-0.146c-0.18,-0.084 -0.333,-0.172 -0.469,-0.259H49.35c-0.032,-0.021 -0.063,-0.044 -0.094,-0.065c-0.096,-0.067 -0.18,-0.135 -0.26,-0.199c-0.373,-0.312 -0.605,-0.583 -1.086,-0.638c-0.569,-0.063 -1.477,0.271 -1.596,0.855c-0.007,0.037 -0.012,0.076 -0.013,0.115c-0.006,0.22 0.141,0.654 0.188,1.049c0.035,0.293 0.017,0.564 -0.155,0.711c-0.583,0.499 -0.927,0.144 -1.123,-0.297c0,-0.001 0,-0.001 0,-0.002c-0.169,-0.384 -0.224,-0.826 -0.224,-0.826C44.675,58.552 44.655,59.379 44.783,60.328z"
     fill="#A9BF2B"/>
  <path
      d="M45.338,62.662c0.189,0.516 0.39,0.852 0.553,0.809c0.182,0.214 7.641,-2.688 8.007,-2.821c0.367,-0.136 0.565,-0.578 0.358,-1.215c-0.016,-0.048 -0.032,-0.093 -0.051,-0.135C52.191,60.007 45.338,62.662 45.338,62.662z"
     fill="#AF573C"/>
  <path
      d="M48.073,58.363c0.375,-0.086 0.758,-0.209 1.141,-0.321c-0.382,0.247 -0.677,0.544 -0.548,0.806c0.143,0.291 0.548,0.034 0.718,-0.056c0.213,-0.11 0.5,-0.212 0.768,-0.33c-0.11,0.264 -0.164,0.557 -0.18,0.854c-0.006,0.114 0.13,0.184 0.217,0.117c0.515,-0.426 0.968,-0.642 1.604,-0.781c-0.171,-0.032 -0.338,-0.079 -0.508,-0.135c-0.371,0.121 -0.696,0.285 -1.024,0.522c0.046,-0.286 0.137,-0.554 0.31,-0.776c-0.091,-0.03 -0.185,-0.063 -0.281,-0.095c-0.034,-0.011 -0.065,-0.022 -0.097,-0.034c-0.224,0.1 -0.478,0.177 -0.637,0.265c-0.135,0.075 -0.563,0.24 -0.594,0.275c0.225,-0.265 0.528,-0.512 0.857,-0.687c-0.18,-0.084 -0.333,-0.172 -0.469,-0.259H49.35c-0.327,0.094 -0.656,0.198 -0.982,0.288c0.225,-0.196 0.561,-0.289 0.889,-0.354l-0.26,-0.199c-0.454,0.111 -0.88,0.292 -1.071,0.722C47.887,58.273 47.984,58.383 48.073,58.363z"
     fill="#FFFFFF"/>
  <path
      d="M14.976,43.27c-0.027,-0.016 -0.052,-0.026 -0.069,-0.034c-0.493,-0.254 -1.045,-0.49 -1.54,-0.661c-0.183,-0.063 -0.357,-0.118 -0.519,-0.161c-0.507,-0.137 -0.88,-0.165 -0.935,-0.016c-0.269,0.023 -2.132,7.486 -2.231,7.847c-0.098,0.361 0.139,0.759 0.75,0.949c0.046,0.016 0.09,0.026 0.132,0.034c0.159,0.035 0.299,0.033 0.425,0.009c0.565,-0.12 0.816,-0.774 0.993,-1.288c0.043,-0.122 0.441,-0.479 0.539,-0.575l0.001,-0.001c0.12,-0.115 0.249,-0.22 0.386,-0.321c0.184,-0.138 0.382,-0.27 0.592,-0.42c0.075,-0.052 0.152,-0.106 0.231,-0.166c0.026,-0.021 0.052,-0.037 0.078,-0.057c0.112,-0.081 0.219,-0.148 0.321,-0.208c0.164,-0.095 0.318,-0.168 0.46,-0.224h0c0.036,-0.013 0.07,-0.026 0.104,-0.038c0.106,-0.037 0.206,-0.066 0.3,-0.092c0.45,-0.12 0.675,0.146 0.984,-0.202c0.363,-0.408 0.604,-1.301 0.215,-1.716c-0.025,-0.026 -0.053,-0.052 -0.084,-0.075c-0.168,-0.125 0.334,0.182 0,0c-0.248,-0.134 0.262,-0.619 0.283,-0.401c0.193,2.095 -0.591,-0.234 -0.59,-0.234c0.391,0.08 -0.132,-0.967 -0.132,-0.967C15.751,43.941 15.688,43.702 14.976,43.27z"
     fill="#A9BF2B"/>
  <path
      d="M17.136,44.72l-0.846,2.778c-0.359,-0.116 -0.055,-0.018 -0.235,-0.067c-0.237,-0.066 -0.372,-0.099 -0.55,-0.162c-0.197,-0.07 -0.447,-0.18 -0.947,-0.415c-0.687,-0.324 0.332,-3 0.935,-2.759c0.358,0.146 0.695,0.275 0.993,0.386c0.199,0.075 0.379,0.142 0.537,0.198C17.442,44.83 17.136,44.72 17.136,44.72z"
     fill="#F6EEE3"/>
  <path
      d="M12.848,42.413c-0.507,-0.137 -0.88,-0.165 -0.935,-0.016c-0.269,0.023 -2.132,7.486 -2.231,7.847c-0.098,0.361 0.139,0.759 0.75,0.949c0.046,0.016 0.09,0.026 0.132,0.034C11.126,49.268 12.848,42.413 12.848,42.413z"
     fill="#AF573C"/>
  <path
      d="M35.173,16.199c0,0 -0.153,0.836 -1.515,0.836c-1.363,0 -1.981,-1.037 -1.981,-1.037l0.874,-3.947l3.583,-0.196L35.173,16.199z"
     fill="#FFB287"/>
  <path
      d="M35.471,14.855c-0.102,0.459 -2.959,0.071 -3.53,0.966c-0.215,0.335 -0.222,-0.011 -0.263,0.177c-0.135,0.609 1.068,-4.829 1.068,-4.829l3.536,0.024L35.471,14.855z"
     fill="#E5785C"/>
  <path
      d="M15.387,43.772c0.313,0.242 0.308,0.216 0.298,0.42c-0.013,0.239 -0.406,0.221 -1.571,-0.307c-1.165,-0.527 -1.142,-0.894 -1.142,-0.894L15.387,43.772z"
     fill="#A9BF2B"/>
  <path
      d="M16.015,46.439c0.06,0.446 0.813,1.217 -0.458,0.846c-1.27,-0.367 -2.067,-0.825 -1.805,-1.699c0.263,-0.876 0.642,-1.611 1.338,-1.318C15.788,44.56 16.015,46.439 16.015,46.439z"
     fill="#F6EEE3"/>
  <path
      d="M36.309,37.08l-3.141,-1.615l2.75,2.349l0.799,0z"
     fill="#4C2D42"/>
  <path
      d="M31.719,33.631c-0.686,0 6.274,0 6.274,0l0.304,-6.713l-6.029,1.009C32.268,27.927 32.406,33.631 31.719,33.631z"
     fill="#C94161"/>
  <path
      d="M39.212,32.193h-6.027c-0.581,0 -0.813,-2.669 -0.888,-3.83c-0.019,-0.322 -0.029,-0.529 -0.029,-0.529h6.027c0,0 0.07,1.744 0.309,3.026C38.742,31.604 38.938,32.193 39.212,32.193z"
     fill="#FFE5D9"/>
  <path
      d="M39.212,32.193h-6.027c-0.581,0 -0.813,-2.669 -0.888,-3.83c1.339,0.693 3.803,1.792 6.307,2.497C38.742,31.604 38.938,32.193 39.212,32.193z"
     fill="#FFFFFF"/>
  <path
      d="M32.268,26.918h6.029v0.966h-6.029z"
     fill="#AD5945"/>
  <path
      d="M34.787,30.348h-0.382c-0.052,0 -0.09,-0.011 -0.118,-0.035c-0.029,-0.023 -0.049,-0.06 -0.057,-0.111c-0.008,-0.043 -0.009,-0.082 -0.001,-0.115c0.006,-0.032 0.014,-0.066 0.022,-0.103l0.19,-0.779c0.015,-0.066 0.034,-0.111 0.058,-0.139c0.022,-0.027 0.054,-0.041 0.095,-0.041c0.056,0 0.108,0.031 0.154,0.094c0.048,0.063 0.082,0.16 0.104,0.288l0.104,0.608c0.006,-0.002 0.013,-0.003 0.019,-0.005c0.007,0 0.012,-0.001 0.017,-0.001c0.042,0 0.08,0.017 0.107,0.047c0.028,0.031 0.047,0.07 0.055,0.116c0.02,0.117 -0.019,0.175 -0.118,0.175h-0.022l0.029,0.175c0.01,0.064 0.009,0.116 -0.007,0.151c-0.016,0.035 -0.041,0.052 -0.08,0.052c-0.068,0 -0.117,-0.071 -0.141,-0.215L34.787,30.348zM34.73,30.017l-0.107,-0.633l-0.146,0.633H34.73z"
     fill="#5D5D5D"/>
  <path
      d="M35.626,29.647c0.018,-0.002 0.033,-0.005 0.047,-0.007c0.014,-0.003 0.026,-0.004 0.039,-0.004c0.041,0 0.082,0.013 0.126,0.04c0.041,0.027 0.08,0.063 0.116,0.111c0.036,0.049 0.068,0.104 0.096,0.17c0.027,0.065 0.049,0.135 0.062,0.211c0.014,0.08 0.016,0.154 0.007,0.225c-0.007,0.073 -0.024,0.135 -0.053,0.187c-0.027,0.052 -0.063,0.095 -0.106,0.126c-0.044,0.032 -0.096,0.046 -0.153,0.046c-0.057,0 -0.108,-0.015 -0.161,-0.045c-0.051,-0.029 -0.1,-0.07 -0.143,-0.124c-0.042,-0.052 -0.079,-0.115 -0.11,-0.187c-0.031,-0.073 -0.054,-0.155 -0.07,-0.243c-0.019,-0.117 -0.02,-0.247 -0.002,-0.386c0.018,-0.141 0.056,-0.292 0.113,-0.454c0.037,-0.102 0.071,-0.181 0.1,-0.235c0.028,-0.055 0.059,-0.081 0.091,-0.081c0.015,0 0.031,0.003 0.048,0.014c0.016,0.009 0.029,0.022 0.045,0.039c0.012,0.016 0.024,0.035 0.034,0.055c0.011,0.021 0.017,0.044 0.021,0.068c0.005,0.028 0.004,0.058 -0.005,0.087c-0.007,0.03 -0.019,0.063 -0.033,0.1c-0.015,0.037 -0.033,0.078 -0.052,0.125C35.663,29.531 35.645,29.585 35.626,29.647zM35.576,30.173c0.013,0.066 0.034,0.12 0.069,0.165c0.035,0.043 0.073,0.066 0.111,0.066c0.037,0 0.067,-0.022 0.087,-0.066c0.021,-0.045 0.025,-0.099 0.014,-0.165c-0.011,-0.064 -0.034,-0.118 -0.068,-0.162c-0.035,-0.041 -0.072,-0.063 -0.109,-0.063c-0.04,0 -0.069,0.022 -0.089,0.063C35.569,30.055 35.566,30.109 35.576,30.173z"
     fill="#5D5D5D"/>
  <path
      d="M36.79,29.794c0.135,0.095 0.219,0.236 0.251,0.424c0.013,0.074 0.015,0.144 0.007,0.21c-0.008,0.065 -0.024,0.122 -0.051,0.169c-0.027,0.048 -0.061,0.085 -0.104,0.113c-0.043,0.029 -0.092,0.042 -0.149,0.042c-0.09,0 -0.177,-0.042 -0.265,-0.127c-0.052,-0.051 -0.095,-0.105 -0.127,-0.163c-0.032,-0.06 -0.054,-0.115 -0.063,-0.166c-0.009,-0.054 -0.006,-0.097 0.009,-0.13c0.014,-0.032 0.037,-0.049 0.07,-0.049c0.024,0 0.046,0.008 0.064,0.027c0.019,0.017 0.04,0.043 0.063,0.079c0.015,0.022 0.03,0.044 0.045,0.068c0.014,0.022 0.028,0.041 0.043,0.057c0.016,0.018 0.032,0.03 0.049,0.041c0.017,0.009 0.035,0.015 0.055,0.015c0.038,0 0.064,-0.02 0.084,-0.061c0.019,-0.04 0.022,-0.09 0.012,-0.151c-0.011,-0.067 -0.033,-0.112 -0.063,-0.138c-0.031,-0.025 -0.072,-0.045 -0.128,-0.058c-0.037,-0.009 -0.066,-0.025 -0.087,-0.05c-0.021,-0.023 -0.034,-0.063 -0.045,-0.117c-0.009,-0.05 -0.006,-0.085 0.006,-0.11c0.013,-0.024 0.037,-0.043 0.07,-0.056c0.071,-0.027 0.1,-0.083 0.085,-0.169c-0.006,-0.043 -0.02,-0.077 -0.041,-0.104c-0.021,-0.025 -0.045,-0.039 -0.072,-0.039c-0.023,0 -0.044,0.009 -0.058,0.028c-0.013,0.018 -0.026,0.039 -0.04,0.063c-0.018,0.032 -0.032,0.06 -0.048,0.083c-0.012,0.022 -0.033,0.035 -0.063,0.035c-0.027,0 -0.052,-0.017 -0.078,-0.046s-0.044,-0.067 -0.052,-0.113c-0.007,-0.047 -0.006,-0.093 0.005,-0.141s0.028,-0.09 0.054,-0.127c0.025,-0.039 0.058,-0.07 0.097,-0.095c0.037,-0.023 0.081,-0.036 0.13,-0.036c0.046,0 0.091,0.013 0.136,0.036c0.044,0.025 0.083,0.058 0.118,0.098c0.036,0.04 0.066,0.087 0.093,0.144c0.024,0.055 0.042,0.113 0.054,0.174c0.012,0.072 0.012,0.135 0.002,0.189C36.847,29.697 36.824,29.749 36.79,29.794z"
     fill="#5D5D5D"/>
  <path
      d="M27.416,41.247c-0.066,0.075 -0.114,0.164 -0.142,0.265c-0.027,0.1 -0.038,0.209 -0.03,0.328c0.032,0.551 0.428,1.293 1.081,1.99c0.123,0.13 0.253,0.258 0.393,0.383c0.001,0.001 0.001,0.002 0.002,0.002c1.21,1.091 2.591,1.529 3.086,0.983l1.424,-1.559l-4.438,-3.813L27.416,41.247z"
     fill="#4C2D42"/>
  <path
      d="M18.004,31.865c-0.784,-0.065 -1.586,0.481 -1.783,1.215c-0.197,0.732 0.221,1.615 0.927,1.959l0.54,0.264c0.707,0.344 1.428,-0.001 1.604,-0.767l0.257,-1.125c0.175,-0.766 -0.322,-1.446 -1.105,-1.511L18.004,31.865z"
     fill="#FFB287"/>
  <path
      d="M19.47,31.408c-0.036,0.128 -0.287,0.349 -0.688,0.369c-0.401,0.017 -1.348,-0.014 -1.568,-0.145c-0.03,-0.018 0.282,-1.208 0.282,-1.208s1.57,0.563 1.555,0.539C19.035,30.937 19.47,31.408 19.47,31.408z"
     fill="#E5785C"/>
  <path
      d="M18.079,34.826c-0.111,0.383 -0.031,0.463 -0.106,0.615s-0.052,0.511 0.355,0.654c0.406,0.144 0.6,0.038 0.845,-1.036c0.246,-1.073 -0.462,-0.975 -0.462,-0.975L18.079,34.826z"
     fill="#FFB287"/>
  <path
      d="M17.823,31.297c-0.113,-0.031 -0.18,-0.147 -0.148,-0.259l0.217,-0.802c0.031,-0.112 0.147,-0.178 0.259,-0.148l0.979,0.266c0.112,0.031 0.179,0.147 0.148,0.259l-0.217,0.801c-0.031,0.112 -0.147,0.18 -0.259,0.149L17.823,31.297z"
     fill="#C1BFE2"/>
  <path
      d="M18.788,31.384c-0.023,0 -0.05,-0.004 -0.082,-0.014l-0.705,-0.19c-0.129,-0.036 -0.162,-0.091 -0.126,-0.22l0.151,-0.554c0.029,-0.11 0.059,-0.143 0.123,-0.143c0.026,0 0.058,0.004 0.098,0.015l0.705,0.192c0.136,0.037 0.164,0.083 0.126,0.221l-0.15,0.554C18.894,31.367 18.837,31.384 18.788,31.384z"
     fill="#4F4351"/>
  <path
      d="M18.148,30.287L18.148,30.287c0.023,0 0.053,0.005 0.091,0.015l0.705,0.192c0.124,0.033 0.143,0.067 0.11,0.19l-0.15,0.554c-0.031,0.111 -0.076,0.121 -0.117,0.121c-0.021,0 -0.046,-0.003 -0.075,-0.011l-0.705,-0.192c-0.059,-0.016 -0.095,-0.036 -0.111,-0.064c-0.015,-0.026 -0.014,-0.068 0.001,-0.127l0.151,-0.554C18.08,30.294 18.107,30.287 18.148,30.287M18.148,30.238c-0.082,0 -0.116,0.05 -0.146,0.161l-0.15,0.554c-0.038,0.141 -0.001,0.211 0.143,0.25l0.706,0.192c0.031,0.009 0.061,0.014 0.087,0.014c0.079,0 0.132,-0.044 0.162,-0.157l0.15,-0.554c0.04,-0.146 0.011,-0.208 -0.143,-0.25l-0.706,-0.192C18.21,30.245 18.176,30.238 18.148,30.238L18.148,30.238z"
     fill="#C1BFE2"/>
  <path
      d="M19.05,31.449c0,0 0.062,-0.042 0.147,-0.02c0.087,0.025 0.312,0.086 0.312,0.086s0.139,0.048 0.247,-0.347l-0.002,0.007c0.108,-0.395 -0.038,-0.423 -0.038,-0.423s-0.224,-0.062 -0.311,-0.084c-0.086,-0.024 -0.118,-0.091 -0.118,-0.091L19.05,31.449z"
     fill="#FF5072"/>
  <path
      d="M17.665,31.072c0,0 -0.032,-0.067 -0.118,-0.091c-0.087,-0.022 -0.311,-0.083 -0.311,-0.083s-0.145,-0.028 -0.038,-0.425l-0.002,0.009c0.108,-0.396 0.248,-0.347 0.248,-0.347s0.224,0.062 0.311,0.084c0.086,0.024 0.148,-0.018 0.148,-0.018L17.665,31.072z"
     fill="#FF5072"/>
  <path
      d="M18.104,30.178l1.033,0.281c0.067,0.019 0.119,0.067 0.145,0.127c0.014,-0.104 -0.049,-0.205 -0.153,-0.233l-0.979,-0.266c-0.109,-0.03 -0.222,0.034 -0.256,0.142C17.95,30.18 18.027,30.158 18.104,30.178z"

     fill="#FFFFFF"
      alpha="0.7"/>
  <path
      d="M18.848,31.475l-1.033,-0.28c-0.068,-0.019 -0.119,-0.067 -0.145,-0.127c-0.014,0.104 0.049,0.206 0.153,0.233l0.978,0.265c0.11,0.03 0.223,-0.033 0.257,-0.142C19.001,31.474 18.924,31.497 18.848,31.475z"

     fill="#FFB287"
      alpha="0.8"/>
  <path
      d="M27.972,7.085c-0.01,-0.247 -0.016,-0.934 0.009,-1.166c0.282,-2.522 1.161,-4.214 3.856,-4.214c2.943,0 1.947,1.845 1.947,4.79s0.899,5.021 -2.029,5.331C29.359,12.079 28.083,9.691 27.972,7.085z"
     fill="#472736"/>
  <path
      d="M35.497,14.733c-0.901,0.138 -1.787,-0.143 -2.542,-0.488c-0.547,-0.249 -0.699,0.079 -0.699,0.079l-0.202,-4.264l3.443,-0.006V14.733z"
     fill="#E5785C"/>
  <path
      d="M35.653,14.429C35.653,14.425 35.653,14.425 35.653,14.429L35.653,14.429z"
     fill="#FFB287"/>
  <path
      d="M27.965,6.249c-0.002,-3.848 2.125,-5.912 5.81,-5.719c2.86,0.15 2.675,1.398 2.959,2.054c0.474,1.092 -0.716,1.906 -0.716,3.568c0,3.46 1.028,5.69 -2.383,6.265C29.993,13.03 27.967,9.709 27.965,6.249z"
     fill="#472736"/>
  <path
      d="M38.718,5.699c-0.529,2.363 -1.165,2.937 -2.333,3.016L34.17,0.817C37.863,1.271 39.266,3.241 38.718,5.699z"
     fill="#472736"/>
  <path
      d="M38.704,9.578c0,0.858 -0.747,2.841 -1.211,3.436c-0.198,0.254 -0.393,0.569 -1.021,0.764c-0.571,0.178 -1.432,0.319 -1.659,0.9c-0.123,0.312 -0.037,-0.295 -0.272,-0.336c-2.495,-0.436 -4.267,-3.043 -4.267,-5.138l0.56,-2.92c0,-2.293 1.813,-4.17 4.028,-4.17c2.216,0 4.029,1.876 4.029,4.17L38.704,9.578z"
     fill="#E5785C"/>
  <path
      d="M38.841,9.518c-0.084,2.409 -1.049,4.489 -3.543,4.401c-2.899,-0.101 -3.703,-3.012 -3.622,-5.305l0.14,-1.988c0.08,-2.292 1.039,-4.523 3.254,-4.523c2.694,0 3.881,1.814 3.881,4.309L38.841,9.518z"
     fill="#FFB287"/>
  <path
      d="M28.919,6.458c-2.116,-0.396 3.363,-4.619 3.923,-4.804c0.385,-0.127 -0.298,-1.108 0.934,-1.124c1.184,-0.015 2.414,0.386 3.23,0.931c0.858,0.572 1.229,1.2 1.486,1.733c0.128,0.262 -0.227,-0.039 -0.497,-0.036c-0.303,0.004 -0.776,-0.966 -2.424,-0.966c-1.625,0 -3.57,0.175 -3.57,3.523C32.001,7.531 29.771,6.618 28.919,6.458z"
     fill="#472736"/>
  <path
      d="M31.992,6.289c-0.035,1.089 -0.116,1.437 -0.201,1.645c-0.148,0.37 -0.4,0.222 -0.444,-0.024c-0.055,-0.321 -0.209,-0.802 -0.958,-1.02c-0.04,-0.011 -0.355,-1.274 0.032,-1.687c0.436,-0.461 1.58,-0.075 1.58,-0.075L31.992,6.289z"
     fill="#472736"/>
  <path
      d="M34.55,10.974c0,0 0.359,1.105 1.448,1.105c1.206,0 1.192,-1.105 1.192,-1.105H34.55z"
     fill="#8E2B30"/>
  <path
      d="M33.499,7.135c-0.151,0 -0.281,-0.114 -0.297,-0.267c-0.018,-0.164 0.102,-0.312 0.266,-0.328l1.776,-0.186c0.166,-0.016 0.311,0.103 0.328,0.266c0.018,0.164 -0.103,0.311 -0.266,0.329l-1.777,0.184C33.52,7.134 33.509,7.135 33.499,7.135z"
     fill="#472736"/>
  <path
      d="M38.931,7.121c-0.01,0 -0.02,0 -0.029,-0.001L37.399,6.98c-0.164,-0.015 -0.285,-0.16 -0.27,-0.325c0.016,-0.164 0.159,-0.286 0.324,-0.27l1.504,0.139c0.163,0.016 0.284,0.161 0.269,0.326C39.212,7.004 39.083,7.121 38.931,7.121z"
     fill="#472736"/>
  <path
      d="M36.041,12.738c-0.248,0 -0.379,-0.026 -0.562,-0.063c-0.18,-0.037 -0.275,0.116 -0.11,0.227c0.188,0.126 0.414,0.192 0.695,0.169c0.154,-0.013 0.288,-0.059 0.402,-0.127c0.175,-0.104 0.158,-0.312 -0.002,-0.271C36.36,12.7 36.176,12.738 36.041,12.738z"
     fill="#F58D6C"/>
  <path
      d="M36.538,10.14c0.426,-0.002 0.786,-0.298 0.768,-0.598C37.3,9.433 37.209,9.303 37.044,9.4c-0.076,0.044 -0.283,0.097 -0.502,0.097c-0.22,0 -0.339,-0.053 -0.463,-0.097c-0.269,-0.097 -0.354,0.033 -0.36,0.142C35.699,9.842 36.114,10.138 36.538,10.14z"
     fill="#E5785C"/>
  <path
      d="M36.632,11.932c-0.304,-0.371 -1.077,-0.354 -1.682,-0.311c0.229,0.241 0.567,0.457 1.048,0.457c0.269,0 0.477,-0.055 0.638,-0.141C36.635,11.936 36.633,11.934 36.632,11.932z"
     fill="#D85365"/>
  <path
      d="M34.523,7.96m-0.371,0a0.371,0.371 0,1 1,0.742 0a0.371,0.371 0,1 1,-0.742 0"
     fill="#422B27"/>
  <path
      d="M37.89,7.992m-0.371,0a0.371,0.371 0,1 1,0.742 0a0.371,0.371 0,1 1,-0.742 0"
     fill="#422B27"/>
  <path
      d="M37.201,7.973c-0.068,0 -0.135,-0.033 -0.174,-0.094c-0.063,-0.096 -0.039,-0.223 0.056,-0.286c0.029,-0.02 0.295,-0.189 0.741,-0.189c0.318,0 0.654,0.141 0.668,0.147c0.106,0.044 0.155,0.167 0.111,0.273c-0.045,0.105 -0.168,0.155 -0.274,0.11c-0.002,0 -0.271,-0.113 -0.505,-0.113c-0.321,0 -0.508,0.118 -0.511,0.119C37.279,7.962 37.24,7.973 37.201,7.973z"
     fill="#472736"/>
  <path
      d="M36.159,11.25c-0.556,0 -1.493,-0.055 -1.718,-0.137v-0.229h2.851l-0.024,0.22"
     fill="#FFB287"/>
  <path
      d="M31.416,8.082c0.058,0.702 -0.355,1.307 -0.92,1.354c-0.566,0.045 -1.071,-0.487 -1.128,-1.188c-0.058,-0.701 0.258,-1.249 0.818,-1.34C30.746,6.816 31.358,7.381 31.416,8.082z"
     fill="#E5785C"/>
  <path
      d="M33.64,7.928c-0.082,0 -0.161,-0.048 -0.193,-0.128c-0.044,-0.106 0.007,-0.229 0.112,-0.273c0.018,-0.006 0.411,-0.169 0.846,-0.169c0.319,0 0.652,0.14 0.668,0.147c0.104,0.044 0.154,0.167 0.109,0.272s-0.167,0.156 -0.272,0.11c-0.003,-0.001 -0.272,-0.113 -0.505,-0.113c-0.351,0 -0.683,0.135 -0.685,0.136C33.693,7.923 33.666,7.928 33.64,7.928z"
     fill="#472736"/>
  <path
      d="M31.371,12.022c0.086,0.221 -0.069,0.173 0.177,0.468c0.384,0.459 0.715,0.959 0.564,1.62c-0.133,0.579 0.434,0.295 0.451,0.227s0.051,-0.664 0,-0.817c-0.051,-0.153 -0.187,-0.681 -0.221,-0.732s-0.393,-0.426 -0.393,-0.426L31.371,12.022z"
     fill="#E5785C"/>
  <path
      d="M36.685,8.461c-0.359,-0.013 -0.295,0.951 -0.295,0.951l0.152,0.085c0.296,-0.008 0.685,-0.006 0.767,-0.372C37.393,8.754 37.239,8.48 36.685,8.461z"
     fill="#FFB287"/>
  <path
      d="M31.783,3.942c0.112,0.361 0.216,1.939 0.217,1.33c0.001,-0.945 0.379,-1.917 1.361,-2.178c0.913,-0.242 2.039,1.085 3.151,1.085c1.11,0 1.286,-1.418 0.689,-2.064c-0.598,-0.647 -1.967,-1.434 -3.05,-0.821c-1.083,0.612 -2.57,0.917 -2.682,1.389C31.358,3.155 31.783,3.942 31.783,3.942z"
     fill="#472736"/>
  <path
      d="M37.117,3.729c0.137,-0.063 0.217,0.047 0.347,-0.226c0.128,-0.274 0.6,-0.226 0.823,0.191c0.224,0.417 0.04,-0.489 -0.108,-0.677s-0.854,-0.788 -0.977,-0.587c-0.122,0.199 -0.26,0.445 -0.21,0.666C37.042,3.317 37.117,3.729 37.117,3.729z"
     fill="#472736"/>
  <path
      d="M30.662,3.373c-1.152,-0.391 -1.75,-1.428 -2.788,-1.93c-1.327,-0.645 -2.61,-0.28 -3.687,0.374c-1.427,0.868 -4.341,4.08 -6.379,2.415c0.988,2.407 3.482,2.933 5.725,2.17c2.449,-0.832 4.334,-4.226 7.046,-2.281C32.49,5.49 30.662,3.373 30.662,3.373z"
     fill="#472736"/>
  <path
      d="M49.105,25.382c0.433,0.656 1.346,0.926 2.031,0.599c0.687,-0.327 1.123,-1.227 0.972,-1.998l-0.091,-0.455c-0.149,-0.771 -0.843,-1.104 -1.54,-0.739l-1.021,0.534c-0.697,0.365 -0.913,1.202 -0.481,1.859L49.105,25.382z"
     fill="#FFB287"/>
  <path
      d="M49.186,22.067c-0.108,0.181 -0.396,0.488 -0.613,0.796c-0.064,0.086 -0.129,0.173 -0.183,0.266c-0.326,0.429 -0.48,1.025 -0.311,1.577c0.039,0.122 0.562,0.389 0.491,0.279c-0.065,-0.104 0.113,-0.121 0.262,-0.161c-0.017,0.156 -0.224,-0.061 -0.315,0.083c-0.16,0.258 0.119,0.505 0.346,0.443c0,0.003 -0.001,0.008 -0.003,0.01c-0.007,0.045 0.011,0.08 0.038,0.103c-0.005,0.009 -0.011,0.019 -0.016,0.027c-0.072,0.108 0.101,0.213 0.172,0.104c0.247,-0.381 0.293,-0.835 0.254,-1.287c0,-0.012 0.002,-0.022 0.002,-0.035c0.001,-0.173 -0.276,-0.511 -0.283,-0.77c0.421,-0.375 0.91,-1.083 0.86,-1.352C49.807,21.717 49.479,21.583 49.186,22.067z"
     fill="#FFB287"/>
  <path
      d="M51.487,23.521c0.363,-0.165 0.371,-0.277 0.536,-0.318c0.165,-0.042 0.423,-0.293 0.267,-0.696c-0.155,-0.402 -0.361,-0.479 -1.337,0.031c-0.975,0.511 -0.439,0.985 -0.439,0.985L51.487,23.521z"
     fill="#FFB287"/>
  <path
      d="M12.025,49.826"
     fill="#A9BF2B"/>
</svg>
