<?xml version="1.0" encoding="utf-8"?>
<svg version="1.1" id="Layer_1" xmlns="http://www.w3.org/2000/svg" xmlns:xlink="http://www.w3.org/1999/xlink"
    width="149.6114dp" >
    <path  style= "fill-opacity=0.47" fill="#BABFC4"
        d="M634.69,196.68c-2.72,-27.03 -15.8,-54.1 -38.45,-73.45c-35.3,-30.15 -88.7,-37.75 -135.5,-30.78c-19.6,2.92 -39.04,8.09 -59.11,6.46c-29.27,-2.37 -55.06,-18.65 -81.71,-30.57c-36.28,-16.24 -77.87,-24.98 -116.44,-17.91c-43.73,8.01 -79.59,38.27 -83.87,78.42c-1.94,18.19 17.76,50.24 11.54,67.48c-6.31,17.49 -52.35,71.05 -51.21,111.79c1.13,40.59 11.73,53.21 26.72,73.84h11.98h451.35h25.98c9.33,-20.9 16.64,-37.62 5.72,-65.07c-8.73,-21.93 14.99,-39.99 24.16,-60.41C633.99,238.32 636.68,216.47 634.69,196.68z" android:strokeAlpha="0.47"/>
    <path  style= "fill-opacity=0.41" fill="#BABFC4"
        d="M27.92,200.76c-9.33,-18.27 -2.08,-40.64 16.19,-49.97c18.27,-9.33 53.33,-8.56 62.66,9.71s-18.79,33.87 -30.28,50.86C60.46,235.06 37.25,219.03 27.92,200.76z" android:strokeAlpha="0.41"/>
    <path  style= "fill-opacity=0.41" fill="#BABFC4"
        d="M669.35,271.47c8.94,9.68 9.66,23.55 1.62,30.96c-8.04,7.42 -27.38,10.73 -36.32,1.05c-8.94,-9.68 3.18,-21.83 5.9,-33C644.35,254.9 660.41,261.78 669.35,271.47z" android:strokeAlpha="0.41"/>
    <path  style= "fill-opacity=0.41" fill="#BABFC4"
        d="M594.12,53.56c10.37,-5.47 23.21,-1.5 28.68,8.86c5.47,10.37 5.31,30.41 -5.06,35.88c-10.37,5.47 -19.5,-10.47 -29.3,-16.91C574.78,72.42 583.76,59.03 594.12,53.56z" android:strokeAlpha="0.41"/>
    <path style= "fill-opacity=0.43" fill="#BABFC4"
        d="M580.71,358.05c4.77,-23.7 -2.88,-43.93 -4.78,-67.17c-1.8,-22.01 6.01,-40.51 10.35,-61.47c3.86,-18.65 2.57,-39.78 -2.27,-58.11c-6.61,-25.03 -21.85,-48.21 -43.79,-62.34c-34.19,-22.02 -79.8,-19.42 -117.57,-4.28c-15.82,6.34 -31.14,14.78 -48.09,16.92c-24.71,3.11 -48.76,-7.54 -72.84,-13.93c-32.77,-8.7 -68.74,-9.34 -99.66,4.39c-35.06,15.57 -59.98,50.71 -57.07,89.41c1.32,17.54 8.07,34.84 5.68,52.26c-2.42,17.67 -12.92,32.45 -18.48,49.09c-7.58,22.71 -8.28,56.09 3.92,79.14H572.5C576.26,374.43 579.04,366.36 580.71,358.05z" android:strokeAlpha="0.43"/>
    <path  style= "fill-opacity=0.47" fill="#BABFC4"
        d="M499.56,283.78c-1.39,-14.32 -8.09,-28.67 -19.7,-38.92c-18.09,-15.97 -45.44,-20 -69.42,-16.31c-10.04,1.55 -20,4.29 -30.29,3.42c-15,-1.26 -28.21,-9.88 -41.86,-16.2c-18.59,-8.6 -39.89,-13.23 -59.66,-9.49c-22.41,4.24 -40.78,20.28 -42.97,41.55c-0.99,9.64 9.1,26.62 5.91,35.76c-3.23,9.27 -26.82,37.65 -26.24,59.23c0.58,21.51 6.01,28.2 13.69,39.13h6.14h231.24h13.31c4.78,-11.08 8.53,-19.93 2.93,-34.48c-4.47,-11.62 7.68,-21.19 12.38,-32.01C499.21,305.85 500.58,294.27 499.56,283.78z" android:strokeAlpha="0.47"/>
    <path fill="#BABFC4" d="M703.33,386.1H53.2c-0.87,0 -1.58,-0.71 -1.58,-1.58l0,0c0,-0.87 0.71,-1.58 1.58,-1.58h650.13c0.87,0 1.58,0.71 1.58,1.58l0,0C704.91,385.39 704.21,386.1 703.33,386.1z"/>
    <path fill="#17014C" d="M678.53,235.46m-4.5,0a4.5,4.5 0,1 1,9 0a4.5,4.5 0,1 1,-9 0"/>
    <path fill="#0074CC" d="M646.53,360.46m-3.5,0a3.5,3.5 0,1 1,7 0a3.5,3.5 0,1 1,-7 0"/>
    <path fill="#0074CC" d="M103.53,79.46m-4.5,0a4.5,4.5 0,1 1,9 0a4.5,4.5 0,1 1,-9 0"/>
    <path fill="#17014C" d="M61.18,347.39c0,2.64 -2.14,4.78 -4.78,4.78s-4.78,-2.14 -4.78,-4.78c0,-2.64 2.14,-4.78 4.78,-4.78S61.18,344.75 61.18,347.39z"/>
    <path fill="#17014C" d="M74.53,101.46m-1.5,0a1.5,1.5 0,1 1,3 0a1.5,1.5 0,1 1,-3 0"/>
    <path fill="#0074CC" d="M458.04,44.41c-1.39,6.49 -7.77,10.63 -14.26,9.24c-6.49,-1.39 -10.63,-7.77 -9.24,-14.26c1.39,-6.49 7.77,-10.63 14.26,-9.24C455.29,31.53 459.42,37.92 458.04,44.41z"/>
    <path fill="#FFB54A" d="M647.54,62.41c-0.42,1.97 -2.36,3.23 -4.33,2.81s-3.23,-2.36 -2.81,-4.33c0.42,-1.97 2.36,-3.23 4.33,-2.81C646.7,58.5 647.96,60.44 647.54,62.41z"/>
    <path fill="#FFB54A" d="M177.67,38.19c-0.42,1.97 -2.36,3.23 -4.33,2.81c-1.97,-0.42 -3.23,-2.36 -2.81,-4.33c0.42,-1.97 2.36,-3.23 4.33,-2.81C176.84,34.28 178.09,36.22 177.67,38.19z"/>
    <path fill="#0074CC" d="M677.6,143.55c-0.42,1.97 -2.36,3.23 -4.33,2.81c-1.97,-0.42 -3.23,-2.36 -2.81,-4.33c0.42,-1.97 2.36,-3.23 4.33,-2.81C676.76,139.64 678.02,141.58 677.6,143.55z"/>
    <path fill="#17014C" d="M414.94,55.84c-0.33,1.55 -1.85,2.53 -3.4,2.2c-1.55,-0.33 -2.53,-1.85 -2.2,-3.4c0.33,-1.55 1.85,-2.53 3.4,-2.2C414.29,52.77 415.27,54.3 414.94,55.84z"/>
    <path fill="#1B1B25" d="M369.06,113.49m-57.47,0a57.47,57.47 0,1 1,114.94 0a57.47,57.47 0,1 1,-114.94 0"/>
    <path fill="#FFB54A" d="M363,107.43m-57.47,0a57.47,57.47 0,1 1,114.94 0a57.47,57.47 0,1 1,-114.94 0"/>
    <path fill="#FCF0E3" d="M363,153.83c-25.52,0 -46.29,-20.76 -46.29,-46.29c0,-25.52 20.76,-46.29 46.29,-46.29c25.52,0 46.29,20.76 46.29,46.29C409.29,133.07 388.52,153.83 363,153.83zM363,64.26c-23.87,0 -43.29,19.42 -43.29,43.29c0,23.87 19.42,43.29 43.29,43.29c23.87,0 43.29,-19.42 43.29,-43.29C406.29,83.68 386.87,64.26 363,64.26z"/>
    <path fill="#1B1B25" d="M359.62,128.29c-2.89,-0.35 -5.67,-1.08 -8.36,-2.17c-2.69,-1.09 -5.14,-2.48 -7.36,-4.16l5.2,-7.59c1.82,1.38 3.59,2.52 5.3,3.43c1.71,0.91 3.56,1.57 5.56,1.96v-10.59c-2.4,-0.67 -4.5,-1.4 -6.29,-2.2c-1.8,-0.8 -3.29,-1.75 -4.46,-2.86c-1.18,-1.11 -2.06,-2.41 -2.66,-3.9c-0.6,-1.49 -0.9,-3.21 -0.9,-5.16v-0.13c0,-1.86 0.33,-3.55 1,-5.06c0.67,-1.51 1.61,-2.82 2.83,-3.93c1.22,-1.11 2.7,-2.01 4.43,-2.7c1.73,-0.69 3.64,-1.14 5.73,-1.37V78h6.93v4c2.4,0.36 4.61,0.94 6.63,1.77c2.02,0.82 3.94,1.88 5.76,3.16l-4.46,7.79c-1.33,-0.89 -2.69,-1.68 -4.06,-2.36c-1.38,-0.69 -2.78,-1.21 -4.2,-1.57v10.06c5.06,1.38 8.74,3.18 11.02,5.4c2.29,2.22 3.43,5.2 3.43,8.93v0.13c0,1.87 -0.34,3.55 -1.03,5.06c-0.69,1.51 -1.64,2.82 -2.87,3.93c-1.22,1.11 -2.7,2.02 -4.43,2.73c-1.73,0.71 -3.66,1.18 -5.8,1.4v6.59h-6.93V128.29zM359.95,90.19c-1.6,0.22 -2.76,0.7 -3.5,1.43c-0.73,0.73 -1.1,1.63 -1.1,2.7v0.13c0,1.02 0.31,1.9 0.93,2.63c0.62,0.73 1.84,1.43 3.66,2.1V90.19zM366.21,120.1c3.15,-0.49 4.73,-1.91 4.73,-4.26v-0.13c0,-1.15 -0.33,-2.1 -1,-2.83c-0.67,-0.73 -1.91,-1.43 -3.73,-2.1V120.1z"/>
    <path fill="#1B1B25" d="M369.06,113.49m-57.47,0a57.47,57.47 0,1 1,114.94 0a57.47,57.47 0,1 1,-114.94 0"/>
    <path fill="#FFB54A" d="M363,107.43m-57.47,0a57.47,57.47 0,1 1,114.94 0a57.47,57.47 0,1 1,-114.94 0"/>
    <path fill="#FCF0E3" d="M363,153.83c-25.52,0 -46.29,-20.76 -46.29,-46.29c0,-25.52 20.76,-46.29 46.29,-46.29c25.52,0 46.29,20.76 46.29,46.29C409.29,133.07 388.52,153.83 363,153.83zM363,64.26c-23.87,0 -43.29,19.42 -43.29,43.29c0,23.87 19.42,43.29 43.29,43.29c23.87,0 43.29,-19.42 43.29,-43.29C406.29,83.68 386.87,64.26 363,64.26z"/>
    <path fill="#1B1B25" d="M359.62,128.29c-2.89,-0.35 -5.67,-1.08 -8.36,-2.17c-2.69,-1.09 -5.14,-2.48 -7.36,-4.16l5.2,-7.59c1.82,1.38 3.59,2.52 5.3,3.43c1.71,0.91 3.56,1.57 5.56,1.96v-10.59c-2.4,-0.67 -4.5,-1.4 -6.29,-2.2c-1.8,-0.8 -3.29,-1.75 -4.46,-2.86c-1.18,-1.11 -2.06,-2.41 -2.66,-3.9c-0.6,-1.49 -0.9,-3.21 -0.9,-5.16v-0.13c0,-1.86 0.33,-3.55 1,-5.06c0.67,-1.51 1.61,-2.82 2.83,-3.93c1.22,-1.11 2.7,-2.01 4.43,-2.7c1.73,-0.69 3.64,-1.14 5.73,-1.37V78h6.93v4c2.4,0.36 4.61,0.94 6.63,1.77c2.02,0.82 3.94,1.88 5.76,3.16l-4.46,7.79c-1.33,-0.89 -2.69,-1.68 -4.06,-2.36c-1.38,-0.69 -2.78,-1.21 -4.2,-1.57v10.06c5.06,1.38 8.74,3.18 11.02,5.4c2.29,2.22 3.43,5.2 3.43,8.93v0.13c0,1.87 -0.34,3.55 -1.03,5.06c-0.69,1.51 -1.64,2.82 -2.87,3.93c-1.22,1.11 -2.7,2.02 -4.43,2.73c-1.73,0.71 -3.66,1.18 -5.8,1.4v6.59h-6.93V128.29zM359.95,90.19c-1.6,0.22 -2.76,0.7 -3.5,1.43c-0.73,0.73 -1.1,1.63 -1.1,2.7v0.13c0,1.02 0.31,1.9 0.93,2.63c0.62,0.73 1.84,1.43 3.66,2.1V90.19zM366.21,120.1c3.15,-0.49 4.73,-1.91 4.73,-4.26v-0.13c0,-1.15 -0.33,-2.1 -1,-2.83c-0.67,-0.73 -1.91,-1.43 -3.73,-2.1V120.1z"/>
    <path fill="#1B1B25" d="M305.74,80.83m-26,0a26,26 0,1 1,52 0a26,26 0,1 1,-52 0"/>
    <path fill="#FFB54A" d="M303,78.09m-26,0a26,26 0,1 1,52 0a26,26 0,1 1,-52 0"/>
    <path fill="#FCF0E3" d="M303,99.09c-11.55,0 -20.94,-9.4 -20.94,-20.94c0,-11.55 9.4,-20.94 20.94,-20.94c11.55,0 20.94,9.4 20.94,20.94C323.94,89.69 314.54,99.09 303,99.09zM303,58.56c-10.8,0 -19.59,8.79 -19.59,19.59c0,10.8 8.79,19.59 19.59,19.59c10.8,0 19.59,-8.79 19.59,-19.59C322.58,67.34 313.79,58.56 303,58.56z"/>
    <path fill="#1B1B25" d="M301.47,87.53c-1.31,-0.16 -2.57,-0.49 -3.78,-0.98c-1.22,-0.49 -2.33,-1.12 -3.33,-1.88l2.35,-3.44c0.82,0.62 1.62,1.14 2.4,1.55c0.77,0.41 1.61,0.71 2.52,0.89v-4.79c-1.08,-0.3 -2.03,-0.63 -2.85,-1c-0.81,-0.36 -1.49,-0.79 -2.02,-1.3c-0.53,-0.5 -0.93,-1.09 -1.21,-1.76c-0.27,-0.67 -0.41,-1.45 -0.41,-2.34v-0.06c0,-0.84 0.15,-1.61 0.45,-2.29c0.3,-0.68 0.73,-1.28 1.28,-1.78c0.55,-0.5 1.22,-0.91 2,-1.22c0.78,-0.31 1.65,-0.52 2.59,-0.62v-1.75h3.13v1.81c1.08,0.16 2.08,0.43 3,0.8c0.91,0.37 1.78,0.85 2.61,1.43l-2.02,3.53c-0.6,-0.4 -1.22,-0.76 -1.84,-1.07c-0.62,-0.31 -1.26,-0.55 -1.9,-0.71v4.55c2.29,0.62 3.95,1.44 4.99,2.44c1.03,1.01 1.55,2.35 1.55,4.04v0.06c0,0.84 -0.16,1.61 -0.47,2.29c-0.31,0.68 -0.74,1.28 -1.3,1.78c-0.55,0.5 -1.22,0.91 -2,1.24c-0.78,0.32 -1.66,0.53 -2.62,0.63v2.98h-3.13V87.53zM301.62,70.29c-0.72,0.1 -1.25,0.32 -1.58,0.65c-0.33,0.33 -0.5,0.74 -0.5,1.22v0.06c0,0.46 0.14,0.86 0.42,1.19c0.28,0.33 0.83,0.65 1.66,0.95V70.29zM304.45,83.82c1.43,-0.22 2.14,-0.86 2.14,-1.93v-0.06c0,-0.52 -0.15,-0.95 -0.45,-1.28c-0.3,-0.33 -0.86,-0.65 -1.69,-0.95V83.82z"/>
    <path fill="#FFFFFF" d="M273.63,124.79L273.63,124.79c0,-6.24 -5.06,-11.29 -11.29,-11.29l0,0c6.24,0 11.29,-5.06 11.29,-11.29l0,0c0,6.24 5.06,11.29 11.29,11.29l0,0C278.68,113.49 273.63,118.55 273.63,124.79z"/>
    <path fill="#FFFFFF" d="M406.29,181.56L406.29,181.56c0,-4.58 -3.71,-8.29 -8.29,-8.29v0c4.58,0 8.29,-3.71 8.29,-8.29l0,0c0,4.58 3.71,8.29 8.29,8.29v0C410,173.27 406.29,176.98 406.29,181.56z"/>
    <path fill="#FFFFFF" d="M352.08,221.5L352.08,221.5c0,-8.42 -6.83,-15.25 -15.25,-15.25l0,0c8.42,0 15.25,-6.83 15.25,-15.25l0,0c0,8.42 6.83,15.25 15.25,15.25l0,0C358.91,206.25 352.08,213.08 352.08,221.5z"/>
    <path fill="#FCF0E3" d="M404.73,103.84L404.73,103.84c0,-7.89 -6.4,-14.29 -14.29,-14.29l0,0c7.89,0 14.29,-6.4 14.29,-14.29l0,0c0,7.89 6.4,14.29 14.29,14.29l0,0C411.12,89.55 404.73,95.95 404.73,103.84z"/>
    <path fill="#FFFFFF" d="M452.5,113.49L452.5,113.49c0,-4.35 -3.53,-7.88 -7.88,-7.88l0,0c4.35,0 7.88,-3.53 7.88,-7.88l0,0c0,4.35 3.53,7.88 7.88,7.88l0,0C456.03,105.61 452.5,109.14 452.5,113.49z"/>
    <path fill="#0074CC" d="M210.95,87.19h-87.8c-9.03,0 -16.35,7.32 -16.35,16.35c0,9.03 7.32,16.35 16.35,16.35h72.36l9.95,9.07v-9.07h5.49c9.03,0 16.35,-7.32 16.35,-16.35C227.3,94.51 219.98,87.19 210.95,87.19z"/>
    <path fill="#FFB54A" d="M131.06,101.29c1.14,-0.95 1.87,-2.38 1.87,-3.99c0,-2.86 -2.32,-5.18 -5.18,-5.18c-2.86,0 -5.18,2.32 -5.18,5.18c0,1.6 0.73,3.04 1.87,3.99c-3.68,1.35 -6.3,4.87 -6.3,9.02c0,5.31 19.23,5.31 19.23,0C137.37,106.16 134.74,102.64 131.06,101.29z"/>
    <path fill="#FFFFFF" d="M212.05,95.98h-62.91c-0.28,0 -0.5,-0.22 -0.5,-0.5c0,-0.28 0.22,-0.5 0.5,-0.5h62.91c0.28,0 0.5,0.22 0.5,0.5C212.55,95.76 212.32,95.98 212.05,95.98z"/>
    <path fill="#FFFFFF" d="M202.29,110.74h-53.15c-0.28,0 -0.5,-0.22 -0.5,-0.5c0,-0.28 0.22,-0.5 0.5,-0.5h53.15c0.28,0 0.5,0.22 0.5,0.5C202.79,110.52 202.56,110.74 202.29,110.74z"/>
    <path fill="#FFFFFF" d="M187.81,103.83h-38.68c-0.28,0 -0.5,-0.22 -0.5,-0.5c0,-0.28 0.22,-0.5 0.5,-0.5h38.68c0.28,0 0.5,0.22 0.5,0.5C188.31,103.61 188.09,103.83 187.81,103.83z"/>
    <path fill="#FFFFFF" d="M212.05,103.83h-19.41c-0.28,0 -0.5,-0.22 -0.5,-0.5c0,-0.28 0.22,-0.5 0.5,-0.5h19.41c0.28,0 0.5,0.22 0.5,0.5C212.55,103.61 212.32,103.83 212.05,103.83z"/>
    <path fill="#FFFFFF" d="M133.97,108.81c-0.38,0 -0.77,-0.15 -1.06,-0.44l-3.77,-3.77c-0.59,-0.59 -0.59,-1.54 0,-2.12c0.59,-0.59 1.54,-0.59 2.12,0l2.71,2.71l7.27,-7.27c0.59,-0.59 1.54,-0.59 2.12,0c0.59,0.59 0.59,1.54 0,2.12l-8.33,8.33C134.74,108.67 134.36,108.81 133.97,108.81z"/>
    <path fill="#FFB54A" d="M602.54,172.34h90.08c9.26,0 16.78,7.51 16.78,16.78c0,9.26 -7.51,16.78 -16.78,16.78h-74.24l-10.21,9.31v-9.31h-5.63c-9.26,0 -16.78,-7.51 -16.78,-16.78C585.76,179.85 593.27,172.34 602.54,172.34z"/>
    <path fill="#0074CC" d="M690.6,186.65c1.14,-0.95 1.87,-2.38 1.87,-3.99c0,-2.86 -2.32,-5.18 -5.18,-5.18c-2.86,0 -5.18,2.32 -5.18,5.18c0,1.6 0.73,3.04 1.87,3.99c-3.68,1.35 -6.3,4.87 -6.3,9.02c0,5.31 19.23,5.31 19.23,0C696.91,191.52 694.28,188 690.6,186.65z"/>
    <path fill="#FFFFFF" d="M698.5,189.54h-2.48v-2.48c0,-0.27 -0.22,-0.49 -0.49,-0.49h-2.27c-0.27,0 -0.49,0.22 -0.49,0.49v2.48h-2.48c-0.27,0 -0.49,0.22 -0.49,0.49v2.27c0,0.27 0.22,0.49 0.49,0.49h2.48v2.48c0,0.27 0.22,0.49 0.49,0.49h2.27c0.27,0 0.49,-0.22 0.49,-0.49v-2.48h2.48c0.27,0 0.49,-0.22 0.49,-0.49v-2.27C698.98,189.75 698.77,189.54 698.5,189.54z"/>
    <path fill="#FFFFFF" d="M669.81,182.35H606.9c-0.28,0 -0.5,-0.22 -0.5,-0.5c0,-0.28 0.22,-0.5 0.5,-0.5h62.91c0.28,0 0.5,0.22 0.5,0.5C670.31,182.12 670.09,182.35 669.81,182.35z"/>
    <path fill="#FFFFFF" d="M660.05,197.11H606.9c-0.28,0 -0.5,-0.22 -0.5,-0.5c0,-0.28 0.22,-0.5 0.5,-0.5h53.15c0.28,0 0.5,0.22 0.5,0.5C660.55,196.88 660.33,197.11 660.05,197.11z"/>
    <path fill="#FFFFFF" d="M645.58,190.19H606.9c-0.28,0 -0.5,-0.22 -0.5,-0.5c0,-0.28 0.22,-0.5 0.5,-0.5h38.68c0.28,0 0.5,0.22 0.5,0.5C646.08,189.97 645.85,190.19 645.58,190.19z"/>
    <path fill="#FFFFFF" d="M669.81,190.19H650.4c-0.28,0 -0.5,-0.22 -0.5,-0.5c0,-0.28 0.22,-0.5 0.5,-0.5h19.41c0.28,0 0.5,0.22 0.5,0.5C670.31,189.97 670.09,190.19 669.81,190.19z"/>
    <path fill="#0074CC" d="M489.31,75.64h62.05c6.38,0 11.56,5.17 11.56,11.56s-5.17,11.56 -11.56,11.56h-58.18h-3.88c-6.38,0 -11.56,-5.17 -11.56,-11.56S482.92,75.64 489.31,75.64z"/>
    <path fill="#FFFFFF" d="M544.36,83.39h-48.11c-0.28,0 -0.5,-0.22 -0.5,-0.5c0,-0.28 0.22,-0.5 0.5,-0.5h48.11c0.28,0 0.5,0.22 0.5,0.5C544.86,83.17 544.63,83.39 544.36,83.39z"/>
    <path fill="#FFFFFF" d="M536.89,92.13h-40.65c-0.28,0 -0.5,-0.22 -0.5,-0.5c0,-0.28 0.22,-0.5 0.5,-0.5h40.65c0.28,0 0.5,0.22 0.5,0.5C537.39,91.91 537.17,92.13 536.89,92.13z"/>
    <path fill="#FFFFFF" d="M525.82,88.04h-29.58c-0.28,0 -0.5,-0.22 -0.5,-0.5c0,-0.28 0.22,-0.5 0.5,-0.5h29.58c0.28,0 0.5,0.22 0.5,0.5C526.32,87.81 526.1,88.04 525.82,88.04z"/>
    <path fill="#FFFFFF" d="M544.36,88.04h-14.84c-0.28,0 -0.5,-0.22 -0.5,-0.5c0,-0.28 0.22,-0.5 0.5,-0.5h14.84c0.28,0 0.5,0.22 0.5,0.5C544.86,87.81 544.63,88.04 544.36,88.04z"/>
    <path fill="#FFB54A" d="M68.73,239.47h55.18c5.68,0 10.28,4.6 10.28,10.28c0,5.68 -4.6,10.28 -10.28,10.28H72.18h-3.45c-5.68,0 -10.28,-4.6 -10.28,-10.28C58.45,244.07 63.05,239.47 68.73,239.47z"/>
    <path fill="#FFFFFF" d="M117.68,246.42H74.9c-0.28,0 -0.5,-0.22 -0.5,-0.5c0,-0.28 0.22,-0.5 0.5,-0.5h42.78c0.28,0 0.5,0.22 0.5,0.5C118.18,246.19 117.95,246.42 117.68,246.42z"/>
    <path fill="#FFFFFF" d="M111.04,254.19H74.9c-0.28,0 -0.5,-0.22 -0.5,-0.5s0.22,-0.5 0.5,-0.5h36.14c0.28,0 0.5,0.22 0.5,0.5S111.32,254.19 111.04,254.19z"/>
    <path fill="#FFFFFF" d="M101.2,250.55H74.9c-0.28,0 -0.5,-0.22 -0.5,-0.5c0,-0.28 0.22,-0.5 0.5,-0.5h26.3c0.28,0 0.5,0.22 0.5,0.5C101.7,250.33 101.47,250.55 101.2,250.55z"/>
    <path fill="#FFFFFF" d="M117.68,250.55h-13.2c-0.28,0 -0.5,-0.22 -0.5,-0.5c0,-0.28 0.22,-0.5 0.5,-0.5h13.2c0.28,0 0.5,0.22 0.5,0.5C118.18,250.33 117.95,250.55 117.68,250.55z"/>
    <path fill="#FFFFFF" d="M476.55,295.03h-98.04c-0.28,0 -0.5,-0.22 -0.5,-0.5c0,-0.28 0.22,-0.5 0.5,-0.5h98.04c0.28,0 0.5,0.22 0.5,0.5C477.05,294.81 476.82,295.03 476.55,295.03z"/>
    <path fill="#FFFFFF" d="M476.55,318.03h-82.83c-0.28,0 -0.5,-0.22 -0.5,-0.5s0.22,-0.5 0.5,-0.5h82.83c0.28,0 0.5,0.22 0.5,0.5S476.82,318.03 476.55,318.03z"/>
    <path fill="#FFFFFF" d="M476.55,307.26h-60.27c-0.28,0 -0.5,-0.22 -0.5,-0.5s0.22,-0.5 0.5,-0.5h60.27c0.28,0 0.5,0.22 0.5,0.5S476.82,307.26 476.55,307.26z"/>
    <path fill="#FFFFFF" d="M408.76,307.26h-30.25c-0.28,0 -0.5,-0.22 -0.5,-0.5s0.22,-0.5 0.5,-0.5h30.25c0.28,0 0.5,0.22 0.5,0.5S409.04,307.26 408.76,307.26z"/>
    <path fill="#FFFFFF" d="M365.67,331.52h-98.04c-0.28,0 -0.5,-0.22 -0.5,-0.5c0,-0.28 0.22,-0.5 0.5,-0.5h98.04c0.28,0 0.5,0.22 0.5,0.5C366.17,331.3 365.94,331.52 365.67,331.52z"/>
    <path fill="#FFFFFF" d="M350.46,354.52h-82.83c-0.28,0 -0.5,-0.22 -0.5,-0.5s0.22,-0.5 0.5,-0.5h82.83c0.28,0 0.5,0.22 0.5,0.5S350.73,354.52 350.46,354.52z"/>
    <path fill="#FFFFFF" d="M327.9,343.75h-60.27c-0.28,0 -0.5,-0.22 -0.5,-0.5c0,-0.28 0.22,-0.5 0.5,-0.5h60.27c0.28,0 0.5,0.22 0.5,0.5C328.4,343.52 328.18,343.75 327.9,343.75z"/>
    <path fill="#FFFFFF" d="M365.67,343.75h-30.25c-0.28,0 -0.5,-0.22 -0.5,-0.5c0,-0.28 0.22,-0.5 0.5,-0.5h30.25c0.28,0 0.5,0.22 0.5,0.5C366.17,343.52 365.94,343.75 365.67,343.75z"/>
    <path fill="#FEC29E" d="M439.58,238.61l0.03,-0.11l14.48,-50.37l-0.06,-0.05c0.65,-1.27 2.34,-4.01 5.79,-6.42c5.97,-4.16 6.68,-11.06 6.68,-11.06c3.19,-3.08 6.78,-5.72 10.03,-8.73c0.34,-0.31 0.69,-0.66 0.79,-1.11c0.11,-0.5 -0.12,-1.02 -0.41,-1.45c-1.68,-2.49 -4.77,-2.85 -7.33,-1.7c-1.5,0.67 -2.85,1.63 -4.11,2.68c-0.6,0.5 -2.64,1.87 -3.26,2.79l11.52,-24.59c1.02,-2.18 0.35,-4.68 -1.49,-5.54v0c-0.92,-0.43 -1.97,-0.38 -2.91,0.06c-0.6,0.28 -1.14,0.72 -1.6,1.28c0.04,-0.18 0.06,-0.29 0.06,-0.29c-13.49,-11.34 -30.13,27.26 -30.13,27.26l-4.72,11.15l-40.06,74.28c-5.66,10.78 -1.3,24.1 9.65,29.44l0,0c0.16,0.08 0.32,0.14 0.48,0.22c3.21,1.85 6.94,2.92 10.91,2.92h78.84l16.99,-40.38L439.58,238.61zM462.04,163.46L462.04,163.46C462.04,163.46 462.04,163.46 462.04,163.46L462.04,163.46z"/>
    <path  style= "fill-opacity=0.17" fill="#FF887C"
        d="M426.08,279.25C423.52,279.17 425.07,279.22 426.08,279.25L426.08,279.25z" android:strokeAlpha="0.17"/>
    <path  style= "fill-opacity=0.17" fill="#FF887C"
        d="M426.09,279.25c0.36,0.01 0.65,0.02 0.65,0.02C426.49,279.26 426.29,279.26 426.09,279.25z" android:strokeAlpha="0.17"/>
    <path  style= "fill-opacity=0.17" fill="#FF887C"
        d="M439.61,238.49l-2.29,7.98c-0.6,2.21 -1.28,4.59 -2.02,7.02l-2.77,9.64c-0.38,1.24 -0.87,2.41 -1.44,3.52c-2.39,7.14 -4.35,12.61 -4.35,12.61l28.35,-40.6C448.04,238.67 446.42,238.5 439.61,238.49z" android:strokeAlpha="0.17"/>
    <path  style= "fill-opacity=0.17" fill="#FF887C"
        d="M426.08,279.25c0,0 0.01,0 0.01,0C426.09,279.25 426.08,279.25 426.08,279.25z" android:strokeAlpha="0.17"/>
    <path fill="#FB8E77" d="M451.03,165.6c-0.1,0 -0.21,-0.03 -0.3,-0.1c-0.22,-0.16 -0.27,-0.48 -0.11,-0.7c5.03,-6.82 11.8,-3.14 11.86,-3.1c0.24,0.14 0.33,0.44 0.19,0.68c-0.13,0.24 -0.44,0.33 -0.68,0.19c-0.25,-0.14 -6.07,-3.28 -10.57,2.82C451.33,165.53 451.18,165.6 451.03,165.6z"/>
    <path fill="#FB8E77" d="M468.02,134.2c-2.08,2.62 -4.01,5.37 -5.73,8.24c-0.85,1.43 -1.63,2.91 -2.28,4.43c-0.64,1.51 -1.15,3.13 -1.07,4.65l0,0.03c0.01,0.28 -0.2,0.51 -0.47,0.53c-0.28,0.01 -0.51,-0.2 -0.53,-0.47c0,0 0,-0.01 0,-0.01c-0.05,-1.86 0.56,-3.52 1.24,-5.08c0.7,-1.56 1.52,-3.05 2.42,-4.49c1.8,-2.87 3.79,-5.6 5.95,-8.21c0.1,-0.13 0.29,-0.14 0.42,-0.04C468.11,133.88 468.13,134.07 468.02,134.2L468.02,134.2z"/>
    <path fill="#FB8E77" d="M464.54,132.77c-1.32,0.91 -2.5,2.11 -3.56,3.36c-1.06,1.26 -1.99,2.63 -2.83,4.05c-0.82,1.43 -1.55,2.92 -2.16,4.45c-0.33,0.76 -0.57,1.55 -0.86,2.32l-0.72,2.37l-0.01,0.03c-0.08,0.26 -0.36,0.41 -0.62,0.33s-0.41,-0.36 -0.33,-0.62c0,0 0,-0.01 0,-0.01l0.78,-2.41c0.31,-0.79 0.58,-1.59 0.93,-2.36c0.66,-1.56 1.43,-3.07 2.3,-4.52c0.89,-1.44 1.87,-2.83 2.98,-4.11c1.13,-1.27 2.33,-2.46 3.78,-3.43c0.14,-0.09 0.34,-0.06 0.43,0.09c0.09,0.14 0.06,0.33 -0.08,0.43L464.54,132.77z"/>
    <path fill="#FB8E77" d="M459.09,133.16c-1.91,2 -3.7,4.17 -5.24,6.47c-0.76,1.16 -1.49,2.34 -2.06,3.58c-0.58,1.24 -1.05,2.53 -1.26,3.84l0,0.01c-0.04,0.27 -0.3,0.46 -0.57,0.42c-0.27,-0.04 -0.46,-0.3 -0.42,-0.57c0,0 0,-0.01 0,-0.01c0.27,-1.45 0.81,-2.8 1.45,-4.08c0.63,-1.28 1.41,-2.47 2.22,-3.64c1.63,-2.31 3.48,-4.44 5.48,-6.44c0.11,-0.11 0.3,-0.11 0.41,0C459.21,132.85 459.21,133.03 459.09,133.16L459.09,133.16z"/>
    <path fill="#0074CC" d="M621.54,311.95l-19.34,-52.72c-2.3,-11.57 -13.31,-20.34 -26.55,-20.34l-54.02,-0.43l-60.86,0.23v40.57h18.89l-9.75,105.83l134.02,0.76l-0.75,-71.66L621.54,311.95z"/>
    <path fill="#00000000" d="M488.41,309.3"
        android:strokeColor="#FB8E77" android:strokeLineCap="round" android:strokeWidth="1"/>
    <path android:fillAlpha="0.05" fill="#1B1B25"
        d="M521.53,238.91l0.11,-0.45l-60.86,0.23v40.57h18.89l0.1,-1.07C479.76,256.79 498.38,239.38 521.53,238.91z" android:strokeAlpha="0.05"/>
    <path android:fillAlpha="0.18" fill="#FF887C"
        d="M444.61,180.2c0,0 3.42,29.01 3.62,28.32c0.2,-0.7 5.86,-20.39 5.86,-20.39L444.61,180.2z" android:strokeAlpha="0.18"/>
    <path fill="#1B1B25" d="M524.39,327.09l-5.11,-25.78l-3.95,-19.89c-0.46,-2.34 -2.76,-3.87 -5.1,-3.41l-19.76,3.92c-2.34,0.46 -3.87,2.76 -3.41,5.1l3.97,20.02l3.15,15.88l1.94,9.77c0.46,2.34 2.76,3.87 5.1,3.41l11.67,-2.32l8.09,-1.6C523.32,331.73 524.86,329.43 524.39,327.09z"/>
    <path fill="#FEC29E" d="M629.55,350.85l-8.91,-38.79l-40.5,4.96l2.22,9.87l-0.21,-0.05l-44.03,-10.9l-0.04,0.05c-1.21,-0.61 -3.5,-2.06 -5.51,-5.06c-3.69,-5.52 -9.89,-5.67 -9.89,-5.67c-1.19,-1.25 -2.31,-2.59 -3.41,-3.94l1.03,5.2l-0.26,0.14c-2.8,1.48 -5.96,2.14 -9.12,1.89c-5.84,-0.46 -15.39,-1.2 -19.36,-1.51c-1.21,-0.09 -2.37,0.55 -2.9,1.65c-5.67,11.91 18.66,22.81 24.22,25.11l0,0c0.07,0.03 0.13,0.05 0.2,0.08c0.08,0.03 0.16,0.06 0.23,0.09c0.08,0.03 0.14,0.06 0.21,0.09c0.06,0.03 0.13,0.05 0.18,0.07c0.07,0.03 0.12,0.05 0.17,0.07c0.02,0.01 0.05,0.02 0.06,0.03c0.05,0.02 0.08,0.03 0.08,0.03l9.52,3.57l75.38,37.11c0.7,0.34 1.41,0.63 2.12,0.88c3.66,1.67 7.86,2.22 12.08,1.25l0,0C624.9,374.35 632.25,362.62 629.55,350.85z"/>
    <path  style= "fill-opacity=0.17" fill="#FF887C"
        d="M626.68,338.34l-46.54,-21.33c1.55,6.77 0.65,3.78 2.02,9.82l3.17,0.78C598.72,328.52 626.68,338.34 626.68,338.34z" android:strokeAlpha="0.17"/>
    <path alpha="0.35" fill="#1B1B25"
        d="M576.37,317.51c-0.23,0 -0.44,-0.16 -0.49,-0.4l-5.82,-28.17c-0.06,-0.27 0.12,-0.54 0.39,-0.59c0.26,-0.06 0.54,0.12 0.59,0.39l5.72,27.71l19.58,-2.49c0.27,-0.04 0.52,0.16 0.56,0.43c0.04,0.27 -0.16,0.52 -0.43,0.56l-20.04,2.55C576.42,317.51 576.4,317.51 576.37,317.51z" android:strokeAlpha="0.35"/>
    <path  style= "fill-opacity=0.17" fill="#FF887C"
        d="M626.99,339.95c0.04,0.19 0.07,0.34 0.08,0.4C627.06,340.31 627.04,340.18 626.99,339.95z" android:strokeAlpha="0.17"/>
    <path  style= "fill-opacity=0.17" fill="#FF887C"
        d="M627.07,340.35C627.08,340.37 627.08,340.37 627.07,340.35L627.07,340.35z" android:strokeAlpha="0.17"/>
    <path  style= "fill-opacity=0.17" fill="#FF887C"
        d="M626.68,338.34c0,0 0.11,0.54 0.21,1.07C626.83,339.13 626.76,338.79 626.68,338.34z" android:strokeAlpha="0.17"/>
    <path  style= "fill-opacity=0.17" fill="#FF887C"
        d="M626.89,339.41c0.04,0.22 0.08,0.4 0.11,0.53C626.96,339.79 626.93,339.6 626.89,339.41z" android:strokeAlpha="0.17"/>
    <path fill="#1B1B25" d="M571.79,134.45c-1.23,-8.49 -8.98,-14.53 -17.57,-13.56c-2.28,0.26 -4.39,0.99 -6.25,2.08c-2.76,-4.52 -7.97,-7.29 -13.58,-6.66c-3.21,0.36 -6.03,1.79 -8.18,3.87c-3.1,-1.55 -6.66,-2.27 -10.36,-1.85c-10.17,1.15 -17.48,10.33 -16.33,20.49c0.54,4.76 2.84,8.88 6.17,11.81l-3.77,20.12c-1.08,5.78 2.72,11.33 8.5,12.41l44.62,8.35c5.78,1.08 11.33,-2.72 12.41,-8.5l7.31,-39.05C575.44,140.37 574.21,136.85 571.79,134.45z"/>
    <path fill="#FCF0E3" d="M506.75,145.45c-0.17,0 -0.33,-0.08 -0.42,-0.23c-7.97,-12.61 3.01,-20.7 3.12,-20.78c0.22,-0.16 0.54,-0.11 0.7,0.11c0.16,0.22 0.11,0.54 -0.11,0.7c-0.42,0.31 -10.32,7.63 -2.86,19.44c0.15,0.23 0.08,0.54 -0.16,0.69C506.93,145.43 506.84,145.45 506.75,145.45z"/>
    <path fill="#FEC29E" d="M564.57,173.89l-0.98,-0.18l-9.85,-21.17c-2.42,-0.35 -4.7,-1.24 -6.66,-2.58c-1.89,2.05 -4.49,3.46 -7.47,3.79c-3.59,0.41 -6.99,-0.82 -9.46,-3.08c-2.75,2.41 -6.22,4.05 -10.13,4.49c-4.47,0.51 -8.75,-0.63 -12.23,-2.91l-6.86,36.65c-0.95,5.06 0.09,10.03 2.54,14.13c2.44,6.03 7.68,10.77 14.43,12.32v24.21c0,8.41 6.88,15.29 15.29,15.29H538c8.41,0 15.29,-6.88 15.29,-15.29v-27.48c2.48,-2.72 4.27,-6.13 5,-10.02l1.25,-6.69l0.98,0.18c5.79,1.08 11.42,-2.77 12.5,-8.56l0.11,-0.59C574.21,180.6 570.36,174.98 564.57,173.89z"/>
    <path alpha="0.32" fill="#FF887C"
        d="M557.27,194.51l-0.89,4.77c-2.06,11.01 -12.66,18.27 -23.68,16.21l-15.57,-2.92c-5.95,-1.11 -10.79,-4.73 -13.67,-9.55c2.54,6.28 8.11,11.18 15.26,12.52l0.62,0.12c2.47,5.13 7.72,8.7 13.76,8.7h4.88c7.21,0 13.29,-5.07 14.87,-11.82c2.71,-2.8 4.65,-6.38 5.42,-10.49l1.25,-6.69L557.27,194.51z" android:strokeAlpha="0.32"/>
    <path fill="#FB8E77" d="M565.43,188.25c-0.11,0 -0.22,-0.03 -0.31,-0.1l-3.89,-3.02c-0.12,-0.09 -0.19,-0.23 -0.19,-0.37c-0.01,-0.15 0.05,-0.29 0.16,-0.39l4.8,-4.53c0.2,-0.19 0.52,-0.18 0.71,0.02c0.19,0.2 0.18,0.52 -0.02,0.71l-4.37,4.13l3.43,2.66c0.22,0.17 0.26,0.48 0.09,0.7C565.72,188.18 565.58,188.25 565.43,188.25z"/>
    <path fill="#1B1B25" d="M540.68,169.64c-0.75,-0.02 -1.52,-0.48 -2.3,-0.87c-0.77,-0.42 -1.55,-0.81 -2.25,-1.14c-0.69,-0.32 -1.5,-0.67 -2.32,-0.99c-0.8,-0.34 -1.65,-0.64 -2.14,-1.2c-0.48,-0.53 -0.38,-1.36 0.73,-1.92c1.06,-0.55 3.23,-0.69 5.53,0.38c2.29,1.07 3.56,2.81 3.79,3.97C542,169.07 541.4,169.67 540.68,169.64z"/>
    <path fill="#1B1B25" d="M508.87,166.9c0.65,0.36 1.54,0.41 2.41,0.5c0.87,0.08 1.74,0.17 2.5,0.28c0.76,0.11 1.63,0.25 2.48,0.42c0.86,0.15 1.73,0.35 2.44,0.18c0.68,-0.15 1.04,-0.82 0.39,-1.78c-0.61,-0.94 -2.38,-2.11 -4.89,-2.47c-2.51,-0.35 -4.49,0.3 -5.3,1.04C508.05,165.83 508.24,166.56 508.87,166.9z"/>
    <path fill="#1B1B25" d="M533.33,178.19l0.07,0.01c0.67,0.13 1.32,-0.32 1.44,-0.99l0.3,-1.58c0.13,-0.67 -0.32,-1.32 -0.99,-1.44l-0.07,-0.01c-0.67,-0.13 -1.32,0.32 -1.44,0.99l-0.3,1.58C532.22,177.42 532.66,178.07 533.33,178.19z"/>
    <path fill="#1B1B25" d="M511.77,174.69l0.07,0.01c0.67,0.13 1.32,-0.32 1.44,-0.99l0.3,-1.58c0.13,-0.67 -0.32,-1.32 -0.99,-1.44l-0.07,-0.01c-0.67,-0.13 -1.32,0.32 -1.44,0.99l-0.3,1.58C510.66,173.91 511.11,174.56 511.77,174.69z"/>
    <path  style= "fill-opacity=0.17"fill="#FF887C"
        d="M534.22,183.92l4.43,0.5c0.84,0.09 1.6,-0.51 1.69,-1.35l0.01,-0.08c0.09,-0.84 -0.51,-1.6 -1.35,-1.69l-4.43,-0.5c-0.84,-0.09 -1.6,0.51 -1.69,1.35l-0.01,0.09C532.77,183.07 533.38,183.83 534.22,183.92z" android:strokeAlpha="0.17"/>
    <path  style= "fill-opacity=0.17"fill="#FF887C"
        d="M505.03,179.32l4.43,0.5c0.84,0.09 1.6,-0.51 1.69,-1.35l0.01,-0.09c0.09,-0.84 -0.51,-1.6 -1.35,-1.69l-4.43,-0.5c-0.84,-0.09 -1.6,0.51 -1.69,1.35l-0.01,0.08C503.59,178.47 504.2,179.23 505.03,179.32z" android:strokeAlpha="0.17"/>
    <path fill="#FB8E77" d="M517.93,201.96c-0.15,0 -0.31,-0.07 -0.4,-0.21c-0.16,-0.22 -0.11,-0.54 0.11,-0.7c2.1,-1.53 4.44,-0.67 5.39,-0.01c0.23,0.16 0.28,0.47 0.12,0.69c-0.16,0.23 -0.47,0.28 -0.7,0.12c-0.09,-0.06 -2.2,-1.49 -4.23,-0.01C518.14,201.93 518.03,201.96 517.93,201.96z"/>
    <path fill="#FFFFFF" d="M521.31,187.75l11.69,-1.67l-1.28,4.06c-0.82,2.6 -3.23,4.37 -5.96,4.37h0c-2.12,0 -3.9,-1.6 -4.13,-3.71L521.31,187.75z"/>
    <path fill="#FB8E77" d="M524.34,183.6c-0.04,0 -0.08,-0.01 -0.13,-0.02l-3.63,-0.94c-1.54,-0.4 -2.78,-1.47 -3.4,-2.93c-0.63,-1.46 -0.54,-3.1 0.23,-4.48l5.52,-9.94c0.14,-0.24 0.44,-0.33 0.68,-0.19c0.24,0.13 0.33,0.44 0.19,0.68l-5.52,9.94c-0.62,1.12 -0.69,2.43 -0.18,3.6c0.5,1.17 1.5,2.03 2.74,2.35l3.63,0.94c0.27,0.07 0.43,0.34 0.36,0.61C524.76,183.45 524.56,183.6 524.34,183.6z"/>
    <path fill="#FEC29E" d="M354.51,255.5l-40.06,-74.28l-4.72,-11.15c0,0 -16.64,-38.61 -30.13,-27.26c0,0 0.02,0.11 0.06,0.29c-0.46,-0.56 -1,-1 -1.6,-1.28c-0.94,-0.44 -1.99,-0.49 -2.91,-0.06l0,0c-1.84,0.86 -2.51,3.35 -1.49,5.54l11.52,24.59c-0.62,-0.91 -2.66,-2.29 -3.26,-2.79c-1.26,-1.05 -2.61,-2.01 -4.11,-2.68c-2.57,-1.15 -5.65,-0.79 -7.33,1.7c-0.29,0.43 -0.52,0.94 -0.41,1.45c0.1,0.45 0.45,0.8 0.79,1.11c3.25,3.01 6.85,5.65 10.03,8.73c0,0 0.71,6.9 6.68,11.06c3.45,2.41 5.14,5.14 5.79,6.42l-0.06,0.05l14.51,50.48l-21.19,0.28v40.38h46.87c3.98,0 7.71,-1.07 10.92,-2.93c0.15,-0.07 0.31,-0.14 0.46,-0.21h0C355.81,279.6 360.18,266.28 354.51,255.5z"/>
    <path  style= "fill-opacity=0.17"fill="#FF887C"
        d="M320.65,288.08C325.3,287.94 320.65,288.08 320.65,288.08s-10.89,-29.3 -12.76,-40.78c-7.22,0 -8.31,0.32 -15.53,0.32L320.65,288.08z" android:strokeAlpha="0.17"/>
    <path fill="#FB8E77" d="M296.36,174.41c-0.15,0 -0.3,-0.07 -0.4,-0.2c-4.5,-6.1 -10.32,-2.96 -10.57,-2.82c-0.24,0.13 -0.54,0.05 -0.68,-0.19c-0.13,-0.24 -0.05,-0.54 0.19,-0.68c0.07,-0.04 6.83,-3.72 11.86,3.1c0.16,0.22 0.12,0.54 -0.11,0.7C296.57,174.37 296.46,174.41 296.36,174.41z"/>
    <path fill="#FB8E77" d="M279.81,142.6c1.21,1.21 2.32,2.5 3.37,3.84c1.04,1.34 2.02,2.74 2.9,4.21c0.86,1.48 1.63,3.01 2.24,4.62c0.58,1.62 0.99,3.32 1.12,5.07c0.02,0.28 -0.18,0.52 -0.46,0.54c-0.28,0.02 -0.52,-0.18 -0.54,-0.46c0,0 0,0 0,-0.01l0,-0.02c-0.1,-1.63 -0.45,-3.24 -0.97,-4.81c-0.56,-1.56 -1.27,-3.07 -2.08,-4.53c-0.83,-1.45 -1.76,-2.84 -2.76,-4.19c-1.01,-1.34 -2.08,-2.64 -3.23,-3.84l-0.01,-0.01c-0.11,-0.12 -0.11,-0.31 0.01,-0.42C279.51,142.49 279.69,142.49 279.81,142.6z"/>
    <path fill="#FB8E77" d="M283.19,140.68c1.63,0.84 2.83,2.1 3.94,3.42c1.1,1.33 2.05,2.78 2.87,4.28c0.85,1.5 1.55,3.06 2.22,4.64l0.91,2.4l0.81,2.44c0.09,0.26 -0.06,0.54 -0.32,0.63c-0.26,0.09 -0.55,-0.06 -0.63,-0.32c0,0 0,0 0,-0.01l-0.01,-0.02l-0.75,-2.41l-0.85,-2.38c-0.63,-1.56 -1.28,-3.11 -2.09,-4.59c-0.77,-1.49 -1.68,-2.91 -2.72,-4.22c-1.03,-1.29 -2.24,-2.55 -3.63,-3.3l-0.05,-0.03c-0.15,-0.08 -0.21,-0.27 -0.13,-0.42C282.86,140.66 283.04,140.6 283.19,140.68z"/>
    <path fill="#FB8E77" d="M288.68,141.53c1.12,0.91 2.12,1.91 3.05,2.98c0.94,1.07 1.8,2.2 2.57,3.39c0.78,1.19 1.48,2.43 2.06,3.74c0.61,1.29 1.06,2.65 1.48,4.02c0.08,0.26 -0.07,0.54 -0.33,0.62c-0.26,0.08 -0.54,-0.07 -0.62,-0.33c0,0 0,-0.01 0,-0.01l-0.01,-0.03c-0.36,-1.32 -0.76,-2.65 -1.33,-3.91c-0.53,-1.27 -1.18,-2.5 -1.91,-3.67c-0.72,-1.18 -1.53,-2.31 -2.42,-3.37c-0.88,-1.06 -1.85,-2.08 -2.89,-2.96l-0.01,-0.01c-0.12,-0.1 -0.14,-0.29 -0.03,-0.41C288.38,141.44 288.56,141.43 288.68,141.53z"/>
    <path alpha="0.18" fill="#FF887C"
        d="M291.49,194.08l15.48,-1.91l-9.57,19.04C297.4,211.21 294.55,197.05 291.49,194.08z" alpha="0.18"/>
    <path fill="#FFFFFF" d="M229.28,247.7l0,0.02c-0.24,-0.01 -0.48,-0.02 -0.72,-0.02h-48.92c-10.62,0 -19.68,6.67 -23.23,16.04l-0.01,0l-0.07,0.2c-0.01,0.03 -0.02,0.06 -0.04,0.1l-20.8,56.71l19.31,2.36v62.98h105.11l7.86,-98.02h18.28V247.5L229.28,247.7z"/>
    <path alpha="0.05" fill="#1B1B25"
        d="M286.62,247.5l-55.84,0.23l0,0.01c20.94,0.87 37.64,18.11 37.64,39.26l-0.09,1.07h18.28V247.5z" alpha="0.05"/>
    <path fill="#00000000" d="M269.18,318.1"
        strokeColor="#FB8E77" strokeLineCap="round" Width="1"/>
    <path fill="#1B1B25" d="M267.11,290.74l-19.76,-3.92c-2.34,-0.46 -4.63,1.07 -5.1,3.41l-3.95,19.89l-5.11,25.78c-0.46,2.34 1.07,4.63 3.41,5.1l8.09,1.6l11.67,2.32c2.34,0.46 4.63,-1.07 5.1,-3.41l1.94,-9.77l3.15,-15.88l3.97,-20.02C270.99,293.5 269.45,291.21 267.11,290.74z"/>
    <path fill="#FEC29E" d="M269.18,317.29c-0.25,-0.52 -0.64,-0.93 -1.11,-1.21c-0.08,-0.12 -0.15,-0.25 -0.24,-0.37c0,0 -0.18,0.02 -0.47,0.06c-0.34,-0.1 -0.71,-0.15 -1.07,-0.12c-3.97,0.31 -13.52,1.05 -19.36,1.51c-3.16,0.25 -6.32,-0.41 -9.12,-1.89l-0.47,-0.25l0.97,-4.89c-1.05,1.28 -2.11,2.55 -3.23,3.74c-0.57,0.03 -3.83,0.32 -6.88,2.59c-1.13,0.8 -2.24,1.86 -3.19,3.27c-1.19,1.78 -2.48,3.01 -3.58,3.84c-0.65,0.47 -1.22,0.8 -1.65,1.01l-0.04,-0.05l-44.03,10.9l-0.2,0.05l2.23,-9.91l-40.52,-4.91l-8.91,38.79c-2.7,11.77 4.65,23.5 16.42,26.2l0,0c4.22,0.97 8.43,0.42 12.08,-1.25c0.71,-0.25 1.42,-0.55 2.12,-0.88l74.53,-36.69l10.1,-3.79c0,0 0.41,-0.16 1.12,-0.45l-0.15,-0.03C249.16,340.69 275.01,329.52 269.18,317.29z"/>
    <path  style= "fill-opacity=0.17" fill="#FF887C"
        d="M130.6,348.72c-0.04,0.21 -0.07,0.34 -0.08,0.4C130.54,349.05 130.57,348.9 130.6,348.72z" alpha="0.17"/>
    <path  style= "fill-opacity=0.17" fill="#FF887C"
        d="M175.43,335.64c0.91,-4.2 0.65,-3.84 2.03,-9.86l-46.55,21.38c0,0 4.61,-1.39 10.98,-3.08c0.59,-0.22 1.19,-0.42 1.81,-0.58L175.43,335.64z" android:strokeAlpha="0.17"/>
    <path  style= "fill-opacity=0.17" fill="#FF887C"
        d="M130.72,348.15c-0.04,0.2 -0.08,0.4 -0.11,0.57C130.63,348.57 130.67,348.38 130.72,348.15z" alpha="0.17"/>
    <path  style= "fill-opacity=0.17" fill="#FF887C"
        d="M130.52,349.12C130.51,349.18 130.51,349.18 130.52,349.12L130.52,349.12z"/>
    <path  style= "fill-opacity=0.17" fill="#FF887C"
        d="M130.91,347.15c-0.08,0.41 -0.14,0.72 -0.2,1C130.82,347.65 130.91,347.15 130.91,347.15z" alpha="0.17"/>
    <path alpha="0.35" fill="#1B1B25"
        d="M181.22,326.27c-0.02,0 -0.04,0 -0.06,0l-8.84,-1.09c-0.27,-0.03 -0.47,-0.28 -0.44,-0.56c0.03,-0.27 0.29,-0.47 0.56,-0.43l8.36,1.03l4.65,-29.69c0.04,-0.27 0.3,-0.46 0.57,-0.42c0.27,0.04 0.46,0.3 0.42,0.57l-4.73,30.17C181.67,326.1 181.46,326.27 181.22,326.27z" android:strokeAlpha="0.35"/>
    <path alpha="0.08" fill="#FF887C"
        d="M191.54,331.48l19.96,-0.5c3.72,0.49 9.65,-2.87 8.96,-6.56l0,0L191.54,331.48z" />
    <path fill="#1B1B25" d="M254.5,234.92l-6.79,-46.19c-0.74,-5.06 -2.21,-9.83 -4.28,-14.24l3.68,-0.59c0,0 -2.59,-37.49 -44.63,-28.54c-4.14,-0.43 -8.4,-0.36 -12.71,0.28h0c-20.43,3 -34.55,21.99 -31.55,42.42l3.96,26.92c3,20.43 21.99,34.55 42.42,31.55l46.32,-6.81C253.24,239.4 254.84,237.24 254.5,234.92z"/>
    <path fill="#FCF0E3" d="M226.6,172.44c-0.25,0 -0.46,-0.18 -0.5,-0.43c-0.04,-0.27 0.15,-0.53 0.43,-0.56l13.52,-1.85c0.11,-0.01 0.21,-0.07 0.27,-0.16c0.04,-0.05 0.09,-0.15 0.07,-0.29c-2.19,-12.19 -13.41,-17.81 -13.53,-17.87c-0.25,-0.12 -0.35,-0.42 -0.23,-0.67c0.12,-0.25 0.42,-0.35 0.67,-0.23c0.12,0.06 11.79,5.89 14.07,18.59c0.07,0.37 -0.02,0.74 -0.24,1.05c-0.22,0.31 -0.57,0.52 -0.94,0.57l-13.52,1.85C226.65,172.43 226.63,172.44 226.6,172.44z"/>
    <path fill="#FEC29E" d="M239.63,175.11l-37.01,5.95l-8.98,-13.29c1.76,14.82 -9.17,24.4 -9.17,24.4s-0.11,-0.15 -0.31,-0.43l-0.31,0.06c-5.79,1.08 -9.64,6.71 -8.56,12.5l0,0c1.08,5.79 6.71,9.64 12.5,8.56l0.71,-0.13c1.27,5.55 4.12,10.37 8.01,14.02v23.72c0,8.41 6.88,15.29 15.29,15.29h0c8.41,0 15.29,-6.88 15.29,-15.29v-18.73c6.09,-2.8 10.86,-7.7 13.58,-13.62c0.01,-0.01 0.01,-0.02 0.02,-0.03c3.31,-5.54 4.69,-12.26 3.41,-19.11L239.63,175.11z"/>
    <path alpha="0.32" fill="#FF887C"
        d="M222.17,231.01L222.17,231.01c-13.71,2.57 -26.95,-5.54 -31.15,-18.47c-0.14,-0.42 -2.55,0.13 -2.49,0.39c1.3,5.5 4.18,10.26 8.06,13.88c0.72,7.75 7.28,13.88 15.22,13.88h0c5.87,0 10.98,-3.36 13.54,-8.24c6.93,-2.63 12.37,-7.88 15.34,-14.37C236.79,224.61 230.23,229.5 222.17,231.01z" android:strokeAlpha="0.32"/>
    <path fill="#FB8E77" d="M182.74,205.83c-0.15,0 -0.3,-0.07 -0.4,-0.19c-0.17,-0.22 -0.13,-0.53 0.09,-0.7l3.33,-2.58l-4.24,-4c-0.2,-0.19 -0.21,-0.51 -0.02,-0.71c0.19,-0.2 0.51,-0.21 0.71,-0.02l4.67,4.41c0.11,0.1 0.16,0.24 0.16,0.39c-0.01,0.15 -0.08,0.28 -0.19,0.37l-3.79,2.94C182.95,205.79 182.84,205.83 182.74,205.83z"/>
    <path fill="#1B1B25" d="M209.37,187.6c0.45,-0.01 0.91,-0.28 1.36,-0.52c0.46,-0.25 0.92,-0.48 1.33,-0.68c0.41,-0.19 0.89,-0.4 1.38,-0.59c0.48,-0.2 0.98,-0.38 1.27,-0.71c0.28,-0.31 0.23,-0.81 -0.44,-1.14c-0.63,-0.33 -1.92,-0.41 -3.28,0.22c-1.36,0.64 -2.11,1.67 -2.25,2.36C208.58,187.26 208.94,187.61 209.37,187.6z"/>
    <path fill="#1B1B25" d="M235.89,182.98c-0.43,0.11 -0.95,-0.02 -1.45,-0.12c-0.51,-0.11 -1.02,-0.21 -1.47,-0.28c-0.45,-0.07 -0.97,-0.13 -1.48,-0.18c-0.51,-0.06 -1.05,-0.09 -1.42,-0.33c-0.36,-0.22 -0.44,-0.71 0.1,-1.22c0.52,-0.49 1.73,-0.92 3.22,-0.69c1.48,0.24 2.49,1.02 2.81,1.64C236.55,182.44 236.31,182.88 235.89,182.98z"/>
    <path fill="#FB8E77" d="M220.91,208.29c-4.1,0 -6.84,-3.22 -6.87,-3.26c-0.18,-0.21 -0.15,-0.53 0.06,-0.7c0.21,-0.18 0.53,-0.15 0.7,0.06c0.16,0.19 3.95,4.62 9.25,2.17c0.25,-0.12 0.55,-0.01 0.66,0.24c0.12,0.25 0.01,0.55 -0.24,0.66C223.21,208.05 222.01,208.29 220.91,208.29z"/>
    <path fill="#FB8E77" d="M223.89,201.31c-0.23,0 -0.44,-0.17 -0.49,-0.4c-0.05,-0.27 0.12,-0.53 0.39,-0.59l3.52,-0.69c2.19,-0.43 3.61,-2.56 3.18,-4.74c-0.16,-0.79 -0.92,-1.3 -1.71,-1.15c-1.85,0.36 -3.65,-0.84 -4.01,-2.69l-0.85,-4.31c-0.05,-0.27 0.12,-0.53 0.39,-0.59c0.27,-0.05 0.53,0.12 0.59,0.39l0.85,4.31c0.26,1.31 1.53,2.16 2.84,1.9c0.65,-0.13 1.3,0.01 1.85,0.37c0.55,0.37 0.92,0.92 1.04,1.57c0.54,2.73 -1.24,5.38 -3.97,5.92l-3.52,0.69C223.96,201.3 223.92,201.31 223.89,201.31z"/>
    <path fill="#1B1B25" d="M213.93,196.03L213.93,196.03c-0.67,0.13 -1.32,-0.32 -1.44,-0.99l-0.28,-1.48c-0.13,-0.67 0.32,-1.32 0.99,-1.44l0,0c0.67,-0.13 1.32,0.32 1.44,0.99l0.28,1.48C215.04,195.26 214.6,195.91 213.93,196.03z"/>
    <path fill="#1B1B25" d="M234.9,192.63L234.9,192.63c-0.67,0.13 -1.32,-0.32 -1.44,-0.99l-0.28,-1.48c-0.13,-0.67 0.32,-1.32 0.99,-1.44l0,0c0.67,-0.13 1.32,0.32 1.44,0.99l0.28,1.48C236.01,191.85 235.57,192.5 234.9,192.63z"/>
    <path  style= "fill-opacity=0.17" fill="#FF887C"
        d="M213.06,201.61l-4.22,0.47c-0.84,0.09 -1.6,-0.51 -1.69,-1.35l0,0c-0.09,-0.84 0.51,-1.6 1.35,-1.69l4.22,-0.47c0.84,-0.09 1.6,0.51 1.69,1.35v0C214.5,200.75 213.89,201.51 213.06,201.61z" android:strokeAlpha="0.17"/>
    <path  style= "fill-opacity=0.17" fill="#FF887C"
        d="M241.45,197.14l-4.22,0.47c-0.84,0.09 -1.6,-0.51 -1.69,-1.35l0,0c-0.09,-0.84 0.51,-1.6 1.35,-1.69l4.22,-0.47c0.84,-0.09 1.6,0.51 1.69,1.35l0,0C242.89,196.28 242.29,197.04 241.45,197.14z" android:strokeAlpha="0.17"/>
    <path fill="#FB8E77" d="M228.94,219.17c-0.1,0 -0.21,-0.03 -0.29,-0.1c-1.97,-1.44 -4.01,-0.05 -4.1,0.01c-0.23,0.16 -0.54,0.1 -0.7,-0.12c-0.16,-0.23 -0.1,-0.54 0.12,-0.7c0.93,-0.65 3.22,-1.49 5.26,0.01c0.22,0.16 0.27,0.48 0.11,0.7C229.25,219.1 229.1,219.17 228.94,219.17z"/>
</svg>
