<?xml version="1.0" encoding="utf-8"?>
<svg version="1.1" id="Layer_1" xmlns="http://www.w3.org/2000/svg" xmlns:xlink="http://www.w3.org/1999/xlink"
    width="512"
   height="512"
   viewBox="0 0 512 512">
  <path
      d="M185.96,390.092c-87.347,-19.932 -118.517,-66.851 -69.619,-104.798c0.913,-0.707 1.848,-1.408 2.801,-2.1c-5.335,3.097 -10.257,6.377 -14.714,9.836C50.89,334.58 85.02,385.95 180.66,407.774c95.639,21.822 216.572,5.833 270.112,-35.716c47.625,-36.96 25.882,-81.688 -46.815,-106.483c54.941,23.339 68.95,60.658 28.698,91.896C383.759,395.418 273.308,410.022 185.96,390.092z"

      fill="#FFFFFF"
      fill-rule="evenOdd"
      style= "fill-opacity=0.4"/>
  <path
      d="M442.783,384.611c-62.792,48.726 -197.389,70.484 -300.633,48.591c-24.686,-5.232 -45.342,-12.488 -61.629,-21.166c17.666,11.984 42.571,21.932 74.011,28.598c103.243,21.891 237.843,0.135 300.632,-48.594c47.777,-37.077 40.215,-79.088 -11.612,-106.703C483.89,312.709 486.451,350.721 442.783,384.611z"

      fill="#FFFFFF"
      fill-rule="evenOdd"
      style= "fill-opacity=0.4"/>
  <path
      d="M456.666,405.574c-72.407,56.195 -211.396,87.885 -316.873,73.425c99.741,24.181 241.161,-3.377 316.379,-61.749c40.784,-31.649 53.756,-65.88 41.306,-94.534C506.143,347.699 493.283,377.159 456.666,405.574z"

      fill="#FFFFFF"
      fill-rule="evenOdd"
      style= "fill-opacity=0.4"/>
  <path
      d="M177.983,369.877c-57.474,-20.323 -79.896,-53.563 -57.936,-79.802c-35.652,26.772 -20.936,61.435 35.506,79.422c18.004,5.737 38.189,9.12 58.777,10.291C201.785,377.269 189.551,373.967 177.983,369.877z"

      fill="#FFFFFF"
      fill-rule="evenOdd"
     style= "fill-opacity=0.4"/>
  <path
      d="M200.357,362.108c-56.95,-18.813 -87.386,-47.484 -76.664,-68.952c-22.546,21.516 1.6,51.159 56.892,67.975c17.634,5.361 36.413,8.804 54.833,10.395C223.609,369.033 211.819,365.894 200.357,362.108z"

      fill="#FFFFFF"
      fill-rule="evenOdd"
      style= "fill-opacity=0.4"/>
  <path
      d="M269.706,206.101c7.277,-0.531 13.235,-1.654 20.339,-3.349c-1.316,-4.386 -2.045,-8.896 -5.045,-13.413c0,-0.003 0,-0.006 0,-0.009c-5,1.693 -13.137,2.852 -20.443,3.475C265.84,197.322 268.398,201.788 269.706,206.101z"
      fill="#FFFFFF"/>
  <path
      d="M262.206,179.777c7.382,-0.492 14.708,-1.597 21.913,-3.284c-1.149,-4.473 -2.267,-8.877 -3.353,-13.225l0,0c-7.24,1.754 -14.592,2.968 -21.999,3.622C259.871,171.091 261.021,175.414 262.206,179.777z"
      fill="#FFFFFF"/>
  <path
      d="M287.463,246.851c6.563,3.025 14.456,2.753 20.329,1.866c-1.395,-2.803 -2.792,-5.849 -4.213,-9.287c-6.473,1.663 -13.045,2.869 -19.67,3.65C285.167,245.027 286.359,246.341 287.463,246.851z"
      fill="#FFFFFF"/>
  <path
      d="M277.884,230.35c7.069,-0.597 14.086,-1.746 20.988,-3.443c-0.004,-0.01 -0.065,-0.021 -0.069,-0.029c-1.248,-3.652 -0.803,-7.443 -3.803,-11.386c0,0 0,0 0,-0.002c-9,1.711 -14.053,2.919 -21.225,3.597C275.145,223.166 276.556,226.953 277.884,230.35z"
      fill="#FFFFFF"/>
  <path
      d="M254.236,149.473c0.366,1.417 0.743,2.884 1.13,4.374c7.479,-0.535 14.902,-1.695 22.194,-3.462c-1.248,-5.184 -2.466,-10.113 -3.585,-14.755c-7.369,1.764 -14.857,2.956 -22.402,3.579C252.416,142.433 253.302,145.861 254.236,149.473z"
      fill="#FFFFFF"/>
  <path
      d="M414.78,314.275c-0.577,-4.156 -1.571,-7.95 -3.014,-10.994c-0.008,-0.023 -0.025,-0.082 -0.034,-0.104c-1.392,5.024 -4.673,9.556 -9.797,13.565c-21.107,16.469 -69.444,21.231 -108.711,21.231c-24.952,0 -46.219,-1.93 -54.546,-4.01c-13.131,-3.268 -37.346,-30.786 -62.971,-59.868c-25.563,-29.051 -51.986,-59.066 -67.936,-65.629c-31.103,-12.78 -75.561,-52.017 -78.986,-55.063L9.983,174.417c4.58,10.153 48.91,41.896 55.125,45.354c27.77,15.309 48.461,14.67 102.141,76.2c11.756,13.485 32.099,41.208 64.96,57.545c9.738,4.872 30.973,7.484 37.605,7.484h57.94C407.443,361 415.482,319.34 414.78,314.275z"
      fill="#FFFFFF"/>
  <path
      d="M247.013,122.42c0.332,1.123 0.695,2.403 1.072,3.75c7.645,-0.495 15.23,-1.648 22.688,-3.422c-2.918,-11.595 -5.128,-19.502 -6.407,-20.975c-5.261,-6 -25.908,-1.23 -35.416,1.398c1.695,0.51 3.395,1.173 5.058,2.07C240.264,108.632 244.64,114.409 247.013,122.42z"
      fill="#FFFFFF"/>
  <path
      d="M395.209,276.29c-8.193,3.617 -24.952,1.651 -36.48,-0.379c-3.505,-0.94 -7.158,-1.95 -10.953,-3.063c-8.283,-3.015 -23.804,-6.893 -29.503,-10.406c-2.942,-1.809 -5.919,-5.453 -8.916,-10.859c-2.648,0.453 -5.761,0.884 -9.06,0.884c-4.649,0 -9.647,-0.659 -14.175,-2.746c-1.773,-0.82 -3.64,-2.988 -5.576,-6.29c-5.475,0.52 -10.978,0.759 -16.488,0.668c-4.089,-0.064 -7.188,-3.269 -6.915,-6.924c0.28,-3.659 3.47,-6.401 7.134,-6.344c3.45,0.054 6.903,-0.022 10.346,-0.229c-1.324,-3.4 -2.669,-7.168 -4.041,-11.259c-4.386,0.319 -8.791,0.467 -13.196,0.396c-4.087,-0.063 -7.189,-3.271 -6.913,-6.926c0.278,-3.658 3.469,-6.405 7.131,-6.349c2.95,0.051 5.897,-0.022 8.839,-0.166c-1.271,-4.207 -2.56,-8.643 -3.858,-13.234c-3.933,0.247 -7.873,0.344 -11.82,0.281c-4.091,-0.063 -7.187,-3.273 -6.911,-6.925c0.277,-3.66 3.469,-6.407 7.131,-6.349c2.661,0.042 5.316,-0.016 7.97,-0.129c-1.134,-4.176 -2.271,-8.445 -3.417,-12.793c-4.091,0.272 -8.191,0.388 -12.299,0.323c-4.091,-0.066 -7.188,-3.275 -6.912,-6.93c0.278,-3.657 3.471,-6.402 7.133,-6.346c2.888,0.047 5.773,-0.021 8.653,-0.159c-0.326,-1.251 -0.65,-2.505 -0.975,-3.763c-0.986,-3.816 -1.923,-7.431 -2.806,-10.814c-3.783,0.229 -7.572,0.318 -11.371,0.254c-4.091,-0.068 -7.188,-3.278 -6.912,-6.931c0.277,-3.657 3.468,-6.399 7.131,-6.344c2.542,0.041 5.085,-0.015 7.622,-0.116c-0.3,-1.066 -0.589,-2.083 -0.86,-2.997c-3.063,-10.333 -9.628,-16.361 -19.512,-17.913c-0.685,-0.11 -1.354,-0.163 -2.023,-0.226c-7.168,2.483 -35.712,11.354 -48.651,0.169c-14.898,-12.875 -23.512,-25.524 -21.878,-53.682c1.185,-19.537 -9.578,-24.661 -9.578,-24.661c-1.632,-1.411 -10.954,-7.239 -17.776,3.938c-5.03,8.136 -1.761,14.029 -9.48,25.559c-0.514,0.77 -1.089,1.54 -1.7,2.371c-0.222,0.322 -0.447,0.611 -0.704,0.933c-1.791,2.302 -4.005,4.804 -6.791,7.557L30.962,151c3.905,2.724 52.464,35.333 82.991,47.857c16.655,6.851 38.371,43.784 64.156,73.122c24.183,27.451 49.166,55.829 61.368,58.87c20.372,5.125 127.386,9.194 160.474,-16.651c3.78,-2.938 6.226,-6.289 7.907,-9.705c0.057,-0.111 0.185,-0.326 0.235,-0.439c0.771,-1.709 1.088,-3.61 1.201,-5.505c0.048,-0.814 0.149,-3.258 0.149,-3.258C409.736,287.541 404.214,272.316 395.209,276.29z"
      fill="#FFFFFF"/>
</svg>
