<?xml version="1.0" encoding="utf-8"?>
<svg version="1.1" id="Layer_1" xmlns="http://www.w3.org/2000/svg"
    width="108"
     height="108"
     viewBox="0 0 108 108">
  <group scaleX="0.14554687"
      scaleY="0.14554687"
      translateX="16.74"
      translateY="16.74">
    <path
        d="M0,0h512v512h-512z"
        fill="#621647"/>
    <path
        d="M220.429,344.167c-56.357,-12.86 -76.469,-43.134 -44.919,-67.618c0.589,-0.456 1.192,-0.908 1.808,-1.354c-3.442,1.998 -6.618,4.115 -9.494,6.347c-34.544,26.809 -12.522,59.954 49.186,74.035c61.709,14.08 139.736,3.763 174.281,-23.045c30.728,-23.847 16.698,-52.707 -30.206,-68.704c35.449,15.058 44.487,39.137 18.517,59.292C348.052,347.603 276.787,357.025 220.429,344.167z"

        fill="#FFFFFF"
        fill-rule="evenOdd"
        style= "fill-opacity=0.4"/>
    <path
        d="M386.136,340.63c-40.515,31.439 -127.359,45.478 -193.974,31.353c-15.928,-3.377 -29.256,-8.059 -39.765,-13.657c11.398,7.733 27.468,14.15 47.753,18.452c66.614,14.124 153.46,0.087 193.973,-31.354c30.827,-23.923 25.947,-51.029 -7.493,-68.847C412.657,294.238 414.311,318.764 386.136,340.63z"

        fill="#FFFFFF"
        fill-rule="evenOdd"
        style= "fill-opacity=0.4"/>
    <path
        d="M395.094,354.156c-46.719,36.258 -136.397,56.704 -204.452,47.375c64.354,15.601 155.601,-2.179 204.133,-39.842c26.314,-20.421 34.685,-42.507 26.651,-60.995C427.016,316.814 418.719,335.822 395.094,354.156z"

        fill="#FFFFFF"
        fill-rule="evenOdd"
        style= "fill-opacity=0.4"/>
    <path
        d="M215.282,331.124c-37.083,-13.113 -51.55,-34.561 -37.381,-51.489c-23.004,17.273 -13.509,39.639 22.909,51.244c11.616,3.701 24.64,5.884 37.924,6.64C230.64,335.893 222.746,333.763 215.282,331.124z"

        fill="#FFFFFF"
        fill-rule="evenOdd"
        style= "fill-opacity=0.4"/>
    <path
        d="M229.719,326.11c-36.745,-12.137 -56.384,-30.637 -49.465,-44.488c-14.547,13.883 1.032,33.009 36.707,43.858c11.378,3.46 23.494,5.681 35.379,6.707C244.721,330.579 237.113,328.554 229.719,326.11z"

        fill="#FFFFFF"
        fill-rule="evenOdd"
        style= "fill-opacity=0.4"/>
    <path
        d="M274.463,225.453c4.696,-0.343 8.875,-1.067 13.457,-2.161c-0.849,-2.83 -0.92,-5.74 -2.92,-8.654c0,-0.002 0,-0.004 0,-0.006c-4,1.092 -8.811,1.84 -13.525,2.242C272.303,219.789 273.619,222.67 274.463,225.453z"
        fill="#FFFFFF"/>
    <path
        d="M269.625,208.468c4.762,-0.317 9.489,-1.03 14.138,-2.119c-0.742,-2.886 -1.463,-5.728 -2.163,-8.533l0,0c-4.671,1.132 -9.414,1.915 -14.194,2.337C268.118,202.864 268.86,205.653 269.625,208.468z"
        fill="#FFFFFF"/>
    <path
        d="M285.92,251.745c4.235,1.952 9.328,1.776 13.117,1.204c-0.899,-1.809 -1.801,-3.773 -2.719,-5.992c-4.176,1.073 -8.416,1.851 -12.691,2.355C284.439,250.568 285.208,251.416 285.92,251.745z"
        fill="#FFFFFF"/>
    <path
        d="M279.739,241.099c4.563,-0.386 9.089,-1.126 13.542,-2.222c-0.002,-0.007 0.067,-0.013 0.065,-0.019c-0.807,-2.357 -0.347,-4.803 -2.347,-7.346c0,0 0,0 0,-0.002c-5,1.104 -9.175,1.883 -13.802,2.321C278.081,236.463 278.883,238.907 279.739,241.099z"
        fill="#FFFFFF"/>
    <path
        d="M264.481,188.916c0.236,0.915 0.479,1.861 0.729,2.822c4.825,-0.345 9.615,-1.094 14.32,-2.234c-0.806,-3.345 -1.591,-6.525 -2.313,-9.52c-4.755,1.138 -9.586,1.907 -14.454,2.309C263.308,184.373 263.879,186.585 264.481,188.916z"
        fill="#FFFFFF"/>
    <path
        d="M368.067,295.051c-0.372,-2.683 -1.014,-5.03 -1.944,-6.994c-0.006,-0.016 -0.016,-0.005 -0.022,-0.019c-0.897,3.242 -3.015,6.19 -6.32,8.778c-13.619,10.625 -44.807,13.71 -70.143,13.71c-16.099,0 -29.821,-1.238 -35.194,-2.58c-8.473,-2.108 -24.096,-19.861 -40.63,-38.625c-16.493,-18.744 -33.542,-38.109 -43.833,-42.343c-20.068,-8.246 -48.753,-33.562 -50.963,-35.527l-12.132,13.558c2.955,6.551 31.558,27.032 35.567,29.264c17.917,9.877 31.268,9.465 65.902,49.166c7.585,8.7 20.711,26.39 41.913,36.93c6.283,3.144 19.984,4.632 24.264,4.632h37.385C363.334,325 368.521,298.317 368.067,295.051z"
        fill="#FFFFFF"/>
    <path
        d="M259.821,171.46c0.214,0.725 0.448,1.55 0.691,2.42c4.933,-0.319 9.827,-1.063 14.639,-2.208c-1.882,-7.481 -3.309,-12.583 -4.134,-13.534c-3.395,-3.871 -16.717,-0.793 -22.852,0.902c1.094,0.329 2.19,0.757 3.264,1.336C255.467,162.564 258.29,166.292 259.821,171.46z"
        fill="#FFFFFF"/>
    <path
        d="M355.44,270.74c-5.287,2.333 -16.1,1.064 -23.538,-0.245c-2.262,-0.606 -4.618,-1.258 -7.067,-1.976c-5.345,-1.945 -15.358,-4.447 -19.036,-6.715c-1.898,-1.166 -3.818,-3.518 -5.753,-7.006c-1.708,0.292 -3.717,0.57 -5.845,0.57c-2.999,0 -6.225,-0.425 -9.146,-1.771c-1.145,-0.529 -2.348,-1.928 -3.598,-4.059c-3.531,0.336 -7.083,0.49 -10.639,0.432c-2.638,-0.041 -4.638,-2.109 -4.461,-4.468c0.181,-2.36 2.238,-4.13 4.603,-4.093c2.227,0.035 4.455,-0.015 6.676,-0.147c-0.854,-2.194 -1.723,-4.625 -2.607,-7.265c-2.83,0.206 -5.672,0.301 -8.515,0.254c-2.638,-0.04 -4.639,-2.11 -4.461,-4.469c0.18,-2.36 2.238,-4.132 4.602,-4.096c1.903,0.032 3.805,-0.014 5.703,-0.107c-0.82,-2.714 -1.652,-5.576 -2.489,-8.539c-2.538,0.159 -5.081,0.222 -7.628,0.181c-2.64,-0.041 -4.637,-2.111 -4.459,-4.468c0.179,-2.361 2.238,-4.134 4.602,-4.097c1.717,0.028 3.43,-0.01 5.143,-0.083c-0.731,-2.695 -1.466,-5.449 -2.205,-8.254c-2.64,0.176 -5.285,0.25 -7.936,0.208c-2.64,-0.042 -4.638,-2.113 -4.46,-4.471c0.18,-2.359 2.239,-4.131 4.603,-4.095c1.863,0.03 3.725,-0.014 5.583,-0.103c-0.21,-0.807 -0.42,-1.616 -0.629,-2.428c-0.636,-2.462 -1.24,-4.795 -1.811,-6.978c-2.44,0.147 -4.886,0.205 -7.337,0.164c-2.64,-0.044 -4.638,-2.115 -4.459,-4.472c0.179,-2.359 2.237,-4.129 4.601,-4.093c1.641,0.026 3.281,-0.01 4.918,-0.075c-0.193,-0.688 -0.38,-1.344 -0.555,-1.934c-1.977,-6.667 -6.212,-10.557 -12.589,-11.558c-0.442,-0.071 -0.874,-0.105 -1.306,-0.146c-4.625,1.603 -23.042,7.326 -31.391,0.109c-9.612,-8.307 -15.17,-16.468 -14.116,-34.636c0.765,-12.606 -6.18,-15.912 -6.18,-15.912c-1.053,-0.91 -7.067,-4.67 -11.47,2.541c-3.245,5.25 -1.136,9.052 -6.116,16.491c-0.332,0.497 -0.703,0.993 -1.097,1.53c-0.144,0.208 -0.288,0.394 -0.454,0.601c-1.155,1.485 -2.584,3.1 -4.382,4.876l-48.317,53.959c2.52,1.757 33.851,22.797 53.547,30.878c10.746,4.42 24.758,28.25 41.395,47.18c15.604,17.712 31.723,36.021 39.596,37.983c13.145,3.307 82.191,5.933 103.54,-10.744c2.44,-1.896 4.018,-4.057 5.103,-6.261c0.036,-0.072 0.119,-0.211 0.152,-0.284c0.497,-1.103 0.701,-2.33 0.774,-3.552c0.031,-0.525 0.097,-2.102 0.097,-2.102C364.813,278 361.25,268.177 355.44,270.74z"
        fill="#FFFFFF"/>
  </group>
</svg>
