<?xml version="1.0" encoding="utf-8"?>
<svg version="1.1" id="Layer_1" xmlns="http://www.w3.org/2000/svg" xmlns:xlink="http://www.w3.org/1999/xlink"
    width="24"
    height="24"
     viewBox="0 0 24 24">
  <path
      d="M4.45,13.63l-2.71,-0.48l-1.01,1.01c-0.13,0.13 -0.2,0.3 -0.2,0.48v8.14c0,0.37 0.3,0.67 0.67,0.67c0.28,0 5.61,-5.3 8.23,-7.92L6.4,12.5L4.45,13.63z"
      fill="#FCEF70"/>
  <path
      d="M9.44,15.52L6.4,12.5v6.05C7.52,17.44 8.61,16.35 9.44,15.52z"
      fill="#FFDA2C"/>
  <path
      d="M20.38,2.51l-3.67,-1.27c-0.01,0 -0.02,-0.01 -0.03,-0.01v4.1c0.02,-0.01 0.05,-0.02 0.07,-0.03l3.67,-1.55c0.26,-0.11 0.42,-0.36 0.41,-0.64C20.83,2.84 20.65,2.6 20.38,2.51L20.38,2.51z"
      fill="#D20041"/>
  <path
      d="M16.4,8.48c-0.37,0 -0.67,-0.3 -0.67,-0.67v-6.6c0,-0.37 0.3,-0.67 0.67,-0.67s0.67,0.3 0.67,0.67v6.6C17.07,8.18 16.77,8.48 16.4,8.48z"
      fill="#38336B"/>
  <path
      d="M16.4,0.54C16.4,0.54 16.4,0.54 16.4,0.54l0,7.94h0c0.37,0 0.67,-0.3 0.67,-0.67v-6.6C17.07,0.84 16.77,0.54 16.4,0.54z"
      fill="#2E2654"/>
  <path
      d="M10.86,13.15L6.77,9.07c-0.26,-0.26 -0.69,-0.26 -0.95,0l-4.09,4.09l2.45,1.72l2.12,-1.52l3.14,2.17c0.81,-0.81 1.36,-1.36 1.42,-1.42C11.12,13.84 11.12,13.41 10.86,13.15L10.86,13.15z"
      fill="#F4F1F1"/>
  <path
      d="M10.86,13.15L6.77,9.07C6.67,8.96 6.53,8.9 6.4,8.88v4.54l3.04,2.11c0.81,-0.81 1.36,-1.36 1.42,-1.42C11.12,13.84 11.12,13.41 10.86,13.15z"
      fill="#E7DFDD"/>
  <path
      d="M23.27,13.56l-2.2,-2.2l-2.48,-0.48l-2.19,-0.27l-2.01,0.21l-2.66,0.51l-11,10.97c-0.19,0.19 -0.25,0.48 -0.15,0.73c0.1,0.25 0.35,0.42 0.62,0.42l21.59,0.01h0c0.18,0 0.35,-0.07 0.47,-0.2c0.13,-0.13 0.2,-0.3 0.2,-0.48v-8.75C23.47,13.85 23.39,13.68 23.27,13.56z"
      fill="#FEBF00"/>
  <path
      d="M23.27,13.56l-2.2,-2.2l-2.48,-0.48l-2.19,-0.27h0v12.85l6.39,0h0c0.18,0 0.35,-0.07 0.47,-0.2c0.13,-0.13 0.2,-0.3 0.2,-0.48v-8.75C23.47,13.85 23.39,13.68 23.27,13.56L23.27,13.56z"
      fill="#FF9F00"/>
  <path
      d="M16.42,11.58l2.16,1.52l2.48,-1.75l-4.2,-4.2c-0.26,-0.26 -0.69,-0.26 -0.95,0l-4.19,4.17l2.52,1.78L16.42,11.58z"
      fill="#F4F1F1"/>
  <path
      d="M16.87,7.16c-0.13,-0.13 -0.3,-0.19 -0.47,-0.2v4.63l0.02,-0.01l2.16,1.52l2.48,-1.75L16.87,7.16z"
      fill="#E7DFDD"/>
</svg>
