<?xml version="1.0" encoding="utf-8"?>
<svg version="1.1" id="Layer_1" xmlns="http://www.w3.org/2000/svg" xmlns:xlink="http://www.w3.org/1999/xlink"
    width="64"
   height="64"
    viewBox="0 0 64 64">
  <path
      d="M47.163,26.731c0.143,0.314 0.583,0.582 1.511,0.094c0.928,-0.487 -0.598,-1.071 -0.598,-1.071L47.163,26.731z"
     fill="#FFB287"/>
  <path
      d="M41.852,28.778c-0.477,0 -0.795,-0.139 -1.054,-0.357c-0.736,-0.621 -1.084,-1.376 -2.238,-3.878c-0.669,-1.453 -1.586,-3.444 -3.018,-6.381c-0.252,-0.516 -0.038,-1.137 0.478,-1.388c0.516,-0.251 1.137,-0.037 1.387,0.479c1.442,2.958 2.365,4.959 3.039,6.421c0.834,1.809 1.212,2.626 1.549,3.018c0.313,-0.042 1.258,-0.27 3.578,-1.453c1.58,-0.806 2.988,-1.641 3.003,-1.649c0.493,-0.293 1.13,-0.131 1.422,0.362c0.293,0.492 0.131,1.13 -0.362,1.422c-0.068,0.042 -1.721,1.021 -3.522,1.917C43.921,28.38 42.66,28.778 41.852,28.778z"
     fill="#FFB287"/>
  <path
      d="M20.991,49.771c-0.641,0 -1.329,-0.132 -2.163,-0.291c-2.479,-0.476 -5.224,-1.438 -6.844,-2.182c-0.711,-0.325 -1.022,-1.165 -0.696,-1.876c0.325,-0.711 1.166,-1.022 1.877,-0.697c1.464,0.673 3.949,1.543 6.195,1.974c1.382,0.265 1.736,0.31 2.065,0.14c0.568,-0.295 1.481,-1.314 2.995,-3.004c0.522,-0.583 1.416,-0.632 1.999,-0.11c0.582,0.521 0.631,1.417 0.109,1.998c-1.846,2.062 -2.771,3.096 -3.8,3.63C22.137,49.657 21.584,49.771 20.991,49.771z"
     fill="#FFB287"/>
  <path
      d="M27.574,35.184c-0.512,0 -0.931,0.42 -0.931,0.931v4.69c0,0.512 0.408,0.841 0.908,0.729l8.451,-0.294c0.914,0 2.22,-2.828 2.22,-5.245c0,0 -0.43,-0.812 -0.94,-0.812H27.574z"
     fill="#BF3030"/>
  <path
      d="M25.321,41.77l0.126,-0.12c1.771,-1.792 1.223,-1.77 1.223,-6.408c0,-1.589 5.364,-2 6.95,-1.888s3.149,-1.708 3.036,-0.121c-0.428,6.037 -3.727,9.21 -7.218,12.567l-0.125,0.121c-0.61,0.587 -1.415,0.852 -2.2,0.796c-0.686,-0.048 -1.355,-0.341 -1.87,-0.876C24.14,44.695 24.176,42.872 25.321,41.77z"
     fill="#BF3030"/>
  <path
      d="M35.862,35.995c0,0.668 -0.126,1.917 -0.971,2.814c-0.846,0.896 -2.78,-1.407 -2.78,-1.407l0.708,-1.408L35.862,35.995z"
     fill="#D33939"/>
  <path
      d="M26.646,35.396v0.719c0,0.146 0,0.289 0.001,0.431c0.001,0.418 0.004,-0.89 0.023,-0.528c0.086,1.749 0.181,2.353 2.371,4.066c0.281,0.22 0.665,0.604 1.068,0.954c0.34,0.294 0.75,0.713 1.317,1.248l1.573,-2.516c0,0 3.195,-0.649 1.629,-2.323c-0.264,-0.281 -0.521,-0.533 -0.771,-0.758c-0.307,-0.272 -0.606,-0.504 -0.898,-0.693v-0.001c-0.899,-0.582 -1.741,-0.775 -2.569,-0.599c-0.445,0.096 -1.013,0.127 -1.572,0.126C27.714,35.521 26.646,35.396 26.646,35.396z"
     fill="#D33939"/>
  <path
      d="M22.954,35.995h15.269V19.488c0,-2.271 -1.725,-3.963 -3.384,-3.976h-4.708c-0.555,0 -1.019,0.041 -1.407,0.133c-0.068,0.016 -0.136,0.033 -0.2,0.053c-1.321,0.392 -1.672,1.448 -1.672,3.5v9.01C26.852,33.147 22.954,35.995 22.954,35.995z"
     fill="#FFE14E"/>
  <path
      d="M30.027,15.512h1.369h1.038h1.315c0.23,0.008 3.279,0.386 3.279,3.481c0,1.469 -1.305,1.617 -2.16,1.617c-1.309,0 -2.693,-0.829 -2.883,-2.072c-0.308,-2.017 -0.826,-2.568 -1.337,-2.84C30.188,15.455 30.027,15.512 30.027,15.512z"
     fill="#FFB287"/>
  <path
      d="M34.869,20.893c-1.382,0 -2.942,-0.865 -3.163,-2.312c-0.292,-1.918 -0.766,-2.407 -1.189,-2.632c-0.199,-0.106 -0.322,-0.142 -0.385,-0.153h-1.735l1.535,-0.55c0.041,-0.015 0.131,-0.031 0.242,-0.017h3.576c0.761,0.025 3.562,0.737 3.562,3.764C37.312,20.254 36.491,20.893 34.869,20.893zM31.257,15.796c0.403,0.404 0.771,1.14 1.01,2.7c0.172,1.131 1.484,1.831 2.603,1.831c1.299,0 1.877,-0.412 1.877,-1.334c0,-2.964 -2.975,-3.197 -3.005,-3.198L31.257,15.796z"
     fill="#FFFFFF"/>
  <path
      d="M30.333,15.512H30.3C30.3,15.512 30.313,15.512 30.333,15.512z"
     fill="#FFB287"/>
  <path
      d="M38.755,43.882c-0.694,1.024 -1.773,1.97 -2.168,1.993c-0.759,0.043 -0.808,0.536 -1.407,-0.023c-0.097,-0.093 -0.924,-0.933 -1.026,-1.028c-1.51,-1.402 -2.611,-2.429 -3.274,-3.052c-0.298,-0.28 -0.485,-0.459 -0.599,-0.567c-0.077,-0.073 -0.129,-0.125 -0.159,-0.156c-1.118,-1.127 -1.166,-2.848 -0.112,-4c0.924,-1.013 2.684,-1.406 4.123,-0.141c0.06,0.052 0.118,0.105 0.118,0.105c0.102,0.092 0.197,0.19 0.284,0.294c0.209,0.198 0.548,0.516 1.092,1.023c0.564,0.527 1.35,1.258 2.443,2.274c0.108,0.1 0.932,0.982 1.034,1.079C39.623,42.17 39.316,43.052 38.755,43.882z"
     fill="#D33939"/>
  <path
      d="M38.755,43.882l-1.347,0.157l-0.746,-1.128c-0.9,-0.752 -3.738,-3.358 -4.23,-3.896c-0.492,-0.536 0.827,-2.612 2.464,-1.226c0.204,0.174 0.452,0.354 0.73,0.54c0.564,0.527 1.35,1.258 2.443,2.274c0.108,0.1 0.932,0.982 1.034,1.079C39.623,42.17 39.316,43.052 38.755,43.882z"
     fill="#F23D3D"/>
  <path
      d="M27.117,19.469c0,0 0,0.835 0,1.791c0,1.335 0.543,2.09 1.86,2.09c2.689,0 2.214,-3.791 1.774,-5.541c-0.436,-1.735 -1.573,-2.297 -2.028,-2.164c-0.952,0.221 -1.452,0.733 -1.688,1.638C26.902,17.792 27.117,18.695 27.117,19.469z"
     fill="#FFB287"/>
  <path
      d="M28.978,23.633c-1.422,0 -2.144,-0.799 -2.144,-2.374v-1.791c0,-0.292 -0.032,-0.61 -0.064,-0.918c-0.052,-0.505 -0.102,-0.982 -0.008,-1.339c0.265,-1.016 0.866,-1.601 1.892,-1.84c0.065,-0.019 0.138,-0.028 0.214,-0.028c0.603,0 1.722,0.651 2.159,2.397c0.21,0.837 0.81,3.678 -0.3,5.1C30.316,23.366 29.728,23.633 28.978,23.633zM28.867,15.91c-0.032,0 -0.053,0.004 -0.064,0.007l-0.015,0.003c-0.835,0.194 -1.264,0.61 -1.479,1.435c-0.067,0.258 -0.023,0.686 0.024,1.138c0.033,0.322 0.067,0.655 0.067,0.977v1.791c0,1.25 0.486,1.807 1.577,1.807c0.575,0 1.001,-0.188 1.303,-0.575c0.756,-0.97 0.598,-3.019 0.196,-4.614C30.108,16.405 29.216,15.91 28.867,15.91z"
     fill="#FFFFFF"/>
  <path
      d="M26.852,19.198v0.999c0,0.041 0,3.857 0.001,3.898c2.734,0 2.396,-7.75 2.396,-7.75l-0.57,-0.006C27.356,16.731 26.852,17.147 26.852,19.198z"

      fill="#E5785C"
       style= "fill-opacity=0.6"/>
  <path
      d="M39.419,42.312c0.02,0.538 -0.295,1.296 -0.864,2.036c-0.105,0.137 -0.222,0.275 -0.344,0.409c-0.001,0.001 -0.003,0.002 -0.004,0.003c-1.073,1.174 -2.375,1.73 -2.905,1.246c-0.528,-0.483 -0.097,-1.815 0.963,-2.984c0.007,-0.008 0.014,-0.017 0.021,-0.023c0.13,-0.142 0.264,-0.274 0.397,-0.397c0.686,-0.627 1.412,-1.002 1.947,-1.023c0.111,-0.004 0.212,0.006 0.305,0.033c0.1,0.028 0.188,0.075 0.26,0.142c0.071,0.065 0.126,0.147 0.163,0.243C39.395,42.089 39.415,42.195 39.419,42.312z"
     fill="#AA2929"/>
  <path
      d="M21.519,31.3c-0.452,0 -0.869,-0.298 -0.998,-0.756c-0.024,-0.085 -0.592,-2.101 -1.021,-4.25c-0.823,-4.126 -0.479,-5.291 0.343,-5.832c0.961,-0.632 3.15,-1.768 4.818,-2.61c1.088,-0.55 1.972,-0.983 2.402,-1.193c0.318,-0.154 0.579,-0.279 0.761,-0.366c0.098,-0.045 0.173,-0.081 0.225,-0.104c0.841,-0.38 1.308,0.253 1.358,0.327l0.575,0.838l-0.827,0.595c-0.084,0.059 -0.173,0.104 -0.264,0.137c-0.615,0.279 -5.959,2.886 -7.748,4.007c-0.054,0.284 -0.134,1.3 0.481,4.229c0.399,1.904 0.889,3.64 0.894,3.658c0.155,0.551 -0.166,1.125 -0.717,1.281C21.707,31.287 21.612,31.3 21.519,31.3z"
     fill="#FFB287"/>
  <path
      d="M46.96,56.53c-0.177,-0.711 -0.653,-3.134 -1.074,-5.27c-0.484,-2.456 -0.727,-3.198 -0.877,-3.605c-0.316,-0.861 -1.708,-2.083 -5.651,-5.66c-0.137,-0.125 -0.278,-0.253 -0.423,-0.385c-0.093,-0.027 -0.193,-0.037 -0.305,-0.033c-0.535,0.021 -1.262,0.396 -1.947,1.023c-0.134,0.123 -0.268,0.256 -0.397,0.397c-0.007,0.007 -0.014,0.016 -0.021,0.023c0.089,0.073 0.22,0.185 0.418,0.364c0.338,0.306 0.654,0.591 0.952,0.858c0.199,0.18 0.391,0.352 0.572,0.516c2.853,2.557 3.711,3.25 3.876,3.538c0.155,0.466 0.74,1.788 1.025,3.511c0.379,2.285 0.91,4.625 1.103,5.404c0.16,0.644 0.737,1.074 1.374,1.074c0.112,0 0.227,-0.014 0.34,-0.042C46.685,58.058 47.146,57.29 46.96,56.53z"
     fill="#FFB287"/>
  <path
      d="M22.954,35.995h9.577c-1.844,0 -3.223,-0.316 -5.888,-1.025c-0.267,-0.071 -0.546,-0.146 -0.84,-0.226C23.579,34.147 22.777,34.893 22.954,35.995z"
     fill="#EAA93F"/>
  <path
      d="M55.796,58.955"
     fill="#C17840"/>
  <path
      d="M43.976,56.1c0,0 0.412,2.236 0.652,3.592c0.116,0.66 0.665,1.156 1.295,1.227c0.107,0.012 0.217,0.012 0.327,-0.002c0.76,-0.095 1.545,-0.658 1.408,-1.431c-0.257,-1.447 -0.654,-2.852 -0.989,-4.276L43.976,56.1z"
     fill="#F6EEE3"/>
  <path
      d="M44.213,60.382c0.004,0.032 0.009,0.058 0.012,0.079c0.081,0.565 0.211,1.171 0.362,1.688c0.056,0.192 0.112,0.371 0.173,0.532c0.187,0.51 0.386,0.84 0.545,0.796c0.179,0.213 8.613,-3.01 8.976,-3.142c0.361,-0.133 0.556,-0.569 0.352,-1.197c-0.016,-0.047 -0.031,-0.091 -0.05,-0.132c-0.066,-0.152 -0.149,-0.271 -0.246,-0.36c-0.438,-0.405 -1.138,-0.227 -1.675,-0.069c-0.129,0.037 -0.247,0.075 -0.354,0.103c-0.276,0.07 -0.522,0.1 -0.751,0.096c-0.15,-0.004 -0.294,-0.02 -0.433,-0.046h-0.001c-0.17,-0.03 -0.334,-0.076 -0.501,-0.132c-0.225,-0.073 -0.453,-0.161 -0.705,-0.25c-0.089,-0.031 -0.181,-0.063 -0.277,-0.095c-0.033,-0.01 -0.064,-0.021 -0.096,-0.032c-0.134,-0.046 -0.254,-0.096 -0.365,-0.146c-0.178,-0.081 -0.331,-0.167 -0.462,-0.254h-0.002c-0.032,-0.021 -0.063,-0.043 -0.093,-0.064c-0.093,-0.066 -0.178,-0.134 -0.256,-0.197c-0.368,-0.308 -0.596,-0.574 -1.071,-0.627c-0.562,-0.062 -1.454,0.268 -1.572,0.842c-0.007,0.037 -0.012,0.075 -0.013,0.115c-0.004,0.216 0.139,0.644 0.185,1.034c0.035,0.287 0.018,0.553 -0.153,0.7c-0.574,0.491 -0.912,0.141 -1.104,-0.293c0,-0.001 0,-0.001 0,-0.003c-0.167,-0.377 -0.222,-0.813 -0.222,-0.813C44.107,58.63 44.088,59.444 44.213,60.382z"
     fill="#D94647"/>
  <path
      d="M54.114,58.496c-0.609,-0.363 -1.544,0.039 -2.012,0.174c-0.778,0.226 -0.904,0.406 -1.046,0.812C51.029,59.562 54.19,58.541 54.114,58.496z"
     fill="#F7BFC2"/>
  <path
      d="M44.76,62.681c0.187,0.51 0.386,0.84 0.545,0.796c0.179,0.213 8.613,-3.01 8.976,-3.142c0.361,-0.133 0.556,-0.569 0.352,-1.197c-0.016,-0.047 -0.031,-0.091 -0.05,-0.132C52.598,59.702 44.76,62.681 44.76,62.681z"
     fill="#F7BFC2"/>
  <path
      d="M47.457,58.444c0.369,-0.084 0.746,-0.206 1.124,-0.317c-0.377,0.244 -0.668,0.537 -0.54,0.795c0.141,0.285 0.54,0.033 0.707,-0.056c0.21,-0.109 0.493,-0.208 0.757,-0.325c-0.109,0.26 -0.162,0.548 -0.177,0.843c-0.006,0.111 0.127,0.182 0.212,0.114c0.508,-0.418 0.955,-0.632 1.583,-0.77c-0.17,-0.03 -0.334,-0.076 -0.501,-0.132c-0.366,0.118 -0.686,0.282 -1.009,0.515c0.044,-0.281 0.134,-0.546 0.304,-0.765c-0.089,-0.031 -0.181,-0.063 -0.277,-0.095c-0.033,-0.01 -0.064,-0.021 -0.096,-0.032c-0.219,0.097 -0.469,0.175 -0.627,0.26c-0.132,0.074 -0.556,0.237 -0.584,0.271c0.222,-0.262 0.519,-0.505 0.846,-0.678c-0.178,-0.081 -0.331,-0.167 -0.462,-0.254h-0.002c-0.323,0.093 -0.648,0.196 -0.969,0.284c0.221,-0.193 0.552,-0.284 0.876,-0.349l-0.256,-0.197c-0.448,0.111 -0.868,0.289 -1.057,0.712C47.271,58.355 47.367,58.463 47.457,58.444z"
     fill="#FFFFFF"/>
  <path
      d="M13.643,44.288c-0.027,-0.017 -0.051,-0.025 -0.069,-0.034c-0.486,-0.25 -1.03,-0.482 -1.516,-0.65c-0.18,-0.063 -0.354,-0.117 -0.512,-0.159c-0.501,-0.136 -0.868,-0.164 -0.922,-0.016c-0.265,0.023 -2.3,8.095 -2.398,8.449c-0.095,0.356 0.137,0.749 0.74,0.938c0.044,0.013 0.088,0.025 0.13,0.033c0.155,0.033 0.293,0.033 0.418,0.007c0.556,-0.116 0.806,-0.762 0.979,-1.269c0.042,-0.12 0.078,-0.234 0.116,-0.33c0.098,-0.256 0.21,-0.463 0.34,-0.641c0.086,-0.116 0.177,-0.219 0.274,-0.313l0.001,-0.001c0.118,-0.115 0.244,-0.218 0.38,-0.317c0.181,-0.135 0.375,-0.265 0.584,-0.411c0.074,-0.053 0.15,-0.107 0.229,-0.166c0.025,-0.02 0.051,-0.038 0.078,-0.055c0.109,-0.08 0.215,-0.147 0.316,-0.206c0.162,-0.093 0.313,-0.165 0.454,-0.22v-0.001c0.035,-0.014 0.069,-0.025 0.102,-0.038c0.104,-0.034 0.202,-0.063 0.297,-0.09c0.442,-0.117 0.665,0.143 0.97,-0.198c0.357,-0.403 0.594,-1.282 0.211,-1.691c-0.025,-0.026 -0.052,-0.051 -0.082,-0.073c-0.167,-0.124 0.328,0.179 0,0c-0.245,-0.133 0.257,-0.611 0.278,-0.397c0.191,2.064 -0.583,-0.23 -0.582,-0.23c0.386,0.079 -0.13,-0.952 -0.13,-0.952C14.406,44.95 14.344,44.714 13.643,44.288z"
     fill="#D94647"/>
  <path
      d="M16.327,45.91l-0.856,2.709c-0.354,-0.113 -0.587,-0.181 -0.764,-0.23c-0.233,-0.063 -0.367,-0.096 -0.542,-0.159c-0.194,-0.069 -0.441,-0.177 -0.934,-0.409c-0.677,-0.32 0.326,-2.957 0.921,-2.718c0.353,0.143 0.685,0.27 0.978,0.379c0.196,0.074 0.374,0.139 0.53,0.196C16.072,45.825 16.327,45.91 16.327,45.91z"
     fill="#F6EEE3"/>
  <path
      d="M11.545,43.444c-0.501,-0.136 -0.868,-0.164 -0.922,-0.016c-0.265,0.023 -2.3,8.095 -2.398,8.449c-0.095,0.356 0.137,0.749 0.74,0.938c0.044,0.013 0.088,0.025 0.13,0.033C9.647,50.916 11.545,43.444 11.545,43.444z"
     fill="#F7BFC2"/>
  <path
      d="M38.562,4.473v0.751c0,0.511 0,1.03 0,1.03c0,0.296 -0.04,0.472 -0.395,0.472c-0.299,0 -0.206,-1.243 -0.603,-1.243h-3.097c-1.562,0 -5.35,0.363 -5.262,1.707l-0.038,-0.573l-0.046,-0.706L29.1,5.566l-0.018,-0.264c-0.089,-1.344 3.824,-1.658 5.386,-1.658h3.097c0.208,0 0.395,0.014 0.55,0.066C38.389,3.8 38.562,4.01 38.562,4.473z"
     fill="#D2324B"/>
  <path
      d="M38.325,6.232l-0.031,0.483L38.203,8.12c0.087,-1.343 -3.701,-1.706 -5.263,-1.706h-3.098c-0.396,0 -0.303,1.242 -0.603,1.242c-0.353,0 -0.395,-0.176 -0.395,-0.472c0,0 0,-0.297 0,-0.662v-1.12c0,-0.186 0.028,-0.332 0.081,-0.444c0.103,-0.228 0.302,-0.326 0.557,-0.363c0.11,-0.017 0.231,-0.022 0.359,-0.022h3.098c0.205,0 0.451,0.005 0.724,0.018c0.72,0.033 1.625,0.116 2.444,0.278c0.645,0.127 1.235,0.304 1.646,0.543C38.124,5.63 38.347,5.9 38.325,6.232z"
     fill="#AF1E3A"/>
  <path
      d="M29.069,7.941c0.18,2.516 0.802,3.195 1.785,3.195c0.806,0 1.475,-1.113 1.445,-1.373c-0.029,-0.261 -0.317,-1.793 -0.549,-1.88C31.52,7.797 29.069,7.941 29.069,7.941z"
     fill="#8E3925"/>
  <path
      d="M31.371,10.602c-0.16,-0.321 -0.259,0.699 -0.261,0.577c-0.042,-2.142 -1.876,-0.547 -2.021,-2.918c-0.123,-2.022 -0.141,-2.04 -0.194,-3.021c-0.108,-1.953 0.834,-3.868 5.384,-3.726c2.32,0.071 2.731,0.654 3.256,1.837c0.976,2.203 0.188,5.033 0.188,5.033L31.371,10.602z"
     fill="#8E3925"/>
  <path
      d="M34.743,15.944c0,0 -0.151,0.825 -1.494,0.825s-1.952,-1.022 -1.952,-1.022l0.861,-3.891l3.532,-0.193L34.743,15.944z"
     fill="#FFB287"/>
  <path
      d="M35.035,14.62c-0.101,0.452 -2.917,0.07 -3.479,0.953c-0.211,0.331 -0.218,-0.011 -0.259,0.174c-0.134,0.601 1.054,-4.758 1.054,-4.758l3.483,0.023L35.035,14.62z"
     fill="#E5785C"/>
  <path
      d="M38.14,9.678c0,0.804 -0.7,2.656 -1.135,3.21c-0.186,0.236 -0.361,0.804 -0.951,0.975c-0.64,0.184 -0.923,0.302 -1.001,0.683c-0.064,0.307 -0.588,-0.435 -0.813,-0.435c-2.675,0 -3.997,-2.881 -3.997,-4.844l0.824,-2.574c0,-2.149 1.426,-3.694 3.503,-3.677c2.074,0.015 3.745,1.431 3.745,3.579L38.14,9.678z"
     fill="#E5785C"/>
  <path
      d="M38.369,6.512l-0.028,0.853l-0.073,2.314c-0.079,2.254 -0.585,4.337 -3.321,4.314c-2.732,-0.019 -3.391,-2.66 -3.391,-5.469l0.13,-1.865c0,-0.079 0,-0.158 0.004,-0.232c0.056,-2.797 1.192,-3.822 3.2,-3.822C37.632,2.606 38.443,4.364 38.369,6.512z"
     fill="#FFB287"/>
  <path
      d="M35.935,10.198c0.39,0 0.721,-0.22 0.703,-0.444c-0.006,-0.082 -0.086,-0.18 -0.239,-0.108c-0.07,0.033 -0.26,0.071 -0.462,0.07c-0.2,-0.001 -0.31,-0.042 -0.423,-0.076c-0.247,-0.074 -0.326,0.023 -0.332,0.104C35.164,9.969 35.546,10.193 35.935,10.198z"
     fill="#E5785C"/>
  <path
      d="M31.597,8.328c0.056,0.801 -0.352,1.488 -0.911,1.537c-0.558,0.047 -1.057,-0.563 -1.113,-1.364c-0.058,-0.801 0.255,-1.424 0.809,-1.523C30.934,6.879 31.539,7.528 31.597,8.328z"
     fill="#E5785C"/>
  <path
      d="M34.309,8.154m-0.347,0a0.347,0.347 0,1 1,0.694 0a0.347,0.347 0,1 1,-0.694 0"
     fill="#422B27"/>
  <path
      d="M37.376,8.207m-0.347,0a0.347,0.347 0,1 1,0.694 0a0.347,0.347 0,1 1,-0.694 0"
     fill="#422B27"/>
  <path
      d="M31.269,6.781"
     fill="#8E3925"/>
  <path
      d="M32.571,6.53"
     fill="#8E3925"/>
  <path
      d="M33.359,7.256c-0.129,0 -0.234,-0.102 -0.236,-0.23c-0.002,-0.13 0.101,-0.239 0.231,-0.241l1.562,-0.031c0.13,-0.005 0.239,0.101 0.241,0.231c0.003,0.13 -0.101,0.238 -0.23,0.24l-1.563,0.032C33.363,7.256 33.361,7.256 33.359,7.256z"
     fill="#8E3925"/>
  <path
      d="M38.208,7.38c-0.006,0 -0.012,0 -0.018,0l-1.347,-0.097c-0.129,-0.009 -0.227,-0.123 -0.218,-0.252c0.01,-0.13 0.122,-0.228 0.253,-0.218l1.346,0.097c0.13,0.01 0.228,0.123 0.219,0.252C38.434,7.286 38.33,7.38 38.208,7.38z"
     fill="#8E3925"/>
  <path
      d="M30.755,6.367c0,-1.216 0.545,-2.303 1.395,-3.014c-0.41,-0.509 -0.559,-1.27 -0.472,-1.339c0.146,-0.116 2.415,-0.767 4.581,-0.303c1.711,0.366 1.859,1.538 1.6,2.159c0.003,0.007 0.007,0.014 0.01,0.021c-0.004,-0.004 -0.008,-0.009 -0.013,-0.013c-0.234,0.553 -0.755,0.911 -1.218,0.911c-1.938,0 -1.896,-1.138 -3.34,-1.027c-0.564,0.043 -1.421,0.401 -1.421,1.812c0,1.529 -0.25,3.123 -0.26,3.124c-0.454,0.03 -0.458,-0.265 -0.458,-0.265c0,-0.81 -0.122,-1.263 -0.638,-1.503L30.755,6.367z"
     fill="#8E3925"/>
  <path
      d="M38.374,4.661c0,0.529 0,1.839 0,1.839c0,-0.723 -0.427,-0.829 -0.998,-0.829h-3.097c-0.592,0 -1.501,0.052 -2.397,0.19c-1.476,0.226 -2.92,0.682 -2.864,1.517l-0.124,-1.888c-0.057,-0.856 1.511,-1.295 3.061,-1.499c0.883,-0.117 1.759,-0.159 2.325,-0.159h3.097C37.947,3.833 38.374,3.938 38.374,4.661z"
     fill="#E5785C"/>
  <path
      d="M35.607,11.903c0,0 -0.001,0 -0.002,0c-0.531,0 -0.908,-0.074 -1.114,-0.22c-0.086,-0.06 -0.106,-0.178 -0.046,-0.263s0.178,-0.105 0.263,-0.045c0.137,0.096 0.464,0.151 0.897,0.151c0.001,0 0.002,0 0.002,0c0.234,0 0.566,-0.016 0.758,-0.15c0.086,-0.061 0.203,-0.04 0.263,0.045c0.061,0.085 0.041,0.203 -0.046,0.263C36.308,11.878 35.917,11.903 35.607,11.903z"
     fill="#E5785C"/>
  <path
      d="M38.022,3.942c0.388,-0.346 1.279,-1.667 0,-3.177c0,0 -1.782,1.826 -2.112,1.841c-0.331,0.015 0.564,1.336 0.564,1.336H38.022z"
     fill="#8E3925"/>
  <path
      d="M37.363,3.989c0.303,-0.422 0.956,-2.279 -0.619,-3.476c0,0 -1.385,1.778 -3.939,1.033c-0.317,-0.093 3.046,2.779 3.046,2.779L37.363,3.989z"
     fill="#8E3925"/>
  <path
      d="M38.374,4.378c0,0.529 0,1.839 0,1.839c0,-0.723 -0.427,-0.829 -0.998,-0.829h-3.097c-0.592,0 -1.501,0.052 -2.397,0.19c-1.476,0.226 -2.92,0.682 -2.864,1.517l-0.124,-1.888c-0.057,-0.855 1.511,-1.295 3.061,-1.5c0.883,-0.117 1.759,-0.158 2.325,-0.158h3.097C37.947,3.55 38.374,3.654 38.374,4.378z"
     fill="#D2324B"/>
  <path
      d="M31.556,15.25c-2.26,0 -2.98,0.373 -3.368,0.544c-0.966,0.425 -1.336,1.037 -1.336,1.037s0.297,-0.141 0.537,-0.277c1.742,-0.992 3.521,-0.928 4.086,-0.499c0,0 0.115,-0.887 1.168,-1.013s0.389,-0.944 0.271,-0.921c-0.117,0.024 -0.436,0.213 -0.436,0.213L31.556,15.25z"
     fill="#E5785C"/>
  <path
      d="M14.048,44.783c0.309,0.238 0.303,0.213 0.292,0.415c-0.012,0.236 -0.401,0.217 -1.548,-0.302c-1.148,-0.52 -1.125,-0.882 -1.125,-0.882L14.048,44.783z"
     fill="#D94647"/>
  <path
      d="M14.666,47.412c0.06,0.44 0.801,1.199 -0.45,0.835c-1.252,-0.362 -2.038,-0.814 -1.779,-1.677c0.258,-0.862 0.632,-1.587 1.319,-1.3C14.442,45.559 14.666,47.412 14.666,47.412z"
     fill="#F6EEE3"/>
  <path
      d="M26.644,34.97v1.575h0.004l5.884,-0.55c-1.268,0 -2.314,-0.148 -3.713,-0.474C28.184,35.375 27.476,35.191 26.644,34.97z"
     fill="#D33939"/>
  <path
      d="M32.96,35.994L32.96,35.994c-0.871,0.001 -2.606,0.215 -4.038,0.583c-0.189,0.047 -0.371,0.098 -0.545,0.151c-0.89,0.27 -1.574,0.605 -1.706,0.987c-0.02,-0.362 -0.023,-0.753 -0.023,-1.171h-0.004V34.97c0.6,0.16 1.136,0.3 1.625,0.419c0.19,0.048 0.373,0.092 0.55,0.133c0.006,0.001 0.012,0.002 0.018,0.004C30.269,35.813 31.691,35.994 32.96,35.994z"
     fill="#AA2929"/>
  <path
      d="M35.564,37.716l-2.037,-1.171l1.95,1.645l0.787,0z"
     fill="#BF3030"/>
  <path
      d="M31.451,30.994c-0.707,0 6.77,0 6.77,0v-6.908l-6.203,1.038C32.018,25.124 32.157,30.994 31.451,30.994z"
     fill="#EAA93F"/>
  <path
      d="M38.221,25.029c0,0 0.178,4.486 0.942,4.486c-2.14,0 -5.676,0 -6.203,0c-0.765,0 -0.942,-4.486 -0.942,-4.486H38.221z"
     fill="#F2E7E1"/>
  <path
      d="M32.018,24.085h6.203v0.994h-6.203z"
     fill="#1DA2D6"/>
  <path
      d="M35.872,43.499c-0.118,0.16 -0.226,0.319 -0.317,0.479c-1.319,-1.231 -3.686,-3.316 -4.713,-4.22l-0.175,-0.154c-0.143,-0.125 -0.289,-0.247 -0.445,-0.374c-0.738,-0.608 -1.557,-1.281 -1.845,-2.501c-0.069,-0.291 -0.108,-0.612 -0.108,-0.972v-0.368c0.19,0.048 0.373,0.092 0.55,0.133c0.006,0.001 0.012,0.002 0.018,0.004v0.231c0,0.304 0.029,0.575 0.086,0.82c0.237,1.046 0.933,1.616 1.66,2.216c0.151,0.125 0.31,0.254 0.459,0.387l0.175,0.152C32.313,40.299 34.543,42.262 35.872,43.499z"
     fill="#FFFFFF"/>
  <path
      d="M29.069,7.636c0.021,0.624 -0.561,1.905 -1.031,1.748c0,0 0.944,0.809 1.527,0.484l-0.341,-1.661L29.069,7.636z"
     fill="#8E3925"/>
  <path
      d="M38.935,41.61c-0.657,0.643 -1.086,1.652 -1.3,2.634c-0.298,-0.268 -0.614,-0.553 -0.952,-0.858c-0.198,-0.18 -0.329,-0.291 -0.418,-0.364c0.007,-0.008 0.014,-0.017 0.021,-0.023c0.13,-0.142 0.264,-0.274 0.397,-0.397c0.686,-0.627 1.412,-1.002 1.947,-1.023C38.741,41.573 38.842,41.583 38.935,41.61z"
     fill="#E5785C"/>
  <path
      d="M28.836,35.757v-0.231c-0.006,-0.002 -0.012,-0.003 -0.018,-0.004c-0.177,-0.041 -0.359,-0.085 -0.55,-0.133v0.368c0,0.359 0.039,0.681 0.108,0.972c0.174,-0.054 0.355,-0.104 0.545,-0.151C28.865,36.332 28.836,36.061 28.836,35.757z"
     fill="#F2E7E1"/>
  <path
      d="M34.607,27.615h-0.393c-0.051,0 -0.092,-0.012 -0.121,-0.035c-0.029,-0.024 -0.049,-0.063 -0.058,-0.116c-0.008,-0.044 -0.008,-0.083 -0.001,-0.117c0.007,-0.033 0.015,-0.068 0.022,-0.105l0.196,-0.802c0.016,-0.068 0.035,-0.115 0.06,-0.144c0.023,-0.027 0.056,-0.042 0.097,-0.042c0.06,0 0.112,0.033 0.161,0.097c0.047,0.064 0.083,0.163 0.105,0.296l0.105,0.625c0.008,-0.001 0.014,-0.003 0.021,-0.003c0.006,-0.001 0.012,-0.001 0.017,-0.001c0.044,0 0.08,0.016 0.11,0.048c0.029,0.031 0.048,0.072 0.057,0.119c0.021,0.12 -0.021,0.18 -0.123,0.18h-0.022l0.029,0.18c0.012,0.066 0.009,0.119 -0.007,0.154s-0.042,0.054 -0.081,0.054c-0.072,0 -0.12,-0.074 -0.146,-0.221L34.607,27.615zM34.551,27.273l-0.11,-0.651l-0.151,0.651H34.551z"
     fill="#5D5D5D"/>
  <path
      d="M35.473,26.895c0.018,-0.003 0.033,-0.006 0.048,-0.009c0.016,-0.002 0.028,-0.003 0.04,-0.003c0.042,0 0.085,0.014 0.129,0.041c0.043,0.027 0.084,0.065 0.121,0.115c0.036,0.05 0.069,0.108 0.098,0.175c0.028,0.067 0.05,0.139 0.063,0.218c0.014,0.082 0.017,0.158 0.008,0.232c-0.008,0.073 -0.026,0.137 -0.055,0.191c-0.028,0.055 -0.064,0.098 -0.109,0.13c-0.046,0.032 -0.099,0.048 -0.159,0.048c-0.058,0 -0.111,-0.015 -0.165,-0.046c-0.053,-0.03 -0.102,-0.072 -0.146,-0.126c-0.043,-0.054 -0.081,-0.119 -0.114,-0.194c-0.032,-0.075 -0.056,-0.158 -0.071,-0.249c-0.021,-0.121 -0.021,-0.254 -0.003,-0.399s0.058,-0.3 0.118,-0.466c0.038,-0.105 0.071,-0.186 0.102,-0.242c0.029,-0.056 0.061,-0.084 0.093,-0.084c0.017,0 0.032,0.005 0.049,0.014c0.018,0.01 0.033,0.022 0.047,0.04c0.014,0.016 0.024,0.036 0.035,0.058c0.011,0.021 0.018,0.043 0.021,0.068c0.006,0.031 0.005,0.061 -0.004,0.091c-0.008,0.031 -0.02,0.064 -0.035,0.102c-0.015,0.037 -0.032,0.081 -0.052,0.128C35.51,26.774 35.491,26.831 35.473,26.895zM35.421,27.436c0.013,0.067 0.036,0.124 0.072,0.169c0.035,0.045 0.074,0.068 0.112,0.068c0.04,0 0.07,-0.022 0.091,-0.068s0.025,-0.102 0.014,-0.169c-0.012,-0.067 -0.035,-0.122 -0.07,-0.166c-0.036,-0.044 -0.072,-0.066 -0.112,-0.066s-0.071,0.021 -0.092,0.066S35.41,27.369 35.421,27.436z"
     fill="#5D5D5D"/>
  <path
      d="M36.67,27.045c0.14,0.098 0.226,0.243 0.259,0.436c0.013,0.077 0.016,0.148 0.008,0.216c-0.008,0.066 -0.026,0.125 -0.054,0.175s-0.063,0.088 -0.105,0.117c-0.044,0.029 -0.096,0.043 -0.154,0.043c-0.091,0 -0.183,-0.044 -0.272,-0.13c-0.054,-0.053 -0.097,-0.109 -0.13,-0.17c-0.034,-0.06 -0.055,-0.117 -0.063,-0.169c-0.01,-0.056 -0.008,-0.101 0.007,-0.135c0.016,-0.033 0.039,-0.05 0.073,-0.05c0.024,0 0.047,0.009 0.066,0.028c0.019,0.019 0.04,0.045 0.064,0.081c0.016,0.023 0.03,0.047 0.046,0.071c0.015,0.023 0.029,0.042 0.045,0.06c0.016,0.017 0.032,0.03 0.049,0.041c0.019,0.01 0.037,0.015 0.058,0.015c0.037,0 0.066,-0.021 0.085,-0.062c0.02,-0.042 0.023,-0.094 0.013,-0.155c-0.011,-0.069 -0.033,-0.117 -0.064,-0.143c-0.032,-0.026 -0.075,-0.046 -0.13,-0.059c-0.04,-0.009 -0.07,-0.026 -0.091,-0.051c-0.021,-0.025 -0.037,-0.066 -0.046,-0.121c-0.01,-0.052 -0.007,-0.09 0.005,-0.115c0.014,-0.024 0.037,-0.043 0.073,-0.056c0.074,-0.029 0.104,-0.087 0.089,-0.176c-0.008,-0.044 -0.022,-0.08 -0.044,-0.106c-0.021,-0.026 -0.046,-0.039 -0.074,-0.039c-0.025,0 -0.045,0.009 -0.06,0.026c-0.013,0.019 -0.026,0.042 -0.04,0.066c-0.019,0.034 -0.035,0.062 -0.049,0.085c-0.014,0.023 -0.036,0.035 -0.066,0.035c-0.027,0 -0.054,-0.016 -0.081,-0.047c-0.026,-0.031 -0.044,-0.069 -0.052,-0.116c-0.008,-0.048 -0.006,-0.096 0.004,-0.145c0.011,-0.048 0.029,-0.092 0.055,-0.131c0.026,-0.039 0.06,-0.071 0.1,-0.097c0.04,-0.025 0.085,-0.037 0.133,-0.037s0.095,0.012 0.141,0.037c0.046,0.024 0.087,0.058 0.123,0.099c0.035,0.042 0.067,0.092 0.094,0.148c0.026,0.057 0.045,0.117 0.056,0.181c0.014,0.074 0.014,0.139 0.003,0.194C36.729,26.946 36.705,26.997 36.67,27.045z"
     fill="#5D5D5D"/>
  <path
      d="M24.113,42.757c-0.073,0.067 -0.127,0.149 -0.165,0.245c-0.037,0.095 -0.058,0.203 -0.062,0.319c-0.02,0.544 0.297,1.309 0.872,2.056c0.106,0.139 0.223,0.278 0.348,0.413c0,0.001 0.001,0.002 0.002,0.003c1.084,1.185 2.396,1.746 2.934,1.257l1.545,-1.393l-3.989,-4.161L24.113,42.757z"
     fill="#BF3030"/>
  <path
      d="M46.798,20.325c0.092,0.168 0.062,0.364 -0.071,0.438l-0.394,0.217c-0.132,0.073 -0.314,-0.005 -0.408,-0.174l-0.426,-0.772c-0.093,-0.169 -0.062,-0.365 0.071,-0.438l0.393,-0.217c0.133,-0.073 0.315,0.005 0.409,0.174L46.798,20.325z"
     fill="#F2E7E1"/>
  <path
      d="M47.255,20.496c0.054,0.094 0.035,0.205 -0.039,0.246l-1.161,0.641c-0.074,0.041 -0.177,-0.003 -0.229,-0.098l-0.362,-0.657c-0.053,-0.095 -0.035,-0.204 0.039,-0.245l1.161,-0.641c0.074,-0.041 0.178,0.002 0.229,0.098L47.255,20.496z"
     fill="#1DA2D6"/>
  <path
      d="M49.296,23.431l0.156,0.284c0.084,0.152 0.193,0.238 0.27,0.283c0.058,0.034 0.097,0.045 0.097,0.045s0.194,0.014 0.373,0.34l0.979,1.775c0.254,0.461 0.441,0.8 0.441,0.8c0.147,0.268 0.099,0.579 -0.112,0.695l-1.888,1.041c-0.209,0.115 -0.499,-0.008 -0.647,-0.276c0,0 -0.187,-0.339 -0.44,-0.8l-0.979,-1.776c-0.181,-0.326 -0.089,-0.496 -0.089,-0.496s0.012,-0.04 0.014,-0.107c0.002,-0.089 -0.013,-0.227 -0.097,-0.379l-0.155,-0.284c-0.039,-0.069 -0.078,-0.125 -0.114,-0.168c-0.14,-0.163 -0.259,-0.172 -0.259,-0.172s-0.161,-0.047 -0.298,-0.223c-0.024,-0.031 -0.047,-0.066 -0.069,-0.106c-0.146,-0.264 -0.332,-0.603 -0.332,-0.603c-0.01,-0.019 -0.021,-0.045 -0.031,-0.077c-0.132,-0.408 -0.217,-1.76 -0.021,-1.867l1.081,-0.597c0.195,-0.107 1.294,0.686 1.568,1.015c0.022,0.026 0.039,0.048 0.049,0.068c0,0 0.187,0.338 0.333,0.603c0.021,0.04 0.038,0.078 0.051,0.114c0.077,0.211 0.031,0.371 0.031,0.371s-0.058,0.107 0.006,0.311C49.231,23.299 49.258,23.362 49.296,23.431z"
     fill="#684059"/>
  <path
      d="M48.744,21.778l-2.086,1.151c-0.196,-0.417 -0.298,-1.105 -0.232,-1.532l1.033,-0.569C47.861,21.019 48.537,21.53 48.744,21.778z"
     fill="#826B80"/>
  <path
      d="M50.191,24.383l-2.251,1.249c-0.18,-0.325 -0.088,-0.496 -0.088,-0.496s0.011,-0.04 0.014,-0.107l1.855,-1.031c0.058,0.034 0.097,0.045 0.097,0.045S50.013,24.057 50.191,24.383z"
     fill="#826B80"/>
  <path
      d="M49.177,22.563c0.077,0.211 0.031,0.371 0.031,0.371s-0.058,0.107 0.006,0.311l-2.109,1.164c-0.14,-0.163 -0.259,-0.172 -0.259,-0.172s-0.161,-0.047 -0.298,-0.223L49.177,22.563z"
     fill="#4C2D42"/>
  <path
      d="M48.303,23.393c0.127,0.183 0.304,0.461 0.091,0.796c-0.212,0.337 -0.868,0.833 -0.868,0.833l-0.264,-0.36l0.229,-0.663L48.303,23.393z"
     fill="#4C2D42"/>
  <path
      d="M47.273,23.462c-0.043,0.013 -0.084,0.035 -0.121,0.065c-0.12,0.098 -0.245,0.193 -0.352,0.307c-0.394,0.32 -0.58,0.75 -0.396,1.294c0.039,0.114 0.221,0.065 0.183,-0.05c-0.038,-0.11 -0.058,-0.213 -0.062,-0.312c0.03,0.032 0.067,0.058 0.105,0.075c0,0.006 -0.001,0.012 -0.002,0.018c-0.022,0.185 0.113,0.272 0.258,0.269c-0.05,0.139 -0.123,0.268 -0.238,0.38c-0.203,0.201 -0.004,0.487 0.219,0.481c-0.002,0.003 -0.003,0.007 -0.004,0.01c-0.018,0.039 -0.009,0.074 0.011,0.102c-0.007,0.006 -0.013,0.014 -0.021,0.021c-0.089,0.084 0.044,0.217 0.133,0.133c0.312,-0.293 0.452,-0.698 0.517,-1.121c0.003,-0.01 0.006,-0.02 0.008,-0.031c0.04,-0.159 0.022,-0.476 0.073,-0.714c0.166,-0.113 0.334,-0.228 0.387,-0.43C48.098,23.481 47.668,23.201 47.273,23.462z"
     fill="#FFB287"/>
  <path
      d="M46.677,24.073c0.043,-0.169 -0.05,-0.078 0.124,-0.239s0.813,-0.752 1.084,-0.775c0.27,-0.023 0.466,0.106 0.409,0.519c-0.057,0.407 -0.243,0.563 -0.71,0.812s-0.421,-0.159 -0.421,-0.159L46.677,24.073z"
     fill="#FFB287"/>
  <path
      d="M49.68,22.831c-0.472,0.103 -1.077,0.133 -1.096,0.562c-0.02,0.429 0.215,0.623 0.828,1.422c0.614,0.8 0.988,1.18 1.564,0.99l-1.197,-2.156L49.68,22.831z"
     fill="#4C2D42"/>
  <path
      d="M49.841,25.053c0.314,0.414 0.825,0.612 1.138,0.442c0.312,-0.171 0.37,-0.688 0.13,-1.148l-0.724,-1.392c-0.24,-0.46 -0.809,-0.636 -1.263,-0.39c-0.456,0.245 -0.571,0.785 -0.259,1.199L49.841,25.053z"
     fill="#FFB287"/>
  <path
      d="M31.882,5.579c-1.476,0.226 -2.92,0.682 -2.864,1.517l-0.124,-1.888c-0.057,-0.855 1.511,-1.295 3.061,-1.5c-0.053,0.118 -0.058,0.287 -0.096,0.544C31.793,4.685 31.884,4.771 31.882,5.579z"
     fill="#AF1E3A"/>
  <path
      d="M26.644,35.703v0.398c-1.406,0 -3.477,1.219 -3.689,-0.106c-0.077,-0.475 1.008,-0.92 1.484,-0.812c0,0 1.462,0.252 1.58,0.299C26.058,35.499 26.344,35.593 26.644,35.703z"
     fill="#EAA93F"/>
  <path
      d="M38.562,4.763v0.46c-0.038,-0.11 -0.102,-0.188 -0.188,-0.241c-0.143,-0.09 -0.35,-0.113 -0.62,-0.113h-3.758c-0.25,0 -1.103,0.011 -2.131,0.152C31.858,4.91 31.85,4.821 31.844,4.74c0.758,-0.104 1.419,-0.138 1.82,-0.149c0.15,-0.004 0.263,-0.004 0.332,-0.004h3.758c0.222,0 0.437,0.016 0.62,0.082C38.441,4.693 38.505,4.724 38.562,4.763z"
     fill="#FFFFFF"/>
  <path
      d="M31.865,5.021c-0.081,0.011 -0.163,0.024 -0.245,0.036c-1.24,0.189 -2.102,0.488 -2.498,0.854c-0.071,0.065 -0.129,0.134 -0.17,0.205c-0.057,0.099 -0.106,0.291 -0.106,0.406V5.873c0,-0.07 0.052,-0.141 0.081,-0.167c0.052,-0.048 0.11,-0.095 0.173,-0.139c0.586,-0.413 1.582,-0.651 2.477,-0.788c0.091,-0.015 0.18,-0.026 0.268,-0.038C31.85,4.821 31.858,4.91 31.865,5.021z"
     fill="#CDC8D6"/>
  <path
      d="M22.822,33.426l-1.512,0.153c-0.518,0.053 -1.046,-0.317 -1.177,-0.819l-0.146,-0.56c-0.054,-0.205 -0.08,-0.438 -0.084,-0.663c-0.006,-0.322 0.041,-0.627 0.135,-0.809c0.157,-0.307 0.697,-0.668 1.199,-0.804l0.336,-0.09c0.153,-0.042 0.312,-0.042 0.461,-0.009c0.156,0.032 0.304,0.104 0.429,0.203c0.026,0.02 0.052,0.042 0.076,0.065c0.11,0.106 0.198,0.239 0.25,0.39l0.154,0.451l0.514,1.505C23.624,32.931 23.34,33.375 22.822,33.426z"
     fill="#FFB287"/>
  <path
      d="M24.387,31.308c-0.159,-0.134 -0.415,-0.46 -0.683,-0.718c-0.074,-0.076 -0.149,-0.151 -0.232,-0.217c-0.212,-0.221 -0.487,-0.395 -0.791,-0.486c-0.207,-0.062 -0.426,-0.086 -0.646,-0.06c-0.017,0.001 -0.035,0.004 -0.052,0.006c-0.084,0.013 -0.26,0.225 -0.335,0.349c-0.21,-0.1 -0.434,0.11 -0.411,0.317c-0.003,-0.001 -0.007,-0.003 -0.011,-0.004c-0.041,-0.015 -0.078,-0.002 -0.104,0.021c-0.008,-0.007 -0.017,-0.013 -0.024,-0.02c-0.095,-0.085 -0.223,0.066 -0.127,0.151c0.107,0.097 0.226,0.174 0.351,0.234c0.265,0.128 0.562,0.187 0.865,0.208c0.01,0.002 0.021,0.004 0.032,0.006c0.154,0.025 0.478,-0.155 0.726,-0.161c0.023,-0.002 0.046,-0.001 0.068,0.002c0.302,0.466 0.918,1.049 1.187,1.041C24.635,31.964 24.813,31.667 24.387,31.308zM21.754,30.548c-0.084,-0.023 -0.042,-0.088 -0.013,-0.16C21.746,30.437 21.749,30.495 21.754,30.548z"
     fill="#FFB287"/>
  <path
      d="M22.44,32.872c0.107,0.378 0.215,0.404 0.229,0.57c0.016,0.167 0.222,0.456 0.637,0.365c0.416,-0.092 0.521,-0.28 0.172,-1.307c-0.351,-1.026 -0.893,-0.577 -0.893,-0.577L22.44,32.872z"
     fill="#FFB287"/>
  <path
      d="M22.681,29.886c-0.023,0.066 -0.077,0.139 -0.142,0.208c-0.137,0.143 -0.327,0.277 -0.438,0.353c-0.121,0.086 -0.426,0.253 -0.781,0.434c-0.479,0.245 -1.056,0.517 -1.417,0.657c-0.006,-0.322 0.041,-0.627 0.135,-0.809c0.157,-0.307 0.697,-0.668 1.199,-0.804l0.336,-0.09c0.153,-0.042 0.312,-0.042 0.461,-0.009C22.255,29.8 22.474,29.824 22.681,29.886z"
     fill="#E5785C"/>
  <path
      d="M20.949,30.565c-0.12,0.038 -0.248,-0.03 -0.285,-0.15l-0.267,-0.857c-0.038,-0.121 0.03,-0.249 0.15,-0.286l1.046,-0.325c0.122,-0.037 0.25,0.03 0.286,0.15l0.267,0.858c0.037,0.12 -0.03,0.248 -0.149,0.286L20.949,30.565z"
     fill="#C1BFE2"/>
  <path
      d="M20.947,30.374c-0.072,0 -0.114,-0.042 -0.146,-0.146l-0.186,-0.592c-0.023,-0.081 -0.027,-0.126 -0.012,-0.159c0.017,-0.034 0.06,-0.06 0.142,-0.084l0.754,-0.234c0.044,-0.014 0.078,-0.02 0.104,-0.02c0.06,0 0.101,0.024 0.14,0.148l0.184,0.593c0.021,0.07 0.021,0.124 0,0.161c-0.021,0.035 -0.062,0.062 -0.129,0.083l-0.754,0.234C21.006,30.368 20.975,30.374 20.947,30.374z"
     fill="#4F4351"/>
  <path
      d="M21.604,29.164L21.604,29.164c0.041,0 0.077,0.01 0.114,0.13l0.184,0.592c0.021,0.064 0.021,0.11 0.003,0.141c-0.017,0.028 -0.054,0.051 -0.114,0.07l-0.754,0.234c-0.035,0.011 -0.066,0.017 -0.09,0.017c-0.042,0 -0.086,-0.01 -0.121,-0.127l-0.185,-0.593c-0.022,-0.072 -0.027,-0.114 -0.014,-0.139c0.013,-0.027 0.053,-0.05 0.125,-0.072l0.755,-0.234C21.548,29.17 21.58,29.164 21.604,29.164M21.604,29.112c-0.03,0 -0.067,0.007 -0.112,0.021l-0.755,0.234c-0.173,0.054 -0.194,0.116 -0.145,0.276l0.184,0.593c0.035,0.111 0.083,0.165 0.171,0.165c0.03,0 0.064,-0.007 0.104,-0.019l0.756,-0.234c0.138,-0.043 0.194,-0.114 0.145,-0.275l-0.184,-0.593C21.733,29.165 21.689,29.112 21.604,29.112L21.604,29.112z"
     fill="#C1BFE2"/>
  <path
      d="M22.158,29.994c0,0 0.032,-0.075 0.125,-0.103c0.093,-0.029 0.333,-0.104 0.333,-0.104s0.156,-0.035 0.024,-0.46l0.002,0.009c-0.13,-0.424 -0.28,-0.365 -0.28,-0.365s-0.239,0.075 -0.332,0.104c-0.093,0.028 -0.162,-0.015 -0.162,-0.015L22.158,29.994z"
     fill="#D14D2A"/>
  <path
      d="M20.675,30.454c0,0 -0.068,-0.043 -0.16,-0.015c-0.094,0.028 -0.333,0.103 -0.333,0.103s-0.149,0.06 -0.281,-0.365l0.003,0.009c-0.131,-0.424 0.024,-0.46 0.024,-0.46s0.24,-0.074 0.334,-0.104c0.093,-0.028 0.124,-0.103 0.124,-0.103L20.675,30.454z"
     fill="#D14D2A"/>
  <path
      d="M20.558,29.383l1.105,-0.343c0.073,-0.022 0.148,-0.008 0.207,0.031c-0.047,-0.104 -0.163,-0.159 -0.276,-0.124l-1.046,0.325c-0.118,0.037 -0.185,0.16 -0.152,0.278C20.417,29.474 20.476,29.409 20.558,29.383z"

     fill="#FFFFFF"
       style= "fill-opacity=0.8"/>
  <path
      d="M21.989,30.135l-1.106,0.343c-0.073,0.022 -0.147,0.008 -0.207,-0.032c0.048,0.103 0.164,0.158 0.275,0.124l1.047,-0.324c0.117,-0.037 0.185,-0.16 0.151,-0.279C22.128,30.044 22.071,30.11 21.989,30.135z"

     fill="#FFB287"
      style= "fill-opacity=0.8"/>
</svg>
