<?xml version="1.0" encoding="utf-8"?>
<svg version="1.1" id="Layer_1" xmlns="http://www.w3.org/2000/svg" xmlns:xlink="http://www.w3.org/1999/xlink"
    width="64"
    height="64"
     viewBox="0 0 64 64">
  <path
      d="M32,60.001c-15.438,0 -28,-12.561 -28,-28.002c0,-15.438 12.563,-28 28,-28c15.44,0 28,12.562 28,28C60,47.44 47.44,60.001 32,60.001z"

      fill="#4285F4"
      style= "fill-opacity=0.2"/>
  <path
      d="M32,56.001c-13.232,0 -24,-10.767 -24,-24.002c0,-13.232 10.768,-24 24,-24c13.234,0 24,10.768 24,24C56,45.234 45.234,56.001 32,56.001z"
      fill="#4285F4"/>
  <path
      d="M32,45.5c1.522,0 2.769,-1.247 2.769,-2.769h-5.537C29.231,44.253 30.464,45.5 32,45.5zM40.308,37.192v-6.923c0,-4.25 -2.271,-7.81 -6.23,-8.75v-0.941c0,-1.149 -0.928,-2.077 -2.077,-2.077s-2.077,0.928 -2.077,2.077v0.941c-3.974,0.941 -6.23,4.486 -6.23,8.75v6.923l-2.769,2.769v1.385h22.152v-1.385L40.308,37.192z"
      fill="#FFFFFF"/>
</svg>
