<?xml version="1.0" encoding="utf-8"?>
<svg version="1.1" id="Layer_1" xmlns="http://www.w3.org/2000/svg" xmlns:xlink="http://www.w3.org/1999/xlink"
    width="64"
    height="64"
     viewBox="0 0 64 64">
  <path
      d="M32,60C16.562,60 4.001,47.44 4.001,31.999C4.001,16.562 16.562,4 32,4c15.44,0 27.999,12.562 27.999,27.999C59.999,47.44 47.44,60 32,60z"

      fill="#4285F4"
       style= "fill-opacity=0.2"/>
  <path
      d="M32,56C18.768,56 8.001,45.234 8.001,31.999C8.001,18.767 18.768,8 32,8c13.234,0 23.999,10.767 23.999,23.999C55.999,45.234 45.234,56 32,56z"
      fill="#4285F4"/>
  <path
      d="M47.333,43.64c-4.189,0 -7.598,3.408 -7.598,7.598s3.408,7.598 7.598,7.598s7.598,-3.409 7.598,-7.598C54.931,47.048 51.522,43.64 47.333,43.64z"
      fill="#FFCE00"/>
  <path
      d="M48.938,46.948c0,-0.168 -0.138,-0.306 -0.308,-0.306h-2.012c-0.17,0 -0.308,0.138 -0.308,0.306v0.263c0,0.169 0.138,0.307 0.308,0.307h2.012c0.17,0 0.308,-0.138 0.308,-0.307V46.948z"
      fill="#FFFFFF"/>
  <path
      d="M50.701,49.439l0.622,-0.622c-0.188,-0.224 -0.395,-0.433 -0.617,-0.617l-0.622,0.621c-0.678,-0.542 -1.531,-0.866 -2.459,-0.866c-2.175,0 -3.938,1.764 -3.938,3.938c0,2.176 1.759,3.938 3.938,3.938s3.938,-1.763 3.938,-3.938C51.563,50.966 51.239,50.113 50.701,49.439zM47.625,54.957c-1.693,0 -3.063,-1.369 -3.063,-3.063c0,-1.693 1.37,-3.063 3.063,-3.063s3.063,1.37 3.063,3.063C50.688,53.588 49.318,54.957 47.625,54.957z"
      fill="#FFFFFF"/>
  <path
      d="M47.625,49.615v2.278h-2.279c0,1.259 1.021,2.279 2.279,2.279s2.279,-1.021 2.279,-2.279S48.884,49.615 47.625,49.615z"
      fill="#FFFFFF"/>
  <path
      d="M37.605,31.558c-2.806,-0.729 -3.708,-1.483 -3.708,-2.658c0,-1.347 1.25,-2.286 3.338,-2.286c1.755,0 2.633,0.666 2.955,1.73c0.148,0.494 0.556,0.865 1.075,0.865h0.372c0.815,0 1.396,-0.805 1.112,-1.569c-0.521,-1.459 -1.73,-2.671 -3.66,-3.142v-0.852c0,-1.026 -0.828,-1.854 -1.854,-1.854s-1.854,0.828 -1.854,1.854v0.815c-2.397,0.52 -4.326,2.076 -4.326,4.462c0,2.856 2.361,4.279 5.811,5.106c3.09,0.742 3.708,1.83 3.708,2.979c0,0.853 -0.604,2.211 -3.338,2.211c-2.04,0 -3.09,-0.729 -3.498,-1.768c-0.187,-0.482 -0.606,-0.827 -1.113,-0.827h-0.346c-0.828,0 -1.41,0.841 -1.101,1.606c0.705,1.718 2.35,2.731 4.203,3.128v0.828c0,1.025 0.828,1.854 1.854,1.854s1.854,-0.829 1.854,-1.854v-0.805c2.411,-0.455 4.326,-1.854 4.326,-4.388C43.416,33.486 40.412,32.287 37.605,31.558z"
      fill="#FFFFFF"/>
  <path
      d="M24.554,29.186c-0.275,0.274 -0.275,0.72 0,0.995l2.737,2.736l-2.737,2.737c-0.275,0.274 -0.275,0.72 0,0.994c0.275,0.275 0.719,0.275 0.995,0l3.237,-3.237c0.275,-0.275 0.275,-0.72 0,-0.995l-3.237,-3.237C25.28,28.91 24.829,28.91 24.554,29.186z"
      fill="#FFFFFF"/>
  <path
      d="M20.791,29.187c-0.275,0.274 -0.275,0.72 0,0.994l2.737,2.737l-2.737,2.736c-0.275,0.275 -0.275,0.72 0,0.995c0.275,0.274 0.72,0.274 0.995,0l3.237,-3.237c0.275,-0.275 0.275,-0.721 0,-0.995l-3.237,-3.237C21.517,28.911 21.066,28.911 20.791,29.187z"
      fill="#FFFFFF"/>
</svg>
