<?xml version="1.0" encoding="utf-8"?>
<svg version="1.1" id="Layer_1" xmlns="http://www.w3.org/2000/svg" xmlns:xlink="http://www.w3.org/1999/xlink"
    width="64"
     height="64"
     viewBox="0 0 64 64">
  <path
     d="M32,60C16.562,60 4.001,47.44 4.001,31.999C4.001,16.562 16.562,4 32,4c15.44,0 27.999,12.562 27.999,27.999C59.999,47.44 47.44,60 32,60z"

      fill="#FFCE00"
      style= "fill-opacity=0.2"/>
  <path
     d="M32,56C18.768,56 8.001,45.234 8.001,31.999C8.001,18.767 18.768,8 32,8c13.234,0 23.999,10.767 23.999,23.999C55.999,45.234 45.234,56 32,56z"
      fill="#FFCE00"/>
  <path
     d="M32.45,31.826c-3.406,-0.885 -4.5,-1.8 -4.5,-3.226c0,-1.635 1.516,-2.774 4.05,-2.774c2.13,0 3.195,0.809 3.586,2.099c0.18,0.601 0.674,1.05 1.305,1.05h0.451c0.99,0 1.693,-0.976 1.35,-1.904c-0.631,-1.771 -2.1,-3.24 -4.441,-3.812v-1.034c0,-1.245 -1.005,-2.25 -2.25,-2.25s-2.25,1.005 -2.25,2.25v0.99c-2.909,0.63 -5.25,2.52 -5.25,5.414c0,3.466 2.865,5.192 7.05,6.196c3.75,0.9 4.5,2.221 4.5,3.615c0,1.035 -0.734,2.684 -4.051,2.684c-2.476,0 -3.75,-0.885 -4.245,-2.145c-0.226,-0.586 -0.735,-1.004 -1.351,-1.004h-0.419c-1.005,0 -1.711,1.02 -1.336,1.949c0.855,2.084 2.851,3.314 5.101,3.795v1.006c0,1.244 1.005,2.25 2.25,2.25s2.25,-1.006 2.25,-2.25V43.75c2.926,-0.553 5.25,-2.25 5.25,-5.324C39.5,34.166 35.855,32.711 32.45,31.826z"
      fill="#FFFFFF"/>
  <path
     d="M47.333,43.64c-4.189,0 -7.598,3.408 -7.598,7.598s3.408,7.598 7.598,7.598s7.598,-3.409 7.598,-7.598C54.931,47.048 51.522,43.64 47.333,43.64z"
      fill="#34A853"/>
  <path
     d="M46.376,54.148c-0.164,0 -0.322,-0.065 -0.438,-0.183l-2.262,-2.299c-0.237,-0.242 -0.233,-0.629 0.007,-0.867c0.241,-0.236 0.63,-0.234 0.867,0.008l1.807,1.837l3.74,-4.119c0.228,-0.25 0.615,-0.268 0.865,-0.041c0.251,0.227 0.27,0.615 0.042,0.865l-4.175,4.599c-0.113,0.125 -0.273,0.197 -0.441,0.201C46.384,54.148 46.381,54.148 46.376,54.148z"
      fill="#FFFFFF"/>
</svg>
