<?xml version="1.0" encoding="utf-8"?>
<svg version="1.1" id="Layer_1" xmlns="http://www.w3.org/2000/svg" xmlns:xlink="http://www.w3.org/1999/xlink"
    width="64"
    height="64"
     viewBox="0 0 64 64">
  <path
      d="M32,60.001c-15.438,0 -28,-12.561 -28,-28.002c0,-15.438 12.563,-28 28,-28c15.44,0 28,12.562 28,28C60,47.44 47.44,60.001 32,60.001z"

      fill="#E53935"
       style= "fill-opacity=0.2"/>
  <path
      d="M32,56.001c-13.232,0 -24,-10.767 -24,-24.002c0,-13.232 10.768,-24 24,-24c13.234,0 24,10.768 24,24C56,45.234 45.234,56.001 32,56.001z"
      fill="#E53935"/>
  <path
      d="M32.631,24.351c2.13,0 3.194,0.809 3.586,2.099c0.193,0.646 0.84,1.05 1.515,1.05h0.089c1.051,0 1.83,-1.065 1.455,-2.039c-0.659,-1.726 -2.114,-3.12 -4.395,-3.677V20.75c0,-1.245 -1.005,-2.25 -2.25,-2.25s-2.25,1.005 -2.25,2.25v0.99c-0.586,0.12 -1.125,0.315 -1.649,0.539l2.265,2.265C31.477,24.425 32.03,24.351 32.631,24.351zM21.035,20.93c-0.585,0.584 -0.585,1.531 0,2.114l4.096,4.11c0,3.12 2.341,4.831 5.865,5.865l5.265,5.265c-0.51,0.735 -1.574,1.365 -3.63,1.365c-2.476,0 -3.75,-0.885 -4.245,-2.145C28.16,36.919 27.65,36.5 27.035,36.5H26.78c-1.08,0 -1.86,1.11 -1.424,2.086c0.885,1.995 2.834,3.179 5.039,3.659v1.005c0,1.245 1.005,2.25 2.251,2.25c1.244,0 2.249,-1.005 2.249,-2.25v-0.976c1.441,-0.27 2.745,-0.824 3.691,-1.679l2.265,2.265c0.584,0.585 1.53,0.585 2.115,0c0.583,-0.586 0.583,-1.529 0,-2.115L23.15,20.93C22.566,20.346 21.621,20.346 21.035,20.93z"
      fill="#FFFFFF"/>
  <path
      d="M44.914,56.604h11.109c1.137,0 1.844,-1.232 1.276,-2.213l-5.555,-9.598c-0.568,-0.981 -1.984,-0.981 -2.553,0l-5.555,9.598C43.07,55.372 43.777,56.604 44.914,56.604z"
      fill="#5D5D5D"/>
  <path
      d="M50.469,51.44c-0.405,0 -0.737,-0.332 -0.737,-0.737v-1.476c0,-0.405 0.332,-0.737 0.737,-0.737s0.737,0.332 0.737,0.737v1.476C51.206,51.108 50.874,51.44 50.469,51.44z"
      fill="#FFFFFF"/>
  <path
      d="M49.731,52.916h1.475v1.476h-1.475z"
      fill="#FFFFFF"/>
</svg>
