<svg xmlns:android="http://schemas.android.com/apk/res/android"
    width="64dp"
     height="64dp"
     viewBox="0 0 64 64">
  <path
      d="M32,60.001c-15.438,0 -28,-12.561 -28,-28.002c0,-15.438 12.563,-28 28,-28c15.44,0 28,12.562 28,28C60,47.44 47.44,60.001 32,60.001z"
        style= "stroke-opacity=0.2"
     fill="#34A853"
      style= "fill-opacity=0.2"/>
  <path
      d="M32,56.001c-13.232,0 -24,-10.767 -24,-24.002c0,-13.232 10.768,-24 24,-24c13.234,0 24,10.768 24,24C56,45.234 45.234,56.001 32,56.001z"
     fill="#34A853"/>
  <path
      d="M35.682,32c2.713,0 4.909,-2.197 4.909,-4.909s-2.196,-4.909 -4.909,-4.909s-4.909,2.197 -4.909,4.909S32.969,32 35.682,32zM24.637,29.545v-2.454c0,-0.675 -0.553,-1.228 -1.228,-1.228s-1.228,0.553 -1.228,1.228v2.454h-2.454c-0.676,0 -1.228,0.553 -1.228,1.228S19.052,32 19.728,32h2.454v2.454c0,0.674 0.553,1.228 1.228,1.228s1.228,-0.554 1.228,-1.228V32h2.454c0.675,0 1.228,-0.553 1.228,-1.228s-0.553,-1.228 -1.228,-1.228H24.637zM35.682,34.454c-3.276,0 -9.818,1.645 -9.818,4.909v1.228c0,0.674 0.553,1.228 1.228,1.228h17.182c0.676,0 1.228,-0.554 1.228,-1.228v-1.228C45.5,36.099 38.959,34.454 35.682,34.454z"
     fill="#FFFFFF"/>
</svg>
