<?xml version="1.0" encoding="utf-8"?>
<svg version="1.1" id="Layer_1" xmlns="http://www.w3.org/2000/svg" xmlns:xlink="http://www.w3.org/1999/xlink"
    width="64"
    height="64"
     viewBox="0 0 64 64">
  <path
     d="M57,44.932c0,1.1 -0.651,2.456 -1.6,3.013L33.912,60.601c-0.948,0.557 -2.47,0.557 -3.418,0L8.834,47.944C7.886,47.388 7,46.031 7,44.932V19.568c0,-1.1 0.901,-2.456 1.85,-3.013L30.463,3.899c0.948,-0.557 2.532,-0.557 3.48,0l21.441,12.656C56.333,17.112 57,18.469 57,19.568V44.932z"

   fill="#E53935"
      style= "fill-opacity=0.3"/>
  <path
     d="M54,43c0,1.1 -0.653,2.451 -1.605,3.003L33.918,56.747c-0.952,0.552 -2.478,0.552 -3.43,0L11.84,46.003C10.888,45.451 10,44.1 10,43V21.5c0,-1.1 0.903,-2.451 1.855,-3.003L30.457,7.753c0.952,-0.552 2.54,-0.552 3.492,0l18.43,10.744C53.331,19.049 54,20.4 54,21.5V43z"
   fill="#E53935"/>
  <path
     d="M26.585,32.269c-0.321,0.782 -0.604,1.654 -0.718,2.675C25.427,38.865 28.445,42 32.389,42s7.14,-3.199 7.14,-7.145c0,-0.729 -0.342,-1.766 -0.342,-1.766c-0.311,2.065 -2.023,3.233 -2.023,3.233c1.051,-2.767 0.494,-5.266 -0.778,-7.09c-2.882,-4.13 -2.142,-6.936 -2.142,-6.936c-3.854,3.429 -3.62,7.206 -3.62,7.206c-0.355,-2.29 -3.249,-3.203 -3.249,-3.203c0.954,1.62 0.612,2.874 -0.029,4.263C26.878,31.573 26.585,32.269 26.585,32.269z"

   fill="#FDDB33"
      style= "stroke-opacity=0.7"/>
  <path
     d="M30.623,29.294L30.623,29.294c-0.435,-2.102 -3.249,-2.993 -3.249,-2.993c0.249,0.422 0.407,0.82 0.5,1.201C28.8,27.787 30.623,29.294 30.623,29.294z"

   fill="#F9C032"
      style= "stroke-opacity=0.7"/>
  <path
     d="M34.799,29.232c1.272,1.825 2.603,3.432 2.367,7.077l0,0c0.315,-0.831 0.554,-1.941 0.549,-2.836c0.01,-1.62 -0.513,-3.069 -1.33,-4.241c-2.882,-4.129 -2.142,-6.935 -2.142,-6.935c-0.649,0.577 -1.181,1.163 -1.619,1.74C32.771,25.263 33.286,27.064 34.799,29.232z"

   fill="#F9C032"
      style= "stroke-opacity=0.7"/>
  <path
     d="M39.187,33.09c-0.174,1.152 -0.783,2.025 -1.288,2.573c-0.374,3.306 -2.998,5.929 -6.305,6.292C31.854,41.983 32.119,42 32.389,42c3.943,0 7.14,-3.199 7.14,-7.145C39.528,34.127 39.187,33.09 39.187,33.09z"

   fill="#F9C032"
      style= "stroke-opacity=0.7"/>
  <path
     d="M38.392,24.972c0.163,0 0.299,-0.134 0.299,-0.298v-0.891h0.891c0.164,0 0.297,-0.133 0.297,-0.297s-0.133,-0.299 -0.297,-0.299H38.69v-0.89c0,-0.164 -0.136,-0.298 -0.299,-0.298c-0.164,0 -0.296,0.134 -0.296,0.298v0.89h-0.892c-0.164,0 -0.297,0.135 -0.297,0.299s0.133,0.297 0.297,0.297h0.892v0.891C38.096,24.838 38.228,24.972 38.392,24.972z"

   fill="#FF7373"
      style= "stroke-opacity=0.7"/>
  <path
     d="M43.825,25.195h-0.892v-0.892c0,-0.163 -0.132,-0.296 -0.295,-0.296c-0.164,0 -0.299,0.133 -0.299,0.296v0.892h-0.891c-0.165,0 -0.297,0.134 -0.297,0.297c0,0.166 0.132,0.298 0.297,0.298h0.891v0.891c0,0.164 0.135,0.297 0.299,0.297c0.163,0 0.295,-0.133 0.295,-0.297V25.79h0.892c0.164,0 0.3,-0.132 0.3,-0.298C44.125,25.329 43.989,25.195 43.825,25.195z"

   fill="#FF7373"
      style= "stroke-opacity=0.7"/>
  <path
     d="M40.847,28.002h-0.892v-0.891c0,-0.163 -0.133,-0.297 -0.299,-0.297c-0.164,0 -0.297,0.132 -0.297,0.297v0.891h-0.892c-0.163,0 -0.296,0.134 -0.296,0.299c0,0.162 0.133,0.295 0.296,0.295h0.892v0.893c0,0.164 0.133,0.297 0.297,0.297c0.166,0 0.299,-0.133 0.299,-0.297v-0.893h0.892c0.163,0 0.296,-0.133 0.296,-0.295C41.143,28.136 41.01,28.002 40.847,28.002z"

   fill="#FF7373"
      style= "stroke-opacity=0.7"/>
  <path
     d="M34.159,37.223c0.272,0.567 0.469,1.097 0.469,1.454c0,1.183 -0.96,2.143 -2.143,2.143c-1.185,0 -2.144,-0.96 -2.144,-2.143c0,-1.184 2.144,-4.257 2.144,-4.257s0.493,0.707 1.007,1.573L34.159,37.223z"

   fill="#FF7373"
      style= "stroke-opacity=0.7"/>
</svg>
