<?xml version="1.0" encoding="utf-8"?>
<svg version="1.1" id="Layer_1" xmlns="http://www.w3.org/2000/svg" xmlns:xlink="http://www.w3.org/1999/xlink"
    width="64"
    height="64"
     viewBox="0 0 64 64">
  <path
     d="M57,44.932c0,1.1 -0.776,2.456 -1.725,3.013L33.725,60.601c-0.948,0.557 -2.501,0.557 -3.449,0L8.725,47.944C7.776,47.388 7,46.031 7,44.932V19.568c0,-1.1 0.776,-2.456 1.725,-3.013L30.275,3.899c0.948,-0.557 2.501,-0.557 3.449,0l21.551,12.656C56.224,17.112 57,18.469 57,19.568V44.932z"

      fill="#34A853"
     style= "fill-opacity=0.3"/>
  <path
     d="M54,43c0,1.1 -0.778,2.451 -1.73,3.003L33.73,56.747c-0.952,0.552 -2.509,0.552 -3.461,0L11.73,46.003C10.778,45.451 10,44.1 10,43V21.5c0,-1.1 0.778,-2.451 1.73,-3.003L30.27,7.753c0.952,-0.552 2.509,-0.552 3.461,0L52.27,18.497C53.222,19.049 54,20.4 54,21.5V43z"
      fill="#34A853"/>
  <path
     d="M32.232,23.465h3.176c0.26,0 0.475,0.216 0.475,0.48v0.951c0,0.261 -0.215,0.475 -0.475,0.475h-3.176c-0.264,0 -0.478,-0.214 -0.478,-0.475v-0.951C31.755,23.681 31.969,23.465 32.232,23.465z"

      fill="#FFFFFF"
       style= "fill-opacity=0.7"/>
  <path
     d="M26.2,30.45h-3.174c-0.264,0 -0.478,0.212 -0.478,0.478c0,0.265 0.214,0.478 0.478,0.478H26.2c0.265,0 0.479,-0.213 0.479,-0.478C26.678,30.662 26.462,30.45 26.2,30.45z"

      fill="#FFFFFF"
       style= "fill-opacity=0.7"/>
  <path
     d="M26.04,34.736c0,-0.263 -0.213,-0.477 -0.475,-0.477h-3.175c-0.264,0 -0.477,0.214 -0.477,0.477c0,0.264 0.213,0.476 0.477,0.476h3.175C25.827,35.212 26.04,35 26.04,34.736z"

      fill="#FFFFFF"
       style= "fill-opacity=0.7"/>
  <path
     d="M25.884,36.164H23.66c-0.26,0 -0.476,0.214 -0.476,0.478c0,0.265 0.216,0.478 0.476,0.478h2.224c0.26,0 0.477,-0.213 0.477,-0.478C26.36,36.378 26.144,36.164 25.884,36.164z"

      fill="#FFFFFF"
       style= "fill-opacity=0.7"/>
  <path
     d="M26.04,32.831c0,-0.264 -0.213,-0.477 -0.475,-0.477h-4.127c-0.263,0 -0.477,0.213 -0.477,0.477c0,0.263 0.214,0.479 0.477,0.479h4.127C25.827,33.307 26.04,33.094 26.04,32.831z"

      fill="#FFFFFF"
       style= "fill-opacity=0.7"/>
  <path
     d="M33.816,33.783v-5.396c-2.975,0 -5.397,2.421 -5.397,5.396s2.422,5.398 5.397,5.398c2.978,0 5.397,-2.421 5.397,-5.398H33.816z"

      fill="#FFFFFF"
       style= "fill-opacity=0.7"/>
  <path
     d="M39.041,28.916l0.513,-0.51c0.185,-0.183 0.188,-0.485 0.002,-0.671c-0.182,-0.187 -0.483,-0.192 -0.67,-0.009c-0.001,0.002 -0.006,0.007 -0.006,0.009l-0.531,0.529c-1.024,-0.842 -2.265,-1.381 -3.576,-1.559v-0.858h-1.905v0.858c-1.313,0.177 -2.553,0.717 -3.576,1.559l-0.531,-0.531c-0.187,-0.188 -0.484,-0.19 -0.673,-0.007c-0.188,0.185 -0.189,0.486 -0.007,0.673c0.002,0.005 0.005,0.006 0.007,0.007l0.51,0.51c-1.236,1.32 -1.921,3.06 -1.918,4.867c0,3.939 3.203,7.143 7.141,7.143c3.937,0 7.142,-3.203 7.142,-7.143C40.965,31.976 40.275,30.236 39.041,28.916zM33.816,39.656c-3.241,0 -5.872,-2.628 -5.872,-5.873c0,-3.243 2.631,-5.872 5.872,-5.872c3.244,0 5.875,2.629 5.875,5.872C39.691,37.028 37.061,39.656 33.816,39.656L33.816,39.656z"

      fill="#FFFFFF"
       style= "fill-opacity=0.7"/>
</svg>
