<?xml version="1.0" encoding="utf-8"?>
<svg version="1.1" id="Layer_1" xmlns="http://www.w3.org/2000/svg" xmlns:xlink="http://www.w3.org/1999/xlink"
    width="64"
    height="64"
     viewBox="0 0 64 64">
  <path
      d="M57,44.932c0,1.1 -0.651,2.456 -1.6,3.013L33.912,60.601c-0.948,0.557 -2.47,0.557 -3.418,0L8.834,47.944C7.886,47.388 7,46.031 7,44.932V19.568c0,-1.1 0.901,-2.456 1.85,-3.013L30.463,3.899c0.948,-0.557 2.532,-0.557 3.48,0l21.441,12.656C56.333,17.112 57,18.469 57,19.568V44.932z"

      fill="#FDDB33"
     style= "fill-opacity=0.3"/>
  <path
      d="M54,43c0,1.1 -0.653,2.451 -1.605,3.003L33.918,56.747c-0.952,0.552 -2.478,0.552 -3.43,0L11.84,46.003C10.888,45.451 10,44.1 10,43V21.5c0,-1.1 0.903,-2.451 1.855,-3.003L30.457,7.753c0.952,-0.552 2.54,-0.552 3.492,0l18.43,10.744C53.331,19.049 54,20.4 54,21.5V43z"
      fill="#FDDB33"/>
  <path
      d="M22.25,31.487c-0.009,0.756 0.458,1.437 1.165,1.701v-3.24c0,-0.046 0.024,-0.116 0.024,-0.162C22.726,30.049 22.252,30.728 22.25,31.487z"

      fill="#FFFFFF"
       style= "fill-opacity=0.7"/>
  <path
      d="M28.613,35.497h-3.053l1.142,4.149c0.169,0.632 0.743,1.072 1.398,1.071c0.467,0.006 0.908,-0.21 1.188,-0.582c0.285,-0.354 0.373,-0.827 0.233,-1.259L28.613,35.497z"

      fill="#FFFFFF"
       style= "fill-opacity=0.7"/>
  <path
      d="M23.439,29.762h0.023v-0.022C23.463,29.762 23.463,29.762 23.439,29.762z"

      fill="#FFFFFF"
       style= "fill-opacity=0.7"/>
  <path
      d="M40.152,29.436h-0.188v4.197h0.188c1.158,0 2.098,-0.939 2.098,-2.1C42.25,30.376 41.311,29.436 40.152,29.436z"

      fill="#FFFFFF"
       style= "fill-opacity=0.7"/>
  <path
      d="M24.115,29.948v3.312c0.024,0.856 0.728,1.537 1.585,1.537h4.241v-6.293H25.7C24.86,28.504 24.115,29.11 24.115,29.948z"

      fill="#FFFFFF"
       style= "fill-opacity=0.7"/>
  <path
      d="M30.643,34.891l8.623,3.45l0,-13.474l-8.623,3.449z"

      fill="#FFFFFF"
       style= "fill-opacity=0.7"/>
</svg>
