<?xml version="1.0" encoding="utf-8"?>
<svg version="1.1" id="Layer_1" xmlns="http://www.w3.org/2000/svg" xmlns:xlink="http://www.w3.org/1999/xlink"
    width="64"
    height="64"
     viewBox="0 0 64 64">
  <path
     d="M57,44.932c0,1.1 -0.776,2.456 -1.725,3.013L33.725,60.601c-0.949,0.557 -2.5,0.557 -3.449,0L8.725,47.944C7.776,47.388 7,46.031 7,44.932V19.568c0,-1.1 0.776,-2.456 1.725,-3.013L30.275,3.899c0.949,-0.557 2.5,-0.557 3.449,0l21.551,12.656C56.224,17.112 57,18.469 57,19.568V44.932z"

      fill="#4285F4"
     style= "fill-opacity=0.3"/>
  <path
     d="M54,43c0,1.1 -0.778,2.451 -1.73,3.003L33.73,56.747c-0.952,0.552 -2.509,0.552 -3.461,0L11.73,46.003C10.779,45.451 10,44.1 10,43V21.5c0,-1.1 0.779,-2.451 1.73,-3.003L30.27,7.753c0.952,-0.552 2.509,-0.552 3.461,0L52.27,18.497C53.222,19.049 54,20.4 54,21.5V43z"
      fill="#4285F4"/>
  <path
     d="M36.765,25.381m-2.231,0a2.231,2.231 0,1 1,4.462 0a2.231,2.231 0,1 1,-4.462 0"

      fill="#D1D1D1"
        style= "stroke-opacity=0.7"/>
  <path
     d="M39.731,38.745h0.009l-5.509,-5.502l-2.152,2.155l5.472,5.47c0.276,0.298 0.669,0.481 1.112,0.481c0.835,0 1.52,-0.682 1.52,-1.525C40.182,39.403 40.01,39.021 39.731,38.745z"

      fill="#D1D1D1"
        style= "stroke-opacity=0.7"/>
  <path
     d="M34.231,33.243c-0.598,-0.599 -1.194,-1.201 -1.793,-1.797c-0.21,-0.213 -0.498,-0.22 -0.708,-0.008c-0.114,0.112 -0.224,0.222 -0.333,0.332c-0.403,0.403 -0.803,0.802 -1.201,1.2c-0.522,0.524 -1.048,1.048 -1.57,1.57c-0.289,0.29 -0.626,0.495 -1.034,0.562c-0.492,0.078 -1,-0.058 -1.381,-0.368c-0.141,-0.105 -0.259,-0.237 -0.381,-0.364c-0.204,-0.201 -0.403,-0.403 -0.607,-0.607c-0.364,-0.361 -0.73,-0.831 -1.23,-0.988c-0.478,-0.158 -1.008,-0.062 -1.402,0.249c-0.384,0.301 -0.605,0.772 -0.588,1.259c0.015,0.391 0.186,0.759 0.46,1.033c0.136,0.137 0.274,0.275 0.412,0.413c0.335,0.34 0.671,0.673 1.006,1.014c0.629,0.624 1.41,1.078 2.271,1.288c0.976,0.245 2.019,0.176 2.953,-0.199c0.449,-0.177 0.87,-0.432 1.247,-0.733c0.23,-0.189 0.436,-0.403 0.647,-0.614c0.351,-0.354 0.705,-0.711 1.057,-1.062c0.008,-0.009 0.015,-0.016 0.024,-0.023c0.007,0.008 0.02,0.015 0.022,0.023c-0.038,-0.044 0.177,-0.206 0.204,-0.232c0.19,-0.171 0.386,-0.328 0.593,-0.479c0.492,-0.348 1.099,-0.688 1.726,-0.639c0.342,0.026 0.62,0.188 0.864,0.427C35.071,34.08 34.652,33.66 34.231,33.243z"

        fill="#FFFFFF"
        style= "stroke-opacity=0.7"/>
  <path
     d="M42,28.692c0,-0.859 -0.733,-1.565 -1.589,-1.535c-0.43,0.018 -0.784,0.213 -1.085,0.507c-0.13,0.134 -0.266,0.27 -0.392,0.401c-0.621,0.618 -1.245,1.24 -1.866,1.861c-0.004,0.001 -0.004,0.001 -0.004,0.006c-0.32,-0.32 -0.642,-0.643 -0.956,-0.961c-0.376,-0.372 -0.739,-0.758 -1.176,-1.056c-0.842,-0.579 -1.855,-0.877 -2.872,-0.851c-1.011,0.028 -2,0.373 -2.806,0.984c-0.048,0.033 -0.092,0.068 -0.141,0.107c0.386,-0.278 0.917,-0.104 1.303,0.074c0.554,0.26 1.056,0.636 1.532,1.023c0.585,0.485 1.129,1.029 1.664,1.562c0.38,0.381 0.757,0.761 1.143,1.142c0.099,0.097 0.178,0.189 0.278,0.285c0.314,0.316 0.688,0.562 1.109,0.706c0.48,0.166 1.002,0.201 1.498,0.104c0.248,-0.047 0.489,-0.131 0.717,-0.24c0.158,-0.084 0.344,-0.176 0.471,-0.303c0.235,-0.237 0.472,-0.472 0.706,-0.706c0.672,-0.676 1.349,-1.346 2.021,-2.016C41.836,29.498 42,29.1 42,28.692C42,27.846 42,29.117 42,28.692z"

      fill="#FFFFFF"
        style= "stroke-opacity=0.7"/>
  <path
     d="M29.112,28.157c-0.307,0.25 -0.583,0.548 -0.864,0.833c-0.398,0.395 -0.798,0.799 -1.197,1.197c-0.091,0.094 -0.188,0.188 -0.282,0.28c-0.34,0.327 -0.518,0.796 -0.467,1.267c0.096,0.937 1.054,1.579 1.962,1.312c0.478,-0.141 0.787,-0.522 1.129,-0.862c0.404,-0.403 0.807,-0.802 1.208,-1.208c0.228,-0.229 0.445,-0.473 0.732,-0.626c0.316,-0.171 0.68,-0.241 1.037,-0.206c0.366,0.037 0.671,0.195 0.962,0.407c-0.594,-0.631 -1.252,-1.228 -1.958,-1.736c-0.381,-0.277 -0.793,-0.543 -1.245,-0.699C29.805,28.003 29.413,27.941 29.112,28.157C29.095,28.175 30.29,27.302 29.112,28.157z"

      fill="#D1D1D1"
        style= "stroke-opacity=0.7"/>
</svg>
