<?xml version="1.0" encoding="utf-8"?>
<svg version="1.1" id="Layer_1" xmlns="http://www.w3.org/2000/svg" xmlns:xlink="http://www.w3.org/1999/xlink"
    width="475"
    height="150.25"
  viewBox="0 0 475 150.25">
  <path
      d="M361.357,48h-24.286c-1.429,0 -2.857,1.429 -3.571,2.857l-10,62.858c0,1.428 0.714,2.143 2.143,2.143L338.5,115.858c1.429,0 2.143,-0.715 2.143,-2.143L343.5,95.857c0,-1.429 1.429,-2.857 3.571,-2.857h7.857c16.429,0 25.714,-7.857 27.857,-23.571c1.428,-6.429 0,-12.143 -2.857,-15.714C375.643,50.143 369.214,48 361.357,48M364.214,71.571c-1.428,8.571 -7.856,8.571 -14.285,8.571h-4.286L348.5,63.714c0,-0.714 0.714,-1.429 2.143,-1.429h1.429c4.286,0 8.571,0 10.715,2.857C364.214,65.857 364.214,68 364.214,71.571"
     fill="#139AD6"/>
  <path
      d="M186.357,48h-24.286c-1.428,0 -2.857,1.429 -3.571,2.857l-10,62.858c0,1.428 0.714,2.143 2.143,2.143h11.428c1.429,0 2.857,-1.429 3.572,-2.857L168.5,95.857c0,-1.429 1.429,-2.857 3.571,-2.857h7.857c16.428,0 25.714,-7.857 27.857,-23.571c1.429,-6.429 0,-12.143 -2.857,-15.714C200.643,50.143 194.929,48 186.357,48M189.214,71.571c-1.429,8.571 -7.857,8.571 -14.286,8.571h-3.572l2.857,-16.428c0,-0.714 0.714,-1.429 2.143,-1.429h1.429c4.286,0 8.571,0 10.714,2.857C189.214,65.857 189.929,68 189.214,71.571"
     fill="#263B80"/>
  <path
      d="M259.929,70.857L248.5,70.857c-0.715,0 -2.143,0.714 -2.143,1.429l-0.715,3.571l-0.714,-1.428c-2.857,-3.572 -7.857,-5 -13.571,-5c-12.857,0 -24.286,10 -26.429,23.571c-1.429,7.143 0.714,13.571 4.286,17.857c3.571,4.285 8.571,5.714 15,5.714c10.714,0 16.428,-6.429 16.428,-6.429l-0.714,3.572c0,1.428 0.714,2.143 2.143,2.143h10.714c1.43,0 2.857,-1.429 3.572,-2.857l6.428,-40C262.071,72.286 260.643,70.857 259.929,70.857M243.5,93.715c-1.429,6.428 -6.429,11.428 -13.571,11.428c-3.572,0 -6.429,-1.428 -7.857,-2.857c-1.428,-2.143 -2.143,-5 -2.143,-8.57c0.714,-6.43 6.428,-11.43 12.857,-11.43c3.571,0 5.714,1.43 7.857,2.857C242.785,87.285 243.5,90.857 243.5,93.715"
     fill="#263B80"/>
  <path
      d="M434.214,70.857h-11.428c-0.715,0 -2.144,0.714 -2.144,1.429l-0.714,3.571l-0.715,-1.428c-2.856,-3.572 -7.856,-5 -13.571,-5c-12.856,0 -24.285,10 -26.429,23.571c-1.428,7.143 0.715,13.571 4.286,17.857c3.571,4.285 8.571,5.714 15,5.714c10.714,0 16.429,-6.429 16.429,-6.429l-0.715,3.572c0,1.428 0.715,2.143 2.144,2.143h10.714c1.429,0 2.857,-1.429 3.571,-2.857l6.429,-40C436.357,72.286 435.643,70.857 434.214,70.857M417.786,93.715c-1.429,6.428 -6.429,11.428 -13.572,11.428c-3.571,0 -6.428,-1.428 -7.856,-2.857c-1.429,-2.143 -2.144,-5 -2.144,-8.57c0.715,-6.43 6.429,-11.43 12.857,-11.43c3.571,0 5.715,1.43 7.857,2.857C417.786,87.285 418.5,90.857 417.786,93.715"
     fill="#139AD6"/>
  <path
      d="M322.071,70.857h-12.143c-1.429,0 -2.143,0.714 -2.857,1.429l-15.714,24.286l-7.144,-22.857c-0.714,-1.429 -1.428,-2.143 -3.571,-2.143h-11.428c-1.43,0 -2.144,1.429 -2.144,2.857l12.857,37.856l-12.144,17.144c-0.714,1.429 0,3.571 1.43,3.571h11.428c1.429,0 2.144,-0.715 2.857,-1.429l39.286,-56.428C324.929,73 323.5,70.857 322.071,70.857"
     fill="#263B80"/>
  <path
      d="M447.786,50.143l-10,64.286c0,1.429 0.714,2.143 2.143,2.143h10c1.429,0 2.857,-1.429 3.571,-2.856l10,-62.858c0,-1.428 -0.714,-2.143 -2.143,-2.143h-11.429C449.214,48 448.5,48.714 447.786,50.143"
     fill="#139AD6"/>
  <path
      d="M95.643,26.571c-5,-5.714 -14.286,-8.571 -27.143,-8.571h-35.714c-2.143,0 -4.286,2.143 -5,4.286L13.5,115.857c0,2.143 1.429,3.571 2.857,3.571L38.5,119.428l5.714,-35v1.429c0.714,-2.143 2.857,-4.286 5,-4.286h10.714c20.714,0 36.428,-8.571 41.428,-32.143c0,-0.714 0,-1.429 0,-2.143c-0.714,0 -0.714,0 0,0C102.071,38 100.643,32.286 95.643,26.571"
     fill="#263B80"/>
  <path
      d="M100.643,47.286L100.643,47.286c0,0.714 0,1.429 0,2.143c-5,24.286 -20.714,32.143 -41.429,32.143L48.5,81.572c-2.143,0 -4.286,2.144 -5,4.286l-7.143,43.571c0,1.429 0.714,2.856 2.857,2.856h18.571c2.143,0 4.286,-1.428 4.286,-3.57L62.071,128l3.572,-22.143v-1.429c0,-2.144 2.143,-3.571 4.286,-3.571h2.857c17.857,0 32.143,-7.143 35.714,-28.572c1.429,-8.571 0.714,-16.429 -3.571,-21.429C104.214,49.429 102.786,48 100.643,47.286"
     fill="#139AD6"/>
  <path
      d="M95.643,45.143c-0.714,0 -1.429,-0.714 -2.143,-0.714s-1.429,0 -2.143,-0.714c-2.857,-0.714 -5.714,-0.714 -9.286,-0.714h-27.857c-0.714,0 -1.429,0 -2.143,0.714c-1.428,0.714 -2.143,2.143 -2.143,3.571l-5.714,37.143v1.429c0.714,-2.143 2.857,-4.286 5,-4.286h10.714c20.714,0 36.428,-8.571 41.428,-32.143c0,-0.714 0,-1.429 0.714,-2.143c-1.428,-0.714 -2.143,-1.428 -3.571,-1.428C96.357,45.143 96.357,45.143 95.643,45.143"
     fill="#232C65"/>
</svg>
