<?xml version="1.0" encoding="utf-8"?>
<svg version="1.1" id="Layer_1" xmlns="http://www.w3.org/2000/svg" xmlns:xlink="http://www.w3.org/1999/xlink"
    width="64"
    height="64"
     viewBox="0 0 64 64">
  <path
      d="M31.667,32m-28.48,0a28.48,28.48 0,1 1,56.96 0a28.48,28.48 0,1 1,-56.96 0"

    fill="#B71C1C"
     style= "fill-opacity=0.2"/>
  <path
      d="M31.668,32m-24,0a24,24 0,1 1,48 0a24,24 0,1 1,-48 0"
    fill="#B71C1C"/>
  <path
      d="M22.804,23.712c-0.008,0.67 0.405,1.273 1.032,1.508v-2.872c0,-0.041 0.021,-0.103 0.021,-0.144C23.225,22.437 22.805,23.038 22.804,23.712z"
    fill="#FFFFFF"/>
  <path
      d="M28.443,27.266h-2.706l1.013,3.678c0.149,0.561 0.658,0.951 1.239,0.95c0.413,0.005 0.805,-0.187 1.054,-0.517c0.252,-0.313 0.33,-0.732 0.207,-1.115L28.443,27.266z"
    fill="#FFFFFF"/>
  <path
      d="M23.857,22.183h0.021v-0.021C23.878,22.183 23.878,22.183 23.857,22.183z"
    fill="#FFFFFF"/>
  <path
      d="M38.671,21.894h-0.166v3.72h0.166c1.027,0 1.859,-0.833 1.859,-1.86C40.53,22.727 39.698,21.894 38.671,21.894z"
    fill="#FFFFFF"/>
  <path
      d="M24.457,22.348v2.935c0.021,0.76 0.645,1.363 1.404,1.363h3.76v-5.578h-3.76C25.117,21.067 24.457,21.604 24.457,22.348z"
    fill="#FFFFFF"/>
  <path
      d="M30.242,26.729l7.644,3.057l0,-11.942l-7.644,3.057z"
    fill="#FFFFFF"/>
  <path
      d="M30.929,47.916v-7.74c-0.088,0.048 -0.188,0.097 -0.3,0.145s-0.23,0.098 -0.354,0.149c-0.124,0.053 -0.244,0.103 -0.36,0.15c-0.116,0.048 -0.222,0.096 -0.318,0.144v-1.487c0.088,-0.049 0.212,-0.114 0.372,-0.198c0.16,-0.084 0.332,-0.178 0.516,-0.282c0.184,-0.104 0.356,-0.21 0.516,-0.318c0.16,-0.107 0.28,-0.201 0.36,-0.281h1.572v9.72H30.929z"
    fill="#FFFFFF"/>
</svg>
