<?xml version="1.0" encoding="utf-8"?>
<svg version="1.1" id="Layer_1" xmlns="http://www.w3.org/2000/svg" xmlns:xlink="http://www.w3.org/1999/xlink"
    width="64"
    height="64"
     viewBox="0 0 64 64">
  <path
     d="M31.667,32m-28.48,0a28.48,28.48 0,1 1,56.96 0a28.48,28.48 0,1 1,-56.96 0"

      fill="#827717"
       style= "fill-opacity=0.2"/>
  <path
     d="M31.668,32m-24,0a24,24 0,1 1,48 0a24,24 0,1 1,-48 0"
      fill="#827717"/>
  <path
     d="M22.804,23.712c-0.008,0.67 0.405,1.273 1.032,1.508v-2.872c0,-0.041 0.021,-0.103 0.021,-0.144C23.225,22.437 22.805,23.038 22.804,23.712z"
      fill="#FFFFFF"/>
  <path
     d="M28.443,27.266h-2.706l1.013,3.678c0.149,0.561 0.658,0.951 1.239,0.95c0.413,0.005 0.805,-0.187 1.054,-0.517c0.252,-0.313 0.33,-0.732 0.207,-1.115L28.443,27.266z"
      fill="#FFFFFF"/>
  <path
     d="M23.857,22.183h0.021v-0.021C23.878,22.183 23.878,22.183 23.857,22.183z"
      fill="#FFFFFF"/>
  <path
     d="M38.671,21.894h-0.166v3.72h0.166c1.027,0 1.859,-0.833 1.859,-1.86C40.53,22.727 39.698,21.894 38.671,21.894z"
      fill="#FFFFFF"/>
  <path
     d="M24.457,22.348v2.935c0.021,0.76 0.645,1.363 1.404,1.363h3.76v-5.578h-3.76C25.117,21.067 24.457,21.604 24.457,22.348z"
      fill="#FFFFFF"/>
  <path
     d="M30.242,26.729l7.644,3.057l0,-11.942l-7.644,3.057z"
      fill="#FFFFFF"/>
  <path
     d="M23.055,47.916V46.5l2.327,-3.576c0.177,-0.264 0.343,-0.52 0.498,-0.768c0.156,-0.248 0.284,-0.5 0.384,-0.756s0.15,-0.524 0.15,-0.805c0,-0.279 -0.057,-0.487 -0.168,-0.624c-0.112,-0.136 -0.264,-0.204 -0.456,-0.204c-0.216,0 -0.384,0.061 -0.504,0.181s-0.202,0.28 -0.246,0.479c-0.044,0.2 -0.065,0.425 -0.065,0.672v0.48h-1.945v-0.516c0,-0.576 0.093,-1.091 0.277,-1.542c0.184,-0.452 0.475,-0.809 0.875,-1.068s0.924,-0.39 1.572,-0.39c0.872,0 1.53,0.226 1.975,0.678c0.443,0.452 0.666,1.082 0.666,1.89c0,0.393 -0.063,0.756 -0.187,1.092s-0.288,0.662 -0.492,0.979s-0.422,0.646 -0.653,0.99l-1.776,2.651h2.844v1.572H23.055z"
      fill="#FFFFFF"/>
  <path
     d="M31.789,48.096c-0.711,0 -1.249,-0.126 -1.613,-0.378c-0.363,-0.252 -0.609,-0.605 -0.738,-1.062c-0.127,-0.456 -0.191,-0.984 -0.191,-1.584h1.932c0,0.368 0.02,0.668 0.061,0.899c0.039,0.232 0.113,0.398 0.223,0.498c0.107,0.101 0.262,0.146 0.461,0.139c0.209,-0.008 0.355,-0.092 0.443,-0.252s0.143,-0.391 0.162,-0.69c0.021,-0.3 0.031,-0.662 0.031,-1.086c0,-0.32 -0.02,-0.604 -0.055,-0.853c-0.035,-0.247 -0.107,-0.445 -0.217,-0.594c-0.107,-0.147 -0.27,-0.222 -0.484,-0.222c-0.201,0 -0.365,0.072 -0.492,0.216c-0.129,0.145 -0.221,0.368 -0.276,0.672h-1.728l0.18,-5.604h4.535v1.68h-2.928l-0.107,2.004c0.08,-0.111 0.231,-0.21 0.455,-0.294c0.225,-0.084 0.465,-0.138 0.721,-0.162c0.496,-0.056 0.914,0.034 1.254,0.271c0.34,0.235 0.596,0.594 0.768,1.073c0.172,0.48 0.258,1.068 0.258,1.765c0,0.52 -0.031,0.998 -0.096,1.434c-0.064,0.437 -0.188,0.813 -0.371,1.128c-0.186,0.316 -0.453,0.563 -0.805,0.738S32.357,48.096 31.789,48.096z"
      fill="#FFFFFF"/>
  <path
     d="M38.137,48.096c-0.584,0 -1.072,-0.118 -1.463,-0.354c-0.393,-0.236 -0.689,-0.563 -0.889,-0.979s-0.299,-0.899 -0.299,-1.451v-4.404c0,-0.568 0.094,-1.066 0.281,-1.494s0.479,-0.762 0.869,-1.002c0.393,-0.24 0.893,-0.36 1.5,-0.36c0.609,0 1.107,0.12 1.494,0.36c0.389,0.24 0.676,0.574 0.865,1.002c0.188,0.428 0.281,0.926 0.281,1.494v4.404c0,0.544 -0.1,1.025 -0.301,1.445c-0.199,0.42 -0.496,0.748 -0.887,0.984C39.197,47.978 38.713,48.096 38.137,48.096zM38.137,46.308c0.193,0 0.33,-0.062 0.414,-0.186s0.137,-0.268 0.156,-0.432s0.031,-0.307 0.031,-0.427v-4.308c0,-0.136 -0.01,-0.29 -0.025,-0.462s-0.066,-0.324 -0.15,-0.456s-0.225,-0.198 -0.426,-0.198c-0.199,0 -0.342,0.066 -0.426,0.198s-0.133,0.284 -0.15,0.456c-0.016,0.172 -0.023,0.326 -0.023,0.462v4.308c0,0.12 0.012,0.263 0.037,0.427c0.023,0.164 0.078,0.308 0.162,0.432S37.953,46.308 38.137,46.308z"
      fill="#FFFFFF"/>
</svg>
