<?xml version="1.0" encoding="utf-8"?>
<svg version="1.1" id="Layer_1" xmlns="http://www.w3.org/2000/svg" xmlns:xlink="http://www.w3.org/1999/xlink"
    width="64"
    height="64"
     viewBox="0 0 64 64">
  <path
     d="M31.667,32m-28.48,0a28.48,28.48 0,1 1,56.96 0a28.48,28.48 0,1 1,-56.96 0"

      fill="#006064"
     style= "fill-opacity=0.2"/>
  <path
     d="M31.668,32m-24,0a24,24 0,1 1,48 0a24,24 0,1 1,-48 0"
      fill="#006064"/>
  <path
     d="M22.804,23.712c-0.008,0.67 0.405,1.273 1.032,1.508v-2.872c0,-0.041 0.021,-0.103 0.021,-0.144C23.225,22.437 22.805,23.038 22.804,23.712z"
      fill="#FFFFFF"/>
  <path
     d="M28.443,27.266h-2.706l1.013,3.678c0.149,0.561 0.658,0.951 1.239,0.95c0.413,0.005 0.805,-0.187 1.054,-0.517c0.252,-0.313 0.33,-0.732 0.207,-1.115L28.443,27.266z"
      fill="#FFFFFF"/>
  <path
     d="M23.857,22.183h0.021v-0.021C23.878,22.183 23.878,22.183 23.857,22.183z"
      fill="#FFFFFF"/>
  <path
     d="M38.671,21.894h-0.166v3.72h0.166c1.027,0 1.859,-0.833 1.859,-1.86C40.53,22.727 39.698,21.894 38.671,21.894z"
      fill="#FFFFFF"/>
  <path
     d="M24.457,22.348v2.935c0.021,0.76 0.645,1.363 1.404,1.363h3.76v-5.578h-3.76C25.117,21.067 24.457,21.604 24.457,22.348z"
      fill="#FFFFFF"/>
  <path
     d="M30.242,26.729l7.644,3.057l0,-11.942l-7.644,3.057z"
      fill="#FFFFFF"/>
  <path
     d="M28.706,48.096c-0.712,0 -1.25,-0.126 -1.614,-0.378c-0.363,-0.252 -0.609,-0.605 -0.738,-1.062c-0.127,-0.456 -0.191,-0.984 -0.191,-1.584h1.932c0,0.368 0.02,0.668 0.061,0.899c0.039,0.232 0.113,0.398 0.222,0.498c0.108,0.101 0.262,0.146 0.462,0.139c0.208,-0.008 0.355,-0.092 0.444,-0.252c0.088,-0.16 0.142,-0.391 0.161,-0.69c0.021,-0.3 0.031,-0.662 0.031,-1.086c0,-0.32 -0.019,-0.604 -0.055,-0.853c-0.036,-0.247 -0.107,-0.445 -0.216,-0.594c-0.108,-0.147 -0.271,-0.222 -0.486,-0.222c-0.2,0 -0.364,0.072 -0.491,0.216c-0.129,0.145 -0.221,0.368 -0.276,0.672h-1.728l0.18,-5.604h4.535v1.68H28.01l-0.107,2.004c0.08,-0.111 0.231,-0.21 0.455,-0.294c0.225,-0.084 0.465,-0.138 0.721,-0.162c0.496,-0.056 0.914,0.034 1.254,0.271c0.34,0.235 0.596,0.594 0.768,1.073c0.172,0.48 0.258,1.068 0.258,1.765c0,0.52 -0.031,0.998 -0.096,1.434c-0.064,0.437 -0.188,0.813 -0.371,1.128c-0.185,0.316 -0.453,0.563 -0.805,0.738S29.273,48.096 28.706,48.096z"
      fill="#FFFFFF"/>
  <path
     d="M35.055,48.096c-0.585,0 -1.072,-0.118 -1.465,-0.354c-0.393,-0.236 -0.688,-0.563 -0.888,-0.979s-0.3,-0.899 -0.3,-1.451v-4.404c0,-0.568 0.094,-1.066 0.281,-1.494s0.479,-0.762 0.87,-1.002s0.892,-0.36 1.501,-0.36c0.607,0 1.105,0.12 1.494,0.36c0.387,0.24 0.676,0.574 0.863,1.002s0.283,0.926 0.283,1.494v4.404c0,0.544 -0.102,1.025 -0.301,1.445c-0.201,0.42 -0.496,0.748 -0.889,0.984C36.115,47.978 35.631,48.096 35.055,48.096zM35.055,46.308c0.191,0 0.33,-0.062 0.414,-0.186s0.135,-0.268 0.156,-0.432c0.02,-0.164 0.029,-0.307 0.029,-0.427v-4.308c0,-0.136 -0.008,-0.29 -0.023,-0.462s-0.066,-0.324 -0.15,-0.456s-0.227,-0.198 -0.426,-0.198c-0.201,0 -0.342,0.066 -0.426,0.198s-0.135,0.284 -0.15,0.456c-0.017,0.172 -0.024,0.326 -0.024,0.462v4.308c0,0.12 0.012,0.263 0.036,0.427c0.023,0.164 0.078,0.308 0.162,0.432S34.871,46.308 35.055,46.308z"
      fill="#FFFFFF"/>
</svg>
