<?xml version="1.0" encoding="utf-8"?>
<svg version="1.1" id="Layer_1" xmlns="http://www.w3.org/2000/svg" xmlns:xlink="http://www.w3.org/1999/xlink"
    width="64"
    height="64"
     viewBox="0 0 64 64">
  <path
     d="M31.667,32m-28.48,0a28.48,28.48 0,1 1,56.96 0a28.48,28.48 0,1 1,-56.96 0"

      fill="#880E4F"
      style= "fill-opacity=0.2"/>
  <path
     d="M31.668,32m-24,0a24,24 0,1 1,48 0a24,24 0,1 1,-48 0"
    fill="#880E4F"/>
  <path
     d="M22.804,23.712c-0.008,0.67 0.405,1.273 1.032,1.508v-2.872c0,-0.041 0.021,-0.103 0.021,-0.144C23.225,22.437 22.805,23.038 22.804,23.712z"
    fill="#FFFFFF"/>
  <path
     d="M28.443,27.266h-2.706l1.013,3.678c0.149,0.561 0.658,0.951 1.239,0.95c0.413,0.005 0.805,-0.187 1.054,-0.517c0.252,-0.313 0.33,-0.732 0.207,-1.115L28.443,27.266z"
    fill="#FFFFFF"/>
  <path
     d="M23.857,22.183h0.021v-0.021C23.878,22.183 23.878,22.183 23.857,22.183z"
    fill="#FFFFFF"/>
  <path
     d="M38.671,21.894h-0.166v3.72h0.166c1.027,0 1.859,-0.833 1.859,-1.86C40.53,22.727 39.698,21.894 38.671,21.894z"
    fill="#FFFFFF"/>
  <path
     d="M24.457,22.348v2.935c0.021,0.76 0.645,1.363 1.404,1.363h3.76v-5.578h-3.76C25.117,21.067 24.457,21.604 24.457,22.348z"
    fill="#FFFFFF"/>
  <path
     d="M30.242,26.729l7.644,3.057l0,-11.942l-7.644,3.057z"
    fill="#FFFFFF"/>
  <path
     d="M32.006,48.096c-0.713,0 -1.25,-0.126 -1.614,-0.378s-0.61,-0.605 -0.737,-1.062c-0.129,-0.456 -0.192,-0.984 -0.192,-1.584h1.933c0,0.368 0.02,0.668 0.059,0.899c0.041,0.232 0.115,0.398 0.223,0.498c0.107,0.101 0.262,0.146 0.462,0.139c0.208,-0.008 0.356,-0.092 0.444,-0.252s0.142,-0.391 0.162,-0.69c0.02,-0.3 0.029,-0.662 0.029,-1.086c0,-0.32 -0.018,-0.604 -0.054,-0.853c-0.036,-0.247 -0.108,-0.445 -0.216,-0.594c-0.107,-0.147 -0.27,-0.222 -0.486,-0.222c-0.199,0 -0.363,0.072 -0.492,0.216c-0.127,0.145 -0.22,0.368 -0.275,0.672h-1.729l0.18,-5.604h4.537v1.68H31.31l-0.108,2.004c0.08,-0.111 0.232,-0.21 0.457,-0.294c0.224,-0.084 0.463,-0.138 0.72,-0.162c0.495,-0.056 0.913,0.034 1.254,0.271c0.34,0.235 0.596,0.594 0.769,1.073c0.172,0.48 0.258,1.068 0.258,1.765c0,0.52 -0.032,0.998 -0.096,1.434c-0.064,0.437 -0.189,0.813 -0.373,1.128c-0.184,0.316 -0.451,0.563 -0.804,0.738S32.574,48.096 32.006,48.096z"
    fill="#FFFFFF"/>
</svg>
