<?xml version="1.0" encoding="utf-8"?>
<svg version="1.1" id="Layer_1" xmlns="http://www.w3.org/2000/svg" xmlns:xlink="http://www.w3.org/1999/xlink"
    width="64"
    height="64"
     viewBox="0 0 64 64">
  <path
     d="M40.091,15.646c-0.165,-0.455 0.332,-1.231 0.766,-1.192c0.245,0.021 0.425,0.104 0.538,0.31c0.101,0.183 0.034,0.364 -0.079,0.519c-0.136,0.185 -0.303,0.348 -0.438,0.533C40.649,16.131 40.263,16.021 40.091,15.646z"
      fill="#FFC797"/>
  <path
     d="M32.175,11.945c0.278,-0.111 0.616,0.033 0.715,0.307c0.098,0.27 -0.082,0.744 -0.319,0.837c-0.292,0.116 -0.614,-0.032 -0.733,-0.337C31.714,12.434 31.866,12.069 32.175,11.945z"
      fill="#EC6C5B"/>
  <path
     d="M51.215,20.996c-0.255,0.098 -0.531,-0.035 -0.643,-0.309c-0.124,-0.305 0.02,-0.664 0.312,-0.781c0.271,-0.109 0.572,0.021 0.684,0.293C51.69,20.504 51.526,20.877 51.215,20.996z"
      fill="#EC6C5B"/>
  <path
     d="M51.069,6.431c0.118,0.327 0.014,0.612 -0.266,0.72c-0.275,0.105 -0.619,-0.072 -0.717,-0.371c-0.088,-0.264 0.08,-0.601 0.352,-0.705C50.718,5.966 50.949,6.098 51.069,6.431z"
      fill="#EC6C5B"/>
  <path
     d="M43.238,16.766c-0.246,0.088 -0.475,-0.033 -0.567,-0.299c-0.096,-0.275 0.011,-0.518 0.272,-0.619c0.263,-0.1 0.518,0.016 0.614,0.279C43.647,16.377 43.5,16.672 43.238,16.766z"
      fill="#FFC797"/>
  <path
     d="M43.185,13.689c-0.307,-0.965 -0.264,-1.971 0.05,-2.961c0.448,-1.414 1.159,-2.693 2.106,-3.833c0.477,-0.573 1.038,-1.052 1.753,-1.317c0.23,-0.085 0.468,-0.125 0.714,-0.105c0.116,0.01 0.228,0.036 0.326,0.104c0.262,0.178 0.263,0.447 -0.033,0.557c-1.074,0.396 -1.734,1.234 -2.326,2.143c-0.797,1.226 -1.432,2.533 -1.902,3.917c-0.172,0.505 -0.262,1.028 -0.334,1.556c-0.016,0.119 0.023,0.308 -0.123,0.328c-0.162,0.023 -0.133,-0.18 -0.191,-0.282C43.213,13.773 43.208,13.75 43.185,13.689z"
      fill="#81A8B8"/>
  <path
     d="M46.991,14.17c0.773,-0.328 1.586,-0.482 2.424,-0.5c0.858,-0.02 1.709,0.046 2.533,0.309c0.784,0.25 1.482,0.643 2.014,1.289c0.059,0.071 0.114,0.145 0.168,0.22c0.035,0.048 0.068,0.109 0.034,0.159c-0.047,0.068 -0.123,0.047 -0.19,0.021c-0.235,-0.094 -0.467,-0.2 -0.709,-0.279c-1.725,-0.561 -3.479,-0.715 -5.258,-0.306c-0.85,0.196 -1.637,0.562 -2.369,1.036c-0.138,0.089 -0.277,0.168 -0.434,0.213c-0.295,0.082 -0.445,-0.057 -0.4,-0.362c0.025,-0.18 0.127,-0.321 0.237,-0.454c0.328,-0.397 0.739,-0.693 1.175,-0.961C46.462,14.403 46.722,14.278 46.991,14.17z"
      fill="#81A8B8"/>
  <path
     d="M50.228,9.533c0.063,0.172 -0.021,0.426 -0.201,0.547c-0.145,0.095 -0.296,0.186 -0.456,0.246c-1.755,0.648 -3.272,1.681 -4.683,2.887c-0.072,0.063 -0.141,0.215 -0.244,0.139c-0.121,-0.088 0,-0.213 0.046,-0.309c0.726,-1.484 1.78,-2.646 3.284,-3.385c0.477,-0.232 0.976,-0.342 1.484,-0.432c0.213,-0.038 0.44,-0.043 0.627,0.115C50.148,9.395 50.202,9.453 50.228,9.533z"
      fill="#FFC797"/>
  <path
     d="M38.63,22.035c-0.085,-0.27 -0.091,-0.555 -0.041,-0.844c0.14,-0.798 0.471,-1.518 0.914,-2.188c0.428,-0.65 0.969,-1.202 1.543,-1.721c0.018,-0.015 0.037,-0.028 0.055,-0.044c0.06,-0.057 0.123,-0.118 0.209,-0.053c0.08,0.064 0.039,0.146 0.014,0.223c-0.023,0.065 -0.048,0.13 -0.074,0.193c-0.392,0.95 -0.782,1.9 -1.176,2.849c-0.115,0.277 -0.227,0.556 -0.305,0.847c-0.063,0.234 -0.119,0.469 -0.082,0.717c0.026,0.186 -0.027,0.344 -0.2,0.441c-0.177,0.099 -0.354,0.088 -0.526,-0.014C38.804,22.35 38.706,22.209 38.63,22.035z"
      fill="#EC6C5B"/>
  <path
     d="M38.438,15.311c-0.085,0.129 -0.204,0.117 -0.316,0.118c-0.642,0.005 -1.206,0.259 -1.771,0.529c-0.613,0.294 -1.212,0.61 -1.784,0.978c-0.312,0.201 -0.599,0.428 -0.861,0.688c-0.213,0.212 -0.358,0.241 -0.548,0.124c-0.164,-0.1 -0.24,-0.318 -0.172,-0.553c0.104,-0.366 0.326,-0.658 0.606,-0.908c0.433,-0.387 0.933,-0.666 1.444,-0.936c0.52,-0.273 1.061,-0.443 1.637,-0.508c0.514,-0.057 1.012,0.004 1.482,0.236C38.269,15.136 38.378,15.195 38.438,15.311z"
      fill="#FFC797"/>
  <path
     d="M43.816,4.802c0.192,-0.069 0.412,-0.029 0.521,0.101c0.124,0.148 0.136,0.32 0.048,0.485c-0.146,0.274 -0.313,0.539 -0.46,0.813c-0.637,1.177 -1.27,2.356 -1.904,3.534c-0.076,0.143 -0.157,0.282 -0.238,0.422c-0.024,0.039 -0.064,0.07 -0.115,0.055c-0.047,-0.014 -0.078,-0.048 -0.078,-0.101c0,-0.115 -0.004,-0.231 0.002,-0.346c0.084,-1.602 0.644,-3.034 1.554,-4.339C43.323,5.169 43.531,4.936 43.816,4.802z"
      fill="#EC6C5B"/>
  <path
     d="M39.843,14.303c0.053,0.141 0.12,0.277 0.151,0.422c0.021,0.093 -0.051,0.161 -0.15,0.101c-0.107,-0.065 -0.204,-0.149 -0.302,-0.229c-0.783,-0.646 -1.57,-1.286 -2.438,-1.818c-0.365,-0.225 -0.752,-0.4 -1.189,-0.439c-0.168,-0.015 -0.318,-0.07 -0.367,-0.26c-0.047,-0.177 0.029,-0.313 0.151,-0.432c0.157,-0.152 0.352,-0.213 0.564,-0.23c0.62,-0.051 1.153,0.193 1.654,0.514C38.831,12.514 39.443,13.277 39.843,14.303z"
      fill="#81A8B8"/>
  <path
     d="M40.125,11.764c-0.391,-1.223 -0.54,-2.402 -0.306,-3.611c0.035,-0.182 0.085,-0.36 0.178,-0.523c0.071,-0.123 0.16,-0.226 0.295,-0.281c0.252,-0.104 0.461,-0.015 0.561,0.236C40.9,7.707 40.895,7.832 40.89,7.96c-0.066,1.569 -0.123,3.139 0.059,4.705c0,0.012 0.005,0.022 0.004,0.034c-0.006,0.098 0.051,0.23 -0.08,0.27c-0.111,0.035 -0.146,-0.094 -0.197,-0.162C40.423,12.471 40.3,12.066 40.125,11.764z"
      fill="#FFC797"/>
  <path
     d="M35.888,21.371c-0.281,0.103 -0.578,-0.084 -0.644,-0.406c-0.04,-0.197 -0.021,-0.398 0.06,-0.579c0.596,-1.354 1.521,-2.331 3.047,-2.599c0.146,-0.025 0.299,-0.02 0.449,-0.017c0.076,0.002 0.18,-0.009 0.211,0.083c0.036,0.102 -0.068,0.129 -0.129,0.176c-0.01,0.007 -0.02,0.013 -0.029,0.02c-1.139,0.779 -1.988,1.815 -2.658,3.009C36.118,21.193 36.036,21.312 35.888,21.371z"
      fill="#81A8B8"/>
  <path
     d="M49.61,11.596c0.744,-0.268 1.51,-0.432 2.296,-0.494c0.37,-0.029 0.739,-0.008 1.097,0.105c0.154,0.049 0.305,0.11 0.428,0.221c0.109,0.1 0.178,0.22 0.133,0.37c-0.043,0.149 -0.159,0.222 -0.309,0.236c-0.115,0.011 -0.231,0.019 -0.346,0.013c-1.46,-0.066 -2.875,0.193 -4.271,0.586c-0.303,0.084 -0.578,0.23 -0.863,0.357c-0.049,0.022 -0.111,0.063 -0.158,0.008c-0.063,-0.074 0.008,-0.125 0.053,-0.173c0.498,-0.534 1.107,-0.899 1.779,-1.169C49.502,11.635 49.557,11.615 49.61,11.596z"
      fill="#646FB3"/>
  <path
     d="M50.697,18.551c0.059,0.164 0.063,0.317 -0.069,0.45c-0.126,0.124 -0.277,0.104 -0.421,0.057c-0.108,-0.036 -0.212,-0.091 -0.309,-0.153c-1.28,-0.822 -2.56,-1.647 -3.84,-2.473c-0.028,-0.018 -0.06,-0.035 -0.085,-0.059c-0.048,-0.041 -0.136,-0.066 -0.092,-0.156c0.03,-0.064 0.097,-0.054 0.152,-0.053c0.56,0.008 1.103,0.115 1.621,0.317c0.932,0.363 1.768,0.895 2.566,1.489C50.425,18.123 50.603,18.307 50.697,18.551z"
      fill="#EC6C5B"/>
  <path
     d="M44.411,17.789c-0.037,-0.098 -0.076,-0.195 -0.109,-0.293c-0.024,-0.075 -0.072,-0.162 0.016,-0.221c0.08,-0.052 0.15,0.008 0.22,0.053c0.89,0.566 1.737,1.184 2.431,1.99c0.143,0.166 0.287,0.332 0.428,0.5c0.038,0.043 0.076,0.088 0.105,0.137c0.158,0.258 0.172,0.485 0.022,0.641c-0.175,0.183 -0.392,0.178 -0.61,0.1c-0.208,-0.072 -0.4,-0.177 -0.567,-0.326c-0.695,-0.619 -1.292,-1.318 -1.745,-2.135c-0.078,-0.141 -0.131,-0.295 -0.195,-0.443C44.407,17.79 44.409,17.789 44.411,17.789z"
      fill="#FFC797"/>
  <path
     d="M41.802,21.907c-0.26,-0.833 -0.188,-1.771 0.17,-2.693c0.061,-0.153 0.156,-0.282 0.282,-0.39c0.157,-0.134 0.331,-0.155 0.517,-0.074c0.195,0.084 0.223,0.258 0.198,0.436c-0.065,0.459 -0.133,0.916 -0.144,1.379c-0.01,0.449 -0.021,0.9 -0.026,1.35c-0.003,0.313 0.013,0.625 0.136,0.92c0.031,0.076 0.057,0.164 -0.016,0.225c-0.074,0.062 -0.154,0.008 -0.227,-0.025C42.247,22.836 42.015,22.459 41.802,21.907z"
      fill="#81A8B8"/>
  <path
     d="M38.997,11.828c-0.216,-0.07 -0.297,-0.201 -0.391,-0.311c-0.475,-0.553 -0.943,-1.109 -1.447,-1.636c-0.449,-0.468 -0.904,-0.929 -1.473,-1.256c-0.115,-0.065 -0.221,-0.148 -0.184,-0.3C35.54,8.17 35.668,8.119 35.816,8.1c0.202,-0.027 0.39,0.018 0.574,0.094c0.271,0.111 0.499,0.291 0.715,0.484c0.712,0.636 1.229,1.408 1.586,2.288C38.798,11.229 38.938,11.482 38.997,11.828z"
      fill="#646FB3"/>
  <path
     d="M45.493,22.363c0.115,0.307 0.207,0.508 0.225,0.729c0.02,0.223 -0.049,0.377 -0.193,0.442s-0.311,0.011 -0.459,-0.15c-0.119,-0.13 -0.188,-0.289 -0.256,-0.448c-0.107,-0.255 -0.191,-0.518 -0.26,-0.786c-0.143,-0.558 -0.287,-1.114 -0.429,-1.673c-0.016,-0.061 -0.056,-0.143 0.03,-0.181c0.078,-0.035 0.125,0.04 0.166,0.089c0.365,0.435 0.65,0.92 0.913,1.421C45.343,22.02 45.437,22.243 45.493,22.363z"
      fill="#646FB3"/>
  <path
     d="M57,44.932c0,1.1 -0.776,2.456 -1.725,3.013L33.725,60.601c-0.949,0.557 -2.5,0.557 -3.449,0L8.725,47.944C7.775,47.388 7,46.031 7,44.932V19.568c0,-1.1 0.775,-2.456 1.725,-3.013L30.275,3.899c0.949,-0.557 2.5,-0.557 3.449,0l21.551,12.656C56.224,17.112 57,18.469 57,19.568V44.932z"

      fill="#4285F4"
       style= "fill-opacity=0.3"/>
  <path
     d="M54,43c0,1.1 -0.778,2.451 -1.73,3.003L33.73,56.747c-0.951,0.552 -2.51,0.552 -3.461,0L11.73,46.003C10.779,45.451 10,44.1 10,43V21.5c0,-1.1 0.779,-2.451 1.73,-3.003L30.27,7.753c0.951,-0.552 2.51,-0.552 3.461,0L52.27,18.497C53.222,19.049 54,20.4 54,21.5V43z"
      fill="#4285F4"/>
  <path
     d="M36.766,25.131m-2.231,0a2.231,2.231 0,1 1,4.462 0a2.231,2.231 0,1 1,-4.462 0"

      fill="#D1D1D1"
       style= "fill-opacity=0.7"/>
  <path
     d="M39.731,38.495h0.009l-5.51,-5.502l-2.152,2.155l5.473,5.47c0.275,0.298 0.668,0.481 1.111,0.481c0.835,0 1.52,-0.682 1.52,-1.525C40.182,39.153 40.01,38.771 39.731,38.495z"

      fill="#D1D1D1"
       style= "fill-opacity=0.7"/>
  <path
     d="M34.23,32.993c-0.598,-0.599 -1.193,-1.201 -1.793,-1.797c-0.21,-0.213 -0.497,-0.22 -0.707,-0.008c-0.115,0.112 -0.225,0.222 -0.334,0.332c-0.402,0.403 -0.803,0.802 -1.201,1.2c-0.521,0.524 -1.047,1.048 -1.57,1.57c-0.289,0.29 -0.626,0.495 -1.033,0.562c-0.492,0.078 -1,-0.058 -1.382,-0.368c-0.141,-0.105 -0.259,-0.237 -0.382,-0.364c-0.203,-0.201 -0.402,-0.403 -0.607,-0.607c-0.363,-0.361 -0.729,-0.831 -1.229,-0.988c-0.478,-0.158 -1.008,-0.062 -1.402,0.249c-0.384,0.301 -0.605,0.772 -0.588,1.259c0.015,0.391 0.187,0.759 0.46,1.033c0.137,0.137 0.274,0.275 0.412,0.413c0.336,0.34 0.672,0.673 1.006,1.014c0.63,0.624 1.41,1.078 2.271,1.288c0.977,0.245 2.02,0.176 2.953,-0.199c0.449,-0.177 0.87,-0.432 1.248,-0.733c0.23,-0.189 0.436,-0.403 0.646,-0.614c0.351,-0.354 0.705,-0.711 1.057,-1.062c0.008,-0.009 0.016,-0.016 0.023,-0.023c0.008,0.008 0.02,0.015 0.022,0.023c-0.038,-0.044 0.177,-0.206 0.204,-0.232c0.19,-0.171 0.386,-0.328 0.594,-0.479c0.491,-0.348 1.099,-0.688 1.725,-0.639c0.343,0.026 0.621,0.188 0.864,0.427C35.07,33.83 34.652,33.41 34.23,32.993z"

      fill="#FFFFFF"
       style= "fill-opacity=0.7"/>
  <path
     d="M42,28.442c0,-0.859 -0.733,-1.565 -1.589,-1.535c-0.43,0.018 -0.784,0.213 -1.085,0.507c-0.13,0.134 -0.266,0.27 -0.393,0.401c-0.62,0.618 -1.244,1.24 -1.865,1.861c-0.005,0.001 -0.005,0.001 -0.005,0.006c-0.319,-0.32 -0.642,-0.643 -0.956,-0.961c-0.377,-0.372 -0.738,-0.758 -1.176,-1.056c-0.843,-0.579 -1.855,-0.877 -2.873,-0.851c-1.01,0.028 -1.999,0.373 -2.806,0.984c-0.048,0.033 -0.093,0.068 -0.141,0.107c0.386,-0.278 0.917,-0.104 1.303,0.074c0.554,0.26 1.056,0.636 1.532,1.023c0.585,0.485 1.129,1.029 1.663,1.562c0.38,0.381 0.757,0.761 1.143,1.142c0.099,0.097 0.179,0.189 0.278,0.285c0.314,0.316 0.688,0.562 1.109,0.706c0.48,0.166 1.002,0.201 1.498,0.104c0.248,-0.047 0.488,-0.131 0.717,-0.24c0.158,-0.084 0.344,-0.176 0.471,-0.303c0.234,-0.237 0.472,-0.472 0.705,-0.706c0.672,-0.676 1.349,-1.346 2.021,-2.016C41.836,29.248 42,28.85 42,28.442C42,27.596 42,28.867 42,28.442z"

      fill="#FFFFFF"
       style= "fill-opacity=0.7"/>
  <path
     d="M29.112,27.907c-0.307,0.25 -0.583,0.548 -0.864,0.833c-0.398,0.395 -0.797,0.799 -1.197,1.197c-0.091,0.094 -0.188,0.188 -0.281,0.28c-0.34,0.327 -0.518,0.796 -0.467,1.267c0.096,0.937 1.054,1.579 1.961,1.312c0.479,-0.141 0.787,-0.522 1.129,-0.862c0.404,-0.403 0.807,-0.802 1.209,-1.208c0.228,-0.229 0.444,-0.473 0.731,-0.626c0.315,-0.171 0.68,-0.241 1.037,-0.206c0.366,0.037 0.671,0.195 0.962,0.407c-0.594,-0.631 -1.252,-1.228 -1.957,-1.736c-0.381,-0.277 -0.793,-0.543 -1.245,-0.699C29.805,27.753 29.413,27.691 29.112,27.907C29.095,27.925 30.289,27.052 29.112,27.907z"

      fill="#D1D1D1"
       style= "fill-opacity=0.7"/>
  <path
     d="M15.248,57.884c0.08,-0.053 0.04,-0.125 0.037,-0.186c-0.027,-0.57 -0.126,-1.13 -0.25,-1.686c-0.266,-1.189 -0.632,-2.35 -1.1,-3.476c-0.055,-0.13 -0.117,-0.256 -0.182,-0.38c-0.03,-0.06 -0.069,-0.115 -0.111,-0.166c-0.045,-0.057 -0.104,-0.086 -0.178,-0.059c-0.063,0.025 -0.085,0.082 -0.089,0.146c-0.006,0.108 0.016,0.213 0.043,0.317c0.098,0.383 0.242,0.75 0.372,1.123c0.4,1.148 0.811,2.295 1.174,3.455c0.075,0.243 0.135,0.49 0.203,0.735C15.185,57.771 15.186,57.841 15.248,57.884z"
      fill="#EC6C5B"/>
  <path
     d="M12.979,45.104c0.046,0.185 0.327,0.432 0.516,0.453c0.198,0.023 0.336,-0.111 0.349,-0.342c0.014,-0.226 -0.229,-0.529 -0.452,-0.566C13.122,44.603 12.912,44.835 12.979,45.104z"
      fill="#FFC797"/>
  <path
     d="M14,38.407c0.19,-0.051 0.309,-0.254 0.261,-0.451c-0.051,-0.21 -0.252,-0.328 -0.459,-0.269c-0.205,0.06 -0.307,0.242 -0.249,0.45C13.607,38.335 13.81,38.457 14,38.407z"
      fill="#EC6C5B"/>
  <path
     d="M11.824,45.304c-0.038,-0.166 -0.136,-0.287 -0.282,-0.367c-0.127,-0.07 -0.286,-0.057 -0.374,0.023c-0.098,0.091 -0.107,0.238 -0.043,0.385c0.079,0.182 0.229,0.275 0.4,0.334c0.179,0.061 0.33,-0.068 0.32,-0.258C11.845,45.382 11.832,45.343 11.824,45.304z"
      fill="#FFC797"/>
  <path
     d="M3.659,44.99c0.05,0.179 0.226,0.28 0.403,0.233c0.171,-0.046 0.285,-0.233 0.243,-0.402c-0.043,-0.177 -0.242,-0.289 -0.42,-0.236C3.706,44.637 3.609,44.812 3.659,44.99z"
      fill="#EC6C5B"/>
  <path
     d="M8.367,46.64c-0.517,0.153 -1.164,0.471 -1.714,0.971c-0.11,0.1 -0.204,0.213 -0.284,0.336c-0.055,0.086 -0.093,0.179 -0.108,0.278c-0.026,0.165 0.042,0.317 0.165,0.377c0.126,0.062 0.256,0.034 0.377,-0.097c0.178,-0.193 0.379,-0.357 0.588,-0.514C7.934,47.585 8.538,47.286 9.148,47c0.34,-0.159 0.693,-0.28 1.055,-0.38c0.061,-0.016 0.153,-0.018 0.146,-0.104c-0.009,-0.092 -0.104,-0.066 -0.164,-0.072C9.635,46.4 9.092,46.442 8.367,46.64z"
      fill="#81A8B8"/>
  <path
     d="M12.891,47.772c-0.074,-0.285 -0.175,-0.561 -0.331,-0.814c-0.027,-0.045 -0.057,-0.092 -0.096,-0.127c-0.037,-0.033 -0.077,-0.018 -0.089,0.032c-0.009,0.032 -0.006,0.066 -0.003,0.1c0.043,0.481 0.002,0.962 -0.011,1.442c-0.02,0.754 -0.035,1.51 -0.085,2.264c-0.006,0.086 -0.007,0.174 0.005,0.26c0.023,0.17 0.139,0.287 0.294,0.313c0.149,0.024 0.297,-0.058 0.374,-0.213c0.05,-0.103 0.076,-0.215 0.088,-0.327C13.137,49.718 13.12,48.74 12.891,47.772z"
      fill="#81A8B8"/>
  <path
     d="M18.6,42.492c-0.031,-0.125 -0.125,-0.187 -0.235,-0.226c-0.149,-0.055 -0.303,-0.045 -0.456,-0.029c-0.386,0.039 -0.741,0.172 -1.09,0.329c-0.815,0.369 -1.506,0.888 -2.006,1.643c-0.052,0.078 -0.097,0.159 -0.145,0.239c-0.021,0.037 -0.039,0.077 0,0.109c0.029,0.023 0.062,0.002 0.09,-0.018c0.021,-0.016 0.045,-0.028 0.066,-0.045c0.55,-0.422 1.163,-0.734 1.78,-1.041c0.553,-0.273 1.112,-0.525 1.727,-0.633c0.066,-0.012 0.128,-0.037 0.182,-0.08C18.593,42.677 18.624,42.595 18.6,42.492z"
      fill="#646FB3"/>
  <path
     d="M16.595,49.682c-0.065,-0.22 -0.152,-0.385 -0.251,-0.543c-0.498,-0.808 -1.095,-1.528 -1.864,-2.095c-0.199,-0.146 -0.415,-0.268 -0.645,-0.359c-0.043,-0.018 -0.091,-0.047 -0.123,0.011c-0.024,0.044 0.011,0.075 0.037,0.104c0.217,0.244 0.437,0.486 0.626,0.754c0.546,0.773 1.106,1.537 1.619,2.334c0.046,0.072 0.089,0.15 0.158,0.205c0.081,0.063 0.174,0.116 0.276,0.074c0.105,-0.042 0.164,-0.135 0.18,-0.248C16.622,49.827 16.618,49.733 16.595,49.682z"
      fill="#FFC797"/>
  <path
     d="M12.307,42.71c-0.183,-0.686 -0.439,-1.223 -0.797,-1.713c-0.091,-0.124 -0.196,-0.234 -0.355,-0.276c-0.12,-0.032 -0.226,-0.018 -0.309,0.081c-0.083,0.1 -0.106,0.211 -0.056,0.336c0.051,0.124 0.126,0.234 0.193,0.35c0.279,0.479 0.48,0.994 0.727,1.488c0.16,0.322 0.338,0.636 0.438,0.984c0.011,0.037 0.036,0.07 0.052,0.107c0.018,0.037 0.031,0.078 0.083,0.07c0.046,-0.006 0.063,-0.045 0.073,-0.085c0.045,-0.188 0.067,-0.381 0.061,-0.575C12.407,43.183 12.369,42.893 12.307,42.71z"
      fill="#FFC797"/>
  <path
     d="M13.771,48.535c0.144,0.359 0.272,0.724 0.381,1.096c0.215,0.737 0.4,1.482 0.505,2.245c0.015,0.105 0.04,0.209 0.065,0.313c0.022,0.092 0.078,0.158 0.175,0.173c0.095,0.015 0.17,-0.03 0.224,-0.104c0.084,-0.117 0.119,-0.254 0.136,-0.394c0.023,-0.188 0.003,-0.373 -0.02,-0.559c-0.106,-0.841 -0.456,-1.585 -0.915,-2.284c-0.105,-0.162 -0.229,-0.312 -0.346,-0.466c-0.024,-0.032 -0.05,-0.063 -0.077,-0.092c-0.032,-0.032 -0.066,-0.083 -0.116,-0.054C13.732,48.437 13.753,48.49 13.771,48.535z"
      fill="#646FB3"/>
  <path
     d="M15.973,41.415c-0.205,0.053 -0.381,0.164 -0.55,0.283c-0.361,0.256 -0.699,0.541 -0.98,0.885c-0.315,0.386 -0.525,0.82 -0.562,1.326c-0.003,0.039 -0.005,0.08 -0.007,0.119c0,0.034 0,0.069 0.036,0.087c0.045,0.022 0.077,-0.007 0.104,-0.035s0.051,-0.062 0.075,-0.094c0.572,-0.74 1.254,-1.368 1.993,-1.937c0.069,-0.053 0.142,-0.102 0.207,-0.158c0.126,-0.109 0.159,-0.23 0.102,-0.355c-0.055,-0.119 -0.181,-0.171 -0.343,-0.141C16.023,41.4 15.997,41.409 15.973,41.415z"
      fill="#81A8B8"/>
  <path
     d="M7.373,42.579c-0.095,0.02 -0.177,0.063 -0.242,0.135c-0.141,0.15 -0.086,0.334 0.112,0.381c0.02,0.006 0.04,0.007 0.061,0.008c0.485,0.021 0.922,0.21 1.355,0.402c0.615,0.272 1.187,0.616 1.678,1.082c0.05,0.049 0.11,0.142 0.181,0.093c0.091,-0.064 -0.007,-0.145 -0.037,-0.209c-0.377,-0.795 -1.001,-1.321 -1.805,-1.651c-0.254,-0.105 -0.514,-0.189 -0.785,-0.237C7.718,42.552 7.545,42.547 7.373,42.579z"
      fill="#81A8B8"/>
  <path
     d="M9.228,50.813c0.068,0.238 0.318,0.312 0.499,0.16c0.069,-0.057 0.112,-0.133 0.147,-0.212c0.195,-0.433 0.386,-0.866 0.481,-1.334c0.101,-0.487 0.094,-0.982 0.118,-1.476c0.002,-0.046 0.004,-0.1 -0.055,-0.114c-0.055,-0.015 -0.088,0.021 -0.115,0.062c-0.103,0.149 -0.172,0.317 -0.245,0.48c-0.253,0.561 -0.479,1.131 -0.69,1.708c-0.069,0.188 -0.137,0.377 -0.143,0.581C9.224,50.722 9.227,50.775 9.228,50.813z"
      fill="#FFC797"/>
  <path
     d="M5.453,46.748c0.119,-0.051 0.233,-0.107 0.353,-0.149c0.797,-0.278 1.614,-0.469 2.446,-0.604c0.105,-0.017 0.213,-0.025 0.317,-0.04c0.031,-0.005 0.07,-0.011 0.071,-0.055c0,-0.041 -0.035,-0.056 -0.066,-0.066c-0.081,-0.027 -0.164,-0.056 -0.247,-0.078c-0.598,-0.16 -1.202,-0.169 -1.805,-0.046C6.189,45.777 5.856,45.853 5.545,46c-0.109,0.052 -0.211,0.114 -0.3,0.196c-0.06,0.057 -0.106,0.12 -0.134,0.197c-0.037,0.107 -0.031,0.213 0.049,0.301C5.242,46.785 5.348,46.782 5.453,46.748z"
      fill="#646FB3"/>
  <path
     d="M17.969,48.616c-0.047,-0.126 -0.146,-0.242 -0.262,-0.346c-0.289,-0.26 -0.61,-0.479 -0.939,-0.685c-0.563,-0.35 -1.171,-0.616 -1.757,-0.924c-0.028,-0.016 -0.062,-0.024 -0.094,-0.034c-0.021,-0.007 -0.038,0.004 -0.051,0.02c-0.015,0.018 -0.015,0.041 -0.001,0.056c0.048,0.055 0.097,0.11 0.15,0.16c0.425,0.399 0.892,0.746 1.344,1.112c0.405,0.327 0.841,0.617 1.214,0.984c0.101,0.1 0.211,0.106 0.31,0.041C17.985,48.933 18.022,48.788 17.969,48.616z"
      fill="#EC6C5B"/>
  <path
     d="M18.633,44.745c0.198,-0.055 0.257,-0.254 0.128,-0.416c-0.095,-0.119 -0.229,-0.183 -0.369,-0.231c-0.321,-0.11 -0.657,-0.108 -0.99,-0.097c-0.423,0.016 -0.829,0.116 -1.21,0.308c-0.17,0.085 -0.311,0.208 -0.444,0.338c-0.028,0.028 -0.053,0.063 -0.037,0.107c0.017,0.049 0.063,0.042 0.102,0.038c0.119,-0.01 0.237,-0.022 0.357,-0.033c0.564,-0.045 1.131,-0.055 1.697,-0.061c0.194,-0.002 0.386,0.022 0.578,0.049C18.511,44.756 18.577,44.764 18.633,44.745z"
      fill="#FFC797"/>
  <path
     d="M6.073,44.888c0.036,0.088 0.105,0.157 0.217,0.164c0.092,0.006 0.186,0 0.278,-0.004c0.635,-0.023 1.264,0.055 1.891,0.137c0.179,0.023 0.357,0.049 0.535,0.066c0.047,0.004 0.115,0.037 0.14,-0.035c0.019,-0.06 -0.029,-0.102 -0.07,-0.135c-0.092,-0.076 -0.187,-0.15 -0.283,-0.221c-0.588,-0.427 -1.258,-0.52 -1.959,-0.47c-0.16,0.011 -0.315,0.062 -0.465,0.118c-0.115,0.043 -0.208,0.119 -0.266,0.23C6.069,44.782 6.057,44.826 6.073,44.888z"
      fill="#FFC797"/>
  <path
     d="M12.921,42.724c0.043,0.055 -0.001,0.174 0.101,0.17c0.077,-0.002 0.067,-0.104 0.085,-0.164c0.236,-0.838 0.571,-1.64 0.913,-2.438c0.044,-0.104 0.103,-0.204 0.117,-0.318c0.026,-0.186 -0.111,-0.294 -0.287,-0.229c-0.076,0.028 -0.14,0.078 -0.196,0.136c-0.115,0.114 -0.216,0.239 -0.287,0.384c-0.343,0.694 -0.555,1.418 -0.482,2.203C12.892,42.552 12.908,42.638 12.921,42.724z"
      fill="#EC6C5B"/>
  <path
     d="M10.666,42.87c-0.353,-0.967 -1.02,-1.546 -1.977,-1.803c-0.109,-0.029 -0.225,-0.036 -0.338,-0.023c-0.135,0.014 -0.238,0.098 -0.267,0.209c-0.036,0.135 0.028,0.252 0.178,0.285c0.538,0.119 1.005,0.39 1.467,0.674c0.274,0.168 0.514,0.381 0.729,0.619c0.027,0.03 0.056,0.059 0.084,0.087c0.028,0.027 0.055,0.063 0.102,0.049C10.674,42.958 10.678,42.907 10.666,42.87z"
      fill="#EC6C5B"/>
  <path
     d="M7.788,49.677c0.024,0.102 0.078,0.18 0.18,0.199c0.109,0.02 0.191,-0.033 0.249,-0.129c0.121,-0.199 0.245,-0.396 0.369,-0.595c0.326,-0.524 0.725,-0.989 1.158,-1.426c0.043,-0.043 0.082,-0.088 0.12,-0.134c0.019,-0.021 0.023,-0.049 0.009,-0.074c-0.022,-0.037 -0.057,-0.025 -0.088,-0.016c-0.013,0.004 -0.025,0.01 -0.037,0.016c-0.632,0.33 -1.224,0.709 -1.642,1.308c-0.115,0.165 -0.225,0.331 -0.295,0.521C7.771,49.456 7.753,49.566 7.788,49.677z"
      fill="#EC6C5B"/>
  <path
     d="M18.435,46.898c-0.027,-0.108 -0.096,-0.194 -0.18,-0.258c-0.654,-0.494 -1.375,-0.755 -2.206,-0.623c-0.021,0.003 -0.039,0.007 -0.06,0.011c-0.032,0.009 -0.067,0.016 -0.075,0.055c-0.012,0.051 0.028,0.072 0.063,0.088c0.151,0.07 0.305,0.135 0.456,0.205c0.527,0.242 1.054,0.486 1.581,0.729c0.054,0.025 0.111,0.049 0.169,0.062C18.366,47.204 18.483,47.079 18.435,46.898z"
      fill="#81A8B8"/>
  <path
     d="M48.913,36.636c0.172,0.848 0.555,2.415 1.033,4.199c0.479,1.785 0.931,3.333 1.205,4.153c-0.172,-0.848 -0.555,-2.414 -1.033,-4.199C49.641,39.004 49.188,37.456 48.913,36.636z"
      fill="#D0EAA7"/>
  <path
     d="M44.245,39.33c0.573,0.648 1.688,1.814 2.994,3.121s2.473,2.422 3.121,2.994c-0.573,-0.648 -1.688,-1.813 -2.995,-3.12C46.059,41.019 44.894,39.904 44.245,39.33z"
      fill="#D0EAA7"/>
  <path
     d="M41.55,43.999c0.82,0.274 2.368,0.728 4.153,1.205c1.785,0.479 3.353,0.861 4.2,1.033c-0.82,-0.274 -2.369,-0.727 -4.154,-1.205C43.965,44.554 42.397,44.172 41.55,43.999z"
      fill="#D0EAA7"/>
  <path
     d="M41.55,49.39c0.848,-0.173 2.415,-0.555 4.199,-1.033c1.785,-0.479 3.334,-0.931 4.154,-1.205c-0.848,0.173 -2.415,0.555 -4.2,1.033C43.918,48.662 42.37,49.115 41.55,49.39z"
      fill="#D0EAA7"/>
  <path
     d="M44.245,54.058c0.648,-0.572 1.813,-1.688 3.12,-2.994c1.307,-1.308 2.422,-2.472 2.995,-3.12c-0.648,0.572 -1.814,1.688 -3.121,2.994S44.818,53.41 44.245,54.058z"
      fill="#D0EAA7"/>
  <path
     d="M48.913,56.753c0.275,-0.82 0.728,-2.368 1.205,-4.153c0.479,-1.785 0.861,-3.352 1.033,-4.199c-0.274,0.82 -0.727,2.368 -1.205,4.153S49.085,55.905 48.913,56.753z"
      fill="#D0EAA7"/>
  <path
     d="M54.304,56.753c-0.172,-0.848 -0.555,-2.414 -1.033,-4.199c-0.478,-1.785 -0.93,-3.333 -1.205,-4.153c0.173,0.848 0.555,2.414 1.033,4.199S54.029,55.933 54.304,56.753z"
      fill="#D0EAA7"/>
  <path
     d="M58.972,54.058c-0.572,-0.647 -1.688,-1.813 -2.994,-3.12s-2.472,-2.422 -3.12,-2.994c0.573,0.648 1.688,1.813 2.994,3.12C57.158,52.37 58.324,53.485 58.972,54.058z"
      fill="#D0EAA7"/>
  <path
     d="M61.667,49.39c-0.82,-0.274 -2.368,-0.728 -4.153,-1.205c-1.785,-0.479 -3.352,-0.86 -4.199,-1.033c0.82,0.274 2.368,0.727 4.153,1.205S60.819,49.217 61.667,49.39z"
      fill="#D0EAA7"/>
  <path
     d="M61.667,43.999c-0.848,0.173 -2.414,0.555 -4.199,1.033s-3.333,0.931 -4.153,1.205c0.848,-0.172 2.414,-0.555 4.199,-1.033C59.299,44.727 60.847,44.273 61.667,43.999z"
      fill="#D0EAA7"/>
  <path
     d="M58.972,39.33c-0.647,0.574 -1.813,1.688 -3.12,2.995c-1.307,1.308 -2.421,2.472 -2.994,3.12c0.648,-0.572 1.813,-1.688 3.12,-2.994S58.399,39.979 58.972,39.33z"
      fill="#D0EAA7"/>
  <path
     d="M54.304,36.636c-0.274,0.82 -0.727,2.368 -1.205,4.153s-0.86,3.352 -1.033,4.199c0.275,-0.82 0.728,-2.368 1.205,-4.153C53.749,39.051 54.132,37.483 54.304,36.636z"
      fill="#D0EAA7"/>
  <path
     d="M51.608,38.09c-0.194,0.799 -0.326,2.291 -0.326,4s0.132,3.2 0.326,3.998c0.195,-0.798 0.326,-2.289 0.326,-3.998S51.804,38.889 51.608,38.09z"
      fill="#3D4435"/>
  <path
     d="M47.307,39.243c0.23,0.789 0.862,2.146 1.718,3.626c0.854,1.48 1.713,2.707 2.281,3.301c-0.23,-0.789 -0.862,-2.146 -1.717,-3.627S47.875,39.838 47.307,39.243z"
      fill="#3D4435"/>
  <path
     d="M44.157,42.393c0.595,0.568 1.82,1.428 3.301,2.281c1.479,0.855 2.837,1.486 3.626,1.718c-0.595,-0.568 -1.82,-1.427 -3.301,-2.282C46.304,43.255 44.946,42.623 44.157,42.393z"
      fill="#3D4435"/>
  <path
     d="M43.005,46.694c0.799,0.194 2.29,0.326 3.999,0.326s3.2,-0.132 3.999,-0.326c-0.799,-0.194 -2.29,-0.326 -3.999,-0.326S43.804,46.5 43.005,46.694z"
      fill="#3D4435"/>
  <path
     d="M44.157,50.996c0.789,-0.23 2.146,-0.862 3.626,-1.717c1.48,-0.854 2.706,-1.714 3.301,-2.282c-0.789,0.231 -2.146,0.862 -3.626,1.718C45.978,49.568 44.752,50.428 44.157,50.996z"
      fill="#3D4435"/>
  <path
     d="M47.307,54.146c0.568,-0.594 1.428,-1.82 2.282,-3.3c0.854,-1.48 1.486,-2.838 1.717,-3.627c-0.568,0.594 -1.427,1.82 -2.281,3.301C48.169,52 47.537,53.356 47.307,54.146z"
      fill="#3D4435"/>
  <path
     d="M51.608,55.299c0.195,-0.799 0.326,-2.29 0.326,-4c0,-1.709 -0.131,-3.2 -0.326,-3.998c-0.194,0.798 -0.326,2.289 -0.326,3.998C51.282,53.009 51.414,54.5 51.608,55.299z"
      fill="#3D4435"/>
  <path
     d="M55.91,54.146c-0.23,-0.789 -0.862,-2.146 -1.717,-3.626s-1.714,-2.707 -2.282,-3.301c0.231,0.789 0.863,2.146 1.718,3.627C54.483,52.325 55.343,53.552 55.91,54.146z"
      fill="#3D4435"/>
  <path
     d="M59.06,50.996c-0.594,-0.568 -1.819,-1.428 -3.3,-2.281c-1.48,-0.855 -2.837,-1.486 -3.626,-1.718c0.594,0.568 1.819,1.428 3.3,2.282S58.271,50.766 59.06,50.996z"
      fill="#3D4435"/>
  <path
     d="M60.213,46.694c-0.799,-0.194 -2.29,-0.326 -3.999,-0.326s-3.201,0.132 -3.999,0.326c0.798,0.194 2.29,0.326 3.999,0.326S59.414,46.889 60.213,46.694z"
      fill="#3D4435"/>
  <path
     d="M59.06,42.393c-0.789,0.23 -2.146,0.862 -3.626,1.717c-1.48,0.855 -2.706,1.714 -3.3,2.282c0.789,-0.231 2.146,-0.862 3.626,-1.718C57.24,43.82 58.466,42.961 59.06,42.393z"
      fill="#3D4435"/>
  <path
     d="M55.91,39.243c-0.567,0.595 -1.427,1.819 -2.281,3.3s-1.486,2.838 -1.718,3.627c0.568,-0.594 1.428,-1.82 2.282,-3.301S55.68,40.032 55.91,39.243z"
      fill="#3D4435"/>
  <path
     d="M51.609,37.3m-0.169,0a0.169,0.169 0,1 1,0.338 0a0.169,0.169 0,1 1,-0.338 0"
      fill="#3D4435"/>
  <path
     d="M46.911,38.558m-0.169,0a0.169,0.169 0,1 1,0.338 0a0.169,0.169 0,1 1,-0.338 0"
      fill="#3D4435"/>
  <path
     d="M43.473,41.997m-0.17,0a0.17,0.17 0,1 1,0.34 0a0.17,0.17 0,1 1,-0.34 0"
      fill="#3D4435"/>
  <path
     d="M42.214,46.694m-0.169,0a0.169,0.169 0,1 1,0.338 0a0.169,0.169 0,1 1,-0.338 0"
      fill="#3D4435"/>
  <path
     d="M43.473,51.392m-0.17,0a0.17,0.17 0,1 1,0.34 0a0.17,0.17 0,1 1,-0.34 0"
      fill="#3D4435"/>
  <path
     d="M46.911,54.831m-0.169,0a0.169,0.169 0,1 1,0.338 0a0.169,0.169 0,1 1,-0.338 0"
      fill="#3D4435"/>
  <path
     d="M51.609,56.089m-0.169,0a0.169,0.169 0,1 1,0.338 0a0.169,0.169 0,1 1,-0.338 0"
      fill="#3D4435"/>
  <path
     d="M56.306,54.831m-0.169,0a0.169,0.169 0,1 1,0.338 0a0.169,0.169 0,1 1,-0.338 0"
      fill="#3D4435"/>
  <path
     d="M59.745,51.392m-0.17,0a0.17,0.17 0,1 1,0.34 0a0.17,0.17 0,1 1,-0.34 0"
      fill="#3D4435"/>
  <path
     d="M61.003,46.694m-0.169,0a0.169,0.169 0,1 1,0.338 0a0.169,0.169 0,1 1,-0.338 0"
      fill="#3D4435"/>
  <path
     d="M59.745,41.997m-0.17,0a0.17,0.17 0,1 1,0.34 0a0.17,0.17 0,1 1,-0.34 0"
      fill="#3D4435"/>
  <path
     d="M56.306,38.558m-0.169,0a0.169,0.169 0,1 1,0.338 0a0.169,0.169 0,1 1,-0.338 0"
      fill="#3D4435"/>
</svg>
