<?xml version="1.0" encoding="utf-8"?>
<svg version="1.1" id="Layer_1" xmlns="http://www.w3.org/2000/svg" xmlns:xlink="http://www.w3.org/1999/xlink"
    width="512"
     height="512"
     viewBox="0 0 512 512" >
  <path
      d="m512,331h-182v-15c0,-74.438 -60.563,-135 -135,-135s-135,60.563 -135,135v15h-60v-15c0,-68.379 26.629,-132.668 74.98,-181.02 48.352,-48.352 112.641,-74.98 181.02,-74.98s132.668,26.629 181.02,74.98c48.352,48.352 74.98,112.641 74.98,181.02zM512,331"
      fill="#ffce2e"/>
  <path
      d="m437.02,134.98c-48.352,-48.352 -112.641,-74.98 -181.02,-74.98s-132.668,26.629 -181.02,74.98c-3.555,3.551 -6.973,7.203 -10.293,10.922l56.875,56.875c21.152,-13.766 46.375,-21.777 73.438,-21.777 61.949,0 114.281,41.949 130.098,98.934l186.656,25.129c-2.684,-64.273 -28.969,-124.316 -74.734,-170.082zM437.02,134.98"
      fill="#f90"/>
  <path
      d="m330,316v15h182v-15c0,-68.379 -26.629,-132.668 -74.98,-181.02 -48.352,-48.352 -112.641,-74.98 -181.02,-74.98v135.59c43.871,22.316 74,67.91 74,120.41zM330,316"
      fill="#ff4f18"/>
  <path
      d="m448.188,135 l-230.254,210.078c-8.426,7.688 -8.73,20.852 -0.664,28.914l56.23,56.23c8.074,8.078 21.266,7.762 28.945,-0.695l209.555,-230.73v-63.797zM448.188,135"
      fill="#b7e4f8"/>
  <path
      d="m273.496,430.223c8.078,8.078 21.27,7.762 28.949,-0.695l209.555,-230.73v-63.797l-266.641,267.086zM273.496,430.223"
      fill="#6fc8f1"/>
  <path
      d="m255.996,451.508c-16.027,0 -31.098,-6.242 -42.43,-17.574 -23.391,-23.395 -23.391,-61.461 0,-84.855 11.332,-11.332 26.402,-17.574 42.43,-17.574 16.023,0 31.094,6.242 42.426,17.574 23.395,23.395 23.395,61.457 0,84.855 -11.332,11.332 -26.402,17.574 -42.426,17.574zM255.996,451.508"
      fill="#388cb3"/>
  <path
      d="m298.422,349.078 l-84.855,84.855c11.332,11.332 26.402,17.574 42.43,17.574 16.023,0 31.094,-6.242 42.426,-17.574 23.391,-23.395 23.391,-61.461 0,-84.855zM298.422,349.078"
      fill="#265d77"/>
</svg>
