<?xml version="1.0" encoding="utf-8"?>
<svg version="1.1" id="Layer_1" xmlns="http://www.w3.org/2000/svg" xmlns:xlink="http://www.w3.org/1999/xlink"
    width="24"
    height="24"
     viewBox="0 0 24 24">
  <path
      fill="#FF000000"
      d="M15,1.7C15,1.315 14.685,1 14.3,1H9.7C9.315,1 9,1.315 9,1.7v0.6C9,2.685 9.315,3 9.7,3h4.6C14.685,3 15,2.685 15,2.3V1.7z"/>
  <path
      fill="#FF000000"
      d="M19.029,7.39l1.421,-1.42c-0.431,-0.51 -0.9,-0.99 -1.41,-1.41l-1.42,1.42C16.07,4.74 14.12,4 12,4c-4.97,0 -9,4.03 -9,9s4.02,9 9,9c4.98,0 9,-4.03 9,-9C21,10.88 20.26,8.93 19.029,7.39zM12,20c-3.87,0 -7,-3.13 -7,-7s3.13,-7 7,-7s7,3.13 7,7S15.87,20 12,20z"/>
  <path
      fill="#FF000000"
      d="M12,7.792v5.209H6.792c0,2.876 2.332,5.207 5.208,5.207s5.208,-2.331 5.208,-5.207C17.208,10.124 14.876,7.792 12,7.792z"/>
</svg>
