<?xml version="1.0" encoding="utf-8"?>
<svg version="1.1" id="Layer_1" xmlns="http://www.w3.org/2000/svg" xmlns:xlink="http://www.w3.org/1999/xlink" height="24"  width="24"

     viewBox="0 0 512 512"
 >
    <path fill="#ffce00" d="M74.953,436.992a255.961,255.961 0,1 0,361.984 -361.984a255.961,255.961 0,1 0,-361.984 361.984z"/>
    <path fill="#ffa300" d="m512,256c0,-7.453 -0.318,-14.833 -0.943,-22.124l-116.283,-116.284 -273.404,280.855 114.14,112.745c6.759,0.535 13.593,0.808 20.49,0.808 141.385,0 256,-114.615 256,-256z"/>
    <path fill="#ff432e" d="M117.373,394.572a195.97,195.97 0,1 0,277.144 -277.144a195.97,195.97 0,1 0,-277.144 277.144z"/>
    <path fill="#ff6c52" d="m117.407,117.407c-0.043,0.043 -0.084,0.087 -0.127,0.13l277.183,277.183c0.043,-0.043 0.087,-0.084 0.13,-0.127 76.543,-76.543 76.543,-200.643 0,-277.186s-200.643,-76.542 -277.186,0z"/>
    <path fill="#e9edf5" d="M158.089,353.853a138.386,138.385 134.851,1 0,195.708 -195.708a138.386,138.385 134.851,1 0,-195.708 195.708z"/>
    <path fill="#fff" d="m158.131,158.131c-0.043,0.043 -0.084,0.087 -0.127,0.13l195.732,195.732c0.043,-0.042 0.087,-0.083 0.13,-0.126 54.051,-54.051 54.052,-141.685 0.001,-195.736s-141.685,-54.051 -195.736,0z"/>
    <path fill="#ff432e" d="M207.344,291.229a59.917,59.917 99.116,1 0,97.09 -70.24a59.917,59.917 99.116,1 0,-97.09 70.24z"/>
    <path fill="#ff6c52" d="m213.62,213.62c-0.043,0.043 -0.083,0.089 -0.126,0.132l84.75,84.75c0.044,-0.043 0.089,-0.082 0.132,-0.126 23.405,-23.405 23.405,-61.351 0,-84.756s-61.351,-23.405 -84.756,0z"/>
    <path fill="#333940" d="m146.753,122.067l122.821,122.821l-24.641,24.641l-122.821,-122.821z"/>
    <path fill="#555a66" d="m269.584,244.937 l-122.839,-122.839 -12.339,12.338 44.082,44.057 78.645,78.896z"/>
    <path fill="#555a66" d="m125.377,76.985 l64.984,64.999 -11.873,36.509 -36.488,11.894 -64.985,-64.999 36.489,-11.894z"/>
    <path fill="#707789" d="m178.488,178.493 l11.873,-36.509 -64.984,-64.999 -11.873,36.509z"/>
</svg>
